<svg xmlns="http://www.w3.org/2000/svg" viewBox="0 0 256 256"><circle fill="#F17743" stroke="#FFF" stroke-miterlimit="10" cx="128.1" cy="127.6" r="127.9"/><path fill="#FFF" d="M209.8 126c-4.1-7.1-9.9-12.8-17.2-17-5.4-3.2-11-5.2-17.3-6V80.5c6.3-2.7 10.2-8.6 10.2-15.6 0-9.5-7.6-17.1-17-17.1-9.5 0-17.2 7.7-17.2 17.1 0 6.9 3.7 12.9 10 15.6V103c-5.1.7-10.3 2.3-15.1 4.7-9.8-7.4-41.9-31.8-60.6-46.1.4-1.6.8-3.3.8-5 0-10.5-8.5-19-18.9-19s-18.9 8.5-18.9 19 8.5 19 19 19c3.6 0 6.9-1 9.7-2.8l4 3 54.4 39.2c-2.9 2.6-5.6 5.6-7.7 9-4.3 6.9-7 14.4-7 22.7v1.7c0 5.8 1.1 11.3 3 16.4 1.7 4.5 4.1 8.6 7.1 12.2L113 195.1c-1.6-.6-3.3-.9-5-.9-3.9 0-7.6 1.5-10.3 4.3-2.8 2.8-4.3 6.4-4.3 10.4 0 3.9 1.5 7.6 4.3 10.4 2.8 2.8 6.4 4.3 10.4 4.3s7.6-1.5 10.4-4.3c2.8-2.8 4.3-6.4 4.3-10.4 0-1.5-.2-3-.7-4.4l18.7-18.7c2.6 1.8 5.3 3.3 8.3 4.5 5.9 2.5 12.3 4.1 19.4 4.1h1.3c7.8 0 15.2-1.8 22.2-5.6 7.3-4 13-9.4 17.4-16.4 4.3-7 6.7-14.6 6.7-23.1v-.4c-.3-8.2-2.2-15.8-6.3-22.9zM187 165.2c-5.1 5.6-10.9 9.1-17.5 9.1h-1.1c-3.8 0-7.4-1-11-2.9-4.1-2.1-7.1-5.1-9.7-8.8-2.6-3.7-4-7.7-4-12v-1.3c0-4.2.8-8.2 2.8-11.9 2.2-4.1 5.1-7.3 9-9.9 3.8-2.5 7.9-3.8 12.5-3.8h.4c4.1 0 8 .8 11.7 2.7 3.8 2 6.8 4.8 9.2 8.4 2.3 3.6 3.7 7.5 4.1 11.8.1.9.1 1.8.1 2.7.1 5.7-2.1 11.1-6.5 15.9z"/></svg>