<svg xmlns="http://www.w3.org/2000/svg" viewBox="0 0 256 256"><circle fill="#00A1E0" stroke="#FFF" stroke-miterlimit="10" cx="128.1" cy="127.6" r="127.9"/><path fill="#FFF" d="M117.9 79.6c6.3-6.5 15-10.6 24.7-10.6 12.9 0 24.1 7.2 30.1 17.8 5.2-2.3 10.9-3.6 17-3.6 23.2 0 42 19 42 42.4s-18.8 42.4-42 42.4c-2.8 0-5.6-.3-8.3-.8-5.3 9.4-15.3 15.7-26.8 15.7-4.8 0-9.4-1.1-13.4-3.1-5.3 12.5-17.8 21.3-32.2 21.3-15.1 0-27.9-9.5-32.9-22.9-2.2.5-4.4.7-6.7.7-18 0-32.5-14.7-32.5-32.9 0-12.2 6.5-22.8 16.3-28.5-2-4.6-3.1-9.7-3.1-15 0-20.9 16.9-37.8 37.8-37.8 12.1 0 23 5.8 30 14.9"/><path fill="#00A1E0" d="M65 135.4c-.1.3 0 .4.1.4.4.3.7.5 1.1.7 2 1.1 3.9 1.4 5.8 1.4 4 0 6.5-2.1 6.5-5.5v-.1c0-3.2-2.8-4.3-5.4-5.1l-.3-.1c-2-.6-3.7-1.2-3.7-2.5v-.1c0-1.1 1-1.9 2.5-1.9 1.7 0 3.8.6 5.1 1.3 0 0 .4.2.5-.1.1-.2.7-2 .8-2.2.1-.2-.1-.4-.2-.4-1.5-.9-3.6-1.5-5.7-1.5h-.4c-3.7 0-6.2 2.2-6.2 5.4v.1c0 3.3 2.8 4.4 5.5 5.2l.4.1c1.9.6 3.6 1.1 3.6 2.5v.1c0 1.2-1.1 2.2-2.8 2.2-.7 0-2.8 0-5.1-1.5-.3-.2-.4-.3-.7-.4-.1-.1-.4-.2-.5.2l-.9 1.8zM123.5 135.4c-.1.3 0 .4.1.4.4.3.7.5 1.1.7 2 1.1 3.9 1.4 5.8 1.4 4 0 6.5-2.1 6.5-5.5v-.1c0-3.2-2.8-4.3-5.4-5.1l-.3-.1c-2-.6-3.7-1.2-3.7-2.5v-.1c0-1.1 1-1.9 2.5-1.9 1.7 0 3.8.6 5.1 1.3 0 0 .4.2.5-.1.1-.2.7-2 .8-2.2.1-.2-.1-.4-.2-.4-1.5-.9-3.6-1.5-5.7-1.5h-.4c-3.7 0-6.2 2.2-6.2 5.4v.1c0 3.3 2.8 4.4 5.5 5.2l.4.1c1.9.6 3.6 1.1 3.6 2.5v.1c0 1.2-1.1 2.2-2.8 2.2-.7 0-2.8 0-5.1-1.5-.3-.2-.4-.3-.7-.4-.1 0-.4-.2-.5.2l-.9 1.8zM163.5 128.7c0 1.9-.4 3.5-1.1 4.5-.7 1.1-1.8 1.6-3.2 1.6-1.5 0-2.5-.5-3.2-1.6-.7-1.1-1.1-2.6-1.1-4.5s.4-3.5 1.1-4.5c.7-1.1 1.7-1.6 3.2-1.6 1.5 0 2.5.5 3.2 1.6.7 1.1 1.1 2.6 1.1 4.5m3.3-3.6c-.3-1.1-.8-2.1-1.5-2.9-.7-.8-1.5-1.5-2.6-1.9-1-.5-2.2-.7-3.6-.7s-2.6.2-3.6.7c-1 .5-1.9 1.1-2.6 1.9-.7.8-1.2 1.8-1.5 2.9-.3 1.1-.5 2.3-.5 3.6s.2 2.5.5 3.6.8 2.1 1.5 2.9c.7.8 1.5 1.5 2.6 1.9 1 .5 2.2.7 3.6.7s2.6-.2 3.6-.7c1-.5 1.9-1.1 2.6-1.9.7-.8 1.2-1.8 1.5-2.9.3-1.1.5-2.3.5-3.6 0-1.3-.2-2.5-.5-3.6M194.2 134.3c-.1-.3-.4-.2-.4-.2-.5.2-1 .4-1.6.4-.6.1-1.2.1-1.8.1-1.6 0-2.9-.5-3.8-1.4-.9-.9-1.4-2.5-1.4-4.6 0-1.9.5-3.3 1.3-4.4.8-1.1 2.1-1.6 3.7-1.6 1.4 0 2.4.2 3.5.5 0 0 .3.1.4-.2.3-.8.5-1.4.8-2.3.1-.3-.1-.4-.2-.4-.4-.2-1.5-.4-2.2-.6-.7-.1-1.6-.2-2.5-.2-1.4 0-2.7.2-3.7.7-1.1.5-2 1.1-2.7 1.9-.7.8-1.3 1.8-1.6 2.9-.4 1.1-.5 2.3-.5 3.6 0 2.8.7 5 2.2 6.6 1.5 1.6 3.7 2.5 6.6 2.5 1.7 0 3.5-.3 4.7-.8 0 0 .2-.1.1-.4l-.9-2.1zM200 126.9c.2-1.1.5-2 .9-2.7.7-1.1 1.7-1.6 3.2-1.6 1.5 0 2.5.6 3.2 1.6.5.7.7 1.6.7 2.7h-8zm11.3-2.4c-.3-1.1-1-2.1-1.4-2.6-.7-.8-1.4-1.3-2.1-1.6-.9-.4-2-.7-3.2-.7-1.4 0-2.7.2-3.7.7-1 .5-1.9 1.2-2.6 2-.7.8-1.2 1.8-1.5 2.9-.3 1.1-.5 2.3-.5 3.6 0 1.3.2 2.5.5 3.6s.9 2.1 1.6 2.9c.7.8 1.7 1.4 2.8 1.9 1.1.4 2.5.7 4.1.7 3.3 0 5-.7 5.7-1.1.1-.1.2-.2.1-.5l-.7-2.1c-.1-.3-.4-.2-.4-.2-.8.3-2 .8-4.6.8-1.8 0-3.1-.5-3.9-1.3-.8-.8-1.2-2-1.3-3.8h11.3s.3 0 .3-.3c-.2-.2.2-2.4-.5-4.9zM109.6 126.9c.2-1.1.5-2 .9-2.7.7-1.1 1.7-1.6 3.2-1.6 1.5 0 2.5.6 3.2 1.6.5.7.7 1.6.7 2.7h-8zm11.2-2.4c-.3-1.1-1-2.1-1.4-2.6-.7-.8-1.4-1.3-2.1-1.6-.9-.4-2-.7-3.2-.7-1.4 0-2.7.2-3.7.7-1 .5-1.9 1.2-2.6 2-.7.8-1.2 1.8-1.5 2.9-.3 1.1-.5 2.3-.5 3.6 0 1.3.2 2.5.5 3.6s.9 2.1 1.6 2.9c.7.8 1.7 1.4 2.8 1.9 1.1.4 2.5.7 4.1.7 3.3 0 5-.7 5.7-1.1.1-.1.2-.2.1-.5l-.7-2.1c-.1-.3-.4-.2-.4-.2-.8.3-2 .8-4.6.8-1.7 0-3-.5-3.9-1.3-.8-.8-1.2-2-1.3-3.8H121s.3 0 .3-.3c-.1-.2.2-2.4-.5-4.9zM85.2 134.2c-.4-.4-.5-.4-.7-.7-.2-.3-.3-.8-.3-1.5 0-1 .3-1.7 1-2.2 0 0 1-.8 3.3-.8 1.6 0 3.1.3 3.1.3v5.1s-1.4.3-3.1.4c-2.3.2-3.3-.6-3.3-.6m4.5-7.9c-.5 0-1.1-.1-1.8-.1-1 0-1.9.1-2.8.4-.9.2-1.7.6-2.4 1.1-.7.5-1.2 1.1-1.6 1.9-.4.7-.6 1.6-.6 2.6s.2 1.9.5 2.6c.3.7.8 1.3 1.5 1.8.6.5 1.4.8 2.3 1 .9.2 1.9.3 3 .3 1.2 0 2.3-.1 3.4-.3 1.1-.2 2.5-.5 2.8-.5l.8-.2c.3-.1.3-.4.3-.4v-10.3c0-2.3-.6-3.9-1.8-5-1.2-1-2.9-1.6-5.2-1.6-.8 0-2.2.1-3 .3 0 0-2.5.5-3.5 1.3 0 0-.2.1-.1.4l.8 2.1c.1.3.4.2.4.2s.1 0 .2-.1c2.2-1.2 4.9-1.1 4.9-1.1 1.2 0 2.2.2 2.8.7.6.5.9 1.2.9 2.7v.5c-.9-.2-1.8-.3-1.8-.3M180.7 120.5c.1-.3-.1-.4-.2-.4-.2-.1-1.2-.3-1.9-.3-1.4-.1-2.2.2-2.9.5-.7.3-1.5.8-1.9 1.4v-1.4c0-.2-.1-.3-.3-.3h-2.9c-.2 0-.3.2-.3.3v16.8c0 .2.2.3.3.3h3c.2 0 .3-.2.3-.3v-8.4c0-1.1.1-2.3.4-3 .2-.7.6-1.3 1-1.7.4-.4.9-.7 1.4-.8.5-.2 1.1-.2 1.5-.2.6 0 1.2.2 1.2.2.2 0 .3-.1.4-.3.3-.5.8-2.1.9-2.4"/><path fill="#00A1E0" d="M152.9 112.7c-.4-.1-.7-.2-1.1-.3-.4-.1-.9-.1-1.5-.1-2 0-3.7.6-4.8 1.7-1.1 1.1-1.9 2.9-2.3 5.1l-.1.8h-2.6s-.3 0-.4.3l-.4 2.4c0 .2.1.4.4.4h2.5l-2.5 14.1c-.2 1.1-.4 2.1-.7 2.8-.2.7-.5 1.2-.8 1.6-.3.4-.6.6-1 .8-.4.1-.8.2-1.3.2-.3 0-.6 0-.9-.1-.3-.1-.4-.1-.6-.2 0 0-.3-.1-.4.2-.1.2-.8 2.1-.8 2.3-.1.2 0 .4.2.5.3.1.6.2 1 .3.6.1 1.2.2 1.7.2 1 0 2-.1 2.8-.4.8-.3 1.5-.8 2.1-1.5.7-.7 1.1-1.5 1.5-2.5.4-1 .7-2.3 1-3.8l2.5-14.4h3.7s.3 0 .4-.3l.4-2.3c0-.2-.1-.4-.4-.4h-3.6c0-.1.2-1.4.6-2.5.2-.5.5-.9.8-1.2.3-.3.6-.5.9-.6.4-.1.8-.2 1.2-.2.3 0 .7 0 .9.1.3.1.5.1.6.1.4.1.4 0 .5-.2l.9-2.4c-.1-.4-.3-.5-.4-.5M102.4 137.1c0 .2-.1.3-.3.3h-3c-.2 0-.3-.2-.3-.3V113c0-.2.1-.3.3-.3h3c.2 0 .3.2.3.3v24.1z"/></svg>