<svg xmlns="http://www.w3.org/2000/svg" viewBox="0 0 256 256"><circle fill="#00A94C" stroke="#FFF" stroke-miterlimit="10" cx="128.1" cy="127.6" r="127.9"/><path fill="#FFF" d="M148.3 56.5H85.9c-5.9 0-10.6 4.8-10.6 10.6v121.1c0 5.9 4.8 10.6 10.6 10.6h84.4c5.9 0 10.6-4.8 10.6-10.6V89.1l-32.6-32.6z"/><path fill="#00CE8C" d="M158.9 89.1h22l-32.6-32.6v22c0 5.8 4.8 10.6 10.6 10.6z"/><path fill="#00A94C" d="M92.9 123.9v43.3h70.4v-43.3H92.9zm67 14h-37.7v-10.6h37.7v10.6zm-37.8 3.4h37.7v8.8h-37.7v-8.8zm-3.4 8.8H96.3v-8.8h22.4v8.8zm0-22.8v10.6H96.3v-10.6h22.4zm-22.4 26.3h22.4v10.1H96.3v-10.1zm25.8 10.1v-10.1h37.7v10.1h-37.7z"/></svg>