<svg xmlns="http://www.w3.org/2000/svg" xmlns:xlink="http://www.w3.org/1999/xlink" viewBox="0 0 256 256"><circle fill="#2D94D1" stroke="#000" stroke-miterlimit="10" cx="128.1" cy="128.6" r="127.9"/><defs><path id="a" d="M141.1 110.6c-13.5-4.8-20.9-8.5-20.9-14.3 0-5 4.3-7.8 11.8-7.8 13.9 0 28.1 5.1 37.9 9.7l5.6-32.7c-7.8-3.5-23.7-9.4-45.7-9.4-15.5 0-28.5 3.9-37.8 11.1-9.6 7.6-14.6 18.6-14.6 31.9 0 24.1 15.4 34.3 40.4 43 16.1 5.5 21.5 9.4 21.5 15.4 0 5.8-5.2 9.2-14.6 9.2-11.7 0-30.9-5.5-43.5-12.6l-5.6 33.1c10.7 5.8 30.7 11.9 51.5 11.9 16.5 0 30.2-3.7 39.4-10.8 10.4-7.8 15.7-19.3 15.7-34.2 0-24.5-15.8-34.8-41.1-43.5z"/></defs><use xlink:href="#a" overflow="visible" fill="#FFF"/><clipPath id="b"><use xlink:href="#a" overflow="visible"/></clipPath><path clip-path="url(#b)" fill="#FFF" d="M-5-.3h267.6v255.8H-5z"/></svg>