<svg version="1.1" id="Layer_1" xmlns="http://www.w3.org/2000/svg" x="0" y="0" viewBox="0 0 100 100" xml:space="preserve"><style>.st0{fill:#f36e21}</style><path class="st0" d="M48.5 30.2h14.6v7.3H48.5zM33.9 44.8h43.8v24.3H33.9z"/><path class="st0" d="M0 0v100h100V0H0zm88.7 30.2H70.4v7.3h11c2 0 3.7 1.6 3.7 3.7v31.7c0 2-1.6 3.7-3.7 3.7H30.3c-2 0-3.7-1.6-3.7-3.7V41.2c0-2 1.6-3.7 3.7-3.7h11v-7.3H19.4V82c0 2-1.6 3.7-3.7 3.7S12 84 12 82V19.3c0-2 1.6-3.7 3.7-3.7s3.7 1.6 3.7 3.7V23h69.4c2 0 3.7 1.6 3.7 3.7-.2 1.9-1.8 3.5-3.8 3.5z"/></svg>