<svg xmlns="http://www.w3.org/2000/svg" viewBox="0 0 24 24"><path d="M12 0C5.4 0 0 5.4 0 12s5.4 12 12 12 12-5.4 12-12S18.6 0 12 0zm2.5 18.6c-.6.2-1.1.4-1.5.6-.4.1-.8.2-1.3.2-.7 0-1.3-.2-1.7-.5-.4-.4-.6-.8-.6-1.4v-.7c0-.2.1-.5.1-.8l.8-2.7c.1-.3.1-.5.2-.7 0-.2.1-.4.1-.6 0-.3-.1-.6-.2-.7-.1-.1-.4-.2-.8-.2-.2 0-.4 0-.6.1-.2.1-.4.1-.5.2l.2-.8c.5-.2 1-.4 1.5-.5.5-.1.9-.2 1.3-.2.7 0 1.3.2 1.7.5.4.4.6.8.6 1.4v.6c0 .3-.1.6-.2.8l-.8 2.7c-.1.2-.1.5-.2.7 0 .3-.1.5-.1.6 0 .4.1.6.2.7.2.1.4.2.8.2.2 0 .4 0 .6-.1.2-.1.4-.1.5-.2l-.1.8zm-.1-11c-.4.3-.8.4-1.3.4s-.9-.2-1.3-.5-.5-.7-.5-1.2.2-.9.5-1.2c.4-.3.8-.5 1.3-.5s.9.2 1.3.5.5.7.5 1.2-.2.9-.5 1.3z" fill-rule="evenodd" clip-rule="evenodd"/></svg>