<svg xmlns="http://www.w3.org/2000/svg" width="90" height="90"><g fill="none" fill-rule="evenodd" transform="translate(.498 .293)"><ellipse cx="44.458" cy="44.473" fill="#4D91FC" rx="44.458" ry="44.473"/><path d="M69.982 47.268c1.257-1.44 1.886-3.143 1.886-5.11 0-1.783-.653-3.326-1.953-4.63-1.303-1.303-2.846-1.954-4.63-1.954h-9.498c.092-.32.183-.595.274-.823.09-.229.218-.48.377-.755.16-.274.275-.48.343-.617.411-.777.726-1.418.944-1.92.217-.504.433-1.19.65-2.058a10.69 10.69 0 0 0 .326-2.606c0-.549-.006-.995-.017-1.337-.01-.343-.07-.858-.171-1.544-.104-.685-.241-1.257-.412-1.714-.172-.457-.446-.972-.823-1.543a4.808 4.808 0 0 0-1.372-1.39c-.538-.354-1.223-.65-2.058-.89-.835-.24-1.777-.36-2.83-.36-.594 0-1.108.217-1.543.651-.457.457-.846 1.029-1.166 1.714-.32.686-.543 1.28-.67 1.784-.125.503-.268 1.2-.427 2.091-.207.961-.36 1.652-.464 2.075-.103.423-.303.977-.6 1.663-.298.686-.652 1.235-1.063 1.646-.754.755-1.909 2.126-3.464 4.115a62.948 62.948 0 0 1-3.463 4.15c-1.19 1.303-2.058 1.977-2.607 2.023a2.249 2.249 0 0 0-1.474.703 2.07 2.07 0 0 0-.617 1.492v21.98c0 .595.217 1.104.651 1.527a2.27 2.27 0 0 0 1.543.669c.8.023 2.606.525 5.419 1.51 1.76.593 3.137 1.045 4.131 1.353.995.308 2.384.64 4.166.995 1.784.354 3.43.532 4.938.532h4.424c3.041-.046 5.292-.938 6.756-2.675 1.325-1.578 1.885-3.647 1.68-6.207.891-.846 1.509-1.92 1.851-3.223.389-1.394.389-2.732 0-4.012 1.052-1.394 1.544-2.96 1.474-4.698.003-.732-.168-1.6-.511-2.607zm-40.911-7.304h-9.876c-.595 0-1.11.217-1.543.651-.435.435-.652.95-.652 1.544v21.947c0 .594.217 1.109.652 1.544.434.433.949.65 1.543.65h9.876c.594 0 1.109-.217 1.543-.65.434-.435.652-.95.652-1.544V42.16c0-.595-.218-1.11-.652-1.544a2.11 2.11 0 0 0-1.543-.651z" fill="#FFF" fill-rule="nonzero"/></g></svg>