<svg xmlns="http://www.w3.org/2000/svg" width="60" height="61"><g fill="none" transform="translate(.039 .91)"><circle cx="29.038" cy="29.038" r="29.038" fill="#B2BBD5"/><path fill="#FFF" d="M40.687 23.909h-2.096v-2.795c0-5.393-4.387-9.78-9.78-9.78s-9.78 4.387-9.78 9.78v2.795h-2.096a.698.698 0 0 0-.7.698v17.465a2.797 2.797 0 0 0 2.795 2.795h19.561a2.797 2.797 0 0 0 2.795-2.795V24.607a.698.698 0 0 0-.699-.698zm-9.784 14.593a.7.7 0 0 1-.695.776h-2.794a.699.699 0 0 1-.695-.776l.44-3.963a2.764 2.764 0 0 1-1.143-2.247 2.797 2.797 0 0 1 2.795-2.795 2.797 2.797 0 0 1 2.794 2.795c0 .903-.427 1.727-1.143 2.247l.44 3.963zM34.4 23.91H23.222v-2.795a5.595 5.595 0 0 1 5.589-5.589 5.595 5.595 0 0 1 5.589 5.59v2.794z"/></g></svg>