<svg xmlns="http://www.w3.org/2000/svg" viewBox="0 0 256 256"><linearGradient id="a" gradientUnits="userSpaceOnUse" x1="0" y1="256" x2="256" y2="0" gradientTransform="matrix(1 0 0 -1 0 256)"><stop offset="0" stop-color="#1200ff"/><stop offset="0" stop-color="#0045e9"/><stop offset="0" stop-color="#005de9"/><stop offset="0" stop-color="#00adff"/><stop offset="0" stop-color="#2799ff"/><stop offset="0" stop-color="#3a83fd"/><stop offset="0" stop-color="#3f8cff"/><stop offset="0" stop-color="#00dc2d"/><stop offset="0" stop-color="#1966a1"/><stop offset=".528" stop-color="#1966a1"/><stop offset=".528" stop-color="#00e915"/><stop offset="1" stop-color="#2eae23"/></linearGradient><path opacity=".8" fill="url(#a)" d="M0 0h256v256H0V0"/><g fill="#FFF"><path d="M218.2 201.7c-3.4 0-6.6 1-9.2 2.8l-55.4-55.4c4.8-5.7 7.6-13.1 7.6-21.1s-2.9-15.4-7.6-21.1l38.2-38.2c4.5 3.6 10.2 5.7 16.4 5.7 14.6 0 26.5-11.9 26.5-26.5s-11.9-26.5-26.5-26.5-26.5 11.9-26.5 26.5c0 6.2 2.1 11.9 5.7 16.4l-38.2 38.2c-5.7-4.8-13.1-7.6-21.1-7.6s-15.4 2.9-21.1 7.6L81.5 77.1c1.8-2.6 2.8-5.8 2.8-9.2 0-9.1-7.4-16.5-16.5-16.5s-16.5 7.4-16.5 16.5 7.4 16.5 16.5 16.5c3.4 0 6.6-1 9.2-2.8l25.3 25.3c-4.8 5.7-7.6 13.1-7.6 21.1 0 3.9.7 7.6 1.9 11l-39.1 18c-3.6-5.3-9.6-8.8-16.5-8.8-10.9 0-19.8 8.9-19.8 19.8s8.9 19.8 19.8 19.8 20-8.8 20-19.7c0-1.9-.3-3.7-.7-5.4l39.1-18c5.7 9.8 16.4 16.5 28.5 16.5l2.2 24.5c-6.9 2-11.9 8.3-11.9 15.8 0 9.1 7.4 16.5 16.5 16.5s16.5-7.4 16.5-16.5c0-8.5-6.5-15.6-14.8-16.4l-2.2-24.5c5.6-1.1 10.8-3.5 15-7l55.4 55.4c-1.8 2.6-2.8 5.8-2.8 9.2 0 9.1 7.4 16.5 16.5 16.5s16.5-7.4 16.5-16.5c-.1-9.1-7.5-16.5-16.6-16.5zm-177-20.1c-7.5 0-13.6-6.1-13.6-13.6s6.1-13.6 13.6-13.6c5.4 0 10 3.1 12.2 7.7 0 .1.1.1.1.2 0 0 0 .1.1.1.8 1.7 1.2 3.6 1.2 5.6-.1 7.6-6.2 13.6-13.6 13.6zm167-154c11.2 0 20.2 9.1 20.2 20.2S219.3 68 208.2 68C197 68 188 58.9 188 47.8s9-20.2 20.2-20.2zM57.7 67.9c0-5.6 4.6-10.2 10.2-10.2s10.2 4.6 10.2 10.2-4.6 10.2-10.2 10.2-10.2-4.6-10.2-10.2zm43.4 60.1c0-14.8 12.1-26.9 26.9-26.9s26.9 12.1 26.9 26.9-12.1 26.9-26.9 26.9-26.9-12.1-26.9-26.9zm43.8 73.5c0 5.6-4.6 10.2-10.2 10.2s-10.2-4.6-10.2-10.2 4.6-10.2 10.2-10.2 10.2 4.5 10.2 10.2zm73.3 26.9c-5.6 0-10.2-4.6-10.2-10.2s4.6-10.2 10.2-10.2 10.2 4.6 10.2 10.2-4.6 10.2-10.2 10.2z"/><path d="M141.6 128c0 1.7 1.4 3.1 3.1 3.1s3.1-1.4 3.1-3.1c0-10.9-8.9-19.8-19.8-19.8-1.7 0-3.1 1.4-3.1 3.1s1.4 3.1 3.1 3.1c7.5 0 13.6 6.1 13.6 13.6zM208.2 41c3.8 0 6.9 3.1 6.9 6.9 0 1.7 1.4 3.1 3.1 3.1 1.7 0 3.1-1.4 3.1-3.1 0-7.3-5.9-13.2-13.2-13.2-1.7 0-3.1 1.4-3.1 3.1 0 1.8 1.4 3.2 3.2 3.2zM41.2 161.6c-1.7 0-3.1 1.4-3.1 3.1 0 1.7 1.4 3.1 3.1 3.1.1 0 .2.1.2.2 0 1.7 1.4 3.1 3.1 3.1 1.7 0 3.1-1.4 3.1-3.1 0-3.5-2.9-6.4-6.4-6.4z"/></g></svg>