<svg data-name="Layer 1" xmlns="http://www.w3.org/2000/svg" viewBox="0 0 122.88 122.88"><path d="M0 0h122.88v122.88H0V0" fill-rule="evenodd" fill="#ed0000"/><path d="M39.26 55.43h53.29v3.1H39.26v-3.1zm0 21.25h24.61v2.52H39.26v-2.52zm0 6.27h24.61v2.52H39.26v-2.53zm0-18.8h24.61v2.52H39.26v-2.52zm0 6.27h24.61v2.52H39.26v-2.52zm29.26-6.27h24v21.31h-24V64.15zm-20.54-18.6h37.2v6.78h-37.2v-6.79zM24.1 31.34h66.79v4H28.04v48.1a2.5 2.5 0 0 0 5 0V40.27h65.81v51.26H30.63a6.58 6.58 0 0 1-6.56-6.56V31.34z" fill="#fff" fill-rule="evenodd"/></svg>