<svg data-name="Layer 1" xmlns="http://www.w3.org/2000/svg" viewBox="0 0 122.88 122.88"><path d="M0 0h122.87v122.88H0V0" fill-rule="evenodd" fill="#b93936"/><path d="M43.22 42.41a24.45 24.45 0 0 0-2.43 9.16 11.15 11.15 0 0 0 1.2 5.91 26.91 26.91 0 0 0 2.14 3 2.86 2.86 0 0 1 .35 2.72 8.46 8.46 0 0 1-2.08 3.66c-.85.67-1.67.26-3.07-.88a16.56 16.56 0 0 1-4.71-5.85 25.47 25.47 0 0 1-2-10.24 22.83 22.83 0 0 1 2.28-10.33c5-10.18 15.68-15.73 26.72-16.1a34.26 34.26 0 0 1 11 1.35 26.34 26.34 0 0 1 9.83 5.5 22.7 22.7 0 0 1 6.29 9.22c3.61 10.15.08 26.52-8.28 33.57a18.61 18.61 0 0 1-10.13 4.21 19.84 19.84 0 0 1-9.16-1.23 7.49 7.49 0 0 1-4.11-3.66c-.71 2.7-1.39 5.23-2 7.29-1.7 6.2-2.34 8-3.72 10.59s-3.48 5.91-4.68 7.67-1.49 1.93-1.79 0-.59-5.88-.67-8.81a35.69 35.69 0 0 1 1-9.51c.94-4.71 2.69-12.26 3.75-16.42s1.4-4.92 1.35-5.56a15.18 15.18 0 0 0-.85-2.17 12.69 12.69 0 0 1-.47-3.86c.09-4.53 2.57-10.7 7.62-11.44a5.68 5.68 0 0 1 4.74 1.33 7.29 7.29 0 0 1 1.85 5c.06 1.92-.42 3.84-2 10.09-.48 1.86-1.06 4.11-1.69 6.52a11.66 11.66 0 0 0 .37 1.79 6 6 0 0 0 4 4.32 9.73 9.73 0 0 0 6.64-.61c10.88-4.74 12.74-28.61 2.13-35.5-2.77-1.8-6.42-2.74-11-2.53a21.72 21.72 0 0 0-18.36 11.8" fill="#fff" fill-rule="evenodd"/></svg>