<svg xmlns="http://www.w3.org/2000/svg" viewBox="0 0 256 256"><path fill="#09C" d="M0 0h256v256H0V0"/><path fill="#FFF" d="M385.9-102.1c6.1 0 11.5-5.4 11.5-11.5s-5.4-11.5-11.5-11.5-11.5 5.4-11.5 11.5c0 6.2 5.4 11.5 11.5 11.5zm-53.6 0c6.1 0 11.5-5.4 11.5-11.5s-5.4-11.5-11.5-11.5-11.5 5.4-11.5 11.5c0 6.2 5.3 11.5 11.5 11.5zm26.8 53.7c19.9 0 36.8-13 43.7-30.7h-87.4c6.9 17.6 23.8 30.7 43.7 30.7zm0-122.6c-42.1 0-76.6 34.5-76.6 76.6s34.5 76.6 76.6 76.6 76.6-34.5 76.6-76.6-34.5-76.6-76.6-76.6zm0 137.9c-33.7 0-61.3-27.6-61.3-61.3s27.6-61.3 61.3-61.3 61.3 27.6 61.3 61.3-27.6 61.3-61.3 61.3z"/><g fill="#FFF"><path d="M-160.5-212.4c6.1 0 11.1-4.9 11.1-11.1 0-6.1-4.9-11.1-11.1-11.1s-11.1 4.9-11.1 11.1c0 6.1 5 11.1 11.1 11.1zM-108.9-212.4c6.1 0 11.1-4.9 11.1-11.1 0-6.1-4.9-11.1-11.1-11.1s-11.1 4.9-11.1 11.1c0 6.1 5 11.1 11.1 11.1zM-134.7-175.6c-10.9 0-20.3-6-25.4-14.7h-12.3c5.9 15.1 20.6 25.8 37.7 25.8s31.8-10.7 37.7-25.8h-12.3c-5.1 8.8-14.5 14.7-25.4 14.7z"/><path d="M-134.8-278.8c-40.7 0-73.6 33-73.6 73.7s33 73.7 73.6 73.7c40.8 0 73.8-33 73.8-73.7s-33-73.7-73.8-73.7zm.1 132.7c-32.6 0-59-26.4-59-59s26.4-59 59-59 59 26.4 59 59-26.4 59-59 59z"/></g><path fill="#FFF" d="M101.6-185.5c0-6.1 4.9-11 11-11s11 4.9 11 11c0 1.7-1.4 3.2-3.2 3.2s-3.2-1.4-3.2-3.2c0-2.6-2.1-4.7-4.7-4.7s-4.7 2.1-4.7 4.7c0 1.7-1.4 3.2-3.2 3.2s-3-1.5-3-3.2zm-56.1-.3c0-6.1 4.9-11 11-11s11 4.9 11 11c0 1.7-1.4 3.2-3.2 3.2-1.7 0-3.2-1.4-3.2-3.2 0-2.6-2.1-4.7-4.7-4.7s-4.7 2.1-4.7 4.7c0 1.7-1.4 3.2-3.2 3.2-1.5-.1-3-1.5-3-3.2z"/><g fill="#FFF"><path d="M83.3-141.5c-10.9 0-20.3-6-25.4-14.7H45.5c5.9 15.1 20.6 25.8 37.7 25.8s31.8-10.7 37.7-25.8h-12.3c-5 8.7-14.4 14.7-25.3 14.7z"/><path d="M83.2-244.7c-40.7 0-73.6 33-73.6 73.7s33 73.7 73.6 73.7c40.8 0 73.8-33 73.8-73.7s-33-73.7-73.8-73.7zm.1 132.6c-32.6 0-59-26.4-59-59s26.4-59 59-59 59 26.4 59 59-26.4 59-59 59z"/></g><path fill="#FFF" d="M-232.7 191.4c39.9 0 72.2-32.3 72.2-72.2S-192.8 47-232.7 47s-72.2 32.3-72.2 72.2 32.4 72.2 72.2 72.2zm0-130.9c32.4 0 58.6 26.3 58.6 58.6s-26.3 58.6-58.6 58.6-58.6-26.3-58.6-58.6 26.2-58.6 58.6-58.6zm0 70.9c16.3 0 31.9-4.3 45.1-12-2.1 25.2-21.6 44.9-45.1 44.9s-43.1-19.7-45.1-44.9c13.2 7.7 28.8 12 45.1 12zm-36.1-34.8c0 7.5 4 13.5 9 13.5s9-6.1 9-13.5c0-7.5-4-13.5-9-13.5-4.9 0-9 6.1-9 13.5zm54.2 0c0 7.5 4 13.5 9 13.5s9-6.1 9-13.5c0-7.5-4-13.5-9-13.5s-9 6.1-9 13.5zM160.6 98.7l3 7.2 7.7.7c.5 0 .8.7.3 1.1l-5.9 5.1 1.8 7.6c.1.5-.4.9-.9.7l-6.7-4-6.7 4c-.5.3-1-.1-.9-.7l1.8-7.6-5.9-5.1c-.4-.4-.2-1 .3-1.1l7.7-.7 3-7.2c.5-.5 1.2-.5 1.4 0z"/><path fill="#FFF" d="M128 174c19.9 0 36.8-13 43.7-30.7H84.3c6.9 17.6 23.8 30.7 43.7 30.7zm0-122.6c-42.1 0-76.6 34.5-76.6 76.6s34.5 76.6 76.6 76.6 76.6-34.5 76.6-76.6-34.5-76.6-76.6-76.6zm0 137.9c-33.7 0-61.3-27.6-61.3-61.3S94.3 66.7 128 66.7s61.3 27.6 61.3 61.3-27.6 61.3-61.3 61.3z"/><path fill="#FFF" d="M98.1 98.7l3 7.2 7.7.7c.5 0 .8.7.3 1.1l-5.9 5.1 1.8 7.6c.1.5-.4.9-.9.7l-6.7-4-6.7 4c-.5.3-1-.1-.9-.7l1.8-7.6-5.9-5.1c-.4-.4-.2-1 .3-1.1l7.7-.7 3-7.2c.5-.5 1.2-.5 1.4 0z"/></svg>