<svg id="Layer_1" data-name="Layer 1" xmlns="http://www.w3.org/2000/svg" viewBox="0 0 120 120"><defs><style>.cls-1{fill:#fff}.cls-1,.cls-7{stroke:#252e4a}.cls-1,.cls-4,.cls-7{stroke-linecap:round;stroke-linejoin:round;stroke-width:3px}.cls-7{fill:#579bfc}.cls-4{fill:none;stroke:#fff}</style></defs><rect class="cls-1" x="10" y="10" width="100" height="79" rx="4.11" ry="4.11"/><rect x="16" y="16.32" width="88" height="55.62" rx="2.05" ry="2.05" stroke-miterlimit="10" fill="#579bfc" stroke-width="3" stroke="#252e4a"/><circle cx="60" cy="80" r="4" fill="#252e4a"/><path class="cls-4" d="M82 65.58L96.58 51M89.47 67L98 58.47"/><path stroke-miterlimit="10" stroke-width="3" stroke="#252e4a" fill="#fff" d="M45 89h30v16H45z"/><path class="cls-1" d="M40.75 105h38.5a4.75 4.75 0 0 1 4.75 4.75v.25H36v-.25a4.75 4.75 0 0 1 4.75-4.75z"/><rect class="cls-1" x="16" y="47" width="36.54" height="63" rx="2.71" ry="2.71"/><path d="M19.78 50.15a.63.63 0 0 0-.63.63v55.44a.63.63 0 0 0 .63.63h29a.63.63 0 0 0 .63-.63V50.78a.63.63 0 0 0-.63-.63h-5a.63.63 0 0 0-.63.63 2.84 2.84 0 0 1-2.84 2.84h-12a2.84 2.84 0 0 1-2.84-2.84.63.63 0 0 0-.63-.63z" fill="#579bfc"/><path class="cls-7" d="M30.49 50.78h5.67M38.68 50.78"/><path class="cls-4" d="M34.27 102.06L44.6 91.73M39.56 103.07l6.05-6.05"/></svg>