<svg id="Layer_1" data-name="Layer 1" xmlns="http://www.w3.org/2000/svg" viewBox="0 0 120 120"><defs><style>.cls-1{fill:#2fcf5f}.cls-2{fill:#579bfc}.cls-3{fill:#e6e8f0}.cls-5{fill:none;stroke:#252e4a;stroke-linecap:round;stroke-linejoin:round;stroke-width:3px}</style></defs><path class="cls-1" d="M104.6 84.26a4.84 4.84 0 0 1 .86 2.74 5.14 5.14 0 0 1-5.28 5 5.26 5.26 0 0 1-5-3.49 25.33 25.33 0 0 0 9.42-4.25z"/><path class="cls-1" d="M100.18 82a5.36 5.36 0 0 1 4.42 2.26 25.33 25.33 0 0 1-9.46 4.25 4.78 4.78 0 0 1-.25-1.51 5.15 5.15 0 0 1 5.29-5z"/><path class="cls-2" d="M103 32a4.67 4.67 0 0 1-.59 2.29 30.66 30.66 0 0 0-9.86-3.35A5.22 5.22 0 0 1 97.71 27a5.15 5.15 0 0 1 5.29 5z"/><path class="cls-2" d="M102.41 34.29a5.32 5.32 0 0 1-4.7 2.71 5.14 5.14 0 0 1-5.28-5 4.66 4.66 0 0 1 .12-1.06 30.66 30.66 0 0 1 9.86 3.35z"/><path class="cls-1" d="M74.8 13a5.15 5.15 0 0 1 5.29 5 5 5 0 0 1-2.7 4.36A32.69 32.69 0 0 0 71 14.52 5.44 5.44 0 0 1 74.8 13z"/><path class="cls-2" d="M77.26 97.86a4.94 4.94 0 0 1 2.31 4.14 5.14 5.14 0 0 1-5.28 5 5.41 5.41 0 0 1-3.55-1.3 32 32 0 0 0 6.52-7.84z"/><path class="cls-1" d="M77.39 22.36a5.49 5.49 0 0 1-2.59.64 5.14 5.14 0 0 1-5.28-5A4.89 4.89 0 0 1 71 14.52a32.69 32.69 0 0 1 6.39 7.84z"/><path class="cls-2" d="M74.29 97a5.5 5.5 0 0 1 3 .86 32 32 0 0 1-6.52 7.84A4.84 4.84 0 0 1 69 102a5.15 5.15 0 0 1 5.29-5z"/><path class="cls-3" d="M74.35 64v7.65c0 2.12-6.42 3.83-14.35 3.83s-14.35-1.71-14.35-3.83V64c.38 2 6.65 3.62 14.33 3.62S74 66.05 74.33 64z"/><path class="cls-3" d="M74.35 56.17v7.66a1.36 1.36 0 0 1 0 .2c-.38 2-6.65 3.62-14.33 3.62s-14-1.6-14.33-3.62a1.36 1.36 0 0 1 0-.2v-7.66c.38 2 6.65 3.63 14.33 3.63s14-1.6 14.33-3.63z"/><path class="cls-3" d="M74.35 48.31V56a1.36 1.36 0 0 1 0 .2c-.38 2-6.65 3.63-14.33 3.63s-14-1.6-14.33-3.63a1.36 1.36 0 0 1 0-.2v-7.69c0 2.11 6.42 3.82 14.35 3.82s14.31-1.71 14.31-3.82z"/><path d="M60 44.48c7.93 0 14.35 1.71 14.35 3.83S67.93 52.13 60 52.13s-14.35-1.71-14.35-3.82 6.42-3.83 14.35-3.83z" fill="#b2bbd5"/><path class="cls-2" d="M27.45 30.94a4.66 4.66 0 0 1 .12 1.06 5.14 5.14 0 0 1-5.28 5 5.32 5.32 0 0 1-4.7-2.71 30.66 30.66 0 0 1 9.86-3.35z"/><path class="cls-2" d="M22.29 27a5.22 5.22 0 0 1 5.16 3.94 30.66 30.66 0 0 0-9.86 3.35A4.67 4.67 0 0 1 17 32a5.15 5.15 0 0 1 5.29-5z"/><path class="cls-1" d="M23 85a4.77 4.77 0 0 1-.85 2.72 20.25 20.25 0 0 1-8.88-5.43A5.39 5.39 0 0 1 17.71 80 5.14 5.14 0 0 1 23 85z"/><path class="cls-1" d="M22.14 87.72A5.35 5.35 0 0 1 17.71 90a5.15 5.15 0 0 1-5.29-5 4.8 4.8 0 0 1 .84-2.71 20.25 20.25 0 0 0 8.88 5.43z"/><path class="cls-5" d="M74.35 64v7.65c0 2.12-6.42 3.83-14.35 3.83s-14.35-1.71-14.35-3.83V64"/><path class="cls-5" d="M74.35 56.17v7.66a1.36 1.36 0 0 1 0 .2c-.38 2-6.65 3.62-14.33 3.62s-14-1.6-14.33-3.62a1.36 1.36 0 0 1 0-.2v-7.66"/><path class="cls-5" d="M74.35 48.31V56a1.36 1.36 0 0 1 0 .2c-.38 2-6.65 3.63-14.33 3.63s-14-1.6-14.33-3.63a1.36 1.36 0 0 1 0-.2v-7.69"/><path class="cls-5" d="M74.35 48.31c0 2.11-6.42 3.82-14.35 3.82s-14.35-1.71-14.35-3.82 6.42-3.83 14.35-3.83 14.35 1.71 14.35 3.83zM77.39 22.36a50.58 50.58 0 0 1 3.83 7.84A72.28 72.28 0 0 1 85.05 44a91.77 91.77 0 0 1 1.38 16 91.77 91.77 0 0 1-1.38 16 72.28 72.28 0 0 1-3.83 13.8 51.24 51.24 0 0 1-4 8.06"/><path class="cls-5" d="M70.74 105.7A16.65 16.65 0 0 1 60 110c-8.69 0-16.41-7.94-21.22-20.2A72.28 72.28 0 0 1 35 76a93.21 93.21 0 0 1 0-32 72.28 72.28 0 0 1 3.78-13.8C43.59 17.94 51.31 10 60 10a16.77 16.77 0 0 1 11 4.52"/><path class="cls-5" d="M102.41 34.29a14.73 14.73 0 0 1 6.59 6.93c2.37 5.53.45 12.18-4.67 18.78-4.34 5.59-11 11.15-19.27 16a103.78 103.78 0 0 1-15.12 7.19c-3.33 1.28-6.66 2.37-9.93 3.27a89.71 89.71 0 0 1-21.23 3.34 48.62 48.62 0 0 1-16.64-2.08M13.26 82.29A12.81 12.81 0 0 1 11 78.78C8.64 73.25 10.56 66.6 15.68 60 20 54.41 26.66 48.85 35 44a103.78 103.78 0 0 1 15.12-7.19c3.33-1.28 6.66-2.37 9.93-3.27a89.71 89.71 0 0 1 21.17-3.34 57.18 57.18 0 0 1 11.33.74"/><path class="cls-5" d="M17.59 34.29A14.73 14.73 0 0 0 11 41.22C8.64 46.75 10.56 53.4 15.68 60 20 65.59 26.66 71.15 35 76a103.78 103.78 0 0 0 15.12 7.19c3.33 1.28 6.66 2.37 9.93 3.27a89.71 89.71 0 0 0 21.17 3.34 52.76 52.76 0 0 0 13.92-1.29M104.6 84.26a13.66 13.66 0 0 0 4.4-5.48c2.37-5.53.45-12.18-4.67-18.78-4.34-5.59-11-11.15-19.27-16a103.78 103.78 0 0 0-15.12-7.19c-3.33-1.28-6.66-2.37-9.93-3.27a89.71 89.71 0 0 0-21.23-3.34 57.18 57.18 0 0 0-11.33.74"/><path class="cls-5" d="M104.6 84.26a4.84 4.84 0 0 1 .86 2.74 5.14 5.14 0 0 1-5.28 5 5.26 5.26 0 0 1-5-3.49 4.78 4.78 0 0 1-.29-1.51 5.15 5.15 0 0 1 5.29-5 5.36 5.36 0 0 1 4.42 2.26zM71 14.52A5.44 5.44 0 0 1 74.8 13a5.15 5.15 0 0 1 5.29 5 5 5 0 0 1-2.7 4.36 5.49 5.49 0 0 1-2.59.64 5.14 5.14 0 0 1-5.28-5A4.89 4.89 0 0 1 71 14.52zM77.26 97.86a4.94 4.94 0 0 1 2.31 4.14 5.14 5.14 0 0 1-5.28 5 5.41 5.41 0 0 1-3.55-1.3A4.84 4.84 0 0 1 69 102a5.15 5.15 0 0 1 5.29-5 5.5 5.5 0 0 1 2.97.86zM27.45 30.94a4.66 4.66 0 0 1 .12 1.06 5.14 5.14 0 0 1-5.28 5 5.32 5.32 0 0 1-4.7-2.71A4.67 4.67 0 0 1 17 32a5.15 5.15 0 0 1 5.29-5 5.22 5.22 0 0 1 5.16 3.94zM92.55 30.94A5.22 5.22 0 0 1 97.71 27a5.15 5.15 0 0 1 5.29 5 4.67 4.67 0 0 1-.59 2.29 5.32 5.32 0 0 1-4.7 2.71 5.14 5.14 0 0 1-5.28-5 4.66 4.66 0 0 1 .12-1.06zM13.26 82.29A5.39 5.39 0 0 1 17.71 80 5.14 5.14 0 0 1 23 85a4.77 4.77 0 0 1-.85 2.72A5.35 5.35 0 0 1 17.71 90a5.15 5.15 0 0 1-5.29-5 4.8 4.8 0 0 1 .84-2.71z"/></svg>