<svg id="Layer_1" data-name="Layer 1" xmlns="http://www.w3.org/2000/svg" viewBox="0 0 120 120"><defs><style>.cls-1{fill:#b2bbd5}.cls-2{fill:#fff}.cls-3{fill:#579bfc}.cls-4{fill:#e6e8f0}.cls-5{fill:#2fcf5f}.cls-6,.cls-7{fill:none;stroke:#252e4a;stroke-width:3px}.cls-6{stroke-linecap:round;stroke-linejoin:round}.cls-7{stroke-miterlimit:10}</style></defs><path class="cls-1" d="M100.75 15.65l9.25 27.5-20.13 6.75-1.78-5.29-5.69-16.93-1.78-5.28 20.13-6.75z"/><path class="cls-2" d="M97 96.05V79.31h-6.83v16.74zm-27.83 0h7.31l.65 1.28A2.5 2.5 0 0 0 79.48 99a2.55 2.55 0 0 0 2.48-3h4V82.18H79V90l-5.46-10.73-6.91-13.59a25.12 25.12 0 1 1-3.63 3.7l8.17 16.15h-2z"/><path class="cls-3" d="M90.17 79.31H97v16.74h-6.83z"/><path class="cls-4" d="M82.4 27.68l5.69 16.93-21.5 7.21a7.61 7.61 0 0 0-14 4.15 4.53 4.53 0 0 0 0 .52l-17.48 5.88-1.42-4.23-2.85-8.47-1.42-4.23z"/><path class="cls-3" d="M86 82.18v13.87h-4a2.46 2.46 0 0 0-.11-.45L79 90v-7.82z"/><path class="cls-3" d="M81.85 95.6a2.46 2.46 0 0 1 .11.45H79V90z"/><path class="cls-2" d="M77.13 97.33l-.65-1.28H82a2.55 2.55 0 0 1-2.48 3 2.5 2.5 0 0 1-2.35-1.67z"/><path class="cls-2" d="M75 93.12l1.48 2.93H75v-2.93zM75 85.53h-3.84L63 69.38a24 24 0 0 1 3.64-3.7l6.91 13.59L79 90v6h-2.52L75 93.12z"/><path class="cls-3" d="M75 93.12v2.93h-5.83V85.53h1.99L75 93.12z"/><path class="cls-3" d="M75 85.53v7.59l-3.84-7.59H75z"/><path class="cls-2" d="M64.78 62l1.85 3.64A24 24 0 0 0 63 69.38l-3-5.83h.18a7.53 7.53 0 0 0 4.6-1.55z"/><path class="cls-5" d="M66.59 51.82l-14 4.67a4.53 4.53 0 0 1 0-.52 7.61 7.61 0 0 1 14-4.15zM62.32 57.21L64.78 62a7.53 7.53 0 0 1-4.56 1.52H60l-.41-.81 1.75-3.46-1.75-.82z"/><path class="cls-5" d="M61.38 59.28l-1.75 3.46-1.75-3.46 1.75-.82 1.75.82z"/><path class="cls-2" d="M59.63 62.74l.41.81a5.16 5.16 0 0 1-.79-.06z"/><path class="cls-5" d="M59.63 58.46l-1.75.82 1.75 3.46-.38.75a7.5 7.5 0 0 1-4.41-2.15l2.1-4.13z"/><path class="cls-2" d="M59.25 63.49L42.13 97.33A2.5 2.5 0 0 1 39.77 99a2.55 2.55 0 0 1-2.36-3.4l17.43-34.26a7.5 7.5 0 0 0 4.41 2.15z"/><path class="cls-5" d="M56.94 57.21l-2.1 4.13a7.55 7.55 0 0 1-2.2-4.85l14-4.67A7.48 7.48 0 0 1 67.83 56a7.57 7.57 0 0 1-3 6.07l-2.46-4.83-2.69 1.25z"/><path class="cls-1" d="M30.84 49.67l2.85 8.47-13.77 4.61-2.85-8.46 13.77-4.62z"/><path class="cls-4" d="M20.63 64.87L14.27 67 10 54.31l6.36-2.13.71 2.11 2.85 8.46.71 2.12z"/><path class="cls-6" d="M17.07 54.29l13.77-4.62M33.69 58.14l-13.77 4.61M52.64 56.49l-17.53 5.88-1.42-4.23-2.85-8.47-1.42-4.23L82.4 27.68M88.09 44.61l-21.5 7.21"/><path class="cls-6" d="M82.4 27.68l-1.78-5.28 20.13-6.75 9.25 27.5-20.13 6.75-1.78-5.29-5.69-16.93zM19.92 62.75l.71 2.12L14.27 67 10 54.31l6.36-2.13.71 2.11 2.85 8.46z"/><path class="cls-7" d="M59.25 63.49L42.13 97.33A2.5 2.5 0 0 1 39.77 99a2.55 2.55 0 0 1-2.36-3.4l17.43-34.26M60.04 63.55l2.95 5.83M66.63 65.68l-1.85-3.64"/><path class="cls-7" d="M66.59 51.82A7.48 7.48 0 0 1 67.83 56a7.62 7.62 0 0 1-7.61 7.59H60a5.16 5.16 0 0 1-.79-.06 7.55 7.55 0 0 1-6.61-7 4.53 4.53 0 0 1 0-.52 7.61 7.61 0 0 1 14-4.15zM66.63 65.68a25.12 25.12 0 1 1-3.63 3.7 24 24 0 0 1 3.63-3.7z"/><path class="cls-6" d="M97 96.05h2M86 96.05h4.17M75 96.05h4M67.43 96.05h1.74M86 96.05V82.18h-7V96.05h7zM90.17 79.31H97v16.74h-6.83zM75 93.12v-7.59h-5.83v10.52H75v-2.93zM90.65 68.69l3.35.96-20.46 9.62L72 80M93.04 73l.96-3.35"/></svg>