<svg id="Layer_1" data-name="Layer 1" xmlns="http://www.w3.org/2000/svg" viewBox="0 0 120 120"><defs><style>.cls-1{fill:#fff}.cls-2{fill:#e6e8f0}.cls-3{fill:#b2bbd5}.cls-4{fill:#579bfc}.cls-5{fill:#2fcf5f}.cls-6,.cls-7{fill:none;stroke:#252e4a;stroke-width:3px}.cls-6{stroke-miterlimit:10}.cls-7{stroke-linecap:round;stroke-linejoin:round}</style></defs><path class="cls-1" d="M82.5 60a25 25 0 0 1 0 50h-.89a4 4 0 0 0 3.26-5.54L83 100c7.87 0 14.22-1.72 14.22-3.83v-7.65a.34.34 0 0 0 0-.1.41.41 0 0 0 0-.11v-7.66a.34.34 0 0 0 0-.1.41.41 0 0 0 0-.11v-7.65c0-2.12-6.43-3.83-14.36-3.83-5.16 0-9.68.73-12.21 1.82L68 64.62A24.82 24.82 0 0 1 82.5 60z"/><path class="cls-2" d="M97.21 88.52v7.65c0 2.11-6.35 3.81-14.22 3.83l-3.27-7.74c1 .06 2 .09 3.13.09 7.93 0 14.36-1.72 14.36-3.83zM97.21 80.65v7.66a.41.41 0 0 1 0 .11c-.19-2.07-6.54-3.73-14.35-3.73a49 49 0 0 0-6.17.37l-.43-1a49.32 49.32 0 0 0 6.6.43c7.92-.01 14.35-1.72 14.35-3.84zM97.21 72.79v7.65a.41.41 0 0 1 0 .11c-.19-2.06-6.54-3.73-14.35-3.73a43.19 43.19 0 0 0-9.28.91l-.95-2.26a41.24 41.24 0 0 0 10.23 1.14c7.92 0 14.35-1.71 14.35-3.82z"/><path class="cls-1" d="M97.2 80.55a.34.34 0 0 1 0 .1.38.38 0 0 0 0-.1zM97.2 88.42a.34.34 0 0 1 0 .1.38.38 0 0 0 0-.1z"/><path class="cls-3" d="M97.21 72.79H71.49l-.85-2c2.53-1.09 7-1.82 12.21-1.82 7.93.03 14.36 1.7 14.36 3.82zM71.49 72.79h25.72c0 2.11-6.43 3.82-14.36 3.82a41.24 41.24 0 0 1-10.23-1.14z"/><path class="cls-1" d="M97.19 80.65c0 2.12-6.43 3.83-14.36 3.83a49.32 49.32 0 0 1-6.6-.43l-.1-.22a48.92 48.92 0 0 0 6.7.44c7.69 0 13.96-1.61 14.36-3.62zM97.19 88.52c0 2.11-6.43 3.83-14.36 3.83-1.08 0-2.12 0-3.13-.09l-.1-.23c1 .07 2.12.1 3.23.1 7.69 0 13.96-1.6 14.36-3.61z"/><path class="cls-2" d="M97.2 80.55a.38.38 0 0 1 0 .1H74.81l-1.24-2.92a43.19 43.19 0 0 1 9.28-.91c7.81 0 14.15 1.67 14.35 3.73zM97.2 88.42a.38.38 0 0 1 0 .1h-19l-1.46-3.46a49 49 0 0 1 6.17-.37c7.75 0 14.09 1.66 14.29 3.73zM74.81 80.65h22.38c-.4 2-6.67 3.62-14.34 3.62a48.92 48.92 0 0 1-6.7-.44zM78.14 88.52h19c-.4 2-6.67 3.61-14.34 3.61-1.11 0-2.19 0-3.23-.1z"/><circle class="cls-4" cx="92.5" cy="46" r="3"/><path class="cls-1" d="M92.5 49v5h-9l9-5zM84.87 104.44a4 4 0 0 1-3.26 5.56 24.83 24.83 0 0 1-16.45-7h8.42a2 2 0 0 0 1.84-2.78l-.35-.83a47.35 47.35 0 0 0 7.78.61H83z"/><circle class="cls-4" cx="82.5" cy="39" r="3"/><path class="cls-2" d="M79.72 92.26L83 100h-.14a47.35 47.35 0 0 1-7.78-.61l-3.62-8.55a31.92 31.92 0 0 0 8.26 1.42z"/><path class="cls-1" d="M81.61 110H16.51a4 4 0 0 1-3.69-5.56L35.85 50V19h26v31L68 64.62a24.88 24.88 0 0 0-9.2 12.43c-7.1.06-12.63 3-17.95 3-7 0-9.18-2-9.18-2l-9.4 22.22a2 2 0 0 0 1.84 2.73h41.05a24.83 24.83 0 0 0 16.45 7zM58.85 64a3 3 0 1 0-3 3 3 3 0 0 0 3-3zm-11-14a3 3 0 1 0-3 3 3 3 0 0 0 3-3zm-4 20a3 3 0 1 0-3 3 3 3 0 0 0 3-3z"/><path class="cls-1" d="M79.62 92l.1.23a31.92 31.92 0 0 1-8.27-1.42l-.11-.26A31.14 31.14 0 0 0 79.62 92z"/><path class="cls-2" d="M78.14 88.52L79.62 92a31.14 31.14 0 0 1-8.28-1.45l-.87-2.06z"/><path class="cls-2" d="M76.68 85.06l1.46 3.46h-7.67l-.67-1.59a19.67 19.67 0 0 1 6.88-1.87z"/><path class="cls-2" d="M76.25 84.05l.43 1a19.67 19.67 0 0 0-6.88 1.87l-1.3-3.07v-3.2c0 1.48 3.15 2.77 7.75 3.4z"/><path class="cls-1" d="M76.15 83.83l.1.22c-4.6-.63-7.75-1.92-7.75-3.4.3 1.35 3.32 2.56 7.65 3.18z"/><path class="cls-2" d="M74.81 80.65l1.34 3.18c-4.33-.62-7.35-1.8-7.63-3.18z"/><path class="cls-1" d="M75.42 100.22a2 2 0 0 1-1.84 2.78h-8.42a24.89 24.89 0 0 1-7.66-18 24.63 24.63 0 0 1 1.3-8 25.45 25.45 0 0 1 7.2 1l2.48 5.86v4.45a.41.41 0 0 0 0 .11.34.34 0 0 0 0 .1v7.65c0 1.35 2.62 2.54 6.57 3.22z"/><path class="cls-2" d="M71.45 90.84l3.62 8.55c-3.95-.68-6.57-1.87-6.57-3.22v-7.65c0 .88 1.1 1.68 2.95 2.32z"/><circle class="cls-4" cx="72.5" cy="34" r="3"/><path class="cls-2" d="M73.57 77.73l1.24 2.92h-6.29a.38.38 0 0 1 0-.1c.09-1.13 2.04-2.14 5.05-2.82z"/><path class="cls-2" d="M72.62 75.47l.95 2.26c-3 .68-5 1.69-5.06 2.82a.41.41 0 0 1 0-.11v-7.65c-.01 1.04 1.56 1.99 4.11 2.68z"/><path class="cls-3" d="M71.49 72.79l1.13 2.68c-2.55-.69-4.12-1.64-4.12-2.68zM71.49 72.79h-3c0-.74.78-1.43 2.14-2z"/><path class="cls-1" d="M71.34 90.58l.11.26c-1.85-.64-3-1.44-3-2.32.23.77 1.25 1.48 2.89 2.06z"/><path class="cls-1" d="M70.47 88.52l.87 2.06c-1.64-.58-2.66-1.29-2.82-2.06zM68 64.62l2.61 6.16c-1.36.58-2.14 1.27-2.14 2v7.65a.41.41 0 0 0 0 .11.34.34 0 0 0 0 .1v3.21L66 78a25.45 25.45 0 0 0-7.22-1A24.88 24.88 0 0 1 68 64.62z"/><path class="cls-2" d="M69.8 86.93l.67 1.59h-2a.38.38 0 0 1 0-.1c.09-.53.53-1.04 1.33-1.49z"/><path class="cls-1" d="M68.5 83.86l1.3 3.07c-.79.45-1.24 1-1.29 1.49a.41.41 0 0 1 0-.11zM68.51 80.55a.38.38 0 0 0 0 .1.34.34 0 0 1 0-.1zM68.51 88.42a.38.38 0 0 0 0 .1.34.34 0 0 1 0-.1zM63 10a4.5 4.5 0 0 1 0 9H35a4.5 4.5 0 0 1 0-9z"/><path class="cls-5" d="M65.16 103h-41a2 2 0 0 1-1.84-2.78L31.67 78s2.18 2 9.18 2c5.32 0 10.85-2.89 17.95-3a24.63 24.63 0 0 0-1.3 8 24.89 24.89 0 0 0 7.66 18z"/><circle class="cls-5" cx="55.85" cy="64" r="3"/><circle class="cls-5" cx="44.85" cy="50" r="3"/><circle class="cls-5" cx="40.85" cy="70" r="3"/><path class="cls-6" d="M35.85 19H35a4.5 4.5 0 0 1 0-9h28a4.5 4.5 0 0 1 0 9h-1.15M68 64.62L61.85 50V19h-26v31l-23 54.44a4 4 0 0 0 3.66 5.56H81.61"/><path class="cls-7" d="M65.16 103h-41a2 2 0 0 1-1.84-2.78L31.67 78s2.18 2 9.18 2c5.32 0 10.85-2.89 17.95-3"/><circle class="cls-7" cx="40.85" cy="70" r="3"/><circle class="cls-7" cx="55.85" cy="64" r="3"/><circle class="cls-7" cx="44.85" cy="50" r="3"/><circle class="cls-7" cx="72.5" cy="34" r="3"/><circle class="cls-7" cx="82.5" cy="39" r="3"/><circle class="cls-7" cx="92.5" cy="46" r="3"/><path class="cls-6" d="M65.16 103a24.89 24.89 0 0 1-7.66-18 25 25 0 0 1 25-25 25 25 0 0 1 0 50h-.89a24.83 24.83 0 0 1-16.45-7z"/><path class="cls-7" d="M97.21 88.52v7.65c0 2.11-6.35 3.81-14.22 3.83h-.14a47.35 47.35 0 0 1-7.78-.61c-3.95-.68-6.57-1.87-6.57-3.22v-7.65"/><path class="cls-7" d="M97.2 88.42a.34.34 0 0 1 0 .1c0 2.11-6.43 3.83-14.36 3.83-1.08 0-2.12 0-3.13-.09a31.92 31.92 0 0 1-8.27-1.42c-1.85-.64-3-1.44-3-2.32a.34.34 0 0 1 0-.1"/><path class="cls-7" d="M97.21 80.65v7.66a.41.41 0 0 1 0 .11.38.38 0 0 1 0 .1c-.4 2-6.67 3.61-14.34 3.61-1.11 0-2.19 0-3.23-.1a31.14 31.14 0 0 1-8.28-1.45c-1.64-.58-2.66-1.29-2.82-2.06a.38.38 0 0 1 0-.1.41.41 0 0 1 0-.11v-7.66"/><path class="cls-7" d="M97.2 80.55a.34.34 0 0 1 0 .1c0 2.12-6.43 3.83-14.36 3.83a49.32 49.32 0 0 1-6.6-.43c-4.6-.63-7.75-1.92-7.75-3.4a.34.34 0 0 1 0-.1"/><path class="cls-7" d="M97.21 72.79v7.65a.41.41 0 0 1 0 .11.38.38 0 0 1 0 .1c-.4 2-6.67 3.62-14.34 3.62a48.92 48.92 0 0 1-6.7-.44c-4.33-.62-7.35-1.8-7.63-3.18a.38.38 0 0 1 0-.1.41.41 0 0 1 0-.11v-7.65"/><path class="cls-7" d="M97.21 72.79c0 2.11-6.43 3.82-14.36 3.82a41.24 41.24 0 0 1-10.23-1.14c-2.55-.69-4.12-1.64-4.12-2.68 0-.74.78-1.43 2.14-2 2.53-1.09 7-1.82 12.21-1.82 7.93.03 14.36 1.7 14.36 3.82zM82.5 59V42M83.5 54h9v-5M72.5 62V37"/></svg>