<svg id="Layer_1" data-name="Layer 1" xmlns="http://www.w3.org/2000/svg" viewBox="0 0 120 120"><defs><style>.cls-1{fill:none}.cls-1,.cls-2,.cls-3{stroke:#252e4a;stroke-linecap:round;stroke-linejoin:round;stroke-width:3px}.cls-2{fill:#579bfc}.cls-3{fill:#fff}</style></defs><path class="cls-1" d="M43 98.42l-.13-.06A42.12 42.12 0 0 1 19.74 72M77 21.58A42.1 42.1 0 0 1 100.26 48"/><path class="cls-1" d="M42 94l.87 4.36.13.64-4 1M77 26l-1-5 4-2"/><path class="cls-2" d="M65.33 77.32H104v27a2.57 2.57 0 0 1-2.57 2.57H67.9a2.57 2.57 0 0 1-2.57-2.57v-27z"/><path class="cls-2" d="M60 77.25a3.52 3.52 0 0 0 3.71 3.52A3.66 3.66 0 0 0 67 77.05v-3.32h-7z"/><path class="cls-3" d="M67 77.25a3.52 3.52 0 0 0 3.71 3.52 3.65 3.65 0 0 0 3.33-3.72v-3.32H67z"/><path class="cls-2" d="M74.08 77.25a3.52 3.52 0 0 0 3.71 3.52 3.66 3.66 0 0 0 3.34-3.72v-3.32h-7z"/><path class="cls-3" d="M81.13 77.25a3.52 3.52 0 0 0 3.71 3.52 3.66 3.66 0 0 0 3.33-3.72v-3.32h-7z"/><path class="cls-2" d="M88.17 77.25a3.52 3.52 0 0 0 3.71 3.52 3.66 3.66 0 0 0 3.33-3.72v-3.32h-7z"/><path class="cls-3" d="M95.21 77.25a3.52 3.52 0 0 0 3.71 3.52 3.66 3.66 0 0 0 3.33-3.72v-3.32h-7z"/><path class="cls-2" d="M102.25 77.25a3.52 3.52 0 0 0 3.75 3.52 3.65 3.65 0 0 0 3.33-3.72v-3.32h-7z"/><path class="cls-3" d="M79.22 91.13h10.84v15.77H79.22zM60 73.71l5.7-7.19A4 4 0 0 1 68.84 65h31.21a4 4 0 0 1 3 1.41l6.19 7.3z"/><path class="cls-3" d="M65.33 98h13.9v8.87H67.42a2.09 2.09 0 0 1-2.09-2.09V98z"/><path class="cls-3" d="M92.16 98H104v8.87H90.07v-6.78A2.09 2.09 0 0 1 92.16 98z" transform="rotate(180 97.015 102.465)"/><path class="cls-2" d="M15.41 26h39.18v27.39A2.61 2.61 0 0 1 52 56H18a2.61 2.61 0 0 1-2.61-2.61V26h.02z"/><path class="cls-2" d="M10 25.93a3.57 3.57 0 0 0 3.76 3.56 3.7 3.7 0 0 0 3.38-3.76v-3.37H10z"/><path class="cls-3" d="M17.14 25.93a3.57 3.57 0 0 0 3.77 3.56 3.7 3.7 0 0 0 3.38-3.76v-3.37h-7.15z"/><path class="cls-2" d="M24.29 25.93a3.57 3.57 0 0 0 3.76 3.56 3.7 3.7 0 0 0 3.38-3.76v-3.37h-7.14z"/><path class="cls-3" d="M31.43 25.93a3.57 3.57 0 0 0 3.76 3.56 3.7 3.7 0 0 0 3.38-3.76v-3.37h-7.14z"/><path class="cls-2" d="M38.57 25.93a3.57 3.57 0 0 0 3.76 3.56 3.7 3.7 0 0 0 3.38-3.76v-3.37h-7.14z"/><path class="cls-3" d="M45.71 25.93a3.57 3.57 0 0 0 3.77 3.56 3.7 3.7 0 0 0 3.38-3.76v-3.37h-7.15z"/><path class="cls-2" d="M52.86 25.93a3.57 3.57 0 0 0 3.76 3.56A3.7 3.7 0 0 0 60 25.73v-3.37h-7.14z"/><path class="cls-3" d="M29.5 40h11v16h-11zM10 22.33L15.78 15A4.06 4.06 0 0 1 19 13.5h31.62a4.08 4.08 0 0 1 3.1 1.43l6.28 7.4zM15.41 47H29.5v9h-12a2.12 2.12 0 0 1-2.12-2.12V47h.03z"/><path class="cls-3" d="M42.62 47h12v9H40.5v-6.88A2.12 2.12 0 0 1 42.62 47z" transform="rotate(180 47.545 51.5)"/></svg>