<svg id="Layer_1" data-name="Layer 1" xmlns="http://www.w3.org/2000/svg" viewBox="0 0 120 120"><defs><style>.cls-1{fill:none}.cls-1,.cls-4{stroke:#252e4a;stroke-width:3px;stroke-linecap:round;stroke-linejoin:round}.cls-3{fill:#579bfc}.cls-4{fill:#fff}</style></defs><path class="cls-1" d="M14.32 10h91.36a4.32 4.32 0 0 1 4.32 4.32V24H10v-9.68A4.32 4.32 0 0 1 14.32 10z"/><path d="M10 24h100v82a4 4 0 0 1-4 4H14a4 4 0 0 1-4-4V24h0z" stroke-miterlimit="10" fill="#579bfc" stroke="#252e4a" stroke-width="3"/><circle class="cls-3" cx="16.5" cy="17" r="2"/><circle class="cls-3" cx="21.5" cy="17" r="2"/><circle class="cls-3" cx="26.5" cy="17" r="2"/><path class="cls-1" d="M47 97.37l-.1-.05a32.91 32.91 0 0 1-18.09-20.59M73.56 37.32A32.91 32.91 0 0 1 91.74 58"/><path class="cls-1" d="M46.21 93.92l.68 3.4.1.51-3.13.78M73.56 40.77l-.78-3.9 3.13-1.57"/><path class="cls-4" d="M64.44 80.88h30.2V102a2 2 0 0 1-2 2H66.45a2 2 0 0 1-2-2V80.88h-.01z"/><path class="cls-4" d="M60.28 80.83a2.75 2.75 0 0 0 2.9 2.75 2.87 2.87 0 0 0 2.6-2.91v-2.59h-5.5z"/><path class="cls-4" d="M65.78 80.83a2.75 2.75 0 0 0 2.9 2.75 2.86 2.86 0 0 0 2.6-2.91v-2.59h-5.5z"/><path class="cls-4" d="M71.28 80.83a2.76 2.76 0 0 0 2.9 2.75 2.87 2.87 0 0 0 2.61-2.91v-2.59h-5.51z"/><path class="cls-4" d="M76.79 80.83a2.75 2.75 0 0 0 2.9 2.75 2.86 2.86 0 0 0 2.6-2.91v-2.59h-5.5z"/><path class="cls-4" d="M82.29 80.83a2.75 2.75 0 0 0 2.9 2.75 2.87 2.87 0 0 0 2.61-2.91v-2.59h-5.51z"/><path class="cls-4" d="M87.8 80.83a2.75 2.75 0 0 0 2.9 2.75 2.87 2.87 0 0 0 2.6-2.91v-2.59h-5.5z"/><path class="cls-4" d="M93.3 80.83a2.75 2.75 0 0 0 2.9 2.75 2.86 2.86 0 0 0 2.6-2.91v-2.59h-5.5zM75.3 91.67h8.48V104H75.3zM60.28 78.06l4.45-5.62a3.13 3.13 0 0 1 2.45-1.19h24.4a3.11 3.11 0 0 1 2.42 1.1l4.84 5.71zM64.44 97.07H75.3V104h-9.22a1.64 1.64 0 0 1-1.64-1.64v-5.3.01z"/><path class="cls-4" d="M85.41 97.07h9.22V104H83.78v-5.3a1.64 1.64 0 0 1 1.63-1.63z" transform="rotate(180 89.21 100.535)"/><path class="cls-4" d="M25.42 40.77h30.63v21.41a2 2 0 0 1-2 2H27.46a2 2 0 0 1-2-2V40.77h-.04z"/><path class="cls-4" d="M21.2 40.71a2.78 2.78 0 0 0 2.94 2.79 2.89 2.89 0 0 0 2.64-2.94v-2.64H21.2z"/><path class="cls-4" d="M26.78 40.71a2.78 2.78 0 0 0 2.94 2.79 2.89 2.89 0 0 0 2.64-2.94v-2.64h-5.58z"/><path class="cls-4" d="M32.36 40.71a2.78 2.78 0 0 0 2.94 2.79 2.89 2.89 0 0 0 2.64-2.94v-2.64h-5.58z"/><path class="cls-4" d="M37.94 40.71a2.79 2.79 0 0 0 3 2.79 2.89 2.89 0 0 0 2.64-2.94v-2.64h-5.64z"/><path class="cls-4" d="M43.53 40.71a2.78 2.78 0 0 0 2.94 2.79 2.89 2.89 0 0 0 2.64-2.94v-2.64h-5.58z"/><path class="cls-4" d="M49.11 40.71a2.78 2.78 0 0 0 2.94 2.79 2.89 2.89 0 0 0 2.64-2.94v-2.64h-5.58z"/><path class="cls-4" d="M54.69 40.71a2.78 2.78 0 0 0 2.94 2.79 2.9 2.9 0 0 0 2.65-2.94v-2.64h-5.59zM36.44 51.71h8.6v12.51h-8.6zM21.2 37.9l4.52-5.7A3.15 3.15 0 0 1 28.2 31H53a3.15 3.15 0 0 1 2.41 1.12l4.92 5.78zM25.42 57.18h11v7h-9.34a1.66 1.66 0 0 1-1.66-1.66v-5.34z"/><path class="cls-4" d="M46.69 57.18h9.36v7H45v-5.34a1.66 1.66 0 0 1 1.69-1.66z" transform="rotate(180 50.545 60.7)"/></svg>