<svg id="Layer_1" data-name="Layer 1" xmlns="http://www.w3.org/2000/svg" viewBox="0 0 120 120"><defs><style>.cls-4{fill:#579bfc}.cls-2,.cls-5{fill:#fff}.cls-3{fill:none}.cls-3,.cls-4,.cls-5{stroke:#252e4a;stroke-linecap:round;stroke-linejoin:round;stroke-width:3px}</style></defs><path d="M110 96.43v7.79a1.43 1.43 0 0 1-.69 1.23c-2.1 1.23-9.17 4.55-24.31 4.55s-22.21-3.32-24.31-4.55a1.43 1.43 0 0 1-.69-1.23v-7.79c0-5.72 7.86-7.14 14.29-9.29a7.8 7.8 0 0 0 1.45-.63 9.93 9.93 0 0 0 18.52 0 7.8 7.8 0 0 0 1.45.63c6.43 2.15 14.29 3.57 14.29 9.29z" fill="#579bfc"/><path class="cls-2" d="M92 79.57a7.37 7.37 0 0 1-1 1.25c-2 2-6 2-6 2s-4 0-6-2a6.86 6.86 0 0 1-1-1.25c-3.14-4.78-3.7-14.38-3.7-14.38s-.65-9.84 12.77-10.83h.14a2.08 2.08 0 0 1 2.09 2.07c7.85 0 6.42 8.57 6.42 8.57v.19s-.57 9.6-3.72 14.38z"/><path class="cls-2" d="M94.26 86.51a9.93 9.93 0 0 1-18.52 0c3.85-2.09 2.67-5.89 2.25-6.94a6.86 6.86 0 0 0 1 1.25c2 2 6 2 6 2s4 0 6-2a7.37 7.37 0 0 0 1-1.25c-.4 1.05-1.58 4.85 2.27 6.94z"/><path class="cls-3" d="M92.14 79.29s0 .1-.12.28c-.43 1.05-1.61 4.85 2.24 6.94a7.8 7.8 0 0 0 1.45.63c6.43 2.15 14.29 3.57 14.29 9.29v7.79a1.43 1.43 0 0 1-.69 1.23c-2.1 1.23-9.17 4.55-24.31 4.55s-22.21-3.32-24.31-4.55a1.43 1.43 0 0 1-.69-1.23v-7.79c0-5.72 7.86-7.14 14.29-9.29a7.8 7.8 0 0 0 1.45-.63c3.85-2.09 2.67-5.89 2.25-6.94l-.13-.28"/><path class="cls-3" d="M75.71 86.43v.08a9.93 9.93 0 0 0 18.52 0v-.08M78.57 66.43S90 67.14 90 60.71c0 0 1.43 4.29 5.71 4.29 0 0 1.43-8.57-6.42-8.57a2.08 2.08 0 0 0-2.09-2.07h-.14c-13.42 1-12.77 10.83-12.77 10.83s.56 9.6 3.7 14.38a6.86 6.86 0 0 0 1 1.25c2 2 6 2 6 2s4 0 6-2a7.37 7.37 0 0 0 1-1.25c3.13-4.78 3.69-14.38 3.69-14.38M43 98.42l-.13-.06A42.12 42.12 0 0 1 19.74 72M77 21.58A42.1 42.1 0 0 1 100.26 48"/><path class="cls-3" d="M42 94l.87 4.36.13.64-4 1M77 26l-1-5 4-2"/><path class="cls-4" d="M15.66 26.75h39.18v27.39a2.61 2.61 0 0 1-2.61 2.61h-34a2.61 2.61 0 0 1-2.61-2.61V26.75h.04z"/><path class="cls-4" d="M10.25 26.68A3.57 3.57 0 0 0 14 30.24a3.7 3.7 0 0 0 3.38-3.76v-3.37h-7.13z"/><path class="cls-5" d="M17.39 26.68a3.57 3.57 0 0 0 3.77 3.56 3.7 3.7 0 0 0 3.38-3.76v-3.37h-7.15z"/><path class="cls-4" d="M24.54 26.68a3.57 3.57 0 0 0 3.76 3.56 3.7 3.7 0 0 0 3.38-3.76v-3.37h-7.14z"/><path class="cls-5" d="M31.68 26.68a3.57 3.57 0 0 0 3.76 3.56 3.7 3.7 0 0 0 3.38-3.76v-3.37h-7.14z"/><path class="cls-4" d="M38.82 26.68a3.57 3.57 0 0 0 3.76 3.56A3.7 3.7 0 0 0 46 26.48v-3.37h-7.18z"/><path class="cls-5" d="M46 26.68a3.57 3.57 0 0 0 3.77 3.56 3.7 3.7 0 0 0 3.38-3.76v-3.37H46z"/><path class="cls-4" d="M53.11 26.68a3.57 3.57 0 0 0 3.76 3.56 3.7 3.7 0 0 0 3.38-3.76v-3.37h-7.14z"/><path class="cls-5" d="M29.75 40.75h11v16h-11zM10.25 23.08L16 15.79a4.06 4.06 0 0 1 3.18-1.54h31.69A4.08 4.08 0 0 1 54 15.68l6.28 7.4zM15.66 47.75h14.09v9h-12a2.12 2.12 0 0 1-2.12-2.12v-6.88h.03z"/><path class="cls-5" d="M42.87 47.75h12v9H40.75v-6.88a2.12 2.12 0 0 1 2.12-2.12z" transform="rotate(180 47.795 52.25)"/></svg>