<svg id="Layer_1" data-name="Layer 1" xmlns="http://www.w3.org/2000/svg" viewBox="0 0 120 120"><defs><style>.cls-1{fill:none}.cls-1,.cls-5{stroke:#252e4a;stroke-width:3px;stroke-linecap:round;stroke-linejoin:round}.cls-3{fill:#579bfc}.cls-4,.cls-5{fill:#fff}</style></defs><path class="cls-1" d="M14.32 10h91.36a4.32 4.32 0 0 1 4.32 4.32V24H10v-9.68A4.32 4.32 0 0 1 14.32 10z"/><path d="M10 24h100v82a4 4 0 0 1-4 4H14a4 4 0 0 1-4-4V24h0z" stroke-miterlimit="10" fill="#579bfc" stroke="#252e4a" stroke-width="3"/><circle class="cls-3" cx="16.5" cy="17" r="2"/><circle class="cls-3" cx="21.5" cy="17" r="2"/><circle class="cls-3" cx="26.5" cy="17" r="2"/><path class="cls-4" d="M99.15 92.65v5.94a1.09 1.09 0 0 1-.53.94c-1.6.94-7 3.47-18.53 3.47s-16.93-2.53-18.53-3.47a1.09 1.09 0 0 1-.53-.94v-5.94c0-4.36 6-5.44 10.89-7.08a6.38 6.38 0 0 0 1.08-.48 7.57 7.57 0 0 0 14.12 0 6.61 6.61 0 0 0 1.1.48c4.94 1.64 10.93 2.72 10.93 7.08zM85.44 79.8a6.17 6.17 0 0 1-.75 1c-1.54 1.56-4.6 1.56-4.6 1.56s-3.07 0-4.6-1.56a5.58 5.58 0 0 1-.74-1c-2.4-3.64-2.83-11-2.83-11s-.49-7.51 9.74-8.26h.11a1.58 1.58 0 0 1 1.59 1.58c6 0 4.89 6.53 4.89 6.53v.15s-.42 7.36-2.81 11z"/><path class="cls-4" d="M87.15 85.09a7.57 7.57 0 0 1-14.12 0 4 4 0 0 0 1.72-5.29 5.58 5.58 0 0 0 .74 1c1.53 1.56 4.6 1.56 4.6 1.56s3.06 0 4.6-1.56a6.17 6.17 0 0 0 .75-1 4 4 0 0 0 1.71 5.29z"/><path class="cls-1" d="M85.53 79.59l-.09.21a4 4 0 0 0 1.71 5.29 6.61 6.61 0 0 0 1.1.48c4.91 1.64 10.9 2.72 10.9 7.08v5.94a1.09 1.09 0 0 1-.53.94c-1.6.94-7 3.47-18.53 3.47s-16.93-2.53-18.53-3.47a1.09 1.09 0 0 1-.53-.94v-5.94c0-4.36 6-5.44 10.89-7.08a6.38 6.38 0 0 0 1.08-.48 4 4 0 0 0 1.72-5.29l-.1-.21"/><path class="cls-1" d="M73 85a.15.15 0 0 0 0 .06 7.57 7.57 0 0 0 14.12 0 .32.32 0 0 1 0-.06M75.19 69.78s8.71.54 8.71-4.36c0 0 1.09 3.27 4.35 3.27 0 0 1.1-6.53-4.89-6.53a1.58 1.58 0 0 0-1.59-1.58h-.11c-10.23.75-9.74 8.26-9.74 8.26s.43 7.32 2.83 11a5.58 5.58 0 0 0 .74 1c1.53 1.56 4.6 1.56 4.6 1.56s3.06 0 4.6-1.56a6.17 6.17 0 0 0 .75-1c2.39-3.64 2.81-11 2.81-11M48.07 94.17h-.1A32.13 32.13 0 0 1 30.34 74M74 35.59a32.07 32.07 0 0 1 17.72 20.14"/><path class="cls-1" d="M47.31 90.8l.66 3.33.1.48-3.05.77M73.99 38.96l-.76-3.81 3.05-1.53"/><path class="cls-5" d="M27.22 39.53H57.1v20.88a2 2 0 0 1-2 2H29.21a2 2 0 0 1-2-2V39.53h.01z"/><path class="cls-5" d="M23.1 39.48a2.71 2.71 0 0 0 2.9 2.71 2.82 2.82 0 0 0 2.58-2.87v-2.57H23.1z"/><path class="cls-5" d="M28.55 39.48a2.71 2.71 0 0 0 2.87 2.71A2.81 2.81 0 0 0 34 39.32v-2.57h-5.45z"/><path class="cls-5" d="M34 39.48a2.71 2.71 0 0 0 2.87 2.71 2.82 2.82 0 0 0 2.58-2.87v-2.57H34z"/><path class="cls-5" d="M39.44 39.48a2.71 2.71 0 0 0 2.87 2.71 2.81 2.81 0 0 0 2.57-2.87v-2.57h-5.44z"/><path class="cls-5" d="M44.88 39.48a2.71 2.71 0 0 0 2.87 2.71 2.82 2.82 0 0 0 2.58-2.87v-2.57h-5.45z"/><path class="cls-5" d="M50.33 39.48a2.71 2.71 0 0 0 2.87 2.71 2.81 2.81 0 0 0 2.57-2.87v-2.57h-5.44z"/><path class="cls-5" d="M55.77 39.48a2.71 2.71 0 0 0 2.87 2.71 2.81 2.81 0 0 0 2.58-2.87v-2.57h-5.45zM37.97 50.2h8.39v12.2h-8.39zM23.1 36.73l4.41-5.56A3.08 3.08 0 0 1 29.93 30h24.14a3.1 3.1 0 0 1 2.36 1.09l4.79 5.64z"/><path class="cls-5" d="M27.22 55.54H38v6.86h-9.16a1.62 1.62 0 0 1-1.62-1.62v-5.24z"/><path class="cls-5" d="M48 55.54h9.1v6.86H46.35v-5.24A1.62 1.62 0 0 1 48 55.54z" transform="rotate(180 51.725 58.97)"/></svg>