<svg id="Layer_1" data-name="Layer 1" xmlns="http://www.w3.org/2000/svg" viewBox="0 0 120 120"><defs><style>.cls-2,.cls-3{stroke:#252e4a;stroke-linecap:round;stroke-linejoin:round;stroke-width:3px}.cls-2{fill:#fff}.cls-3{fill:none}</style></defs><circle cx="60" cy="60" r="50" stroke="#252e4a" stroke-linecap="round" stroke-linejoin="round" stroke-width="3" fill="#579bfc"/><circle class="cls-2" cx="60" cy="28.21" r="7.95"/><circle class="cls-2" cx="60" cy="91.79" r="7.95"/><path class="cls-2" d="M29 47h22.26v14.31H29zM68.74 47H91v14.31H68.74zM68.74 67.15H91v14.31H68.74z"/><path class="cls-3" d="M60 36.15v4.77h18.28a1.59 1.59 0 0 1 1.59 1.59v3.18M60 36.15v4.77H41.72a1.59 1.59 0 0 0-1.59 1.59v3.18M79.87 62v5.15M40.13 62v27.41a3.18 3.18 0 0 0 3.18 3.18h8.74"/></svg>