<svg id="Layer_1" data-name="Layer 1" xmlns="http://www.w3.org/2000/svg" viewBox="0 0 120 120"><defs><style>.cls-1{fill:#579bfc}.cls-2{fill:#fff}.cls-3{fill:none;stroke:#252e4a;stroke-linecap:round;stroke-linejoin:round;stroke-width:3px}</style></defs><path class="cls-1" d="M70.5 69v9.43a1.74 1.74 0 0 1-.84 1.49c-2.53 1.48-11.09 5.5-29.41 5.5s-26.88-4-29.41-5.5a1.74 1.74 0 0 1-.84-1.5V69c0-6.91 9.51-8.64 17.28-11.23a10.11 10.11 0 0 0 1.77-.77 12 12 0 0 0 22.4 0 10.11 10.11 0 0 0 1.77.77C61 60.35 70.5 62.08 70.5 69z"/><path class="cls-2" d="M31.75 48.58C28 42.78 27.28 31.2 27.28 31.2s-.77-11.92 15.45-13.11h.19a2.5 2.5 0 0 1 2.51 2.5c9.51 0 7.79 10.37 7.79 10.37v.24s-.68 11.58-4.47 17.38a9.74 9.74 0 0 1-1.21 1.52c-2.43 2.47-7.29 2.47-7.29 2.47s-4.86 0-7.29-2.47a9.74 9.74 0 0 1-1.21-1.52z"/><path class="cls-2" d="M51.45 57a12 12 0 0 1-22.4 0c4.67-2.54 3.21-7.15 2.7-8.41A9.74 9.74 0 0 0 33 50.1c2.43 2.47 7.29 2.47 7.29 2.47s4.86 0 7.29-2.47a9.74 9.74 0 0 0 1.21-1.52c-.55 1.26-2.01 5.87 2.66 8.42z"/><path class="cls-3" d="M48.89 48.25a2.66 2.66 0 0 0-.14.33c-.51 1.26-2 5.87 2.7 8.41a10.11 10.11 0 0 0 1.77.77C61 60.35 70.5 62.08 70.5 69v9.43a1.74 1.74 0 0 1-.84 1.49c-2.53 1.48-11.09 5.5-29.41 5.5s-26.88-4-29.41-5.5a1.74 1.74 0 0 1-.84-1.5V69c0-6.91 9.51-8.64 17.28-11.23a10.11 10.11 0 0 0 1.77-.77c4.67-2.54 3.21-7.15 2.7-8.41a2.66 2.66 0 0 0-.14-.33"/><path class="cls-3" d="M29 56.89v.1a12 12 0 0 0 22.4 0v-.1M32.47 32.69s13.83.87 13.83-6.91c0 0 1.73 5.18 6.92 5.18 0 0 1.72-10.37-7.79-10.37a2.5 2.5 0 0 0-2.51-2.5h-.19C26.51 19.28 27.28 31.2 27.28 31.2s.72 11.58 4.47 17.38A9.74 9.74 0 0 0 33 50.1c2.43 2.47 7.29 2.47 7.29 2.47s4.86 0 7.29-2.47a9.74 9.74 0 0 0 1.21-1.52c3.79-5.8 4.47-17.38 4.47-17.38"/><path class="cls-1" d="M72.5 76.11l4 4.22a5.64 5.64 0 0 0 7.83-.13L89 75.52l1.31-1.31c2.87 1 6.4 1.9 9.67 3.08 5.34 1.91 10 4.43 10 8.61v9.2a1.66 1.66 0 0 1-.82 1.44c-2.49 1.46-10.83 5.37-28.68 5.37S54.31 98 51.82 96.54A1.66 1.66 0 0 1 51 95.1v-9.2c0-4.11 4.74-6.37 10.15-8.08 3.46-1.09 7.21-2 10.17-3z"/><path class="cls-2" d="M67.81 49.31C68 51.26 69 63.07 73.33 67.48a4.57 4.57 0 0 0 .68.57l-.07.09a28.7 28.7 0 0 1-1.44 8l-1.18-1.25c-3 1-6.71 1.87-10.17 3l-.32-1c2-8.52 1.32-19.66 1.32-19.66-2-24.26 18.35-24.26 18.35-24.26s20.32 0 18.35 24.26c0 0-.65 11.14 1.32 19.66l-.17.46c-3.27-1.18-6.8-2.12-9.67-3.08L89 75.52a28.81 28.81 0 0 1-1.47-8C92.29 62.67 93.09 49 93.09 49c-3.81 0-4.72-4.33-4.72-4.33a16.8 16.8 0 0 1-20.32 4.63z"/><path class="cls-2" d="M93.09 49s-.8 13.63-5.54 18.44c-2.36 2.4-7.11 2.4-7.11 2.4s-3.94 0-6.43-1.83a4.57 4.57 0 0 1-.68-.57C69 63.07 68 51.26 67.81 49.31h.24a16.8 16.8 0 0 0 20.32-4.59S89.28 49 93.09 49z"/><path class="cls-2" d="M89 75.52l-4.65 4.68a5.64 5.64 0 0 1-7.83.13l-4-4.22a28.7 28.7 0 0 0 1.44-8l.07-.09c2.49 1.83 6.43 1.83 6.43 1.83s4.75 0 7.11-2.4A28.81 28.81 0 0 0 89 75.52z"/><path class="cls-3" d="M68.05 49.3a16.8 16.8 0 0 0 20.32-4.59S89.28 49 93.09 49c0 0-.8 13.63-5.54 18.44-2.36 2.4-7.11 2.4-7.11 2.4s-3.94 0-6.43-1.83a4.57 4.57 0 0 1-.68-.57C69 63.07 68 51.26 67.81 49.31v-.27M89 75.52l-4.65 4.68a5.64 5.64 0 0 1-7.83.13l-4-4.22-1.18-1.25c-3 1-6.71 1.87-10.17 3C55.74 79.53 51 81.79 51 85.9v9.2a1.66 1.66 0 0 0 .82 1.44c2.49 1.46 10.83 5.37 28.68 5.37s26.19-3.91 28.68-5.37a1.66 1.66 0 0 0 .82-1.44v-9.2c0-4.18-4.66-6.7-10-8.61-3.27-1.18-6.8-2.12-9.67-3.08z"/><path class="cls-3" d="M80.5 32.91s-20.32 0-18.35 24.26c0 0 .65 11.14-1.32 19.66M80.5 32.91s20.32 0 18.35 24.26c0 0-.65 11.14 1.32 19.66M87.55 67.48a28.81 28.81 0 0 0 1.47 8M73.94 68.14a28.7 28.7 0 0 1-1.44 8v.07"/></svg>