<svg id="Layer_1" data-name="Layer 1" xmlns="http://www.w3.org/2000/svg" viewBox="0 0 120 120"><defs><style>.cls-2{fill:#579bfc}.cls-3{fill:none;stroke:#252e4a;stroke-linecap:round;stroke-linejoin:round;stroke-width:3px}</style></defs><path d="M79.2 29.26v.34S78 50.39 70.76 57.73c-3.61 3.67-10.85 3.67-10.85 3.67s-7.23 0-10.85-3.67c-7.23-7.34-8.43-28.13-8.43-28.13s-1.16-17.72 23-19.49h.28a3.74 3.74 0 0 1 3.74 3.73c14.12-.01 11.55 15.42 11.55 15.42z" fill="#fff"/><path class="cls-2" d="M36.86 70.4L49.71 109l-.06 1c-20.21-1.25-30.14-6-33.4-7.89A2.54 2.54 0 0 1 15 99.86v-14c0-10.32 10.29-11.6 21.86-15.46zM105 85.83v14a2.54 2.54 0 0 1-1.25 2.2c-3.26 1.91-13.19 6.64-33.4 7.89l-.06-1L83.14 70.4C94.71 74.26 105 75.54 105 85.83zM65 69l-2 10H57l-2-10h10z"/><path class="cls-2" d="M70.29 109l.06 1c-3.19.2-6.63.31-10.35.31s-7.16-.11-10.35-.31l.06-1 7.72-29.6V79h5.14v.4z"/><path class="cls-3" d="M48.34 31.83s20.57 1.28 20.57-10.29c0 0 2.57 7.72 10.29 7.72 0 0 2.57-15.43-11.57-15.43a3.74 3.74 0 0 0-3.74-3.73h-.28c-24.14 1.77-23 19.49-23 19.49s1.2 20.79 8.43 28.13c3.62 3.67 10.85 3.67 10.85 3.67s7.24 0 10.85-3.67C78 50.39 79.2 29.6 79.2 29.6M57.43 79.4L49.71 109 36.86 70.4C25.29 74.26 15 75.54 15 85.83v14a2.54 2.54 0 0 0 1.25 2.2c3.26 1.91 13.19 6.64 33.4 7.89 3.19.2 6.63.31 10.35.31s7.16-.11 10.35-.31c20.21-1.25 30.14-6 33.4-7.89a2.54 2.54 0 0 0 1.25-2.2v-14c0-10.29-10.29-11.57-21.86-15.43L70.29 109l-7.72-29.6"/><path class="cls-3" d="M57.43 79H57l-2-10h10l-2 10H57.43z"/><circle cx="89.5" cy="89.5" r="20.5" stroke="#252e4a" stroke-linecap="round" stroke-linejoin="round" stroke-width="3" fill="#fff"/><path d="M97.69 92.88a4.84 4.84 0 0 1-.43 1.9 6.94 6.94 0 0 1-1.36 2 7.07 7.07 0 0 1-2.37 1.6 8.68 8.68 0 0 1-3.36.61 11.32 11.32 0 0 1-2.64-.28 7.56 7.56 0 0 1-2.17-.85 7.3 7.3 0 0 1-1.78-1.54 8.79 8.79 0 0 1-1.24-1.94 9.57 9.57 0 0 1-.77-2.28 12.54 12.54 0 0 1-.26-2.58 11.27 11.27 0 0 1 .65-4 8.46 8.46 0 0 1 1.84-3 8.31 8.31 0 0 1 2.82-1.9 9.24 9.24 0 0 1 3.45-.62 8.63 8.63 0 0 1 4 .89 7.22 7.22 0 0 1 2.67 2.2 4.33 4.33 0 0 1 .93 2.47 1.6 1.6 0 0 1-.45 1.13 1.42 1.42 0 0 1-1.09.49 1.48 1.48 0 0 1-1.13-.34 4.44 4.44 0 0 1-.8-1.16 5.63 5.63 0 0 0-1.71-2.05A4.18 4.18 0 0 0 90.1 83a4.41 4.41 0 0 0-3.66 1.74 7.92 7.92 0 0 0-1.36 5 9.24 9.24 0 0 0 .6 3.57 4.52 4.52 0 0 0 1.71 2.12A4.66 4.66 0 0 0 90 96a4.52 4.52 0 0 0 2.71-.79 4.83 4.83 0 0 0 1.68-2.34 3.89 3.89 0 0 1 .61-1.15 1.33 1.33 0 0 1 1.12-.45 1.6 1.6 0 0 1 1.62 1.61z" fill="#252e4a"/></svg>