<svg id="Layer_1" data-name="Layer 1" xmlns="http://www.w3.org/2000/svg" viewBox="0 0 120 120"><defs><style>.cls-1{fill:#fff}.cls-3{fill:none;stroke:#252e4a;stroke-linecap:round;stroke-linejoin:round;stroke-width:3px}</style></defs><path class="cls-1" d="M23 17.75h45v10H23zM23 36.75h45v10H23zM23 93h45v10H23zM23 55.5h45v10H23zM23 74.25h45v10H23z"/><path d="M68 103V93H23v10zm0-18.75v-10H23v10zm0-37.5v-10H23v10zm0-19v-10H23v10zM23 65.5h45v-10H23zm52.5-23V110h-60V10h60z" fill="#579bfc"/><path class="cls-1" d="M101.75 42.5V110H75.5V42.5h26.25z"/><path class="cls-3" d="M15.5 110V10h60v32.5M89.66 42.5h12.09V110H75.5V42.5h14.16zM89.66 25v17.5M81.75 53.75H95.5M81.75 62.5H95.5M81.75 71.25H95.5M81.75 80H95.5M81.75 88.75H95.5M81.75 97.5H95.5"/><path class="cls-3" d="M23 55.5h45v10H23zM23 74.25h45v10H23zM23 93h45v10H23zM23 36.75h45v10H23zM23 17.75h45v10H23zM10 110h100"/></svg>