<svg id="Layer_1" data-name="Layer 1" xmlns="http://www.w3.org/2000/svg" viewBox="0 0 120 120"><defs><style>.cls-1,.cls-2{fill:#579bfc;stroke:#252e4a;stroke-linecap:round;stroke-linejoin:round;stroke-width:3px}.cls-2{fill:#fff}</style></defs><path class="cls-1" d="M10 35.5l48.18-24.57a4 4 0 0 1 3.64 0L110 35.5 60 61zM60 61v49l48-26.85a4 4 0 0 0 2-3.49V36z"/><path class="cls-2" d="M66 83.77V99l15.54-8.7V76L66 83.77zM60 61v49L12.05 83.15A4 4 0 0 1 10 79.66V36z"/><path class="cls-2" d="M27.08 45v27.08l3.69-1.23L36.92 77V49.92L27.08 45z"/><path class="cls-2" d="M36.92 49.92L87 24l-10-5-49.92 26 9.84 4.92z"/></svg>