<svg id="Layer_1" data-name="Layer 1" xmlns="http://www.w3.org/2000/svg" viewBox="0 0 120 120"><defs><style>.cls-1,.cls-3{fill:#fff}.cls-1,.cls-2,.cls-3{stroke:#252e4a;stroke-width:3px}.cls-1{stroke-miterlimit:10}.cls-2{fill:#579bfc}.cls-2,.cls-3{stroke-linecap:round;stroke-linejoin:round}</style></defs><rect class="cls-1" x="30.47" y="10" width="37" height="9" rx="4.5" ry="4.5"/><path class="cls-1" d="M84.87 104.44L61.84 50V19h-26v31l-23 54.44A4 4 0 0 0 16.5 110h64.68a4 4 0 0 0 3.69-5.56z"/><path class="cls-2" d="M66 78l9.4 22.22a2 2 0 0 1-1.82 2.78H24.11a2 2 0 0 1-1.84-2.78L31.67 78s2.17 2 9.17 2S55.2 75 66 78z"/><circle class="cls-2" cx="40.84" cy="70" r="3"/><circle class="cls-2" cx="55.84" cy="64" r="3"/><circle class="cls-2" cx="44.84" cy="50" r="3"/><circle class="cls-2" cx="72.5" cy="34" r="3"/><circle class="cls-2" cx="82.5" cy="39" r="3"/><circle class="cls-2" cx="92.5" cy="46" r="3"/><circle class="cls-1" cx="82.5" cy="85" r="25"/><path class="cls-3" d="M97.21 88.52v7.65c0 2.12-6.43 3.83-14.36 3.83S68.5 98.29 68.5 96.17v-7.65"/><ellipse class="cls-3" cx="82.85" cy="88.52" rx="14.35" ry="3.83"/><path class="cls-3" d="M97.21 80.65v7.66c0 2.11-6.43 3.82-14.36 3.82S68.5 90.42 68.5 88.31v-7.66"/><ellipse class="cls-3" cx="82.85" cy="80.65" rx="14.35" ry="3.83"/><path class="cls-3" d="M97.21 72.79v7.65c0 2.11-6.43 3.83-14.36 3.83S68.5 82.55 68.5 80.44v-7.65"/><ellipse class="cls-3" cx="82.85" cy="72.79" rx="14.35" ry="3.83"/><path class="cls-3" d="M82.5 59V42M83.5 54h9v-5M72.5 62V37"/></svg>