<svg id="Layer_1" data-name="Layer 1" xmlns="http://www.w3.org/2000/svg" viewBox="0 0 120 120"><defs><style>.cls-2{stroke:#252e4a;stroke-linecap:round;stroke-linejoin:round;stroke-width:3px;fill:#fff}</style></defs><path d="M58.05 10.71c-25.91 1-47 21.95-48 47.69A49.81 49.81 0 0 0 60 110h.07a7 7 0 0 0 6.93-7V72.08a11.65 11.65 0 0 1 9.61-11.6A11.49 11.49 0 0 1 90 71.76v17a4.88 4.88 0 0 0 8.66 3.06A49.23 49.23 0 0 0 110 60.33a49.84 49.84 0 0 0-51.95-49.62z" stroke="#252e4a" stroke-linecap="round" stroke-linejoin="round" stroke-width="3" fill="#579bfc"/><ellipse class="cls-2" cx="60" cy="28.55" rx="7" ry="6.95"/><ellipse class="cls-2" cx="37.37" cy="37.86" rx="7" ry="6.95"/><ellipse class="cls-2" cx="28" cy="60.33" rx="7" ry="6.95"/><ellipse class="cls-2" cx="37.37" cy="82.81" rx="7" ry="6.95"/><path class="cls-2" d="M85.56 47a1.07 1.07 0 0 0-.26-1.25l-2.48-2.47-2.48-2.46a1.1 1.1 0 0 0-1.27-.26c-2.71 1.44-13.53 7.64-28 22-13 12.93-28.7 35.92-35 45.49-.59.9.65 2.13 1.55 1.55 9.64-6.28 32.78-21.86 45.8-34.79C77.87 60.41 84.11 49.65 85.56 47z"/><path class="cls-2" d="M74 43.32l12.91-9.8L92.49 39 83 52.39s-6.37-3.85-9-9.07zM87.22 33.62s-1.76-10.5 8.81-14 12.33-5.25 13.21-9.62c0 0 4.4 27.12-16.74 28.87z"/></svg>