<svg version="1.1" id="Layer_1" xmlns="http://www.w3.org/2000/svg" x="0" y="0" viewBox="0 0 120 120" xml:space="preserve"><style>.st1{fill:#579bfc}.st2,.st3{fill:none;stroke:#252e4a;stroke-width:3;stroke-linecap:round;stroke-linejoin:round}.st3{fill:#579bfc}</style><path d="M59.9 44.3s-4.8 0-7.3-2.5C47.8 36.9 47 23 47 23s-.8-11.9 15.4-13h.2c1.4 0 2.5 1.1 2.5 2.5 9.5 0 7.8 10.3 7.8 10.3v.2s-.8 13.9-5.7 18.8c-2.4 2.5-7.3 2.5-7.3 2.5z" fill="#fff"/><path class="st1" d="M44.5 50.3l8.6 25.8v.7c-13.5-.8-20.2-4-22.4-5.3-.5-.3-.9-.9-.9-1.5v-9.4c.1-6.8 7-7.7 14.7-10.3zM63.3 49.4L62 56.1H58l-1.3-6.7zM75.5 50.3c7.8 2.6 14.6 3.5 14.6 10.3V70c0 .6-.3 1.2-.8 1.5-2.2 1.3-8.8 4.4-22.4 5.3v-.7l8.6-25.8z"/><path class="st1" d="M53.1 76.1l5.2-19.8V56h3.4v.3l5.2 19.8v.7c-2.1.1-4.4.2-6.9.2s-4.8-.1-6.9-.2v-.7z"/><path class="st2" d="M52.2 24.5s13.8.9 13.8-6.9c0 0 1.7 5.2 6.9 5.2 0 0 1.7-10.3-7.8-10.3 0-1.4-1.1-2.5-2.5-2.5h-.2C46.2 11.1 47 23 47 23s.8 13.9 5.6 18.8c2.4 2.5 7.3 2.5 7.3 2.5s4.9 0 7.3-2.5c4.9-4.9 5.7-18.8 5.7-18.8M58.3 56.3l-5.2 19.8-8.6-25.8c-7.8 2.6-14.6 3.5-14.6 10.3V70c0 .6.3 1.2.8 1.5 2.2 1.3 8.8 4.4 22.4 5.3 2.1.2 4.4.2 6.9.2s4.8-.1 6.9-.2c13.5-.8 20.2-4 22.4-5.3.5-.3.9-.9.8-1.5v-9.4c0-6.9-6.9-7.8-14.6-10.3l-8.6 25.9-5.2-19.8"/><path class="st2" d="M58.3 56.1H58l-1.3-6.7h6.6L62 56.1h-.3z"/><circle class="st3" cx="19" cy="101" r="9"/><circle class="st3" cx="60" cy="101" r="9"/><circle class="st3" cx="101" cy="101" r="9"/><path class="st2" d="M60 77v15M60 85H23c-2.2 0-4 1.8-4 4v3M61 85h37c2.2 0 4 1.8 4 4v3"/><circle class="st3" cx="80.5" cy="102" r="7.2"/><circle class="st3" cx="39.5" cy="101.5" r="7.2"/><path class="st2" d="M39.5 85.5v8M80.5 86.5v8"/></svg>