<svg id="Layer_1" data-name="Layer 1" xmlns="http://www.w3.org/2000/svg" viewBox="0 0 120 120"><defs><style>.cls-1{fill:#fff;stroke:#252e4a;stroke-width:3px;stroke-linecap:round;stroke-linejoin:round}.cls-3{fill:#579bfc}</style></defs><path class="cls-1" d="M14.32 10h91.36a4.32 4.32 0 0 1 4.32 4.32V24H10v-9.68A4.32 4.32 0 0 1 14.32 10z"/><path d="M10 24h100v82a4 4 0 0 1-4 4H14a4 4 0 0 1-4-4V24h0z" stroke-miterlimit="10" fill="#579bfc" stroke="#252e4a" stroke-width="3"/><circle class="cls-3" cx="16.5" cy="17" r="2"/><circle class="cls-3" cx="21.5" cy="17" r="2"/><circle class="cls-3" cx="26.5" cy="17" r="2"/><path d="M22 36h8l13 44h-1a3 3 0 0 0-3 3h0a3 3 0 0 0 3 3h41" fill="none" stroke-linecap="round" stroke-linejoin="round" stroke="#252e4a" stroke-width="3"/><path class="cls-1" d="M34 48h53.36a2 2 0 0 1 1.93 2.54l-7.47 26.54A4 4 0 0 1 78 80H43z"/><circle class="cls-1" cx="48" cy="90.5" r="4.5"/><circle class="cls-1" cx="73.5" cy="90.5" r="4.5"/><path class="cls-1" d="M47 68h18v12H47zM52 58h13v10H52zM65 61h13v19H65z"/></svg>