<svg id="Layer_1" data-name="Layer 1" xmlns="http://www.w3.org/2000/svg" viewBox="0 0 120 120"><defs><style>.cls-2{stroke:#252e4a;stroke-linecap:round;stroke-linejoin:round;stroke-width:3px;fill:none}.cls-4{fill:#fff}</style></defs><circle cx="60" cy="60" r="50" stroke="#252e4a" stroke-linecap="round" stroke-linejoin="round" stroke-width="3" fill="#579bfc"/><path class="cls-2" d="M73.71 46.55a63.2 63.2 0 0 1 8.74-2.27"/><circle cx="90.65" cy="43.82" r="9.35" fill="#fff" stroke="#252e4a" stroke-linecap="round" stroke-linejoin="round" stroke-width="3"/><path class="cls-4" d="M77 61.35a26.16 26.16 0 0 1-5.2 15.12L70.63 76c0-2.18-2.17-3.26-6.51-1.09s-8.68-5.43-8.68-8.68 5.43-7.6 7.6-8.68 1.08-8.69 0-9.77-5.43 1.08-5.43 5.42-5.43 9.77-7.6 9.77-5.42-3.25-4.34-5.42 0-6.52 0-10.86 11.94-9.76 11.94-9.76l.39-1.39a26.25 26.25 0 0 1 19 25.22v.59z"/><path d="M70.63 76l1.14.51a26.25 26.25 0 0 1-45.77-7h.14c1.08 1.09 6.51 3.26 9.77 4.34s5.42 7.6 7.59 9.77 8.68-1.15 6.5-3.32-2.17-8.69-4.34-9.77-6.51-2.17-9.76-4.34 0-6.51 2.17-11.94-7.6-7.6-8.69-7.6l-.55-.34A26.26 26.26 0 0 1 58 35.54l-.39 1.35s-11.94 5.42-11.94 9.76 1.09 8.69 0 10.86 2.17 5.42 4.34 5.42 7.6-5.42 7.6-9.77S62 46.65 63 47.74s2.17 8.68 0 9.77-7.6 5.42-7.6 8.68 4.38 10.81 8.72 8.68 6.51-1.09 6.51 1.13z" fill="#579bfc"/><path class="cls-4" d="M50 80.3c2.17 2.17-4.34 5.42-6.51 3.25s-4.34-8.68-7.59-9.77-8.69-3.25-9.77-4.34h-.14a26.3 26.3 0 0 1 2-21.75c.28-.49.58-1 .88-1.43l.55.34c1.09 0 10.86 2.17 8.69 7.6s-5.46 9.8-2.2 11.99 7.59 3.25 9.76 4.34 2.17 7.6 4.33 9.77z"/><path class="cls-2" d="M58 35.54a26.25 26.25 0 0 1 19 25.22v.59a26.23 26.23 0 1 1-49-13.61c.28-.49.58-1 .88-1.43A26.26 26.26 0 0 1 58 35.54z"/><path class="cls-2" d="M29.39 46.65c1.09 0 10.86 2.17 8.69 7.6S32.65 64 35.91 66.19s7.59 3.25 9.76 4.34 2.17 7.6 4.34 9.77-4.34 5.42-6.51 3.25-4.34-8.68-7.59-9.77-8.69-3.25-9.77-4.34M57.61 36.89s-11.94 5.42-11.94 9.76 1.09 8.69 0 10.86 2.17 5.42 4.34 5.42 7.6-5.42 7.6-9.77S62 46.65 63 47.74s2.17 8.68 0 9.77-7.6 5.42-7.6 8.68 4.38 10.81 8.72 8.68 6.51-1.09 6.51 1.09M75 69.44s-1.09-4.34-3.26-4.34c-2 0 4.13-1.79 5.25-3.75a1.22 1.22 0 0 0 .18-.59"/><path class="cls-2" d="M92.63 45c2 4.06-12.2 15.13-31.71 24.72S24 83.83 22 79.76c-.81-1.63 1-4.38 4.71-7.72"/></svg>