<svg id="Layer_1" data-name="Layer 1" xmlns="http://www.w3.org/2000/svg" viewBox="0 0 120 120"><defs><style>.cls-1{fill:#fff}.cls-3{fill:none;stroke:#252e4a;stroke-linecap:round;stroke-linejoin:round;stroke-width:3px}</style></defs><path class="cls-1" d="M41.61 33.77c.21 2.82 1.71 19.94 8 26.33a7.05 7.05 0 0 0 1 .83l-.09.12s-.23 6.81-2.09 11.55l-1.73-1.8c-4.3 1.44-9.7 2.7-14.7 4.29l-.45-1.44c2.85-12.35 1.9-28.5 1.9-28.5C30.55 10 60 10 60 10s29.45 0 26.6 35.15c0 0-.95 16.15 1.9 28.5l-.24.66c-4.74-1.7-9.85-3.07-14-4.46l-1.9 1.9C70.45 67 70.22 60.1 70.22 60.1c6.87-7 8-26.73 8-26.73-5.51 0-6.84-6.27-6.84-6.27C58.1 42.3 42 33.75 42 33.75z"/><path class="cls-1" d="M78.24 33.37s-1.15 19.76-8 26.73c-3.43 3.48-10.3 3.48-10.3 3.48s-5.72 0-9.33-2.65a7.05 7.05 0 0 1-1-.83c-6.29-6.39-7.79-23.51-8-26.33h.34S58.1 42.3 71.4 27.1c0 0 1.33 6.27 6.84 6.27z"/><path class="cls-1" d="M72.35 71.75l-6.77 6.78a8.17 8.17 0 0 1-11.35.19l-5.82-6.12c1.86-4.74 2.09-11.55 2.09-11.55l.09-.12c3.61 2.65 9.33 2.65 9.33 2.65s6.87 0 10.3-3.48c0 0 .23 6.9 2.13 11.65z"/><path d="M48.41 72.6l5.82 6.12a8.17 8.17 0 0 0 11.35-.19l6.77-6.78 1.9-1.9c4.16 1.39 9.27 2.76 14 4.46 7.74 2.77 14.49 6.42 14.49 12.48v13.33a2.43 2.43 0 0 1-1.19 2.1C98 104.33 85.87 110 60 110s-38-5.67-41.56-7.78a2.43 2.43 0 0 1-1.19-2.1V86.79c0-6 6.86-9.23 14.7-11.7C37 73.5 42.4 72.24 46.7 70.8z" fill="#579bfc"/><path class="cls-3" d="M42 33.75s16.1 8.55 29.4-6.65c0 0 1.33 6.27 6.84 6.27 0 0-1.15 19.76-8 26.73-3.43 3.48-10.3 3.48-10.3 3.48s-5.72 0-9.33-2.65a7.05 7.05 0 0 1-1-.83c-6.29-6.39-7.79-23.51-8-26.33v-.4M72.35 71.75l-6.77 6.78a8.17 8.17 0 0 1-11.35.19l-5.82-6.12-1.71-1.8c-4.3 1.44-9.7 2.7-14.7 4.29-7.84 2.47-14.7 5.75-14.7 11.7v13.33a2.43 2.43 0 0 0 1.19 2.1C22 104.33 34.13 110 60 110s38-5.67 41.56-7.78a2.43 2.43 0 0 0 1.19-2.1V86.79c0-6.06-6.75-9.71-14.49-12.48-4.74-1.7-9.85-3.07-14-4.46z"/><path class="cls-3" d="M60 10s-29.45 0-26.6 35.15c0 0 1 16.15-1.9 28.5M60 10s29.45 0 26.6 35.15c0 0-.95 16.15 1.9 28.5M70.22 60.1s.23 6.9 2.13 11.65M50.5 61.05s-.23 6.81-2.09 11.55a1 1 0 0 1 0 .1"/></svg>