<svg id="Layer_1" data-name="Layer 1" xmlns="http://www.w3.org/2000/svg" viewBox="0 0 120 120"><defs><style>.cls-2{stroke:#252e4a;stroke-linecap:round;stroke-linejoin:round;stroke-width:3px;fill:#fff}</style></defs><path d="M73 20.75A10.88 10.88 0 0 1 84.08 9.88a11.1 11.1 0 0 1 10.67 11.23V50L94 110H30a8 8 0 0 1-8-8V21z" stroke="#252e4a" stroke-linecap="round" stroke-linejoin="round" stroke-width="3" fill="#579bfc"/><path class="cls-2" d="M83.88 10S73 10.62 73 20.88H10S9 10.12 22 10.12 83.88 10 83.88 10zM30 35h24v19H30zM62 35h24v19H62zM30 66h24v19H30zM62 66h24v19H62z"/><path class="cls-2" d="M31 53l7-8 3 3 6-5M63 42l6 6 5-5 5 3M30 83l8-10 5 6 5-7M62 72l7 5 2-2 5 1 5-5M30 93h38.35M30 102h45"/><circle class="cls-2" cx="89.5" cy="89.5" r="20.5"/><path d="M90.66 79v1.25a7.22 7.22 0 0 1 2.14.52 4.17 4.17 0 0 1 1.56 1.16 5.17 5.17 0 0 1 .81 1.22 2.84 2.84 0 0 1 .28 1.16 1.4 1.4 0 0 1-.42 1 1.49 1.49 0 0 1-2.51-.81 2.66 2.66 0 0 0-1.86-1.94v4.85c1 .26 1.73.5 2.31.72a4.83 4.83 0 0 1 1.53.87 4.37 4.37 0 0 1 1.11 1.54 4.78 4.78 0 0 1 .39 2 5.28 5.28 0 0 1-.62 2.46 5 5 0 0 1-1.84 1.89 6.5 6.5 0 0 1-2.88.87v2.9a2.79 2.79 0 0 1-.13 1 .57.57 0 0 1-.59.31.67.67 0 0 1-.59-.26 1.47 1.47 0 0 1-.17-.79v-3.11a7.82 7.82 0 0 1-2.38-.64A5.88 5.88 0 0 1 85.1 96a5.23 5.23 0 0 1-1-1.52 4.13 4.13 0 0 1-.32-1.54 1.42 1.42 0 0 1 .43-1 1.48 1.48 0 0 1 1.09-.45 1.51 1.51 0 0 1 .89.25 1.23 1.23 0 0 1 .5.69 14.36 14.36 0 0 0 .55 1.46 2.75 2.75 0 0 0 .7.92 3.08 3.08 0 0 0 1.25.64V90a14.78 14.78 0 0 1-2.61-1 4.57 4.57 0 0 1-1.7-1.51 5 5 0 0 1 .63-5.81 5.73 5.73 0 0 1 3.68-1.49V79c0-.65.25-1 .74-1s.73.32.73 1zm-1.48 8v-4.51a4.07 4.07 0 0 0-1.52.76 2.17 2.17 0 0 0 0 2.84 4.86 4.86 0 0 0 1.52.91zm1.48 3.46v5.1a3.18 3.18 0 0 0 1.82-.94 2.4 2.4 0 0 0 .64-1.66 2 2 0 0 0-.62-1.56 5 5 0 0 0-1.84-.99z" fill="#252e4a"/></svg>