<svg id="Layer_1" data-name="Layer 1" xmlns="http://www.w3.org/2000/svg" viewBox="0 0 120 120"><defs><style>.cls-2{stroke:#252e4a;stroke-linecap:round;stroke-linejoin:round;stroke-width:3px;fill:#fff}</style></defs><path d="M73 20.75A10.88 10.88 0 0 1 84.08 9.88a11.1 11.1 0 0 1 10.67 11.23V50L94 110H30a8 8 0 0 1-8-8V21z" stroke="#252e4a" stroke-linecap="round" stroke-linejoin="round" stroke-width="3" fill="#579bfc"/><path class="cls-2" d="M83.88 10S73 10.62 73 20.87H10S9 10.12 22 10.12 83.88 10 83.88 10zM30 35h24v19H30zM62 35h24v19H62zM30 66h24v19H30zM62 66h24v19H62z"/><path class="cls-2" d="M31 53l7-8 3 3 6-5M63 42l6 6 5-5 5 3M30 83l8-10 5 6 5-7M62 72l7 5 2-2 5 1 5-5M110 96.12v9.25c0 2.56-7.77 4.63-17.35 4.63s-17.36-2.07-17.36-4.63v-9.25"/><ellipse class="cls-2" cx="92.65" cy="96.12" rx="17.35" ry="4.63"/><path class="cls-2" d="M103.06 84.55v9.25c0 2.56-7.77 4.63-17.35 4.63s-17.36-2.07-17.36-4.63v-9.25"/><ellipse class="cls-2" cx="85.71" cy="84.55" rx="17.35" ry="4.63"/><path class="cls-2" d="M110 74.14v9.25C110 86 102.23 88 92.65 88s-17.36-2-17.36-4.61v-9.25"/><ellipse class="cls-2" cx="92.65" cy="74.14" rx="17.35" ry="4.63"/><path class="cls-2" d="M104.22 64.88v9.26c0 2.55-7.77 4.62-17.36 4.62s-17.35-2.07-17.35-4.62v-9.26"/><ellipse class="cls-2" cx="86.86" cy="64.88" rx="17.35" ry="4.63"/><path class="cls-2" d="M109.11 55.23v9.25c0 2.56-7.77 4.63-17.36 4.63S74.4 67 74.4 64.48v-9.25"/><ellipse class="cls-2" cx="91.75" cy="55.23" rx="17.35" ry="4.63"/><path class="cls-2" d="M30 93h38.35M30 102h45"/></svg>