<svg id="Layer_1" data-name="Layer 1" xmlns="http://www.w3.org/2000/svg" viewBox="0 0 120 120"><defs><style>.cls-1,.cls-2{fill:#579bfc;stroke:#252e4a;stroke-linecap:round;stroke-linejoin:round;stroke-width:3px}.cls-2{fill:#fff}</style></defs><path class="cls-1" d="M96 110H27a4 4 0 0 1-4-4V27l16-17h57a4 4 0 0 1 4 4v92a4 4 0 0 1-4 4z"/><path class="cls-2" d="M32 42h10v10H32zM42 42h50v10H42z"/><path class="cls-1" d="M31 24h61v10H31z"/><path class="cls-2" d="M32 52h10v10H32zM42 52h50v10H42zM32 62h10v10H32zM42 62h50v10H42zM32 72h10v10H32zM42 72h50v10H42zM32 82h10v10H32zM42 82h50v10H42zM32 92h10v10H32zM42 92h50v10H42z"/><path class="cls-2" d="M111 96.12v9.25c0 2.56-7.77 4.63-17.35 4.63s-17.36-2.07-17.36-4.63v-9.25"/><ellipse class="cls-2" cx="93.65" cy="96.12" rx="17.35" ry="4.63"/><path class="cls-2" d="M104.06 84.55v9.25c0 2.56-7.77 4.63-17.35 4.63s-17.36-2.07-17.36-4.63v-9.25"/><ellipse class="cls-2" cx="86.71" cy="84.55" rx="17.35" ry="4.63"/><path class="cls-2" d="M111 74.14v9.25C111 86 103.23 88 93.65 88s-17.36-2-17.36-4.61v-9.25"/><ellipse class="cls-2" cx="93.65" cy="74.14" rx="17.35" ry="4.63"/><path class="cls-2" d="M105.22 64.88v9.26c0 2.55-7.77 4.62-17.36 4.62s-17.35-2.07-17.35-4.62v-9.26"/><ellipse class="cls-2" cx="87.86" cy="64.88" rx="17.35" ry="4.63"/><path class="cls-2" d="M110.11 55.23v9.25c0 2.56-7.77 4.63-17.36 4.63S75.4 67 75.4 64.48v-9.25"/><ellipse class="cls-2" cx="92.75" cy="55.23" rx="17.35" ry="4.63"/><path class="cls-2" d="M23 27h15V10L23 27z"/></svg>