<svg id="Layer_1" data-name="Layer 1" xmlns="http://www.w3.org/2000/svg" viewBox="0 0 120 120"><defs><style>.cls-1,.cls-2{fill:#579bfc;stroke:#252e4a;stroke-linecap:round;stroke-linejoin:round;stroke-width:3px}.cls-2{fill:#fff}</style></defs><circle class="cls-1" cx="60" cy="60" r="50"/><circle class="cls-1" cx="60" cy="60" r="28"/><path class="cls-2" d="M31.45 98L70.1 54.63l-2.36-2.36-2.37-2.37L22 88.55s-7.88 6.31-2.36 11.83S31.45 98 31.45 98z"/><path class="cls-2" d="M87.51 53a14.49 14.49 0 0 1-21-.51 14.77 14.77 0 0 1 .77-20.29l18.77-18.76a3.11 3.11 0 0 1 4.39 0 3.1 3.1 0 0 1 0 4.4L76.89 31.39a2.59 2.59 0 0 0 0 3.66 2.59 2.59 0 0 0 3.66 0L94.11 21.5a3.11 3.11 0 0 1 4.39 0 3.12 3.12 0 0 1 0 4.4L85 39.45a2.59 2.59 0 0 0 0 3.66 2.59 2.59 0 0 0 3.66 0l13.55-13.55a3.12 3.12 0 0 1 4.4 0 3.11 3.11 0 0 1 0 4.39zM17.13 17.12L69.9 64.81 56.7 79S16.12 48.57 17.13 17.12zM69.9 64.81l30.93 27.39a6.1 6.1 0 0 1 .51 8.63 6.1 6.1 0 0 1-8.61.52L61.78 73.94z"/></svg>