<svg id="Layer_1" data-name="Layer 1" xmlns="http://www.w3.org/2000/svg" viewBox="0 0 120 120"><defs><style>.cls-1,.cls-2{fill:#579bfc;stroke:#252e4a;stroke-linecap:round;stroke-linejoin:round;stroke-width:3px}.cls-2{fill:#fff}</style></defs><path class="cls-1" d="M102.17 110H17.83a3.92 3.92 0 0 1-3.83-4V61h92v45a3.92 3.92 0 0 1-3.83 4z"/><path class="cls-2" d="M110 50.68V37a4 4 0 0 0-4-4H14a4 4 0 0 0-4 4v13.68a22.06 22.06 0 0 0 17.33 21.54C38 74.56 51.14 77 60 77s22-2.44 32.67-4.78A22.06 22.06 0 0 0 110 50.68z"/><path class="cls-2" d="M50 69h20v14H50zM53 83h14v27H53z"/><path class="cls-1" d="M69.74 10H50.26A10.26 10.26 0 0 0 40 20.26V33h9.57v-9.93A5.07 5.07 0 0 1 54.64 18h10.72a5.07 5.07 0 0 1 5.07 5.07V33H80V20.26A10.26 10.26 0 0 0 69.74 10zM55 76h10"/></svg>