<svg data-name="Layer 1" xmlns="http://www.w3.org/2000/svg" viewBox="0 0 120 120"><circle cx="60" cy="60" r="50" stroke="#252e4a" stroke-linecap="round" stroke-linejoin="round" stroke-width="3" fill="#579bfc"/><path d="M81 51.5H69v-12a3.46 3.46 0 0 0-3.46-3.5H54.46A3.46 3.46 0 0 0 51 39.46v12H39A3.46 3.46 0 0 0 35.5 55v11a3.46 3.46 0 0 0 3.5 3.5h12v12a3.46 3.46 0 0 0 3.46 3.5h11.08A3.46 3.46 0 0 0 69 81.54v-12h12A3.46 3.46 0 0 0 84.5 66V55a3.46 3.46 0 0 0-3.5-3.5z" fill="#fff" stroke="#252e4a" stroke-linecap="round" stroke-linejoin="round" stroke-width="3"/></svg>