<svg id="Layer_1" data-name="Layer 1" xmlns="http://www.w3.org/2000/svg" viewBox="0 0 120 120"><defs><style>.cls-3{fill:#579bfc}.cls-2,.cls-3,.cls-4{stroke:#252e4a;stroke-width:3px}.cls-2{fill:#fff}.cls-2,.cls-3,.cls-4{stroke-linecap:round;stroke-linejoin:round}.cls-4{fill:none}</style></defs><path d="M60 31.69A31.32 31.32 0 1 0 91.33 63 31.32 31.32 0 0 0 60 31.69zM60 86a23 23 0 1 1 23-23 23 23 0 0 1-23 23z" stroke-miterlimit="10" stroke="#252e4a" stroke-width="3" fill="#579bfc"/><path class="cls-2" d="M79 88.25l17.44 17.45a4.42 4.42 0 0 0 6.26 0 4.42 4.42 0 0 0 0-6.26L85.25 82A24.86 24.86 0 0 1 79 88.25z"/><circle class="cls-3" cx="60.01" cy="53.07" r="6.96"/><path class="cls-3" d="M72.54 72.56a12.53 12.53 0 0 0-25.06 0A66.41 66.41 0 0 0 60 74a66.27 66.27 0 0 0 12.54-1.44z"/><circle class="cls-2" cx="100.63" cy="56.65" r="5.21"/><path class="cls-2" d="M110 71.23a9.38 9.38 0 0 0-18.75 0 49.65 49.65 0 0 0 9.37 1 49.69 49.69 0 0 0 9.38-1z"/><circle class="cls-2" cx="19.38" cy="56.65" r="5.21"/><path class="cls-2" d="M28.75 71.23a9.38 9.38 0 0 0-18.75 0 49.69 49.69 0 0 0 9.38 1 49.65 49.65 0 0 0 9.37-1z"/><path class="cls-4" d="M82 63.07a4.6 4.6 0 0 1-2.09-8.7M82 63.07a8.28 8.28 0 0 0-8.28 8.27 44.71 44.71 0 0 0 6.19.85M38 63.07a4.6 4.6 0 0 0 2.09-8.7"/><path class="cls-4" d="M38 63.07a8.28 8.28 0 0 1 8.28 8.27s-3.94.64-7.28.85M60 13v11.25M78.75 16.65l-4.22 10.43M94.76 27.06l-7.82 8.09M40.78 16.65L45 27.08M24.77 27.06l7.82 8.09"/></svg>