<svg id="Layer_1" data-name="Layer 1" xmlns="http://www.w3.org/2000/svg" viewBox="0 0 120 120"><defs><style>.cls-4{stroke:#252e4a}.cls-3,.cls-4{stroke-linecap:round;stroke-linejoin:round;stroke-width:3px}.cls-3{fill:#579bfc;stroke:#fff}.cls-4{fill:none}</style></defs><rect x="29" y="10" width="62" height="100" rx="4" ry="4" stroke-width="3" stroke-linecap="round" stroke-linejoin="round" stroke="#252e4a" fill="#fff"/><path d="M67.12 99.84L32.25 110a3.26 3.26 0 0 1-3.25-3.25v-93.5A3.26 3.26 0 0 1 32.25 10l34.87 10.16A4 4 0 0 1 70 24v72a4 4 0 0 1-2.88 3.84z" stroke-miterlimit="10" fill="#579bfc" stroke-width="3" stroke="#252e4a"/><path class="cls-3" d="M64 72v18a2.63 2.63 0 0 1-1.9 2.53l-23 6.69a2.14 2.14 0 0 1-2.1-2.14V21.92a2.14 2.14 0 0 1 2.14-2.14l23 6.69A2.63 2.63 0 0 1 64 29v18"/><ellipse class="cls-3" cx="63" cy="59.5" rx="3" ry="4.5"/><path class="cls-4" d="M103 60H80M85 54l-6 6 6 6"/></svg>