<svg id="Layer_1" data-name="Layer 1" xmlns="http://www.w3.org/2000/svg" viewBox="0 0 120 120"><defs><style>.cls-1{fill:#fff;stroke:#252e4a;stroke-width:3px;stroke-linecap:round;stroke-linejoin:round}</style></defs><rect class="cls-1" x="10" y="10" width="100" height="79" rx="4.11" ry="4.11"/><rect x="16" y="16.32" width="88" height="55.62" rx="2.05" ry="2.05" stroke-miterlimit="10" fill="#579bfc" stroke="#252e4a" stroke-width="3"/><circle cx="60" cy="80" r="4" fill="#252e4a"/><path stroke-miterlimit="10" stroke="#252e4a" stroke-width="3" fill="#fff" d="M45 89h30v16H45z"/><path class="cls-1" d="M40.75 105h38.5a4.75 4.75 0 0 1 4.75 4.75v.25H36v-.25a4.75 4.75 0 0 1 4.75-4.75zM78.47 57.87L53.13 33.65a7.81 7.81 0 0 0-2.06-8.28 8.81 8.81 0 0 0-8.57-2 .52.52 0 0 0-.22.87l4.89 4.65a3 3 0 0 1 .31 4.1 3.24 3.24 0 0 1-4.64.22l-5-4.61a.57.57 0 0 0-.92.22 7.86 7.86 0 0 0 2.15 8 8.84 8.84 0 0 0 9.18 1.79l25.24 24.17a3.71 3.71 0 0 0 5.38-.34 3.35 3.35 0 0 0-.4-4.57z"/><path class="cls-1" d="M41.38 57.87l25.35-24.22a7.83 7.83 0 0 1 2-8.28 8.81 8.81 0 0 1 8.57-2 .52.52 0 0 1 .22.87l-4.89 4.65a3 3 0 0 0-.3 4.1 3.24 3.24 0 0 0 4.64.22l5-4.61a.56.56 0 0 1 .91.22 7.82 7.82 0 0 1-2.15 8 8.83 8.83 0 0 1-9.17 1.79l-25.2 24.17a3.7 3.7 0 0 1-5.36-.34 3.35 3.35 0 0 1 .38-4.57z"/><path class="cls-1" d="M75.83 48.59v-.16a2.26 2.26 0 0 0-2.26-2.26 2.27 2.27 0 0 1-2.14-1.54 10.86 10.86 0 0 0-.43-1.16 2.28 2.28 0 0 1 .41-2.62 2.25 2.25 0 0 0 0-3.2l-.11-.11a2.26 2.26 0 0 0-3.19 0 2.3 2.3 0 0 1-2.62.42 11.79 11.79 0 0 0-1.16-.48 2.28 2.28 0 0 1-1.55-2.14 2.26 2.26 0 0 0-2.26-2.26h-.15a2.26 2.26 0 0 0-2.26 2.26 2.28 2.28 0 0 1-1.55 2.14 11.79 11.79 0 0 0-1.16.48 2.3 2.3 0 0 1-2.62-.42 2.26 2.26 0 0 0-3.19 0l-.11.11a2.25 2.25 0 0 0 0 3.2 2.28 2.28 0 0 1 .41 2.62 10.86 10.86 0 0 0-.48 1.16 2.27 2.27 0 0 1-2.14 1.54A2.26 2.26 0 0 0 45 48.43v.16a2.26 2.26 0 0 0 2.26 2.26 2.28 2.28 0 0 1 2.14 1.55c.14.39.3.78.48 1.16a2.26 2.26 0 0 1-.41 2.61 2.25 2.25 0 0 0 0 3.2l.11.11a2.24 2.24 0 0 0 3.19 0 2.3 2.3 0 0 1 2.62-.42 11.79 11.79 0 0 0 1.16.48 2.29 2.29 0 0 1 1.55 2.15A2.26 2.26 0 0 0 60.32 64h.15a2.26 2.26 0 0 0 2.26-2.26 2.29 2.29 0 0 1 1.55-2.15 11.79 11.79 0 0 0 1.16-.48 2.3 2.3 0 0 1 2.62.42 2.24 2.24 0 0 0 3.19 0l.11-.11a2.25 2.25 0 0 0 0-3.2 2.26 2.26 0 0 1-.36-2.66c.18-.38.34-.77.48-1.16a2.28 2.28 0 0 1 2.14-1.55 2.26 2.26 0 0 0 2.21-2.26z"/><circle cx="59.46" cy="48.82" r="4.14" fill="#579bfc" stroke-linecap="round" stroke-linejoin="round" stroke="#252e4a" stroke-width="3"/></svg>