<svg id="Layer_1" data-name="Layer 1" xmlns="http://www.w3.org/2000/svg" viewBox="0 0 120 120"><defs><style>.cls-1{fill:#fff}.cls-1,.cls-2{stroke:#252e4a;stroke-width:3px}.cls-1{stroke-linecap:round;stroke-linejoin:round}.cls-2{fill:#579bfc;stroke-miterlimit:10}</style></defs><rect class="cls-1" x="10" y="10" width="100" height="79" rx="4.11" ry="4.11"/><rect class="cls-2" x="16.5" y="16" width="88" height="55.62" rx="2.05" ry="2.05"/><circle cx="60" cy="80" r="4" fill="#252e4a"/><path stroke-miterlimit="10" stroke="#252e4a" stroke-width="3" fill="#fff" d="M45 89h30v16H45z"/><path class="cls-1" d="M40.75 105h38.5a4.75 4.75 0 0 1 4.75 4.75v.25H36v-.25a4.75 4.75 0 0 1 4.75-4.75zM81 44.11v-.22a3.08 3.08 0 0 0-3.08-3.07 3.11 3.11 0 0 1-2.92-2.1 15.67 15.67 0 0 0-.66-1.59 3.1 3.1 0 0 1 .57-3.55 3.06 3.06 0 0 0 0-4.35l-.15-.15a3.06 3.06 0 0 0-4.35 0 3.1 3.1 0 0 1-3.55.57 15.67 15.67 0 0 0-1.58-.65 3.11 3.11 0 0 1-2.1-2.91A3.08 3.08 0 0 0 60.11 23h-.22a3.08 3.08 0 0 0-3.07 3.08 3.11 3.11 0 0 1-2.1 2.92 15.67 15.67 0 0 0-1.59.66 3.1 3.1 0 0 1-3.55-.57 3.06 3.06 0 0 0-4.35 0l-.15.15a3.06 3.06 0 0 0 0 4.35 3.1 3.1 0 0 1 .57 3.55 15.67 15.67 0 0 0-.65 1.58 3.11 3.11 0 0 1-2.91 2.1A3.08 3.08 0 0 0 39 43.89v.22a3.08 3.08 0 0 0 3.08 3.07 3.11 3.11 0 0 1 2.92 2.1 15.67 15.67 0 0 0 .66 1.59 3.1 3.1 0 0 1-.57 3.55 3.06 3.06 0 0 0 0 4.35l.15.15a3.06 3.06 0 0 0 4.35 0 3.1 3.1 0 0 1 3.55-.57 15.67 15.67 0 0 0 1.59.66 3.11 3.11 0 0 1 2.1 2.91A3.08 3.08 0 0 0 59.89 65h.22a3.08 3.08 0 0 0 3.07-3.08 3.11 3.11 0 0 1 2.1-2.92 15.67 15.67 0 0 0 1.59-.66 3.1 3.1 0 0 1 3.55.57 3.06 3.06 0 0 0 4.35 0l.15-.15a3.06 3.06 0 0 0 0-4.35 3.1 3.1 0 0 1-.57-3.55 15.67 15.67 0 0 0 .65-1.58 3.11 3.11 0 0 1 2.91-2.1A3.08 3.08 0 0 0 81 44.11z"/><circle class="cls-2" cx="60" cy="44" r="5"/></svg>