<svg id="Layer_1" data-name="Layer 1" xmlns="http://www.w3.org/2000/svg" viewBox="0 0 120 120"><defs><style>.cls-1{fill:#fff}.cls-3{fill:none;stroke:#252e4a;stroke-linecap:round;stroke-linejoin:round;stroke-width:3px}</style></defs><path class="cls-1" d="M75.63 67.79C75.14 69.12 71 79.19 59 79.19s-16.14-10.07-16.63-11.4c6.93-3.78 4.76-10.63 4-12.5a14.77 14.77 0 0 0 1.8 2.26C51.78 61.22 59 61.22 59 61.22s7.22 0 10.83-3.67a14.77 14.77 0 0 0 1.8-2.26c-.76 1.87-2.93 8.71 4 12.5z"/><path class="cls-1" d="M46.37 55.29c-5.63-8.61-6.63-25.82-6.63-25.82S38.59 11.77 62.69 10H63a3.73 3.73 0 0 1 3.73 3.72c14.12 0 11.56 15.4 11.56 15.4v.35s-1 17.21-6.63 25.82a14.77 14.77 0 0 1-1.8 2.26C66.22 61.22 59 61.22 59 61.22s-7.22 0-10.83-3.67a14.77 14.77 0 0 1-1.8-2.26z"/><path d="M103.93 85.61v14a2.55 2.55 0 0 1-1.25 2.2C98.92 104 86.21 110 59 110s-39.92-6-43.68-8.18a2.55 2.55 0 0 1-1.25-2.2v-14c0-10.27 14.12-12.84 25.67-16.69a15.39 15.39 0 0 0 2.63-1.13C42.86 69.12 47 79.19 59 79.19s16.14-10.07 16.63-11.4a15.39 15.39 0 0 0 2.63 1.13c11.55 3.85 25.67 6.42 25.67 16.69z" fill="#579bfc"/><path class="cls-3" d="M71.84 54.8a4.63 4.63 0 0 0-.21.49c-.76 1.87-2.93 8.72 4 12.5a15.39 15.39 0 0 0 2.63 1.13c11.55 3.85 25.67 6.42 25.67 16.69v14a2.55 2.55 0 0 1-1.25 2.2C98.92 104 86.21 110 59 110s-39.92-6-43.68-8.18a2.55 2.55 0 0 1-1.25-2.2v-14c0-10.27 14.12-12.84 25.67-16.69a15.39 15.39 0 0 0 2.63-1.13c6.93-3.78 4.76-10.63 4-12.5a4.63 4.63 0 0 0-.21-.49"/><path class="cls-3" d="M42.31 67.64l.06.15c.49 1.33 4.63 11.4 16.63 11.4s16.14-10.07 16.63-11.4l.06-.15M47.45 31.69S68 33 68 21.42c0 0 2.56 7.7 10.27 7.7 0 0 2.56-15.4-11.56-15.4A3.73 3.73 0 0 0 63 10h-.28c-24.1 1.76-22.95 19.46-22.95 19.46s1 17.21 6.63 25.82a14.77 14.77 0 0 0 1.8 2.26c3.58 3.68 10.8 3.68 10.8 3.68s7.22 0 10.83-3.67a14.77 14.77 0 0 0 1.8-2.26c5.63-8.61 6.63-25.82 6.63-25.82"/></svg>