<svg id="Layer_1" data-name="Layer 1" xmlns="http://www.w3.org/2000/svg" viewBox="0 0 120 120"><defs><style>.cls-2,.cls-4{fill:#579bfc}.cls-3{fill:none}.cls-3,.cls-4{stroke:#252e4a;stroke-linecap:round;stroke-linejoin:round;stroke-width:3px}</style></defs><path d="M59.94 44.28s-4.84 0-7.27-2.46C47.83 36.91 47 23 47 23s-.78-11.87 15.39-13h.19a2.49 2.49 0 0 1 2.5 2.49c9.47 0 7.75 10.33 7.75 10.33V23s-.81 13.93-5.65 18.84c-2.39 2.44-7.24 2.44-7.24 2.44z" fill="#fff"/><path class="cls-2" d="M44.5 50.3l8.61 25.84v.65c-13.54-.83-20.19-4-22.37-5.27a1.73 1.73 0 0 1-.88-1.52v-9.4c0-6.85 6.89-7.71 14.64-10.3zM63.35 49.37l-1.34 6.69h-4.02l-1.34-6.69h6.7zM75.5 50.3c7.75 2.59 14.64 3.45 14.64 10.34V70a1.73 1.73 0 0 1-.84 1.48c-2.18 1.27-8.83 4.44-22.37 5.27v-.65z"/><path class="cls-2" d="M53.11 76.14l5.17-19.81v-.27h3.44v.27l5.17 19.81v.65Q63.73 77 60 77t-6.93-.21z"/><path class="cls-3" d="M52.19 24.47S66 25.34 66 17.59c0 0 1.72 5.16 6.89 5.16 0 0 1.72-10.33-7.75-10.33a2.49 2.49 0 0 0-2.5-2.49h-.19C46.25 11.11 47 23 47 23s.8 13.93 5.64 18.84c2.43 2.46 7.27 2.46 7.27 2.46s4.85 0 7.27-2.46C72.05 36.91 72.86 23 72.86 23M58.28 56.33l-5.17 19.81L44.5 50.3c-7.75 2.59-14.64 3.45-14.64 10.34V70a1.73 1.73 0 0 0 .84 1.48c2.18 1.27 8.83 4.44 22.37 5.27q3.2.25 6.93.25t6.93-.21c13.54-.83 20.19-4 22.37-5.27a1.73 1.73 0 0 0 .84-1.52v-9.4c0-6.89-6.89-7.75-14.64-10.34l-8.61 25.88-5.17-19.81"/><path class="cls-3" d="M58.28 56.06h-.29l-1.34-6.69h6.7l-1.34 6.69h-3.73z"/><circle class="cls-4" cx="19" cy="101" r="9"/><circle class="cls-4" cx="60" cy="101" r="9"/><circle class="cls-4" cx="101" cy="101" r="9"/><path class="cls-4" d="M60 77v15"/><path class="cls-3" d="M60 85H23a4 4 0 0 0-4 4v3M61 85h37a4 4 0 0 1 4 4v3"/></svg>