<svg id="Layer_1" data-name="Layer 1" xmlns="http://www.w3.org/2000/svg" viewBox="0 0 120 120"><defs><style>.cls-2,.cls-3,.cls-4{stroke:#252e4a;stroke-linecap:round;stroke-linejoin:round;stroke-width:3px}.cls-2{fill:#fff}.cls-3{fill:#579bfc}.cls-4{fill:none}</style></defs><path stroke="#252e4a" stroke-linecap="round" stroke-linejoin="round" stroke-width="3" fill="#3773c8" d="M10 51h5v9h-5z"/><path class="cls-2" d="M19 41h25v29H19a4 4 0 0 1-4-4V45a4 4 0 0 1 4-4z"/><path class="cls-3" d="M44 41l31-13v56L44 70V41zM41 70l-5 9 4 10.6a4 4 0 0 1-3.77 5.4h-7.95a4 4 0 0 1-3.92-3.22L20 70z"/><path class="cls-2" d="M75 65a9 9 0 0 0 0-18z"/><path class="cls-4" d="M86.33 43.67a17.45 17.45 0 0 1 0 24.66M92.91 37.09a26.73 26.73 0 0 1 0 37.82M99.5 30.5a36.07 36.07 0 0 1 0 51"/></svg>