<svg id="Layer_1" data-name="Layer 1" xmlns="http://www.w3.org/2000/svg" viewBox="0 0 120 120"><defs><style>.cls-3{stroke:#252e4a}.cls-3,.cls-4{stroke-linecap:round;stroke-linejoin:round;stroke-width:3px}.cls-3{fill:#579bfc}.cls-4{fill:none;stroke:#fff}</style></defs><rect x="31" y="10" width="58" height="100" rx="4.31" ry="4.31" stroke-width="3" stroke-linecap="round" stroke-linejoin="round" stroke="#252e4a" fill="#fff"/><path d="M37 15a1 1 0 0 0-1 1v88a1 1 0 0 0 1 1h46a1 1 0 0 0 1-1V16a1 1 0 0 0-1-1h-8a1 1 0 0 0-1 1h0a4.51 4.51 0 0 1-4.51 4.51h-19A4.51 4.51 0 0 1 46 16h0a1 1 0 0 0-1-1z" stroke-miterlimit="10" fill="#579bfc" stroke-width="3" stroke="#252e4a"/><path class="cls-3" d="M54 16h9M67 16"/><path class="cls-4" d="M60 97.4L76.4 81M68.4 99l9.6-9.6"/></svg>