<svg xmlns="http://www.w3.org/2000/svg" viewBox="0 64.2 612 608"><path fill="#176ECB" d="M302.8 672.1c46.5.5 93.2-10.1 135.1-30.3 6.2-3 8.8-10.4 5.8-16.6-3-6.2-10.4-8.8-16.6-5.8C388.5 638 345.6 647.6 303 647c-44.6-.5-87.5-11.3-127.4-32.2C39.4 543.1-12.8 374 58.9 237.9s240.9-188.4 377-116.6 188.5 240.9 116.6 377c-3.2 5.9-.9 13.6 5.1 16.7 6.1 3.2 13.6.9 16.7-5.1 78.2-148.2 21.2-332.2-127-410.6s-332-21.1-410.2 127.1-21.2 332.2 127 410.6c42.8 22.6 90.8 34.7 138.7 35.1z"/><path fill="#176ECB" d="M303.2 622.9c38.4.3 77.1-8.3 111.8-25 5-2.5 7.2-8.6 4.7-13.7-2.5-5-8.6-7.2-13.7-4.7-32 15.4-67.4 23.3-102.5 23-37-.3-72.4-9.3-105.4-26.7-112.7-59.4-156-199.3-96.5-311.8s199.3-156 312-96.5S569.5 366.8 510 479.3c-2.6 5-.8 11.2 4.2 13.8 5 2.6 11.2.8 13.8-4.2 64.6-122.5 17.5-274.8-105-339.5s-275-17.5-339.6 105-17.5 274.8 105 339.5c35.5 18.6 75.1 28.7 114.8 29z"/><path fill="#176ECB" d="M597.2 535.7c-11.3-13-27.1-21.7-44.4-24.2l-39.5-6.2v-69c0-16.3-13.4-29.7-29.7-29.7h-.6c-16.3 0-29.7 13.4-29.7 29.7v110.6l-40.5-17.5c-8.2-3.4-17.6-2.6-25 2.2-7.4 4.9-12 13.2-12 22v.3c0 7.5 3.3 14.7 8.8 19.9l69 61.2v29.7c0 4.2 3.4 7.8 7.8 7.8 4.2 0 7.8-3.4 7.8-7.8v-33c0-2.2-.9-4.2-2.5-5.8l-71.5-63.4c-2.4-2.1-3.8-5.1-3.8-8.3v-.2c0-3.8 1.8-7.2 5-9.3 3.2-2.1 7-2.4 10.5-.9l51.6 22c.5.1.9.3 1.4.5.8.1 1.6.1 2.4.1h.8c.1 0 .3 0 .5-.1.1 0 .1 0 .3-.1.1 0 .3-.1.5-.1.1 0 .1 0 .3-.1.1 0 .3-.1.5-.1.1 0 .1 0 .3-.1.1 0 .3-.1.3-.1.1 0 .1-.1.3-.1.1 0 .1-.1.3-.1.1 0 .1-.1.3-.1.1 0 .1-.1.1-.1l.3-.3.1-.1.3-.3c0-.1.1-.1.1-.3.1-.1.1-.1.1-.3.1-.1.1-.3.3-.5l.1-.1c.3-.7.7-1.4.8-2.2.1-.5.1-1.1.1-1.6V436.9c0-7.9 6.4-14.3 14.3-14.3h.5c7.9 0 14.3 6.4 14.3 14.3v74.8c-.5 4.1 2.4 7.8 6.4 8.3l46.1 7.2h.1c27.9 3.9 49 28.2 49 56.3v.8c0 13-3.2 25.9-9.1 37.6L569.7 662c-1.8 3.8-.5 8.3 3.3 10.4 1.1.7 2.4.9 3.6.9 2.9 0 5.5-1.6 6.7-4.1l20.9-40.1c7.1-13.7 10.8-29.1 10.8-44.6v-.9c-.1-18-6.4-34.8-17.8-47.9z"/><g fill="#176ECB"><path d="M304.3 248.5c0 19.4-15.4 34.1-36 34.1-20.5 0-35.9-14.6-35.9-34.1 0-19.4 15.4-33.7 35.9-33.7 20.6 0 36 14.4 36 33.7zm-54.6.1c0 11.2 8.6 19.9 18.8 19.9 10.3 0 18.4-8.6 18.4-19.9s-8.2-19.7-18.4-19.7-18.8 8.5-18.8 19.7zM359.7 281.8l-30.6-41v41h-15.9v-66.5h14.9l30.7 41v-41h15.8v66.5h-14.9z"/></g><g fill="#176ECB"><path d="M118.8 329.3c20.9 0 35.3 13.5 35.3 33.3 0 19.7-14.6 33.3-36 33.3H90.2v-66.5h28.6zm-11.7 53.1h12.1c10.4 0 17.8-8 17.8-19.7 0-11.8-7.8-19.9-18.5-19.9h-11.3v39.6zM180 342.6v13.2h31.7v13.3H180v13.4h36.2v13.3h-53.1v-66.5h52.1v13.3H180zM285.3 395.8l-.1-43.2-16 36.6h-11l-16-36.6v43.2h-15.1v-66.6h18.5l18.1 39.6 18.1-39.6h18.4v66.6h-14.9zM328.7 383.6l-4.8 12.3h-17.4l28.7-66.5h17.4l28 66.5h-18.1l-4.8-12.3h-29zm14.6-37.4l-9.7 24.6h19.2l-9.5-24.6zM433.2 395.8l-30.6-41v41h-15.9v-66.5h14.9l30.7 41v-41h15.8v66.5h-14.9zM490 329.3c20.9 0 35.3 13.5 35.3 33.3 0 19.7-14.6 33.3-36 33.3h-27.9v-66.5H490zm-11.6 53.1h12.1c10.4 0 17.8-8 17.8-19.7 0-11.8-7.8-19.9-18.5-19.9h-11.3v39.6z"/></g></svg>