<svg id="Layer_1" data-name="Layer 1" xmlns="http://www.w3.org/2000/svg" viewBox="0 0 120 120"><defs><style>.cls-2{stroke:#252e4a;stroke-linecap:round;stroke-linejoin:round;stroke-width:3px;fill:#fff}</style></defs><path d="M10 40h100v66a4 4 0 0 1-4 4H14a4 4 0 0 1-4-4V40h0z" stroke="#252e4a" stroke-linecap="round" stroke-linejoin="round" stroke-width="3" fill="#579bfc"/><path class="cls-2" d="M110 40H10l9.09-27.26A4 4 0 0 1 22.88 10h74.24a4 4 0 0 1 3.79 2.74z"/><path class="cls-2" d="M51 10l-3 30v32l12-12 12 12V40l-3-30H51zM48 40h24M73 83.21h26V99H73z"/></svg>