<svg id="Layer_1" data-name="Layer 1" xmlns="http://www.w3.org/2000/svg" viewBox="0 0 120 120"><defs><style>.cls-1,.cls-2{stroke:#252e4a;stroke-width:3px}.cls-1{stroke-linecap:round;stroke-linejoin:round;fill:#579bfc}.cls-2{fill:#fff;stroke-miterlimit:10}</style></defs><path class="cls-1" d="M33.69 60.81l-13.78 4.62-2.84-8.46 13.77-4.62 2.85 8.46z"/><path class="cls-1" d="M88.09 47.28L35.11 65.04l-5.69-16.92L82.4 30.36l5.69 16.92z"/><path class="cls-1" d="M110 45.82l-20.13 6.75-9.25-27.5 20.13-6.75 9.25 27.5zM20.63 67.55l-6.36 2.13L10 56.98l6.36-2.13 4.27 12.7z"/><path class="cls-2" d="M37.41 98.27l19.53-38.38L61.38 62l-19.25 38a2.51 2.51 0 0 1-1.48 1.51 2.54 2.54 0 0 1-3.24-3.24z"/><path class="cls-2" d="M81.85 98.27L62.32 59.89 57.88 62l19.25 38a2.46 2.46 0 0 0 1.48 1.51 2.54 2.54 0 0 0 3.24-3.24z"/><ellipse class="cls-2" cx="60.22" cy="58.64" rx="7.61" ry="7.6"/></svg>