<svg id="Layer_1" data-name="Layer 1" xmlns="http://www.w3.org/2000/svg" viewBox="0 0 120 120"><defs><style>.cls-1,.cls-2{stroke:#252e4a;stroke-width:3px}.cls-1{stroke-miterlimit:10;fill:#579bfc}.cls-2{fill:#fff;stroke-linecap:round;stroke-linejoin:round}</style></defs><path class="cls-1" d="M107.61 91.91L45.46 32.77a16.71 16.71 0 0 0-4.39-17.71 18.82 18.82 0 0 0-18.32-4.26 1.1 1.1 0 0 0-.48 1.85l10.46 10a6.32 6.32 0 0 1 .65 8.76 6.93 6.93 0 0 1-9.92.46L12.68 22a1.21 1.21 0 0 0-1.95.48 16.73 16.73 0 0 0 4.6 17.11A18.91 18.91 0 0 0 35 43.4l62 59a7.94 7.94 0 0 0 11.5-.71 7.21 7.21 0 0 0-.89-9.78z"/><path class="cls-2" d="M79.6 80.05a4.89 4.89 0 0 1 0-7.13l7.49-7.13a5.47 5.47 0 0 1 7.48 0 4.89 4.89 0 0 1 0 7.13l-7.48 7.13a5.48 5.48 0 0 1-7.49 0zM73.85 71.27a4.87 4.87 0 0 1 0-7.13L81.33 57a5.47 5.47 0 0 1 7.48 0 4.87 4.87 0 0 1 0 7.13l-7.48 7.13a5.47 5.47 0 0 1-7.48.01z"/><path class="cls-2" d="M67.52 63a4.87 4.87 0 0 1 0-7.13L75 48.78a5.47 5.47 0 0 1 7.48 0 4.87 4.87 0 0 1 0 7.13L75 63a5.47 5.47 0 0 1-7.48 0z"/><path class="cls-2" d="M57.16 58.65a4.87 4.87 0 0 1 0-7.13l7.48-7.13a5.47 5.47 0 0 1 7.48 0 4.87 4.87 0 0 1 0 7.13l-7.48 7.13a5.47 5.47 0 0 1-7.48 0z"/><path class="cls-2" d="M58 78.13c9.78-9.33-1.15-20.85-1.15-20.85l7.79 7.43a9.66 9.66 0 0 0 13.19 0 2.64 2.64 0 0 0 0-3.88L61.47 45.21c-2.88-2.74-12.66-2.21-16.69 1.65S41.9 70.45 41.9 70.45L35 77l23 22 5.75-5.48a6.75 6.75 0 0 0 9.21 0L81 85.81 62 67.7"/><path class="cls-1" d="M47.7 108.88L24 86.28A3.64 3.64 0 0 1 24 81l5.3-5a4.17 4.17 0 0 1 5.68 0l23.7 22.5a3.65 3.65 0 0 1 0 5.33l-5.3 5a4.17 4.17 0 0 1-5.68.05z"/></svg>