<svg id="Layer_1" data-name="Layer 1" xmlns="http://www.w3.org/2000/svg" viewBox="0 0 120 120"><defs><style>.cls-1,.cls-2{fill:#579bfc;stroke:#252e4a;stroke-linecap:round;stroke-linejoin:round;stroke-width:3px}.cls-2{fill:#fff}</style></defs><path class="cls-1" d="M10 38.2h94v62a3.76 3.76 0 0 1-3.76 3.76H13.76a3.76 3.76 0 0 1-3.76-3.72v-62-.04z"/><path class="cls-2" d="M104 38.2H10l8.54-25.63A3.77 3.77 0 0 1 22.11 10h69.78a3.77 3.77 0 0 1 3.57 2.57z"/><path class="cls-2" d="M48.54 10l-2.82 28.2v30.08L57 57l11.28 11.28V38.2L65.46 10H48.54zM45.72 38.2h22.56M73 83.21h26V99H73z"/><circle class="cls-2" cx="85" cy="85" r="25"/><path class="cls-1" d="M104 85.1v-.2a2.79 2.79 0 0 0-2.78-2.78 2.81 2.81 0 0 1-2.64-1.9 13.84 13.84 0 0 0-.58-1.43 2.81 2.81 0 0 1 .51-3.22 2.78 2.78 0 0 0 0-3.94l-.13-.13a2.78 2.78 0 0 0-3.94 0 2.81 2.81 0 0 1-3.22.51 13.84 13.84 0 0 0-1.43-.59 2.81 2.81 0 0 1-1.9-2.64A2.79 2.79 0 0 0 85.1 66h-.2a2.79 2.79 0 0 0-2.78 2.78 2.81 2.81 0 0 1-1.9 2.64 13.84 13.84 0 0 0-1.43.59 2.81 2.81 0 0 1-3.22-.51 2.78 2.78 0 0 0-3.94 0l-.13.13a2.78 2.78 0 0 0 0 3.94 2.81 2.81 0 0 1 .5 3.22 13.84 13.84 0 0 0-.59 1.43 2.81 2.81 0 0 1-2.64 1.9A2.79 2.79 0 0 0 66 84.9v.2a2.79 2.79 0 0 0 2.78 2.78 2.81 2.81 0 0 1 2.64 1.9 13.84 13.84 0 0 0 .58 1.43 2.81 2.81 0 0 1-.51 3.22 2.78 2.78 0 0 0 0 3.94l.13.13a2.78 2.78 0 0 0 3.94 0 2.81 2.81 0 0 1 3.23-.5 13.84 13.84 0 0 0 1.43.59 2.81 2.81 0 0 1 1.9 2.64A2.79 2.79 0 0 0 84.9 104h.2a2.79 2.79 0 0 0 2.78-2.78 2.81 2.81 0 0 1 1.9-2.64 13.84 13.84 0 0 0 1.43-.58 2.81 2.81 0 0 1 3.22.51 2.78 2.78 0 0 0 3.94 0l.13-.13a2.78 2.78 0 0 0 0-3.94 2.81 2.81 0 0 1-.5-3.23 13.84 13.84 0 0 0 .59-1.43 2.81 2.81 0 0 1 2.64-1.9A2.79 2.79 0 0 0 104 85.1z"/><circle class="cls-2" cx="85" cy="85" r="5.18"/></svg>