<svg id="Layer_1" data-name="Layer 1" xmlns="http://www.w3.org/2000/svg" viewBox="0 0 120 120"><defs><style>.cls-3{stroke:#252e4a;stroke-linecap:round;stroke-linejoin:round;stroke-width:3px;fill:none}</style></defs><path d="M93 60.17v-.34A4.83 4.83 0 0 0 88.17 55h0a4.87 4.87 0 0 1-4.58-3.3c-.3-.85-.65-1.68-1-2.49a4.88 4.88 0 0 1 .89-5.59h0a4.83 4.83 0 0 0 0-6.84l-.23-.23a4.83 4.83 0 0 0-6.84 0h0a4.88 4.88 0 0 1-5.59.89c-.81-.38-1.64-.73-2.49-1A4.87 4.87 0 0 1 65 31.83h0A4.83 4.83 0 0 0 60.17 27h-.34A4.83 4.83 0 0 0 55 31.83h0a4.87 4.87 0 0 1-3.3 4.58c-.85.3-1.68.65-2.49 1a4.88 4.88 0 0 1-5.59-.89h0a4.83 4.83 0 0 0-6.84 0l-.23.23a4.83 4.83 0 0 0 0 6.84h0a4.88 4.88 0 0 1 .89 5.59c-.38.81-.73 1.64-1 2.49A4.87 4.87 0 0 1 31.83 55h0A4.83 4.83 0 0 0 27 59.83v.34A4.83 4.83 0 0 0 31.83 65h0a4.87 4.87 0 0 1 4.58 3.3c.3.85.65 1.68 1 2.49a4.88 4.88 0 0 1-.89 5.59h0a4.83 4.83 0 0 0 0 6.84l.23.23a4.83 4.83 0 0 0 6.84 0h0a4.88 4.88 0 0 1 5.59-.89c.81.38 1.64.73 2.49 1A4.87 4.87 0 0 1 55 88.17h0A4.83 4.83 0 0 0 59.83 93h.34A4.83 4.83 0 0 0 65 88.17h0a4.87 4.87 0 0 1 3.3-4.58c.85-.3 1.68-.65 2.49-1a4.88 4.88 0 0 1 5.59.89h0a4.83 4.83 0 0 0 6.84 0l.23-.23a4.83 4.83 0 0 0 0-6.84h0a4.88 4.88 0 0 1-.89-5.59c.38-.81.73-1.64 1-2.49A4.87 4.87 0 0 1 88.17 65h0A4.83 4.83 0 0 0 93 60.17z" stroke="#252e4a" stroke-linecap="round" stroke-linejoin="round" stroke-width="3" fill="#579bfc"/><circle cx="60" cy="60" r="9" fill="#fff" stroke="#252e4a" stroke-linecap="round" stroke-linejoin="round" stroke-width="3"/><path class="cls-3" d="M24.64 24.64a50 50 0 0 1 70.72 0M95.36 95.36a50 50 0 0 1-70.72 0"/><path class="cls-3" d="M89 26h7v-7M29 93h-7v7"/></svg>