<svg id="Layer_1" data-name="Layer 1" xmlns="http://www.w3.org/2000/svg" viewBox="0 0 120 120"><defs><style>.cls-1,.cls-2{fill:#579bfc;stroke:#252e4a;stroke-linecap:round;stroke-linejoin:round;stroke-width:3px}.cls-2{fill:#fff}</style></defs><path class="cls-1" d="M81 45.5a35.5 35.5 0 1 0-58.08 27.39L14.81 81H46.1A35.49 35.49 0 0 0 81 45.5z"/><path class="cls-2" d="M45 77.5a32.5 32.5 0 1 1 53.17 25.08l7.42 7.42H77a32.51 32.51 0 0 1-32-32.5z"/><circle class="cls-1" cx="61.26" cy="78.26" r="5.26"/><circle class="cls-1" cx="77.5" cy="78.26" r="5.26"/><circle class="cls-1" cx="93.74" cy="78.26" r="5.26"/><path class="cls-2" d="M31 36.14A9.6 9.6 0 0 1 32.63 31a12.42 12.42 0 0 1 4.74-4.3 14.92 14.92 0 0 1 7.28-1.7 15.59 15.59 0 0 1 6.83 1.43 11.07 11.07 0 0 1 4.57 3.88 9.53 9.53 0 0 1 1.61 5.33 8.28 8.28 0 0 1-.92 4 12 12 0 0 1-2.19 3q-1.26 1.15-4.55 4.09a16.38 16.38 0 0 0-1.45 1.45 5.81 5.81 0 0 0-.82 1.15 6.07 6.07 0 0 0-.41 1c-.1.34-.24 1-.44 1.82A3 3 0 0 1 43.72 55a3.29 3.29 0 0 1-2.34-.91 3.55 3.55 0 0 1-.94-2.69A9.43 9.43 0 0 1 43 44.61a42.47 42.47 0 0 1 3.09-3c1.14-1 2-1.74 2.47-2.25a7.76 7.76 0 0 0 1.28-1.69 4.09 4.09 0 0 0 .52-2 4.71 4.71 0 0 0-1.59-3.6 5.76 5.76 0 0 0-4.09-1.46 5.67 5.67 0 0 0-4.32 1.48A11.61 11.61 0 0 0 38 36.46q-.91 3-3.44 3A3.35 3.35 0 0 1 32 38.42a3.2 3.2 0 0 1-1-2.28zm13 29.22a4.21 4.21 0 0 1-2.84-1 3.68 3.68 0 0 1-1.21-3 3.8 3.8 0 0 1 1.17-2.82A3.94 3.94 0 0 1 44 57.39a3.91 3.91 0 0 1 4 4 3.73 3.73 0 0 1-1.2 2.94 4 4 0 0 1-2.8 1.03z"/></svg>