<svg id="Layer_1" data-name="Layer 1" xmlns="http://www.w3.org/2000/svg" viewBox="0 0 120 120"><defs><style>.cls-1,.cls-5{fill:#fff}.cls-1{stroke:#252e4a;stroke-width:3px;stroke-linecap:round;stroke-linejoin:round}</style></defs><rect class="cls-1" x="10" y="10" width="100" height="79" rx="4.11" ry="4.11"/><rect x="16.5" y="16" width="88" height="55.62" rx="2.05" ry="2.05" stroke-miterlimit="10" fill="#579bfc" stroke="#252e4a" stroke-width="3"/><circle cx="60" cy="80" r="4" fill="#252e4a"/><path stroke-miterlimit="10" stroke="#252e4a" stroke-width="3" fill="#fff" d="M45 89h30v16H45z"/><path class="cls-1" d="M40.75 105h38.5a4.75 4.75 0 0 1 4.75 4.75v.25H36v-.25a4.75 4.75 0 0 1 4.75-4.75z"/><path class="cls-5" d="M54.06 48.57v4.77L37.09 46v-4.1l17-7.35v4.81l-11.86 4.55zM64.56 34.45L59.83 53.9c-.15.64-.29 1.15-.41 1.52a1.91 1.91 0 0 1-.54.87 1.55 1.55 0 0 1-1.05.31c-1.15 0-1.73-.49-1.73-1.48a14 14 0 0 1 .34-1.94l4.71-19.46a8.65 8.65 0 0 1 .71-2.13 1.39 1.39 0 0 1 1.31-.59 1.87 1.87 0 0 1 1.3.4 1.47 1.47 0 0 1 .44 1.12 9.78 9.78 0 0 1-.35 1.93zM83.91 46l-17 7.39V48.6L78.8 44l-11.86-4.64v-4.75l17 7.33z"/></svg>