<svg id="Layer_1" data-name="Layer 1" xmlns="http://www.w3.org/2000/svg" viewBox="0 0 120 120"><defs><style>.cls-1,.cls-2{fill:#579bfc;stroke:#252e4a;stroke-linecap:round;stroke-linejoin:round;stroke-width:3px}.cls-2{fill:#fff}</style></defs><path class="cls-1" d="M24 50h72v55a5 5 0 0 1-5 5H29a5 5 0 0 1-5-5V50z"/><path class="cls-1" d="M10 49.86a7.15 7.15 0 0 0 14.29 0v-7.15H10z"/><path class="cls-2" d="M24.29 49.86a7.14 7.14 0 0 0 14.28 0v-7.15H24.29z"/><path class="cls-1" d="M38.57 49.86a7.15 7.15 0 0 0 14.29 0v-7.15H38.57z"/><path class="cls-2" d="M52.86 49.86a7.14 7.14 0 0 0 14.28 0v-7.15H52.86z"/><path class="cls-1" d="M67.14 49.86a7.15 7.15 0 0 0 14.29 0v-7.15H67.14z"/><path class="cls-2" d="M81.43 49.86a7.14 7.14 0 0 0 14.28 0v-7.15H81.43z"/><path class="cls-1" d="M95.71 49.86a7.15 7.15 0 0 0 14.29 0v-7.15H95.71z"/><path class="cls-2" d="M49 78h22v32H49zM10 42.67L24 25h71l15 17.67H10z"/><path class="cls-1" d="M24 10h71v15H24z"/><path class="cls-2" d="M24 92h25v18H28a4 4 0 0 1-4-4V92z"/><path class="cls-2" d="M75 92h21v18H71V96a4 4 0 0 1 4-4z" transform="rotate(180 83.5 101)"/></svg>