<svg id="Layer_1" data-name="Layer 1" xmlns="http://www.w3.org/2000/svg" viewBox="0 0 120 120"><defs><style>.cls-3{stroke:#252e4a;stroke-linecap:round;stroke-linejoin:round;stroke-width:3px;fill:none}</style></defs><circle cx="60" cy="60" r="50" stroke="#252e4a" stroke-linecap="round" stroke-linejoin="round" stroke-width="3" fill="#579bfc"/><circle cx="60" cy="60" r="32" fill="#fff"/><path class="cls-3" d="M28 60a32 32 0 1 1 9 22.25M22 56l6 7 7-7"/><path class="cls-3" d="M60 37v23l11.5 11.5"/><circle cx="87" cy="87" r="23" fill="#fff" stroke="#252e4a" stroke-linecap="round" stroke-linejoin="round" stroke-width="3"/><path d="M87.85 75v1.4a8 8 0 0 1 2.31.55 4.52 4.52 0 0 1 1.69 1.27 5 5 0 0 1 .87 1.32 3 3 0 0 1 .28 1.25 1.57 1.57 0 0 1-1.57 1.55A1.57 1.57 0 0 1 89.85 81a2.84 2.84 0 0 0-2-2.09v5.25q1.56.44 2.49.78A5.2 5.2 0 0 1 92 86a4.68 4.68 0 0 1 1.2 1.65 5.12 5.12 0 0 1 .43 2.12 5.57 5.57 0 0 1-.63 2.66 5.28 5.28 0 0 1-2 2 7 7 0 0 1-3.11 1v3.14a2.91 2.91 0 0 1-.15 1.09.62.62 0 0 1-.64.34.68.68 0 0 1-.63-.28 1.5 1.5 0 0 1-.19-.86v-3.4a7.87 7.87 0 0 1-2.58-.7 6 6 0 0 1-1.84-1.32 5.33 5.33 0 0 1-1.09-1.64 4.26 4.26 0 0 1-.36-1.67 1.51 1.51 0 0 1 .44-1.13 1.55 1.55 0 0 1 1.15-.45 1.65 1.65 0 0 1 1 .27 1.33 1.33 0 0 1 .54.74c.23.69.42 1.22.59 1.59a3.13 3.13 0 0 0 .77 1 3.44 3.44 0 0 0 1.35.69V87a14.77 14.77 0 0 1-2.82-1 4.7 4.7 0 0 1-1.85-1.63 5.44 5.44 0 0 1 .67-6.37 6.2 6.2 0 0 1 4-1.61v-1.33c0-.71.27-1.06.8-1.06s.8.34.8 1zm-1.61 8.66v-4.8a4.47 4.47 0 0 0-1.65.83 2.37 2.37 0 0 0 0 3.08 5.05 5.05 0 0 0 1.65.92zm1.61 3.75V93a3.46 3.46 0 0 0 2-1 2.58 2.58 0 0 0 .7-1.79 2.15 2.15 0 0 0-.68-1.7 5.52 5.52 0 0 0-2.02-1.07z" fill="#252e4a"/></svg>