<svg id="Layer_1" data-name="Layer 1" xmlns="http://www.w3.org/2000/svg" viewBox="0 0 120 120"><defs><style>.cls-1,.cls-4{fill:#579bfc;stroke:#252e4a;stroke-linecap:round;stroke-linejoin:round;stroke-width:3px}.cls-4{fill:none}</style></defs><rect class="cls-1" x="10" y="14" width="100" height="8" rx="4" ry="4"/><path d="M104 89H16a4 4 0 0 1-4-4V22h96v63a4 4 0 0 1-4 4z" fill="#fff" stroke="#252e4a" stroke-linecap="round" stroke-linejoin="round" stroke-width="3"/><path d="M40.19 40.51v1a5.2 5.2 0 0 1 1.63.39 3.19 3.19 0 0 1 1.19.88 3.91 3.91 0 0 1 .61.93 2.11 2.11 0 0 1 .22.88 1.09 1.09 0 0 1-1.11 1.09 1.09 1.09 0 0 1-1.12-.94 2 2 0 0 0-1.42-1.47v3.69c.74.2 1.32.39 1.76.55a3.76 3.76 0 0 1 1.16.72 3.21 3.21 0 0 1 .89 1.13 3.59 3.59 0 0 1 .3 1.48 3.91 3.91 0 0 1-.48 1.9 3.83 3.83 0 0 1-1.39 1.44 5 5 0 0 1-2.2.66v2.21a2 2 0 0 1-.1.76.42.42 0 0 1-.44.24.48.48 0 0 1-.45-.19 1.08 1.08 0 0 1-.13-.61v-2.39a5.71 5.71 0 0 1-1.82-.49 4.45 4.45 0 0 1-1.29-.93 3.74 3.74 0 0 1-.77-1.15 3.16 3.16 0 0 1-.25-1.17 1 1 0 0 1 .34-.77 1.09 1.09 0 0 1 .83-.34 1.2 1.2 0 0 1 .67.18 1 1 0 0 1 .38.53 11.39 11.39 0 0 0 .42 1.11 2.35 2.35 0 0 0 .53.71 2.4 2.4 0 0 0 1 .48V48.9a10.93 10.93 0 0 1-2-.73A3.32 3.32 0 0 1 35.79 47a3.8 3.8 0 0 1 .47-4.42 4.32 4.32 0 0 1 2.81-1.13v-.94c0-.5.18-.75.56-.75s.56.24.56.75zm-1.12 6.08V43.2a2.93 2.93 0 0 0-1.16.58 1.64 1.64 0 0 0 0 2.16 3.52 3.52 0 0 0 1.16.65zm1.12 2.64v3.88a2.48 2.48 0 0 0 1.39-.72 1.85 1.85 0 0 0 .49-1.26 1.5 1.5 0 0 0-.48-1.19 3.72 3.72 0 0 0-1.4-.71z" fill="#252e4a"/><path class="cls-4" d="M27 29.63v49.74h67"/><path class="cls-1" d="M35.12 65.16h8.12v14.21h-8.12zM63.55 49.93h8.12v29.44h-8.12zM78.77 43.84h8.12v35.53h-8.12zM49.33 57.04h8.12v22.33h-8.12z"/><path class="cls-4" d="M71.67 29.63l7.1 2.03-30.45 18.27"/><path class="cls-1" d="M76.74 38.77l2.03-7.11M60 89v10"/><circle class="cls-1" cx="60" cy="102" r="4"/></svg>