<svg id="Layer_1" data-name="Layer 1" xmlns="http://www.w3.org/2000/svg" viewBox="0 0 120 120"><defs><style>.cls-2,.cls-3{fill:none;stroke:#252e4a;stroke-linecap:round;stroke-linejoin:round;stroke-width:3px}.cls-3{fill:#579bfc}</style></defs><path d="M29.69 39.12v1.43a8 8 0 0 1 2.43.58 4.73 4.73 0 0 1 1.77 1.32 5.77 5.77 0 0 1 .92 1.39 3.2 3.2 0 0 1 .33 1.31 1.66 1.66 0 0 1-1.66 1.63 1.65 1.65 0 0 1-1.68-1.4 3 3 0 0 0-2.11-2.2v5.51c1.1.3 2 .57 2.62.82a5.38 5.38 0 0 1 1.74 1.07 4.93 4.93 0 0 1 1.26 1.74 5.44 5.44 0 0 1 .45 2.22 5.91 5.91 0 0 1-.71 2.83A5.66 5.66 0 0 1 33 59.52a7.49 7.49 0 0 1-3.27 1v3.3a3.18 3.18 0 0 1-.19 1.18.65.65 0 0 1-.67.35.74.74 0 0 1-.67-.35 1.72 1.72 0 0 1-.19-.9v-3.56a8.47 8.47 0 0 1-2.7-.73 6.4 6.4 0 0 1-1.94-1.38 5.82 5.82 0 0 1-1.14-1.73 4.48 4.48 0 0 1-.37-1.7 1.62 1.62 0 0 1 .49-1.15 1.66 1.66 0 0 1 1.24-.5 1.81 1.81 0 0 1 1 .27 1.51 1.51 0 0 1 .57.78 14.52 14.52 0 0 0 .63 1.6 3.13 3.13 0 0 0 .8 1 3.59 3.59 0 0 0 1.41.8v-6.16a16.47 16.47 0 0 1-3-1.09 5 5 0 0 1-1.94-1.72 5.67 5.67 0 0 1 .71-6.59A6.47 6.47 0 0 1 28 40.55v-1.41q0-1.14.85-1.14c.56 0 .84.39.84 1.12zM28 48.2v-5.07a4.59 4.59 0 0 0-1.73.87 2 2 0 0 0-.62 1.64 2 2 0 0 0 .58 1.58 5.33 5.33 0 0 0 1.77.98zm1.68 3.93v5.8a3.7 3.7 0 0 0 2.07-1.07 2.76 2.76 0 0 0 .74-1.86 2.26 2.26 0 0 0-.71-1.78 5.72 5.72 0 0 0-2.09-1.09z" fill="#252e4a"/><path class="cls-2" d="M10 22.88v74.24h100"/><path class="cls-3" d="M22.12 75.91h12.12v21.21H22.12zM64.55 53.18h12.12v43.94H64.55zM87.27 44.09h12.12v53.03H87.27zM43.33 63.79h12.12v33.33H43.33z"/><path class="cls-2" d="M76.67 22.88l10.6 3.03-45.45 27.27"/><path class="cls-3" d="M84.24 36.52l3.03-10.61"/></svg>