<svg id="Layer_1" data-name="Layer 1" xmlns="http://www.w3.org/2000/svg" viewBox="0 0 120 120"><defs><style>.cls-1,.cls-2{fill:#579bfc;stroke:#252e4a;stroke-linecap:round;stroke-linejoin:round;stroke-width:3px}.cls-2{fill:#fff}</style></defs><path class="cls-1" d="M96 25L60 10 24 25s-14 68 36 85c50-17 36-85 36-85z"/><path class="cls-2" d="M86.66 34.08L60 23 33.34 34.08S23 84.44 60 97c37-12.56 26.66-62.92 26.66-62.92z"/><circle class="cls-2" cx="89.88" cy="90" r="20"/><path d="M50.39 57.9l5.9 5.9 15-15a2 2 0 0 1 2.77 0 2 2 0 0 1 0 2.74L58.18 68.21a2.55 2.55 0 0 1-3.73 0l-6.91-7.54a2 2 0 0 1 .05-2.73 2 2 0 0 1 2.8-.04z" fill="#252e4a"/><path class="cls-1" d="M82.51 88.29h14.74v11.84H82.51z"/><path class="cls-2" d="M85.66 84.08a4.22 4.22 0 0 1 8.43 0v4.21h-8.43z"/></svg>