<svg version="1.1" id="Layer_1" xmlns="http://www.w3.org/2000/svg" x="0" y="0" viewBox="0 0 120 120" xml:space="preserve"><style>.st1{fill:#579bfc}.st2{fill:none;stroke:#252e4a;stroke-width:3;stroke-linecap:round;stroke-linejoin:round}</style><path d="M79.2 29.3v.3S78 50.4 70.8 57.7c-3.6 3.7-10.9 3.7-10.9 3.7s-7.2 0-10.9-3.7c-7.2-7.3-8.4-28.1-8.4-28.1s-1.2-17.7 23-19.5h.3c2.1 0 3.7 1.7 3.7 3.7 14.2 0 11.6 15.5 11.6 15.5z" fill="#fff"/><path class="st1" d="M36.9 70.4L49.7 109l-.1 1c-20.2-1.2-30.1-6-33.4-7.9-.8-.5-1.3-1.3-1.2-2.2v-14c0-10.4 10.3-11.6 21.9-15.5zM105 85.8v14c0 .9-.5 1.7-1.2 2.2-3.3 1.9-13.2 6.6-33.4 7.9l-.1-1 12.8-38.5c11.6 3.9 21.9 5.1 21.9 15.4zM65 69l-2 10H57l-2-10z"/><path class="st1" d="M70.3 109l.1 1c-3.2.2-6.6.3-10.3.3s-7.2-.1-10.3-.3l.1-1 7.7-29.6V79h5.1v.4l7.6 29.6z"/><path class="st2" d="M48.3 31.8s20.6 1.3 20.6-10.3c0 0 2.6 7.7 10.3 7.7 0 0 2.6-15.4-11.6-15.4 0-2.1-1.7-3.7-3.7-3.7h-.3c-24.1 1.8-23 19.5-23 19.5s1.2 20.8 8.4 28.1c3.6 3.7 10.9 3.7 10.9 3.7s7.2 0 10.8-3.7c7.3-7.3 8.5-28.1 8.5-28.1M57.4 79.4L49.7 109 36.9 70.4C25.3 74.3 15 75.5 15 85.8v14c0 .9.5 1.7 1.2 2.2 3.3 1.9 13.2 6.6 33.4 7.9 3.2.2 6.6.3 10.3.3s7.2-.1 10.3-.3c20.2-1.2 30.1-6 33.4-7.9.8-.5 1.3-1.3 1.2-2.2v-14c0-10.3-10.3-11.6-21.9-15.4L70.3 109l-7.7-29.6"/><path class="st2" d="M57.4 79H57l-2-10h10l-2 10h-.4z"/><circle cx="89.5" cy="89.5" r="20.5" fill="#fff" stroke="#252e4a" stroke-width="3" stroke-linecap="round" stroke-linejoin="round"/><text transform="translate(75.615 98.706)" font-size="24" font-family="AvenirNext-DemiBold">VP</text></svg>