<svg id="Layer_1" data-name="Layer 1" xmlns="http://www.w3.org/2000/svg" viewBox="0 0 120 120"><defs><style>.cls-4{fill:#fff}.cls-5{stroke-linecap:round;stroke-linejoin:round;stroke-width:3px}.cls-3{fill:#579bfc}.cls-5{fill:none;stroke:#fff}</style></defs><path d="M14.32 10h91.36a4.32 4.32 0 0 1 4.32 4.32V24h0H10h0v-9.68A4.32 4.32 0 0 1 14.32 10z" stroke-width="3" stroke-linecap="round" stroke-linejoin="round" stroke="#252e4a" fill="#fff"/><path d="M10 24h100v82a4 4 0 0 1-4 4H14a4 4 0 0 1-4-4V24h0z" stroke-miterlimit="10" fill="#579bfc" stroke-width="3" stroke="#252e4a"/><circle class="cls-3" cx="16.5" cy="17" r="2"/><circle class="cls-3" cx="21.5" cy="17" r="2"/><circle class="cls-3" cx="26.5" cy="17" r="2"/><circle class="cls-4" cx="53" cy="98" r="2"/><circle class="cls-4" cx="60" cy="98" r="2"/><circle class="cls-4" cx="67" cy="98" r="2"/><circle class="cls-5" cx="60" cy="60" r="27"/><ellipse class="cls-5" cx="60" cy="60" rx="11" ry="27"/><path class="cls-5" d="M33 60h54M36 48h48M36 72h48"/></svg>