<?xml version="1.0" standalone="no"?>
<!DOCTYPE svg PUBLIC "-//W3C//DTD SVG 20010904//EN"
 "http://www.w3.org/TR/2001/REC-SVG-20010904/DTD/svg10.dtd">
<svg version="1.0" xmlns="http://www.w3.org/2000/svg"
 width="763.000000pt" height="763.000000pt" viewBox="0 0 763.000000 763.000000"
 preserveAspectRatio="xMidYMid meet">
<metadata>
Created by potrace 1.11, written by Peter Selinger 2001-2013
</metadata>
<g transform="translate(0.000000,763.000000) scale(0.100000,-0.100000)"
fill="#000000" stroke="none">
<path d="M6635 6459 c-55 -17 -136 -41 -180 -54 -264 -77 -305 -90 -305 -95 0
-3 31 -18 68 -35 37 -16 97 -52 133 -80 70 -53 159 -149 159 -172 0 -8 4 -12
8 -9 4 2 23 -27 41 -65 18 -38 36 -69 40 -69 4 0 13 28 21 63 15 70 17 76 19
80 2 1 4 11 6 22 2 11 11 50 20 85 9 36 18 76 21 90 2 14 12 50 20 80 9 30 18
66 21 80 2 14 8 41 13 60 12 42 12 50 3 49 -5 0 -53 -14 -108 -30z"/>
<path d="M2138 6354 c-2 -1 -30 -5 -63 -9 -86 -9 -187 -32 -285 -62 -47 -15
-87 -27 -90 -27 -3 -1 -52 -24 -110 -53 -105 -52 -228 -127 -242 -147 -4 -6
-8 -8 -8 -4 0 4 -11 -3 -24 -15 -13 -12 -45 -40 -71 -62 -59 -49 -215 -207
-215 -217 0 -4 -9 -15 -19 -25 -27 -26 -131 -184 -131 -200 0 -7 -4 -13 -8
-13 -10 0 -102 -194 -108 -228 -1 -8 -6 -21 -10 -30 -4 -9 -8 -22 -9 -28 -2
-6 -10 -36 -18 -65 -9 -30 -19 -70 -22 -89 -3 -19 -8 -48 -11 -65 -4 -16 -8
-43 -11 -60 -7 -46 -12 -379 -5 -389 3 -5 6 -29 8 -52 1 -24 5 -56 8 -71 3
-15 9 -46 12 -68 3 -22 10 -48 15 -57 5 -10 7 -18 4 -18 -3 0 1 -16 9 -35 8
-19 12 -35 9 -35 -3 0 0 -7 7 -15 7 -8 9 -15 5 -15 -4 0 -3 -6 3 -12 6 -7 11
-17 11 -23 3 -23 26 -75 33 -75 4 0 7 -3 6 -8 -4 -11 35 -102 44 -102 4 0 8
-6 8 -13 0 -18 140 -228 156 -234 8 -3 14 -10 14 -17 0 -15 150 -169 220 -226
61 -50 72 -59 94 -78 8 -6 19 -12 24 -12 4 0 18 -9 29 -20 29 -27 193 -113
273 -143 36 -14 74 -28 85 -33 31 -11 70 -23 96 -28 8 -2 25 -6 39 -9 14 -4
36 -9 50 -11 14 -2 36 -7 50 -10 40 -10 107 -16 225 -22 61 -3 116 -7 123 -9
6 -2 12 -1 12 3 0 4 19 8 43 8 54 0 202 18 202 24 0 1 12 3 26 5 59 8 169 39
254 72 102 39 287 134 318 164 11 10 24 19 27 19 6 0 270 171 320 207 14 10
28 17 33 15 4 -1 7 2 7 8 0 5 7 10 15 10 8 0 15 5 15 10 0 6 7 10 15 10 8 0
15 5 15 11 0 16 22 5 114 -55 202 -133 352 -229 373 -239 13 -6 23 -14 23 -18
0 -11 233 -123 310 -149 36 -12 72 -24 80 -27 19 -8 41 -14 60 -17 8 -1 29 -6
45 -9 67 -16 81 -19 102 -22 13 -2 40 -6 60 -9 57 -10 171 -17 238 -15 33 1
86 2 117 3 32 0 58 3 58 6 0 3 15 6 33 7 46 1 115 11 125 17 5 3 21 7 36 10
88 16 208 58 326 115 92 45 102 50 173 99 26 17 52 32 57 32 6 0 10 5 10 10 0
6 6 13 14 16 8 3 34 22 57 42 56 48 250 242 243 242 -3 0 7 15 22 34 54 62 64
76 64 86 0 6 5 10 12 10 6 0 8 3 5 6 -4 4 5 20 18 36 14 16 25 36 25 44 0 8 5
14 11 14 5 0 8 4 4 9 -3 5 -1 12 4 16 9 5 61 107 61 119 0 4 9 25 19 49 22 48
67 195 75 247 3 19 8 47 11 61 3 14 6 40 8 57 2 18 6 35 10 38 3 3 3 12 0 20
-3 8 1 16 8 19 11 4 14 32 13 123 -1 105 -10 252 -18 292 -3 14 -18 85 -22
103 -1 4 -2 8 -4 10 -1 1 -3 18 -5 37 -8 85 -118 340 -203 470 -87 134 -225
286 -347 383 -33 26 -67 53 -75 60 -15 13 -40 28 -77 48 -13 7 -23 16 -23 21
0 4 -9 8 -19 8 -11 0 -21 4 -23 8 -7 19 -258 129 -258 114 0 -4 -4 -2 -8 4 -6
9 -116 43 -162 50 -8 2 -31 6 -50 10 -36 7 -50 9 -135 20 -103 14 -376 7 -463
-11 -131 -28 -177 -40 -255 -66 -119 -40 -261 -111 -365 -182 -45 -32 -86 -57
-92 -57 -5 0 -10 -4 -10 -8 0 -5 -11 -14 -25 -20 -14 -7 -31 -16 -38 -22 -31
-26 -207 -138 -207 -132 0 4 -4 2 -8 -3 -11 -17 -64 -52 -90 -60 -22 -6 -78
22 -120 63 -7 6 -20 12 -28 12 -8 0 -14 4 -14 8 0 5 -12 15 -27 23 -16 7 -44
26 -64 41 -20 15 -42 28 -48 28 -6 0 -11 4 -11 9 0 5 -8 11 -17 15 -18 6 -54
27 -63 37 -3 3 -22 15 -42 28 -21 12 -38 26 -38 29 0 4 -14 13 -30 20 -17 8
-36 19 -43 26 -14 13 -206 107 -257 125 -19 7 -44 16 -55 21 -70 26 -94 33
-155 45 -14 2 -48 9 -76 15 -28 6 -71 13 -95 16 -45 5 -357 13 -361 8z m327
-427 c28 -4 61 -9 75 -13 14 -3 43 -10 66 -14 74 -16 284 -106 284 -122 0 -4
9 -8 20 -8 11 0 20 -4 20 -8 0 -5 12 -15 28 -23 27 -14 42 -24 67 -46 7 -7 17
-13 20 -13 4 0 29 -16 55 -35 26 -19 50 -35 53 -35 3 0 41 -25 85 -55 44 -30
85 -55 90 -55 6 0 12 -3 14 -7 3 -7 112 -83 131 -91 4 -2 51 -32 104 -68 l97
-63 32 24 c18 14 35 25 38 25 3 0 28 16 55 35 26 19 53 35 59 35 6 0 12 3 14
8 2 4 35 27 73 52 39 25 75 48 80 53 6 4 57 37 115 74 58 38 110 71 115 75 29
22 118 78 124 78 4 0 16 9 28 19 50 47 261 139 353 155 14 3 25 5 25 7 0 1 9
3 20 4 11 1 36 6 55 9 102 21 440 8 440 -16 0 -5 4 -7 8 -4 28 17 246 -62 345
-125 34 -22 69 -42 77 -46 27 -13 139 -111 191 -168 90 -98 109 -121 109 -130
0 -6 11 -23 25 -38 14 -15 22 -27 18 -27 -4 0 -3 -4 3 -8 14 -9 88 -163 108
-224 21 -63 43 -169 52 -243 8 -70 8 -86 1 -140 -5 -35 -11 -98 -22 -220 -2
-25 -5 -44 -21 -107 -1 -5 -2 -9 -3 -10 -2 -2 -4 -13 -7 -25 -8 -43 -76 -202
-107 -250 -17 -26 -31 -50 -32 -53 0 -7 -61 -85 -100 -129 -54 -61 -113 -118
-162 -157 -26 -22 -50 -41 -53 -44 -3 -3 -30 -22 -62 -43 -80 -52 -217 -114
-294 -132 -10 -2 -37 -9 -59 -14 -106 -26 -355 -36 -469 -18 -64 9 -215 45
-230 54 -6 4 -16 8 -23 9 -15 3 -191 89 -225 111 -51 34 -223 144 -308 198
-47 30 -89 58 -95 62 -23 19 -96 64 -132 84 -13 7 -23 16 -23 21 0 4 -5 8 -11
8 -5 0 -36 17 -67 38 -72 49 -91 56 -98 37 -4 -8 -10 -15 -16 -15 -5 0 -36
-18 -69 -40 -33 -22 -64 -40 -69 -40 -5 0 -10 -3 -12 -8 -1 -4 -41 -32 -88
-62 -47 -29 -156 -100 -243 -157 -86 -56 -159 -102 -161 -100 -3 1 -15 -8 -28
-19 -19 -18 -180 -106 -198 -109 -3 -1 -41 -13 -85 -27 -44 -15 -96 -29 -115
-32 -19 -3 -48 -9 -65 -12 -63 -14 -330 -12 -405 2 -127 24 -146 29 -185 44
-16 6 -32 12 -35 12 -36 5 -220 98 -245 124 -5 5 -36 29 -67 53 -58 43 -198
186 -227 231 -9 14 -21 31 -28 38 -48 51 -150 272 -167 363 -5 25 -5 27 -7 32
-1 1 -7 32 -14 69 -11 60 -13 335 -2 408 8 57 28 146 36 160 5 9 12 30 15 47
4 18 18 55 32 83 13 27 24 53 24 56 0 3 14 26 30 51 17 24 30 47 30 51 0 4 14
23 32 42 17 19 30 36 27 36 -2 1 23 32 56 69 33 37 62 72 63 76 2 5 7 9 12 9
4 0 23 14 41 32 86 80 296 213 351 222 7 1 18 4 23 7 24 15 100 34 175 46 19
2 51 8 70 12 40 9 270 7 345 -2z"/>
<path d="M2299 5206 c-2 -2 -29 -6 -59 -10 -75 -8 -110 -17 -110 -27 0 -5 -7
-9 -15 -9 -21 0 -124 -67 -146 -94 -15 -19 -41 -50 -69 -83 -5 -7 -10 -15 -10
-19 0 -3 -6 -20 -14 -37 -28 -66 -33 -83 -31 -104 1 -13 -1 -23 -5 -23 -8 0
-5 -115 4 -160 12 -54 38 -120 48 -120 5 0 7 -4 3 -10 -3 -5 3 -18 15 -30 11
-11 20 -24 20 -28 0 -19 99 -101 158 -132 99 -51 242 -66 322 -33 8 3 17 7 20
7 30 7 202 106 227 131 8 8 18 15 21 15 4 0 18 10 32 23 14 12 52 44 85 70 33
27 96 83 141 125 l81 77 -76 73 c-42 41 -89 83 -104 95 -16 12 -41 33 -57 47
-15 14 -38 32 -50 40 -12 8 -28 20 -34 25 -58 51 -199 134 -276 162 -57 21
-115 34 -121 29z"/>
<path d="M5018 5205 c-2 -2 -17 -5 -33 -8 -34 -5 -124 -42 -170 -69 -16 -9
-46 -26 -66 -37 -21 -11 -43 -26 -50 -33 -8 -7 -41 -33 -74 -58 -88 -65 -146
-115 -247 -211 -46 -44 -60 -69 -38 -69 6 0 10 -7 10 -15 0 -8 5 -15 11 -15 7
0 24 -12 39 -27 14 -16 55 -53 89 -83 35 -30 68 -59 75 -65 34 -30 127 -95
136 -95 5 0 10 -8 10 -17 0 -9 3 -14 6 -11 5 6 60 -26 92 -52 6 -6 12 -8 12
-6 0 3 20 -5 44 -18 98 -52 164 -58 308 -31 76 15 218 125 268 208 64 108 80
244 46 382 -2 6 -8 23 -14 38 -7 16 -12 31 -12 33 0 10 -58 90 -87 120 -73 77
-183 128 -295 137 -32 2 -59 3 -60 2z"/>
<path d="M4033 2348 c-2 -5 -8 -6 -12 -3 -13 8 -117 -23 -172 -51 -85 -42
-166 -144 -183 -225 -19 -95 -22 -123 -20 -195 1 -45 7 -106 15 -135 7 -30 13
-57 14 -61 0 -3 3 -10 8 -14 4 -4 7 -16 7 -26 0 -10 4 -18 8 -18 5 0 15 -12
23 -27 17 -34 73 -93 87 -93 6 0 12 -3 14 -7 4 -9 84 -49 113 -57 59 -15 100
-20 200 -20 61 0 126 3 145 6 133 25 140 29 140 80 1 64 1 289 1 320 l-1 26
-84 0 c-55 0 -86 -4 -88 -12 -2 -6 -3 -64 -3 -129 1 -90 -2 -120 -12 -129 -8
-7 -50 -12 -96 -13 -67 -1 -93 4 -142 25 -96 41 -130 85 -162 210 -2 8 -4 47
-5 85 -2 89 24 179 62 216 16 16 25 29 22 29 -4 0 7 9 25 19 27 17 73 34 133
48 26 6 190 4 201 -2 5 -4 25 -9 42 -11 18 -3 48 -11 68 -19 37 -14 37 -14 40
13 2 15 2 51 -1 81 -5 50 -7 55 -35 63 -53 16 -69 19 -110 23 -22 2 -40 5 -40
6 0 6 -198 3 -202 -3z"/>
<path d="M4708 2355 c-3 -4 -34 -7 -69 -8 l-64 -2 0 -463 0 -463 90 3 90 3 1
335 c1 184 3 340 4 345 1 6 1 15 0 20 -11 49 -1 92 15 65 4 -7 12 -7 26 0 14
8 19 7 19 -2 0 -8 3 -9 8 -3 4 6 21 11 37 11 17 0 33 -5 37 -11 5 -7 8 -7 8 1
0 13 82 13 92 -1 5 -6 8 -5 8 2 0 9 7 10 26 3 34 -13 54 -35 63 -68 8 -30 -6
-102 -20 -102 -5 0 -9 -5 -9 -11 0 -22 -55 -59 -120 -81 -36 -12 -71 -21 -77
-21 -14 0 -14 1 -18 -42 -2 -27 9 -62 24 -75 3 -3 11 -12 16 -21 16 -27 109
-163 115 -169 17 -17 60 -80 60 -89 0 -6 5 -11 10 -11 6 0 10 -7 10 -15 0 -8
4 -15 8 -15 5 0 15 -11 22 -25 13 -24 16 -25 122 -25 59 0 108 3 108 7 0 3
-12 22 -27 42 -15 20 -27 37 -25 39 1 1 -6 10 -15 20 -26 28 -53 62 -53 67 0
3 -7 13 -15 22 -8 10 -37 50 -65 88 -28 39 -57 78 -65 88 -21 25 -19 36 10 43
14 3 25 10 25 15 0 5 6 9 13 9 20 0 116 99 123 126 3 13 9 24 13 24 9 0 10 8
14 84 2 32 -3 77 -10 100 -14 43 -63 106 -82 106 -6 0 -11 5 -11 10 0 6 -9 10
-19 10 -11 0 -23 5 -26 10 -4 6 -10 8 -15 5 -5 -3 -11 -2 -14 3 -2 4 -27 8
-55 7 -28 0 -51 3 -51 6 0 4 -15 4 -32 0 -18 -4 -45 -4 -60 0 -16 4 -28 4 -28
0 0 -4 -19 -5 -42 -1 -24 3 -57 3 -75 -1 -17 -3 -36 -2 -41 3 -4 4 -11 6 -14
3z"/>
<path d="M5735 2344 c-27 -6 -67 -18 -88 -27 -20 -9 -40 -16 -43 -16 -12 0
-103 -77 -104 -88 0 -7 -4 -13 -10 -13 -5 0 -10 -7 -10 -15 0 -8 -4 -15 -10
-15 -5 0 -10 -4 -10 -9 0 -5 -8 -26 -17 -47 -20 -47 -18 -37 -28 -109 -12 -85
-7 -234 10 -280 29 -80 51 -132 65 -148 59 -72 123 -120 177 -133 15 -4 33
-10 38 -13 14 -10 69 -15 153 -16 39 0 72 -4 72 -9 0 -5 6 -4 13 2 6 5 30 13
52 16 98 15 157 42 217 101 41 41 92 128 81 139 -4 3 -1 6 5 6 7 0 11 3 11 8
-1 4 0 9 1 12 1 3 3 14 6 25 27 137 21 293 -16 380 -4 11 -14 35 -21 53 -11
30 -76 104 -122 139 -23 18 -116 52 -157 57 -19 3 -35 5 -35 6 0 8 -191 3
-230 -6z m215 -146 c0 2 7 -1 15 -8 8 -7 15 -10 15 -6 0 4 14 -1 31 -10 37
-18 101 -75 94 -82 -2 -3 2 -17 10 -31 26 -48 33 -89 33 -179 0 -159 -48 -251
-157 -299 -37 -16 -188 -25 -206 -13 -5 4 -26 13 -45 19 -97 32 -153 140 -153
291 1 103 6 130 33 184 43 82 106 125 195 133 27 3 51 6 53 8 1 1 20 -1 42 -5
22 -4 40 -5 40 -2z"/>
<path d="M6504 2351 c-3 -3 -23 -4 -44 -2 -30 2 -39 -1 -36 -11 3 -7 7 -33 10
-58 3 -25 8 -61 11 -80 3 -19 7 -46 9 -60 2 -14 9 -52 14 -85 6 -33 13 -76 17
-95 18 -115 35 -219 40 -245 9 -45 14 -73 21 -124 4 -25 9 -55 11 -66 4 -18
10 -62 12 -92 1 -9 25 -13 85 -13 l84 0 12 33 c7 17 19 46 26 62 14 32 37 96
59 160 7 22 19 54 26 70 7 17 13 33 14 38 2 4 4 9 5 12 1 3 3 8 5 13 1 4 7 21
14 37 17 43 65 169 67 175 0 3 4 12 7 20 4 8 13 33 21 55 l14 40 21 -48 c11
-27 21 -55 21 -62 0 -8 5 -17 10 -20 6 -3 10 -17 10 -30 0 -13 5 -27 10 -30 6
-3 10 -17 10 -30 0 -13 5 -27 11 -30 6 -4 8 -13 5 -21 -3 -8 0 -14 6 -14 6 0
8 -3 5 -7 -4 -3 -3 -11 2 -17 5 -6 13 -27 19 -46 6 -19 31 -93 57 -165 26 -71
51 -145 56 -163 l10 -33 87 3 c78 3 87 5 89 23 3 21 9 57 16 90 3 11 8 40 13
65 9 50 11 59 13 63 2 1 4 14 6 28 4 34 13 87 20 119 18 90 25 129 30 160 3
19 8 49 12 65 3 17 7 37 8 45 1 8 6 33 11 55 11 55 11 55 14 58 2 2 4 19 14
98 6 43 4 56 -6 57 -12 1 -97 1 -139 1 -13 0 -20 -18 -29 -82 -15 -97 -17
-113 -25 -152 -3 -16 -7 -43 -10 -60 -3 -16 -7 -39 -9 -51 -2 -12 -7 -45 -11
-75 -4 -30 -13 -83 -20 -119 -7 -35 -11 -68 -9 -72 3 -4 1 -8 -5 -8 -8 0 -20
23 -27 53 -1 4 -3 9 -4 12 -1 3 -4 10 -5 15 -1 6 -4 12 -5 15 -1 3 -4 10 -5
15 -1 6 -3 11 -5 13 -1 1 -3 9 -5 17 -2 8 -16 47 -30 85 -14 39 -33 90 -41
115 -8 25 -19 53 -24 62 -6 10 -10 26 -10 36 0 10 -4 22 -8 27 -5 6 -17 35
-26 66 -25 83 -32 89 -96 89 -30 0 -65 0 -78 0 -17 0 -27 -10 -39 -38 -8 -20
-16 -41 -18 -47 -1 -5 -5 -17 -8 -25 -3 -8 -13 -37 -23 -65 -10 -27 -22 -56
-27 -62 -5 -7 -7 -19 -4 -27 3 -7 2 -17 -3 -22 -9 -9 -62 -148 -81 -211 -6
-18 -14 -33 -20 -33 -6 0 -8 -4 -5 -9 8 -12 -23 -99 -37 -108 -7 -3 -9 -3 -6
1 4 4 3 24 -2 44 -5 20 -12 60 -14 87 -3 28 -7 60 -9 72 -4 19 -12 68 -21 133
-7 51 -15 104 -21 134 -3 17 -7 49 -10 71 -2 22 -6 49 -8 60 -3 11 -5 25 -5
31 -1 12 -88 24 -97 15z"/>
<path d="M127 2258 c-7 -4 -10 -134 -9 -410 0 -221 1 -409 1 -415 1 -9 19 -13
56 -13 l55 0 -2 422 -3 422 -43 0 c-24 1 -49 -2 -55 -6z"/>
<path d="M478 2262 l-27 -3 0 -420 1 -419 53 0 53 0 -2 40 c-2 22 2 40 7 40 6
0 6 5 0 13 -12 15 -11 77 1 96 7 11 6 12 -5 6 -12 -8 -12 -6 0 8 7 9 10 17 5
17 -13 0 -11 173 1 182 7 5 7 8 0 8 -11 0 -13 89 -2 107 4 5 3 13 0 17 -7 7
-11 136 -5 136 8 0 32 -30 32 -39 0 -6 3 -11 8 -11 4 0 18 -17 32 -38 14 -20
27 -39 31 -42 3 -3 25 -32 50 -65 24 -33 47 -61 52 -63 4 -2 7 -10 7 -18 0 -8
3 -14 8 -14 4 0 23 -23 42 -50 19 -27 38 -50 43 -50 4 0 7 -6 7 -14 0 -8 3
-16 8 -18 4 -1 48 -58 97 -125 l90 -123 60 3 60 2 0 418 c0 410 0 417 -20 418
-11 1 -29 2 -40 3 -51 3 -50 12 -50 -338 0 -179 -2 -326 -5 -326 -3 0 -30 35
-60 76 -30 42 -62 84 -71 93 -8 9 -23 30 -34 46 -10 17 -24 34 -32 38 -7 5
-11 12 -8 18 4 5 2 9 -3 9 -8 0 -130 154 -157 198 -5 9 -14 21 -20 27 -5 7
-35 44 -64 83 -30 40 -57 72 -60 73 -22 3 -60 4 -83 1z"/>
<path d="M1370 1843 l0 -423 55 0 c37 0 55 4 56 13 1 6 1 92 1 190 l0 177 209
0 c160 0 209 3 210 13 0 6 2 19 3 27 2 8 0 24 -4 35 -7 19 -16 20 -213 20
l-204 0 0 140 0 140 221 0 221 0 1 43 c1 25 -3 42 -10 43 -6 1 -131 2 -278 2
l-267 2 -1 -422z"/>
<path d="M2087 2259 c-9 -6 -12 -101 -10 -416 0 -224 2 -411 2 -415 1 -5 25
-8 55 -8 l54 0 1 420 c0 231 -3 420 -7 421 -36 4 -85 3 -95 -2z"/>
<path d="M2410 2260 c-4 -3 -8 -27 -8 -53 -1 -26 -4 -52 -7 -57 -4 -6 -3 -10
2 -10 4 0 7 -17 6 -37 -3 -63 -3 -95 -3 -181 0 -46 -2 -87 -5 -93 -4 -5 -3 -9
2 -9 4 0 7 -17 6 -37 -3 -60 -3 -100 -1 -233 l3 -125 51 -3 50 -3 0 330 c-1
282 1 332 14 336 8 4 12 3 8 0 -5 -5 216 -310 265 -365 7 -8 37 -49 67 -90 30
-41 59 -80 65 -86 5 -6 28 -36 50 -68 l40 -56 59 2 60 3 1 410 c0 226 -1 415
-2 420 -3 9 -21 10 -93 6 -13 -1 -15 -45 -15 -331 1 -181 -3 -330 -7 -330 -4
0 -8 4 -8 10 0 5 -10 19 -23 32 -12 13 -40 48 -62 78 -22 30 -43 60 -48 65
-35 45 -106 137 -122 160 -11 15 -52 69 -90 119 -39 50 -88 115 -109 144 -21
28 -41 52 -44 53 -27 4 -95 3 -102 -1z"/>
<path d="M3368 2261 c-7 -2 -15 -7 -18 -12 -3 -4 -5 -191 -4 -416 l0 -408 56
-3 55 -3 0 423 1 423 -39 0 c-22 0 -45 -2 -51 -4z"/>
</g>
</svg>
