<svg xmlns="http://www.w3.org/2000/svg" viewBox="0 90 612 612"><g fill="#3C92CA"><path d="M334.8 363c-3.1-1.5-5.2-4.9-5.2-8.6v-36.7c0-2.4 1.2-4.9 3.4-6.4 2.8-1.8 4.3-4.6 4.3-8v-37.9c0-14.7-11.9-26.6-26.6-26.6h-8.3c-14.7 0-26.6 11.9-26.6 26.6v37.9c0 3.1 1.5 6.1 4.3 8 2.1 1.5 3.4 4 3.4 6.4v36.7c0 3.4-2.1 6.7-5.2 8.6-4.9 2.4-29.7 15-52.6 33.7-2.4 2.1-4 5.2-4 8.3v18.4h169.5V405c0-3.1-1.5-6.1-4-8.3-23.1-18.8-47.8-31.6-52.4-33.7z"/><path d="M306 90C137.1 90 0 227.1 0 396s137.1 306 306 306 306-137.1 306-306S474.9 90 306 90zM174.4 336.9c2.1 1.5 3.4 3.7 3.4 6.4v28.5c0 3.4-1.8 6.7-5.2 8.3-3.7 1.8-22.9 11.3-40.4 25.7-1.5 1.2-2.4 3.1-2.4 5.2v12.5h55.1c4.3 0 7.6 3.4 7.6 7.6s-3.4 7.6-7.6 7.6h-62.4c-4.3 0-7.6-3.4-7.6-7.6V411c0-6.7 3.1-12.9 8-17.1 15.6-12.9 32.1-22 39.8-26V347c-3.7-4-5.8-9.2-5.8-14.7V303c0-18.7 15.3-34.3 34.3-34.3h6.4c18.7 0 34.3 15.3 34.3 34.3v29.4c0 5.5-2.1 10.7-5.8 14.7v10.7c0 4.3-3.4 7.6-7.7 7.6s-7.6-3.4-7.6-7.6v-14.1c0-2.4 1.2-4.9 3.4-6.4 1.5-.9 2.4-2.8 2.4-4.6v-29.4c0-10.4-8.6-18.7-18.7-18.7h-6.4c-10.4 0-18.7 8.6-18.7 18.7v29.4c-.8 1.5.1 3.3 1.6 4.2zm105.3 263.8l-9.8-9.8 17.4-17.4 9.8 9.8-17.4 17.4zm-20.8-36.1v-13.8h24.8v13.8h-24.8zm28.4-22.9l-17.4-17.4 9.8-9.8 17.4 17.4-9.8 9.8zm32.8 70h-13.8v-24.8h13.8v24.8zm0-83.5h-13.8v-24.8h13.8v24.8zm26.3 72.5L329 583.3l9.8-9.8 17.4 17.4-9.8 9.8zm20.8-36.1h-24.8v-13.8h24.8v13.8zm39.5-133.7c0 4.3-3.4 7.6-7.6 7.6H213.9c-4.3 0-7.6-3.4-7.6-7.6v-26c0-8 3.4-15.3 9.5-20.2 20.8-17.1 43.1-29.4 52.3-34v-29.4c-4.9-4.6-8-11-8-18.1v-37.9c0-23.3 18.7-41.9 41.9-41.9h8.3c23.3 0 41.9 18.7 41.9 41.9v37.9c0 6.7-2.8 13.5-7.6 18.1v29.4c9.2 4.6 31.5 16.8 52.3 34 6.1 4.9 9.5 12.2 9.5 20.2l.3 26zm90.5 0c0 4.3-3.4 7.6-7.7 7.6h-61.8c-4.3 0-7.6-3.4-7.6-7.6s3.4-7.6 7.6-7.6h54.2v-12.5c0-2.1-.9-3.7-2.4-5.2-17.7-14.4-36.7-24.2-40.4-25.7-3.1-1.5-5.2-4.6-5.2-8.3v-28.5c0-2.4 1.2-4.9 3.4-6.4 1.5-.9 2.4-2.8 2.4-4.6v-29.4c0-10.4-8.6-18.7-18.7-18.7h-6.4c-10.4 0-18.7 8.6-18.7 18.7V332c0 1.8.9 3.7 2.4 4.6 2.1 1.5 3.4 3.7 3.4 6.4v13.5c0 4.3-3.4 7.7-7.7 7.7s-7.6-3.4-7.6-7.7V347c-3.7-4-5.8-9.2-5.8-14.7V303c0-19 15.3-34.3 34.3-34.3h6.4c18.7 0 34.3 15.3 34.3 34.3v29.4c0 5.5-2.1 10.7-5.8 14.7v20.8c7.6 4 24.2 13.2 39.8 26 5.2 4.3 8 10.4 8 17.1v19.9h-.4z"/></g></svg>