<svg version="1.1" id="Layer_1" xmlns="http://www.w3.org/2000/svg" x="0" y="0" viewBox="0 0 612 612" xml:space="preserve"><style>.st2{fill:#fff}</style><g id="XMLID_2_"><path id="XMLID_13_" d="M306 0C137.1 0 0 137.1 0 306s137.1 306 306 306 306-137.1 306-306S474.9 0 306 0z" fill="#61d095"/></g><path class="st2" d="M166.8 249.3h27L239.1 378h-27.2l-8.6-27.4h-46.4l-8.5 27.4h-26.5l44.9-128.7zm-3.8 81.4h34l-11.5-37.1c-.6-1.7-1.2-3.7-1.7-5.9-.5-2.3-1.1-4.4-1.7-6.5-.6-2.4-1.2-4.9-1.8-7.4h-.4c-.7 2.5-1.4 5-2 7.4-.6 2-1.2 4.2-1.7 6.5s-1.1 4.3-1.7 5.9L163 330.7zM249.9 249.3h59c6.2 0 11.9.9 17 2.6 5.1 1.7 9.4 4.2 13 7.3 3.6 3.1 6.4 6.9 8.4 11.2 2 4.4 3 9.3 3 14.7 0 7.6-1.9 14.1-5.6 19.5-3.7 5.5-9.7 9.3-18 11.6v.5c5.9 1.7 10.4 4.5 13.6 8.4 3.2 3.9 5.2 9.8 6 17.5.5 4.6.8 8.8 1 12.7.2 3.9.4 7.4.7 10.3.3 3 .7 5.5 1.3 7.4.6 1.9 1.4 3.1 2.5 3.6v1.3h-25c-.8-.4-1.5-1.5-2-3.3-.5-1.9-.9-4.2-1.2-6.9-.3-2.8-.6-5.8-.8-9.2-.2-3.4-.5-6.8-.7-10.3-.6-7.1-2.9-12.5-6.9-16.3-4-3.8-10.1-5.7-18.3-5.7H276V378h-26.1V249.3zm26.1 56.9h27.7c7.2 0 12.5-1.6 16-4.9 3.5-3.3 5.2-7.5 5.2-12.7 0-5.3-1.7-9.6-5-13-3.4-3.4-8.5-5.1-15.5-5.1H276v35.7zM367.1 249.3h59c6.2 0 11.9.9 17 2.6 5.1 1.7 9.5 4.2 13 7.3 3.6 3.1 6.4 6.9 8.4 11.2 2 4.4 3 9.3 3 14.7 0 7.6-1.9 14.1-5.6 19.5-3.7 5.5-9.7 9.3-18 11.6v.5c5.9 1.7 10.4 4.5 13.6 8.4 3.2 3.9 5.2 9.8 6 17.5.5 4.6.8 8.8 1 12.7.2 3.9.4 7.4.7 10.3.3 3 .7 5.5 1.4 7.4.6 1.9 1.4 3.1 2.5 3.6v1.3h-25c-.8-.4-1.5-1.5-2-3.3-.5-1.9-.9-4.2-1.2-6.9-.3-2.8-.6-5.8-.8-9.2-.2-3.4-.5-6.8-.7-10.3-.6-7.1-2.9-12.5-6.9-16.3-4-3.8-10.1-5.7-18.3-5.7h-21.1V378H367V249.3zm26.1 56.9h27.7c7.2 0 12.5-1.6 16-4.9 3.5-3.3 5.2-7.5 5.2-12.7 0-5.3-1.7-9.6-5-13-3.4-3.4-8.5-5.1-15.5-5.1h-28.4v35.7z"/></svg>