<svg xmlns="http://www.w3.org/2000/svg" viewBox="0 90 612 612"><path fill="#197B99" d="M306 90C137.1 90 0 227.1 0 396s137.1 306 306 306 306-137.1 306-306S474.9 90 306 90z"/><g fill="#FFF"><path d="M358.2 369.4l20.7 11.8 41.3-23.6-62-36.9z"/><path d="M483.7 294.1l14.8-26.6c11.8-20.7-22.1-44.3-38.4-53.1-16.2-8.9-53.1-28.1-64.9-5.9L374.5 244c-20.7-4.4-44.3-7.4-67.9-7.4-122.5 0-221.4 66.4-221.4 147.6s98.9 147.6 221.4 147.6h1.5c1.5 17.7-19.2 47.2-48.7 62 116.6 0 169.7-87.1 169.7-87.1 59-26.6 97.4-70.8 97.4-122.5 3-34-14.8-65-42.8-90.1zM187 425.5c-11.8 0-20.7-8.9-20.7-20.7s8.9-20.7 20.7-20.7 20.7 8.9 20.7 20.7-10.3 20.7-20.7 20.7zm54.6 0c-11.8 0-20.7-8.9-20.7-20.7s8.9-20.7 20.7-20.7 20.7 8.9 20.7 20.7-8.9 20.7-20.7 20.7zm54.6 0c-11.8 0-20.7-8.9-20.7-20.7s8.9-20.7 20.7-20.7c11.8 0 20.7 8.9 20.7 20.7 0 11.8-8.8 20.7-20.7 20.7zM427.6 362l-42.8 23.6-35.4 19.2v-88.5l59-101.8c2.9-5.9 23.6 0 45.7 11.8s36.9 26.6 32.5 32.5l-59 103.2z"/></g></svg>