<svg xmlns="http://www.w3.org/2000/svg" viewBox="0 90 612 612"><path fill="#197B99" d="M306 90C137.1 90 0 227.1 0 396s137.1 306 306 306 306-137.1 306-306S474.9 90 306 90z"/><g fill="#FFF"><path d="M349.8 330.4l17.9 10.2 35.8-20.5-53.7-31.9z"/><path d="M458.5 265.1l12.8-23c10.2-17.9-19.1-38.4-33.3-46-14-7.7-46-24.3-56.2-5.1l-17.9 30.8c-17.9-3.8-38.4-6.4-58.8-6.4-106.1 0-191.8 57.5-191.8 127.9S199 471.2 305.1 471.2h1.3c1.3 15.3-16.6 40.9-42.2 53.7 101 0 147-75.5 147-75.5 51.1-23 84.4-61.3 84.4-106.1 2.6-29.6-12.8-56.4-37.1-78.2zM201.4 379c-10.2 0-17.9-7.7-17.9-17.9s7.7-17.9 17.9-17.9 17.9 7.7 17.9 17.9-8.9 17.9-17.9 17.9zm47.3 0c-10.2 0-17.9-7.7-17.9-17.9s7.7-17.9 17.9-17.9 17.9 7.7 17.9 17.9S259 379 248.7 379zm47.3 0c-10.2 0-17.9-7.7-17.9-17.9s7.7-17.9 17.9-17.9 17.9 7.7 17.9 17.9c.1 10.2-7.5 17.9-17.9 17.9zm113.9-55l-37.1 20.4-30.7 16.6v-76.7l51.1-88.2c2.5-5.1 20.4 0 39.6 10.2s32 23 28.2 28.2L409.9 324z"/></g><g fill="#FFF"><path d="M364 552.5c-1.7-1.4-4.1-1-5.3.5l-61.4 77.2-20-25.2c-1.4-1.7-3.8-1.9-5.3-.5-1.7 1.4-1.9 3.8-.5 5.5l22.2 27.9c.7 1.2 1.9 1.9 3.3 1.9.2 0 .3 0 .7-.2h.3c1.2 0 2.4-.5 3.1-1.6l63.6-80.1c1.2-1.6 1.1-4.1-.7-5.4z"/><path d="M356.5 591.1c-2.1 0-3.8 1.7-3.8 3.8V659c0 2.1-1.7 4-3.8 4H258c-2.1 0-3.8-1.7-3.8-4v-91.9c0-2.1 1.7-3.8 3.8-3.8h63c2.1 0 3.8-1.7 3.8-4 0-2.1-1.7-3.8-3.8-3.8h-63c-6.4 0-11.5 5.2-11.5 11.7v91.9c0 6.4 5.2 11.7 11.5 11.7h90.8c6.4 0 11.5-5.2 11.5-11.7V595c-.1-2.2-1.8-3.9-3.8-3.9z"/></g></svg>