<?xml version="1.0" encoding="utf-8"?>
<!-- Generator: Adobe Illustrator 23.0.3, SVG Export Plug-In . SVG Version: 6.00 Build 0)  -->
<svg version="1.1" id="Layer_1" xmlns="http://www.w3.org/2000/svg" xmlns:xlink="http://www.w3.org/1999/xlink" x="0px" y="0px"
	 viewBox="0 0 100 100" style="enable-background:new 0 0 100 100;" xml:space="preserve">
<style type="text/css">
	.st0{fill:#61CF95;}
	.st1{fill:#FFFFFF;stroke:#252E4A;stroke-width:3;stroke-linecap:round;stroke-linejoin:round;}
	.st2{fill:#FFFFFF;}
	.st3{fill:none;stroke:#252E4A;stroke-width:3;stroke-linecap:round;stroke-linejoin:round;}
	.st4{fill:#61CF95;stroke:#252E4A;stroke-width:3;stroke-linecap:round;stroke-linejoin:round;}
</style>
<title>Paying Accounts</title>
<circle class="st0" cx="50" cy="50" r="50"/>
<circle class="st1" cx="50" cy="50" r="34"/>
<path class="st0" d="M71.5,60.5v6.6c0,0.4-0.2,0.8-0.6,1c-1.8,1-7.7,3.8-20.5,3.8s-18.8-2.8-20.5-3.8c-0.4-0.2-0.6-0.6-0.6-1v-6.6
	c0-4.8,6.6-6,12.1-7.8c0.4-0.1,0.8-0.3,1.2-0.5c1.7,4.3,6.5,6.5,10.8,4.8c2.2-0.9,3.9-2.6,4.8-4.8c0.4,0.2,0.8,0.4,1.2,0.5
	C64.8,54.5,71.5,55.7,71.5,60.5z"/>
<path class="st2" d="M59.4,34v0.2c0,0-0.5,8.1-3.1,12.1c-0.2,0.4-0.5,0.7-0.8,1.1c-1.7,1.7-5.1,1.7-5.1,1.7s-3.4,0-5.1-1.7
	c-0.3-0.3-0.6-0.7-0.8-1.1c-2.6-4-3.1-12.1-3.1-12.1s-0.5-8.3,10.8-9.2h0.1c1,0,1.8,0.8,1.8,1.7c0,0,0,0,0,0
	C60.6,26.8,59.4,34,59.4,34z"/>
<path class="st2" d="M58.2,52.2c-1.7,4.3-6.5,6.5-10.8,4.8c-2.2-0.9-3.9-2.6-4.8-4.8c2.1-1.1,2.9-3.7,1.9-5.9
	c0.3,0.4,0.5,0.7,0.8,1.1c1.7,1.7,5.1,1.7,5.1,1.7s3.4,0,5.1-1.7c0.3-0.3,0.6-0.7,0.8-1.1C55.9,47.2,54.9,50.4,58.2,52.2z"/>
<path class="st3" d="M56.4,46.1c0,0,0,0.1-0.1,0.2c-0.3,0.9-1.4,4.1,1.9,5.9c0.4,0.2,0.8,0.4,1.2,0.5c5.4,1.8,12.1,3,12.1,7.9v6.6
	c0,0.4-0.2,0.8-0.6,1c-1.8,1-7.7,3.8-20.5,3.8s-18.8-2.8-20.5-3.8c-0.4-0.2-0.6-0.6-0.6-1v-6.6c0-4.8,6.6-6,12.1-7.8
	c0.4-0.1,0.8-0.3,1.2-0.5c2.1-1.1,2.9-3.7,1.9-5.9c0-0.1-0.1-0.2-0.1-0.2"/>
<path class="st3" d="M42.5,52.1L42.5,52.1c1.7,4.4,6.5,6.5,10.8,4.9c2.2-0.9,3.9-2.6,4.8-4.8v-0.1"/>
<path class="st3" d="M44.9,35.2c0,0,9.7,0.6,9.7-4.8c0,0,1.2,3.6,4.8,3.6c0,0,1.2-7.2-5.4-7.2c0-1-0.8-1.8-1.8-1.8h-0.1
	c-11.3,0.8-10.8,9.2-10.8,9.2s0.5,8.1,3.1,12.1c0.3,0.4,0.5,0.7,0.8,1.1c1.7,1.7,5.1,1.7,5.1,1.7s3.4,0,5.1-1.7
	c0.3-0.3,0.6-0.7,0.8-1.1c2.7-4,3.1-12.1,3.1-12.1"/>
<circle class="st4" cx="67.8" cy="67.8" r="17.2"/>
<path class="st2" d="M68.6,58.8v1c0.6,0.1,1.2,0.2,1.8,0.4c0.5,0.2,0.9,0.6,1.3,1c0.3,0.3,0.5,0.6,0.7,1c0.2,0.3,0.2,0.7,0.2,1
	c0,0.3-0.1,0.6-0.3,0.8c-0.2,0.2-0.5,0.4-0.9,0.4c-0.6,0-1.1-0.4-1.2-1c-0.2-0.8-0.8-1.4-1.5-1.6v4c0.8,0.2,1.4,0.4,1.9,0.6
	c0.5,0.2,0.9,0.4,1.3,0.8c0.4,0.3,0.7,0.8,0.9,1.3c0.2,0.5,0.3,1,0.3,1.5c0,0.7-0.2,1.4-0.5,2c-0.3,0.7-0.9,1.2-1.5,1.6
	c-0.7,0.4-1.5,0.7-2.4,0.7v2.4c0,0.3,0,0.6-0.1,0.8c-0.1,0.2-0.3,0.3-0.5,0.3c-0.2,0-0.4-0.1-0.5-0.2c-0.1-0.2-0.2-0.4-0.1-0.7v-2.6
	c-0.7-0.1-1.4-0.2-2-0.5c-0.5-0.2-1-0.6-1.4-1c-0.3-0.4-0.6-0.8-0.8-1.2c-0.2-0.4-0.3-0.8-0.3-1.3c0-0.3,0.1-0.6,0.4-0.8
	c0.4-0.4,1.1-0.5,1.6-0.2c0.2,0.1,0.4,0.3,0.4,0.6c0.1,0.4,0.3,0.8,0.4,1.2c0.1,0.3,0.3,0.6,0.6,0.8c0.3,0.2,0.6,0.4,1,0.5v-4.5
	c-0.7-0.2-1.5-0.5-2.2-0.8c-0.6-0.3-1.1-0.7-1.4-1.2c-0.9-1.5-0.7-3.5,0.5-4.8c0.8-0.8,1.9-1.2,3.1-1.2v-1c0-0.5,0.2-0.8,0.6-0.8
	C68.4,58,68.6,58.3,68.6,58.8z M67.4,65.4v-3.7c-0.5,0.1-0.9,0.3-1.3,0.6c-0.3,0.3-0.5,0.8-0.5,1.2c0,0.4,0.1,0.8,0.4,1.2
	C66.5,65,66.9,65.2,67.4,65.4z M68.6,68.3v4.2c0.6-0.1,1.1-0.4,1.5-0.8c0.3-0.4,0.5-0.9,0.5-1.4c0-0.5-0.2-1-0.5-1.3
	C69.7,68.7,69.1,68.4,68.6,68.3z"/>
</svg>
