<svg version="1.1" id="Layer_1" xmlns="http://www.w3.org/2000/svg" x="0" y="0" viewBox="0 0 200 200" xml:space="preserve"><style>.st0{fill:#1bbc9b}</style><g id="XMLID_2_"><path id="XMLID_13_" class="st0" d="M100 0C44.8 0 0 44.8 0 100s44.8 100 100 100 100-44.8 100-100S155.2 0 100 0zM78.4 90.2c0 .7-.4 1.1-1.1 1.1h-6.6c-.7 0-1.1-.4-1.1-1.1V85c0-1.7-.9-2.6-2.6-2.6h-3.4c-1.8 0-2.6.9-2.6 2.6v30c0 1.8.9 2.6 2.6 2.6H67c1.7 0 2.6-.9 2.6-2.6v-5.3c0-.7.3-1.1 1.1-1.1h6.6c.7 0 1.1.4 1.1 1.1v7.1c0 6.2-3.4 9.5-9.5 9.5h-7.4c-6.2 0-9.6-3.3-9.6-9.5V83.1c0-6.2 3.4-9.5 9.6-9.5h7.4c6.1 0 9.5 3.3 9.5 9.5v7.1zm37.7 36.2h-7c-.6 0-.9-.3-1.1-.9l-1.8-9.6H94.5l-1.8 9.6c-.1.6-.5.9-1.1.9h-7.1c-.7 0-1.1-.4-.9-1.1l10.9-50.7c.1-.7.5-.9 1.1-.9h9.2c.6 0 1 .3 1.1.9l10.9 50.7c.3.7.1 1.1-.7 1.1zm32-36.2c0 .7-.4 1.1-1.1 1.1h-6.6c-.7 0-1.1-.4-1.1-1.1V85c0-1.7-.9-2.6-2.6-2.6h-3.4c-1.8 0-2.6.9-2.6 2.6v30c0 1.8.9 2.6 2.6 2.6h3.4c1.7 0 2.6-.9 2.6-2.6v-5.3c0-.7.3-1.1 1.1-1.1h6.6c.7 0 1.1.4 1.1 1.1v7.1c0 6.2-3.4 9.5-9.5 9.5h-7.4c-6.2 0-9.6-3.3-9.6-9.5V83.1c0-6.2 3.4-9.5 9.6-9.5h7.4c6.1 0 9.5 3.3 9.5 9.5v7.1z"/><path id="XMLID_16_" class="st0" d="M96.1 108.2h8.4l-4.2-23z"/></g></svg>