<svg xmlns="http://www.w3.org/2000/svg" viewBox="0 90.2 612 611.8"><path fill="#BA280C" d="M306 90C137.1 90 0 227.1 0 396s137.1 306 306 306 306-137.1 306-306S474.9 90 306 90z"/><g fill="#FFF"><path d="M245.9 309.5h96.8c2.5 0 4.6-2.1 4.6-4.6s-2.1-4.6-4.6-4.6h-96.8c-2.5 0-4.6 2.1-4.6 4.6 0 2.6 2 4.6 4.6 4.6zM159.3 354.6h96.8c2.5 0 4.6-2.1 4.6-4.6s-2.1-4.6-4.6-4.6h-96.8c-2.5 0-4.6 2.1-4.6 4.6s2 4.6 4.6 4.6zM185.3 402c0 2.5 2.1 4.6 4.6 4.6h96.8c2.5 0 4.6-2.1 4.6-4.6s-2.1-4.6-4.6-4.6h-96.8c-2.6 0-4.6 2-4.6 4.6zM240.7 455.5h-87c-2.5 0-4.6 2.1-4.6 4.6s2.1 4.6 4.6 4.6h87c2.5 0 4.6-2.1 4.6-4.6s-2.1-4.6-4.6-4.6zM397.2 338.4c13.9 0 25.2-11.3 25.2-25.2S411.1 288 397.2 288c-13.9 0-25.2 11.3-25.2 25.2.1 14 11.3 25.2 25.2 25.2z"/><path d="M438.6 331.2c-14.5 20.2-33.8 22.6-54.6 10.2-1.4-.8-7.7-4.3-9.1-5.1-33.5-19.9-67-12.1-89.4 19.3-9.5 13.4 12.5 26 21.9 12.8 11.6-16.2 26.3-20.9 42.5-15.8-8.3 14.3-15.5 28.6-25.7 48.8-10.2 20.2-32.7 36.4-54.3 23.8-15.6-9.1-29.7 13.3-14.1 22.4 29.5 17.2 64.1 6.7 81.8-15.8.6.3 1.3.6 2 .9 14.4 5 33.3 18.4 39.1 23.1 5.8 4.7 15.7 28.9 21.5 41 7.1 14.7 30.2 4 23-10.8-6.7-13.8-17.8-41.3-26.6-48.2-7-5.6-20.6-16-32.1-21.8 7.8-15.1 15.9-30 24.5-44.7 27.2 8.3 53.1-1.5 71.6-27.3 9.5-13.4-12.5-26-22-12.8z"/></g></svg>