<svg xmlns="http://www.w3.org/2000/svg" viewBox="0 90 612 612"><path fill="#17997A" d="M306 90C137.1 90 0 227.1 0 396s137.1 306 306 306 306-137.1 306-306S474.9 90 306 90z"/><path fill="#FFF" d="M306 257c-76.8 0-139 62.2-139 139s62.2 139 139 139 139-62.2 139-139-62.2-139-139-139zm.4 204.6H246.2c0-43.4 38.1-43.4 46.6-54.8l1-5.2c-11.9-6-20.3-20.6-20.3-37.5 0-22.4 14.6-40.5 32.5-40.5 18 0 32.5 18.1 32.5 40.5 0 16.8-8.2 31.3-20 37.4l1.1 5.9c9.3 10.8 46.1 11.5 46.1 54.2h-59.3z"/><g fill="#FFF"><path d="M543.8 319.3c-10-36.4-27.8-68.1-54-95.4-20.2-21-43.4-37.1-69.3-48-26-11-52.6-16.7-80.2-16.7v27c48.5 0 96.3 19.5 131.7 56.5 22.8 23.8 38.4 51.7 47.1 83.3 8.7 31.7 10 63.5 3.2 95.6-6.7 32.1-20.4 60.6-41.3 85.5l-36.2-36.9v92l90.2 1.4-36.2-37.7c24.1-28.5 40.1-61.1 48-97.5 7.9-36.5 6.9-72.9-3-109.1zM102.7 449.4c-8.7-32-9.7-64.3-3-96.8s20.6-61.6 41.5-86.8l36.2 37.9v-93.6l-90.2-1 35.9 37.6c-24.1 28.8-40.1 61.8-48 98.7s-7 73.8 3 110.7c9.9 36.7 27.8 68.7 54 96.3 20.2 21.3 43.4 37.5 69.3 48.6 26 11.1 52.9 16.9 80.7 16.9V591c-49.2 0-96.3-20-131.9-57.7-22.7-24-38.8-51.9-47.5-83.9z"/></g></svg>