<svg xmlns="http://www.w3.org/2000/svg" viewBox="0 90 612 612"><path fill="#3B5998" d="M306 90C136.9 90 0 226.9 0 396s136.9 306 306 306 306-136.9 306-306S474.9 90 306 90zm84.2 155.1H347c-11.6 0-19.7 10.1-19.7 22.3v19.1h62l-10.1 62.8h-51.9v168h-63.6v-168h-42v-62.8h42v-32.1c1.1-36.5 14.1-71.2 75.6-73.5v-.4h51l-.1 64.6z"/><path fill="#FFF" d="M341.9 550.3H235.8c-4.9 0-8.9 4.1-8.9 8.9v63.6c0 4.9 4.1 8.9 8.9 8.9h6.9v23.8c0 1.6.9 2.8 2.3 3.4.5.2.9.3 1.4.3.9 0 1.9-.3 2.7-1.1l26.3-26.3h5.3c2 0 3.8-1.7 3.8-3.8s-1.7-3.8-3.8-3.8h-7c-.9 0-1.7.5-2.3 1.1l-21 21v-18.8c-.2-1.9-1.7-3.4-3.8-3.4H236c-.8 0-1.4-.6-1.4-1.4v-63.6c0-.8.6-1.4 1.4-1.4h106c.8 0 1.4.6 1.4 1.4v24.4c0 2 1.7 3.8 3.8 3.8 2 0 3.8-1.7 3.8-3.8v-24.4c-.2-4.7-4.1-8.8-9.1-8.8z"/><path fill="#FFF" d="M376.2 596.1h-74.3c-4.9 0-8.9 4.1-8.9 8.9v43.4c0 4.9 4.1 8.9 8.9 8.9h46.5l18.8 18.8c.8.8 1.7 1.1 2.7 1.1.5 0 .9-.2 1.4-.3 1.4-.6 2.3-1.9 2.3-3.4v-16.3h2.5c4.9 0 8.9-4.1 8.9-8.9v-43.4c.1-4.9-4-8.8-8.8-8.8zm1.4 52.3c0 .8-.6 1.4-1.4 1.4h-6.3c-2 0-3.6 1.6-3.8 3.4v11.3L352.6 651l-.2-.2c-.6-.6-1.6-.9-2.5-.9h-48.1c-.8 0-1.4-.6-1.4-1.4v-43.4c0-.8.6-1.4 1.4-1.4h74.3c.8 0 1.4.6 1.4 1.4l.1 43.3z"/><path fill="#FFF" d="M339.1 622.9c-2 0-3.8 1.7-3.8 3.8 0 2 1.7 3.8 3.8 3.8 2 0 3.8-1.7 3.8-3.8-.1-2.1-1.8-3.8-3.8-3.8zM322.8 575.1H255c-2 0-3.8 1.7-3.8 3.8s1.7 3.8 3.8 3.8h67.8c2 0 3.8-1.7 3.8-3.8s-1.6-3.8-3.8-3.8zM280.6 599.7h-25.8c-2 0-3.8 1.7-3.8 3.8 0 2 1.7 3.8 3.8 3.8h25.8c2 0 3.8-1.7 3.8-3.8s-1.6-3.8-3.8-3.8zM321.7 622.9c-2 0-3.8 1.7-3.8 3.8 0 2 1.7 3.8 3.8 3.8 2 0 3.8-1.7 3.8-3.8-.1-2.1-1.8-3.8-3.8-3.8zM356.4 622.9c-2 0-3.8 1.7-3.8 3.8 0 2 1.7 3.8 3.8 3.8 2 0 3.8-1.7 3.8-3.8-.2-2.1-1.7-3.8-3.8-3.8z"/></svg>