<svg xmlns="http://www.w3.org/2000/svg" viewBox="0 90 612 612"><path fill="#DD4B39" d="M306 90C137.1 90 0 227.1 0 396s137.1 306 306 306 306-137.1 306-306S474.9 90 306 90zm119.3 274.6c0 82-66.7 149-149 149s-148.7-67-148.7-149 66.7-149 149-149c9 0 64.6 10.7 90.9 30.9l-34.6 45c-16.2-12.5-35.8-19-56-19-51.4-.3-92.7 41.3-92.7 92.1s41.3 92.1 92.1 92.1c41 0 75.6-26.9 87.8-63.6h-87.8v-56.9h149v28.4z"/><text transform="translate(433 436)" fill="#FFF" font-family="'PTSans-CaptionBold'" font-size="250">+</text><path fill="#FFF" d="M332.9 553.3H226.8c-4.9 0-8.9 4.1-8.9 8.9v63.6c0 4.9 4.1 8.9 8.9 8.9h6.9v23.8c0 1.6.9 2.8 2.3 3.4.5.2.9.3 1.4.3.9 0 1.9-.3 2.7-1.1l26.3-26.3h5.3c2 0 3.8-1.7 3.8-3.8 0-2-1.7-3.8-3.8-3.8h-7c-.9 0-1.7.5-2.3 1.1l-21 21v-18.8c-.2-1.9-1.7-3.4-3.8-3.4H227c-.8 0-1.4-.6-1.4-1.4v-63.6c0-.8.6-1.4 1.4-1.4h106c.8 0 1.4.6 1.4 1.4v24.4c0 2 1.7 3.8 3.8 3.8 2 0 3.8-1.7 3.8-3.8v-24.4c-.2-4.8-4.1-8.8-9.1-8.8z"/><path fill="#FFF" d="M367.2 599h-74.3c-4.9 0-8.9 4.1-8.9 8.9v43.4c0 4.9 4.1 8.9 8.9 8.9h46.5l18.8 18.8c.8.8 1.7 1.1 2.7 1.1.5 0 .9-.2 1.4-.3 1.4-.6 2.3-1.9 2.3-3.4v-16.3h2.5c4.9 0 8.9-4.1 8.9-8.9v-43.4c.1-4.9-4-8.8-8.8-8.8zm1.4 52.3c0 .8-.6 1.4-1.4 1.4h-6.3c-2 0-3.6 1.6-3.8 3.4v11.3L343.7 654l-.2-.2c-.6-.6-1.6-.9-2.5-.9h-48.1c-.8 0-1.4-.6-1.4-1.4v-43.4c0-.8.6-1.4 1.4-1.4h74.3c.8 0 1.4.6 1.4 1.4v43.2z"/><path fill="#FFF" d="M330.1 625.8c-2 0-3.8 1.7-3.8 3.8 0 2 1.7 3.8 3.8 3.8s3.8-1.7 3.8-3.8c-.1-2.1-1.8-3.8-3.8-3.8zM313.8 578H246c-2 0-3.8 1.7-3.8 3.8s1.7 3.8 3.8 3.8h67.8c2 0 3.8-1.7 3.8-3.8s-1.6-3.8-3.8-3.8zM271.6 602.6h-25.8c-2 0-3.8 1.7-3.8 3.8s1.7 3.8 3.8 3.8h25.8c2 0 3.8-1.7 3.8-3.8s-1.6-3.8-3.8-3.8zM312.7 625.8c-2 0-3.8 1.7-3.8 3.8 0 2 1.7 3.8 3.8 3.8 2 0 3.8-1.7 3.8-3.8s-1.8-3.8-3.8-3.8zM347.4 625.8c-2 0-3.8 1.7-3.8 3.8 0 2 1.7 3.8 3.8 3.8 2 0 3.8-1.7 3.8-3.8-.2-2.1-1.7-3.8-3.8-3.8z"/></svg>