<svg xmlns="http://www.w3.org/2000/svg" viewBox="0 90 612 612"><path fill="#DD4B39" d="M306 90C137.1 90 0 227.1 0 396s137.1 306 306 306 306-137.1 306-306S474.9 90 306 90zm115.3 306c0 82-66.7 149-149 149s-148.7-67-148.7-149 66.7-149 149-149c9 0 64.6 10.7 90.9 30.9l-34.6 45c-16.2-12.5-35.8-19-56-19-51.4-.3-92.7 41.3-92.7 92.1s41.3 92.1 92.1 92.1c41 0 75.6-26.9 87.8-63.6h-87.8v-56.9h149V396z"/><text transform="translate(432 467.448)" fill="#FFF" font-family="'PTSans-CaptionBold'" font-size="250">+</text></svg>