<svg xmlns="http://www.w3.org/2000/svg" viewBox="0 90 612 612"><path fill="#DD4B39" d="M306 90C137.1 90 0 227.1 0 396s137.1 306 306 306 306-137.1 306-306S474.9 90 306 90zm134.3 327.6c0 82-66.7 149-149 149s-148.7-67-148.7-149 66.7-149 149-149c9 0 64.6 10.7 90.9 30.9l-34.6 45c-16.2-12.5-35.8-19-56-19-51.4-.3-92.7 41.3-92.7 92.1s41.3 92.1 92.1 92.1c41 0 75.6-26.9 87.8-63.6h-87.8v-56.9h149v28.4z"/><path fill="#FFF" d="M456.8 192.3c-37.4 0-67.6 25.9-67.6 57.8 0 19.6 11.4 37 28.8 47.4l-.2 22.4 22.7-13.5c5.3 1.1 10.6 1.8 16.2 1.8 37.3 0 67.6-26 67.6-57.9 0-32-30.2-58-67.5-58zm-30.2 38.6c-1.9 1.6-3.4 3-4.6 4.5-1.2 1.3-2.1 3.3-2.5 5.6 1.2 0 2.5.8 4.1 2.4 1.3 1.6 2.2 3.5 2.2 5.6 0 1.9-.8 3.7-2.3 5.6-1.6 1.8-3.5 2.7-5.8 2.7s-4.4-1-5.9-2.9c-1.6-1.9-2.4-4.4-2.4-7.1 0-4.2 1.3-8.6 4.2-13.2 2.9-4.6 6.4-8 10.5-10.3l3.3 6.8-.8.3zm20.7 0c-1.9 1.6-3.4 3-4.6 4.5-1.2 1.3-2.1 3.3-2.5 5.6 1.2 0 2.5.8 4.1 2.4 1.6 1.6 2.3 3.5 2.3 5.6 0 1.9-.8 3.7-2.4 5.6-1.6 1.8-3.5 2.7-5.8 2.7s-4.4-1-5.9-2.9c-1.6-1.9-2.4-4.4-2.4-7.1 0-4.2 1.3-8.6 4.2-13.2s6.2-8 10.4-10.3l3.4 6.8-.8.3zm29.8 41.2c-2.9 4.6-6.2 8-10.4 10.3l-3.4-6.8.4-.4c1.9-1.6 3.4-3 4.6-4.5 1.2-1.3 2.1-3.3 2.5-5.6-1.2 0-2.5-.8-4.1-2.4-1.5-1.6-2.3-3.5-2.3-5.6 0-1.9.8-3.7 2.4-5.6 1.6-1.8 3.5-2.7 5.8-2.7s4.4 1 5.9 2.9c1.6 1.9 2.4 4.4 2.4 7.1.3 4.4-1.1 8.7-3.8 13.3zm20.6 0c-2.9 4.6-6.4 8-10.5 10.3l-3.3-6.8.4-.4c1.9-1.6 3.4-3 4.6-4.5 1.2-1.3 2.1-3.3 2.5-5.6-1.2 0-2.5-.8-4.1-2.4-1.3-1.6-2.2-3.5-2.2-5.6 0-1.9.8-3.7 2.3-5.6 1.6-1.8 3.5-2.7 5.8-2.7s4.4 1 5.9 2.9c1.6 1.9 2.4 4.4 2.4 7.1.4 4.4-1 8.7-3.8 13.3z"/></svg>