<svg xmlns="http://www.w3.org/2000/svg" xmlns:xlink="http://www.w3.org/1999/xlink" viewBox="0 113.6 612 613.2"><defs><path id="a" d="M306 113.6C136.7 113.6-.6 250.9-.6 420.2c0 169.4 137.3 306.6 306.6 306.6 169.4 0 306.6-137.3 306.6-306.6.1-169.3-137.2-306.6-306.6-306.6z"/></defs><clipPath id="b"><use xlink:href="#a" overflow="visible"/></clipPath><radialGradient id="c" cx="339.674" cy="1052.534" r=".795" gradientTransform="scale(791.6772 -791.6772) rotate(71.063 907.53 288.138)" gradientUnits="userSpaceOnUse"><stop offset="0" stop-color="#ffd676"/><stop offset=".246" stop-color="#f2a454"/><stop offset=".379" stop-color="#f05c3c"/><stop offset=".7" stop-color="#c22f86"/><stop offset=".957" stop-color="#6666ad"/><stop offset=".985" stop-color="#5c6cb2"/><stop offset="1" stop-color="#5c6cb2"/></radialGradient><path clip-path="url(#b)" fill="url(#c)" d="M-197.4 661.8l257-749.3 750.2 257.4-257.2 749.3z"/><g fill="#FFF"><path d="M376 554.4H236c-54.8 0-99.5-44.7-99.5-99.5V305.5c0-54.8 44.7-99.5 99.5-99.5h139.9c54.8 0 99.5 44.7 99.5 99.5v149.3c.1 54.9-44.6 99.6-99.4 99.6zM236 231.5c-40.8 0-74.1 33.2-74.1 74.1v149.3c0 40.8 33.2 74.1 74.1 74.1h139.9c40.8 0 73.9-33.2 73.9-74.1V305.5c0-40.8-33.2-74.1-73.9-74.1H236v.1z"/><path d="M306 472.2c-51 0-92.5-41.5-92.5-92.5 0-25.2 10.3-49.7 28.4-67.2 17.6-17.1 40.5-26.1 64.6-25.3 28.8.9 52.8 10.5 69.2 28 15.5 16.6 23.5 39 22.9 64.7-.5 24.7-10.3 47.7-27.4 65-17.5 17.7-40.6 27.3-65.2 27.3zm-2.1-154c-14.9 0-29.3 5.9-40.3 16.6-12 11.6-19 28-19 44.8 0 33.8 27.5 61.3 61.3 61.3 33.7 0 60.6-27.1 61.3-61.7.4-17.5-4.7-32.2-14.6-42.8-10.6-11.4-26.9-17.6-47.2-18.2-.4.2-1 0-1.5 0zM422.4 284.6c0 11.9-9.7 21.5-21.5 21.5s-21.5-9.7-21.5-21.5S389 263 400.9 263c11.8-.1 21.5 9.6 21.5 21.6"/></g><path fill="#FFF" d="M341.8 576.6h-106c-4.9 0-8.9 4.1-8.9 8.9v63.6c0 4.9 4.1 8.9 8.9 8.9h6.9v23.8c0 1.6.9 2.8 2.3 3.4.5.2.9.3 1.4.3.9 0 1.9-.3 2.7-1.1l26.3-26.3h5.3c2 0 3.8-1.7 3.8-3.8 0-2-1.7-3.8-3.8-3.8h-7c-.9 0-1.7.5-2.3 1.1l-21 21v-18.8c-.2-1.9-1.7-3.4-3.8-3.4h-10.7c-.8 0-1.4-.6-1.4-1.4v-63.6c0-.8.6-1.4 1.4-1.4H342c.8 0 1.4.6 1.4 1.4v24.4c0 2 1.7 3.8 3.8 3.8 2 0 3.8-1.7 3.8-3.8v-24.4c-.2-4.7-4.2-8.8-9.2-8.8z"/><path fill="#FFF" d="M376.1 622.3h-74.3c-4.9 0-8.9 4.1-8.9 8.9v43.4c0 4.9 4.1 8.9 8.9 8.9h46.5l18.8 18.8c.8.8 1.7 1.1 2.7 1.1.5 0 .9-.2 1.4-.3 1.4-.6 2.3-1.9 2.3-3.4v-16.3h2.5c4.9 0 8.9-4.1 8.9-8.9v-43.4c.2-4.9-3.9-8.8-8.8-8.8zm1.4 52.3c0 .8-.6 1.4-1.4 1.4h-6.3c-2 0-3.6 1.6-3.8 3.4v11.3l-13.5-13.5-.2-.2c-.6-.6-1.6-.9-2.5-.9h-48.1c-.8 0-1.4-.6-1.4-1.4v-43.4c0-.8.6-1.4 1.4-1.4H376c.8 0 1.4.6 1.4 1.4v43.3h.1z"/><path fill="#FFF" d="M339 649.1c-2 0-3.8 1.7-3.8 3.8 0 2 1.7 3.8 3.8 3.8 2 0 3.8-1.7 3.8-3.8s-1.8-3.8-3.8-3.8zM322.7 601.3h-67.8c-2 0-3.8 1.7-3.8 3.8 0 2 1.7 3.8 3.8 3.8h67.8c2 0 3.8-1.7 3.8-3.8 0-2-1.6-3.8-3.8-3.8z"/><g><path fill="#FFF" d="M280.6 625.9h-25.8c-2 0-3.8 1.7-3.8 3.8 0 2 1.7 3.8 3.8 3.8h25.8c2 0 3.8-1.7 3.8-3.8-.1-2-1.6-3.8-3.8-3.8z"/></g><g><path fill="#FFF" d="M321.6 649.1c-2 0-3.8 1.7-3.8 3.8 0 2 1.7 3.8 3.8 3.8 2 0 3.8-1.7 3.8-3.8s-1.7-3.8-3.8-3.8z"/></g><g><path fill="#FFF" d="M356.4 649.1c-2 0-3.8 1.7-3.8 3.8 0 2 1.7 3.8 3.8 3.8s3.8-1.7 3.8-3.8c-.2-2.1-1.8-3.8-3.8-3.8z"/></g></svg>