<svg version="1.1" id="Layer_1" xmlns="http://www.w3.org/2000/svg" xmlns:xlink="http://www.w3.org/1999/xlink" x="0" y="0" viewBox="150 -150 500 500" xml:space="preserve"><style>.st1{fill:#fff}</style><defs><path id="SVGID_1_" d="M400.5-150.5C262.2-150.5 150-38.3 150 100c0 138.4 112.2 250.5 250.5 250.5C538.9 350.5 651 238.3 651 100c.1-138.3-112.1-250.5-250.5-250.5z"/></defs><clipPath id="SVGID_2_"><use xlink:href="#SVGID_1_" overflow="visible"/></clipPath><radialGradient id="SVGID_3_" cx="339.944" cy="-260.426" r=".795" gradientTransform="rotate(-71.063 228264.896 69694.977) scale(646.7951)" gradientUnits="userSpaceOnUse"><stop offset="0" stop-color="#ffd676"/><stop offset=".246" stop-color="#f2a454"/><stop offset=".379" stop-color="#f05c3c"/><stop offset=".7" stop-color="#c22f86"/><stop offset=".957" stop-color="#6666ad"/><stop offset=".985" stop-color="#5c6cb2"/><stop offset="1" stop-color="#5c6cb2"/></radialGradient><path clip-path="url(#SVGID_2_)" fill="url(#SVGID_3_)" d="M-10.8 297.4l210-612.2 612.9 210.3L602 507.7z"/><g><path class="st1" d="M457.7 242.3H343.3c-44.8 0-81.3-36.5-81.3-81.3V39c0-44.8 36.5-81.3 81.3-81.3h114.3c44.8 0 81.3 36.5 81.3 81.3v122c.1 44.8-36.4 81.3-81.2 81.3zM343.3-21.5c-33.3 0-60.5 27.1-60.5 60.5v122c0 33.3 27.1 60.5 60.5 60.5h114.3c33.3 0 60.4-27.1 60.4-60.5V39c0-33.3-27.1-60.5-60.4-60.5H343.3z"/><path class="st1" d="M400.5 175.2c-41.7 0-75.6-33.9-75.6-75.6 0-20.6 8.4-40.6 23.2-54.9 14.4-14 33.1-21.3 52.8-20.7 23.5.7 43.1 8.6 56.5 22.9 12.7 13.6 19.2 31.9 18.7 52.9-.4 20.2-8.4 39-22.4 53.1-14.2 14.4-33.1 22.3-53.2 22.3zm-1.7-125.8c-12.2 0-23.9 4.8-32.9 13.6-9.8 9.5-15.5 22.9-15.5 36.6 0 27.6 22.5 50.1 50.1 50.1 27.5 0 49.5-22.1 50.1-50.4.3-14.3-3.8-26.3-11.9-35-8.7-9.3-22-14.4-38.6-14.9-.4.1-.9 0-1.3 0zM495.6 21.9c0 9.7-7.9 17.6-17.6 17.6s-17.6-7.9-17.6-17.6S468.3 4.3 478 4.3c9.7-.1 17.6 7.8 17.6 17.6"/></g></svg>