<svg width="100" height="100" xmlns="http://www.w3.org/2000/svg"><g fill="none" fill-rule="evenodd"><g fill-rule="nonzero"><circle fill="#579BFC" cx="50" cy="50" r="50"/><ellipse stroke="#252E4A" stroke-width="3" fill="#579BFC" stroke-linecap="round" stroke-linejoin="round" cx="50" cy="28.69" rx="29" ry="5.09"/><circle stroke="#252E4A" stroke-width="3" fill="#FFF" stroke-linecap="round" stroke-linejoin="round" cx="37.83" cy="17.17" r="10.17"/><circle stroke="#252E4A" stroke-width="3" fill="#FFF" stroke-linecap="round" stroke-linejoin="round" cx="59.92" cy="30.3" r="8.92"/><path d="M79 29.08L56.27 51.81v12.12l-12.54 5.13V51.81L21 29.08s2.35 4.71 29 4.71 29-4.71 29-4.71z" stroke="#252E4A" stroke-width="3" fill="#FFF" stroke-linecap="round" stroke-linejoin="round"/><circle stroke="#252E4A" stroke-width="3" fill="#FFF" stroke-linecap="round" stroke-linejoin="round" cx="50" cy="75" r="18"/><path stroke="#252E4A" stroke-width="3" fill="#3773C8" stroke-linecap="round" stroke-linejoin="round" d="M37.94 71.66h1.63v2.93h-1.63z"/><path d="M40.89 68.4H49v9.45h-8.11a1.32 1.32 0 0 1-1.32-1.32v-6.81c0-.729.591-1.32 1.32-1.32z" stroke="#252E4A" stroke-width="3" fill="#FFF" stroke-linecap="round" stroke-linejoin="round"/><path stroke="#252E4A" stroke-width="3" fill="#579BFC" stroke-linecap="round" stroke-linejoin="round" d="M49.02 68.4l10.11-4.23v18.25l-10.11-4.57zM48 77.85l-1.62 2.94 1.29 3.45A1.3 1.3 0 0 1 46.49 86H43.9a1.31 1.31 0 0 1-1.28-1l-1.42-7.1 6.8-.05z"/><path d="M59.12 76.22a2.93 2.93 0 0 0 0-5.86v5.86z" stroke="#252E4A" stroke-width="3" fill="#FFF" stroke-linecap="round" stroke-linejoin="round"/></g><path d="M78 64c-6.075 0-11-4.925-11-11s4.925-11 11-11 11 4.925 11 11" stroke="#252E4A" stroke-width="3" fill="#FFF" fill-rule="nonzero" stroke-linecap="round" stroke-linejoin="round"/><path d="M89 53c0 6.075-4.925 11-11 11" fill="#FFF" fill-rule="nonzero"/><path d="M89 53v1" stroke="#252E4A" stroke-width="3" stroke-linecap="round" stroke-linejoin="round"/><path d="M88 57.67a11 11 0 0 1-7.09 6" stroke="#252E4A" stroke-width="3" stroke-linecap="round" stroke-linejoin="round" stroke-dasharray="1.91"/><path d="M79 64h-1" stroke="#252E4A" stroke-width="3" stroke-linecap="round" stroke-linejoin="round"/><path stroke="#252E4A" stroke-width="3" fill="#FFF" fill-rule="nonzero" stroke-linecap="round" stroke-linejoin="round" d="M78 47v6l2.5 2.5M91 52l-2 2-2-2"/></g></svg>