<svg width="100" height="100" xmlns="http://www.w3.org/2000/svg"><g fill="none" fill-rule="evenodd"><circle fill="#579BFC" fill-rule="nonzero" cx="50" cy="50" r="50"/><circle fill="#579BFC" fill-rule="nonzero" cx="50" cy="50" r="50"/><ellipse stroke="#252E4A" stroke-width="3" fill="#579BFC" fill-rule="nonzero" stroke-linecap="round" stroke-linejoin="round" cx="50" cy="28.69" rx="29" ry="5.09"/><circle stroke="#252E4A" stroke-width="3" fill="#FFF" fill-rule="nonzero" stroke-linecap="round" stroke-linejoin="round" cx="37.83" cy="17.17" r="10.17"/><circle stroke="#252E4A" stroke-width="3" fill="#FFF" fill-rule="nonzero" stroke-linecap="round" stroke-linejoin="round" cx="59.92" cy="30.3" r="8.92"/><path d="M79 29.08L56.27 51.81v12.12l-12.54 5.13V51.81L21 29.08s2.35 4.71 29 4.71 29-4.71 29-4.71z" stroke="#252E4A" stroke-width="3" fill="#FFF" fill-rule="nonzero" stroke-linecap="round" stroke-linejoin="round"/><circle stroke="#252E4A" stroke-width="3" fill="#FFF" fill-rule="nonzero" stroke-linecap="round" stroke-linejoin="round" cx="49.94" cy="74.75" r="18"/><path d="M61.29 80.09v3.54a.62.62 0 0 1-.32.55c-1 .56-4.16 2.07-11 2.07s-10.08-1.51-11-2.07a.61.61 0 0 1-.31-.55v-3.54c0-2.59 3.56-3.24 6.48-4.21.23-.073.451-.17.66-.29a4.5 4.5 0 0 0 8.4 0c.209.12.43.217.66.29 2.86.97 6.43 1.62 6.43 4.21z" fill="#579BFC" fill-rule="nonzero"/><path d="M54.8 65.83v.09s-.25 4.36-1.68 6.52a3.59 3.59 0 0 1-.44.57 4.53 4.53 0 0 1-5.47 0 3.65 3.65 0 0 1-.45-.57c-1.43-2.16-1.68-6.52-1.68-6.52s-.29-4.47 5.79-4.92h.07a1 1 0 0 1 1 .94c3.51 0 2.86 3.89 2.86 3.89z" fill="#FFF" fill-rule="nonzero"/><path d="M54.14 75.59a4.5 4.5 0 0 1-8.4 0 2.39 2.39 0 0 0 1-3.15c.13.204.281.395.45.57a4.53 4.53 0 0 0 5.47 0 3.59 3.59 0 0 0 .44-.57 2.39 2.39 0 0 0 1.04 3.15z" fill="#FFF" fill-rule="nonzero"/><path d="M53.18 72.31l-.06.13a2.39 2.39 0 0 0 1 3.15c.209.12.43.217.66.29 2.92 1 6.49 1.62 6.49 4.21v3.54a.62.62 0 0 1-.32.55c-1 .56-4.16 2.07-11 2.07s-10.08-1.51-11-2.07a.61.61 0 0 1-.31-.55v-3.54c0-2.59 3.56-3.24 6.48-4.21.23-.073.451-.17.66-.29a2.39 2.39 0 0 0 1-3.15.87.87 0 0 0-.06-.13M45.73 75.55a4.5 4.5 0 0 0 8.4 0" stroke="#252E4A" stroke-width="3" stroke-linecap="round" stroke-linejoin="round"/><path d="M47 66.48s5.19.32 5.19-2.6a2.89 2.89 0 0 0 2.59 2s.65-3.89-2.91-3.89a1 1 0 0 0-1-.94h-.07c-6.08.45-5.79 4.92-5.79 4.92s.25 4.36 1.68 6.52c.13.204.281.395.45.57a4.53 4.53 0 0 0 5.47 0 3.59 3.59 0 0 0 .44-.57c1.43-2.16 1.68-6.52 1.68-6.52" stroke="#252E4A" stroke-width="3" stroke-linecap="round" stroke-linejoin="round"/><path d="M78 64c-6.075 0-11-4.925-11-11s4.925-11 11-11 11 4.925 11 11" stroke="#252E4A" stroke-width="3" fill="#FFF" fill-rule="nonzero" stroke-linecap="round" stroke-linejoin="round"/><path d="M89 53c0 6.075-4.925 11-11 11" fill="#FFF" fill-rule="nonzero"/><path d="M89 53v1" stroke="#252E4A" stroke-width="3" stroke-linecap="round" stroke-linejoin="round"/><path d="M88 57.67a11 11 0 0 1-7.09 6" stroke="#252E4A" stroke-width="3" stroke-linecap="round" stroke-linejoin="round" stroke-dasharray="1.91"/><path d="M79 64h-1" stroke="#252E4A" stroke-width="3" stroke-linecap="round" stroke-linejoin="round"/><path stroke="#252E4A" stroke-width="3" fill="#FFF" fill-rule="nonzero" stroke-linecap="round" stroke-linejoin="round" d="M78 47v6l2.5 2.5M91 52l-2 2-2-2"/></g></svg>