<svg id="Layer_1" data-name="Layer 1" xmlns="http://www.w3.org/2000/svg" viewBox="0 0 120 120"><defs><style>.cls-1{fill:#579bfc}.cls-3,.cls-5{stroke:#252e4a;stroke-linecap:round;stroke-linejoin:round;stroke-width:3px}.cls-3,.cls-4{fill:#fff}.cls-5{fill:none}</style></defs><circle class="cls-1" cx="60" cy="60" r="50"/><circle class="cls-1" cx="60" cy="60" r="50"/><ellipse cx="60" cy="38.69" rx="29" ry="5.09" stroke="#252e4a" stroke-linecap="round" stroke-linejoin="round" stroke-width="3" fill="#579bfc"/><circle class="cls-3" cx="47.83" cy="27.17" r="10.17"/><circle class="cls-3" cx="69.92" cy="40.3" r="8.92"/><path class="cls-3" d="M89 39.08L66.27 61.81v12.12l-12.54 5.13V61.81L31 39.08s2.35 4.71 29 4.71 29-4.71 29-4.71z"/><circle class="cls-3" cx="59.94" cy="84.75" r="18"/><path class="cls-1" d="M71.29 90.09v3.54a.62.62 0 0 1-.32.55c-1 .56-4.16 2.07-11 2.07s-10.08-1.51-11-2.07a.61.61 0 0 1-.31-.55v-3.54c0-2.59 3.56-3.24 6.48-4.21a3.36 3.36 0 0 0 .66-.29 4.5 4.5 0 0 0 8.4 0 3.36 3.36 0 0 0 .66.29c2.86.97 6.43 1.62 6.43 4.21z"/><path class="cls-4" d="M64.8 75.83v.09s-.25 4.36-1.68 6.52a3.59 3.59 0 0 1-.44.57 4.53 4.53 0 0 1-5.47 0 3.65 3.65 0 0 1-.45-.57c-1.43-2.16-1.68-6.52-1.68-6.52s-.29-4.47 5.79-4.92h.07a1 1 0 0 1 1 .94c3.51 0 2.86 3.89 2.86 3.89z"/><path class="cls-4" d="M64.14 85.59a4.5 4.5 0 0 1-8.4 0 2.39 2.39 0 0 0 1-3.15 3.65 3.65 0 0 0 .45.57 4.53 4.53 0 0 0 5.47 0 3.59 3.59 0 0 0 .44-.57 2.39 2.39 0 0 0 1.04 3.15z"/><path class="cls-5" d="M63.18 82.31l-.06.13a2.39 2.39 0 0 0 1 3.15 3.36 3.36 0 0 0 .66.29c2.92 1 6.49 1.62 6.49 4.21v3.54a.62.62 0 0 1-.32.55c-1 .56-4.16 2.07-11 2.07s-10.08-1.51-11-2.07a.61.61 0 0 1-.31-.55v-3.54c0-2.59 3.56-3.24 6.48-4.21a3.36 3.36 0 0 0 .66-.29 2.39 2.39 0 0 0 1-3.15.87.87 0 0 0-.06-.13M55.73 85.55a4.5 4.5 0 0 0 8.4 0"/><path class="cls-5" d="M57 76.48s5.19.32 5.19-2.6a2.89 2.89 0 0 0 2.59 2s.65-3.89-2.91-3.89a1 1 0 0 0-1-.94h-.07c-6.08.45-5.79 4.92-5.79 4.92s.25 4.36 1.68 6.52a3.65 3.65 0 0 0 .45.57 4.53 4.53 0 0 0 5.47 0 3.59 3.59 0 0 0 .44-.57c1.43-2.16 1.68-6.52 1.68-6.52"/></svg>