<svg id="Layer_1" data-name="Layer 1" xmlns="http://www.w3.org/2000/svg" viewBox="0 0 120 120"><defs><style>.cls-2,.cls-3{fill:#579bfc;stroke:#252e4a;stroke-linecap:round;stroke-linejoin:round;stroke-width:3px}.cls-3{fill:#fff}</style></defs><circle cx="60" cy="60" r="50" fill="#579bfc"/><ellipse class="cls-2" cx="60" cy="38.69" rx="29" ry="5.09"/><circle class="cls-3" cx="47.83" cy="27.17" r="10.17"/><circle class="cls-3" cx="69.92" cy="40.3" r="8.92"/><path class="cls-3" d="M89 39.08L66.27 61.81v12.12l-12.54 5.13V61.81L31 39.08s2.35 4.71 29 4.71 29-4.71 29-4.71z"/><circle class="cls-3" cx="60" cy="85" r="18"/><path fill="#3773c8" stroke="#252e4a" stroke-linecap="round" stroke-linejoin="round" stroke-width="3" d="M47.94 81.66h1.63v2.93h-1.63z"/><path class="cls-3" d="M50.89 78.4H59v9.45h-8.11a1.32 1.32 0 0 1-1.32-1.32v-6.81a1.32 1.32 0 0 1 1.32-1.32z"/><path class="cls-2" d="M59.02 78.4l10.11-4.23v18.25l-10.11-4.57V78.4zM58 87.85l-1.62 2.94 1.29 3.45A1.3 1.3 0 0 1 56.49 96H53.9a1.31 1.31 0 0 1-1.28-1l-1.42-7.1z"/><path class="cls-3" d="M69.12 86.22a2.93 2.93 0 1 0 0-5.86z"/></svg>