<svg xmlns="http://www.w3.org/2000/svg" viewBox="0 90.1 612 613.1"><path fill="#0E76A8" d="M305.4 90.1C136.1 90.1-1.1 227.3-1.1 396.6s137.2 306.6 306.5 306.6c169.4 0 306.6-137.3 306.6-306.6S474.8 90.1 305.4 90.1zM200 243.4c15.9 0 28.8 12.9 28.8 28.8S215.9 301 200 301s-28.8-12.9-28.8-28.8c0-16 13-28.8 28.8-28.8zm29 267.9h-57.4V320H229v191.3zm229.9 0h-57.4V407c0-21.4-6.2-42.8-31.3-42.8-25.2 0-45.3 21.4-45.3 43.3v103.8h-57.7V319.4h57.7v26.7c17.6-22.4 42.6-32.7 70.5-32.7s63.6 14 63.6 89.4v108.6h-.1v-.1z"/></svg>