<svg xmlns="http://www.w3.org/2000/svg" viewBox="0 90.1 612 613.1"><path fill="#0E76A8" d="M305.4 90.1C136.1 90.1-1.1 227.3-1.1 396.6s137.2 306.6 306.5 306.6c169.4 0 306.6-137.3 306.6-306.6S474.8 90.1 305.4 90.1zM200 228.4c15.9 0 28.8 12.9 28.8 28.8S215.9 286 200 286s-28.8-12.9-28.8-28.8c0-16 13-28.8 28.8-28.8zm29 267.9h-57.4V305H229v191.3zm229.9 0h-57.4V392c0-21.4-6.2-42.8-31.3-42.8-25.2 0-45.3 21.4-45.3 43.3v103.8h-57.7V304.4h57.7v26.7c17.6-22.4 42.6-32.7 70.5-32.7s63.6 14 63.6 89.4v108.6h-.1v-.1z"/><path fill="#FFF" d="M341.9 540.2H235.8c-4.9 0-8.9 4.1-8.9 8.9v63.6c0 4.9 4.1 8.9 8.9 8.9h6.9v23.8c0 1.6.9 2.8 2.3 3.4.5.2.9.3 1.4.3.9 0 1.9-.3 2.7-1.1l26.3-26.3h5.3c2 0 3.8-1.7 3.8-3.8 0-2-1.7-3.8-3.8-3.8h-7c-.9 0-1.7.5-2.3 1.1l-21 21v-18.8c-.2-1.9-1.7-3.4-3.8-3.4H236c-.8 0-1.4-.6-1.4-1.4V549c0-.8.6-1.4 1.4-1.4h106c.8 0 1.4.6 1.4 1.4v24.4c0 2 1.7 3.8 3.8 3.8 2 0 3.8-1.7 3.8-3.8V549c-.2-4.7-4.1-8.8-9.1-8.8z"/><path fill="#FFF" d="M376.2 586h-74.3c-4.9 0-8.9 4.1-8.9 8.9v43.4c0 4.9 4.1 8.9 8.9 8.9h46.5l18.8 18.8c.8.8 1.7 1.1 2.7 1.1.5 0 .9-.2 1.4-.3 1.4-.6 2.3-1.9 2.3-3.4v-16.3h2.5c4.9 0 8.9-4.1 8.9-8.9v-43.4c.1-4.9-4-8.8-8.8-8.8zm1.4 52.3c0 .8-.6 1.4-1.4 1.4h-6.3c-2 0-3.6 1.6-3.8 3.4v11.3L352.7 641l-.2-.2c-.6-.6-1.6-.9-2.5-.9h-48.1c-.8 0-1.4-.6-1.4-1.4v-43.4c0-.8.6-1.4 1.4-1.4h74.3c.8 0 1.4.6 1.4 1.4v43.2z"/><path fill="#FFF" d="M339.1 612.8c-2 0-3.8 1.7-3.8 3.8 0 2 1.7 3.8 3.8 3.8s3.8-1.7 3.8-3.8c-.1-2.1-1.8-3.8-3.8-3.8zM322.8 565H255c-2 0-3.8 1.7-3.8 3.8 0 2 1.7 3.8 3.8 3.8h67.8c2 0 3.8-1.7 3.8-3.8-.1-2.1-1.6-3.8-3.8-3.8zM280.6 589.6h-25.8c-2 0-3.8 1.7-3.8 3.8 0 2 1.7 3.8 3.8 3.8h25.8c2 0 3.8-1.7 3.8-3.8s-1.6-3.8-3.8-3.8zM321.7 612.8c-2 0-3.8 1.7-3.8 3.8 0 2 1.7 3.8 3.8 3.8 2 0 3.8-1.7 3.8-3.8-.1-2.1-1.8-3.8-3.8-3.8zM356.4 612.8c-2 0-3.8 1.7-3.8 3.8 0 2 1.7 3.8 3.8 3.8 2 0 3.8-1.7 3.8-3.8-.2-2.1-1.7-3.8-3.8-3.8z"/></svg>