<svg xmlns="http://www.w3.org/2000/svg" viewBox="0 90 612 612"><path fill="#34495E" d="M306 90C137.1 90 0 227.1 0 396s137.1 306 306 306 306-137.1 306-306S474.9 90 306 90zm-42.2 380.1c0 2.1-.9 3.1-3.1 3.1h-69.2c-1.8 0-3.1-.9-3.1-3.1V321.9c0-1.8 1.2-3.1 3.1-3.1h20.2c2.1 0 3.1 1.2 3.1 3.1v125.8h45.9c2.1 0 3.1 1.2 3.1 3.1v19.3zm73.4-128.9c0 1.8-.9 3.1-3.1 3.1h-22.3v125.8c0 2.1-.9 3.1-3.1 3.1h-20.2c-1.8 0-3.1-.9-3.1-3.1V344.3h-22.3c-1.8 0-3.1-1.2-3.1-3.1v-19.3c0-1.8 1.2-3.1 3.1-3.1h71c2.1 0 3.1 1.2 3.1 3.1v19.3zm104.7-18.3l-32.7 146.9c-.6 2.4-1.8 3.4-4.3 3.4h-19.3c-2.4 0-3.7-1.2-4.3-3.4l-32.4-146.9c-.6-2.8.6-4.3 3.4-4.3h18.4c2.4 0 3.7 1.2 4.3 3.4l20 103.4L415.5 322c.6-2.4 1.8-3.4 4.3-3.4h18.4c3.1.3 4.3 1.8 3.7 4.3z"/></svg>