<svg id="Layer_1" data-name="Layer 1" xmlns="http://www.w3.org/2000/svg" viewBox="0 0 120 120"><defs><style>.cls-2,.cls-3{fill:#579bfc;stroke:#252e4a;stroke-linecap:round;stroke-linejoin:round;stroke-width:3px}.cls-3{fill:#fff}</style></defs><circle cx="60" cy="60" r="50" fill="#579bfc"/><ellipse class="cls-2" cx="60" cy="44.99" rx="35.93" ry="6.31"/><circle class="cls-3" cx="61" cy="38" r="20"/><path fill="#3773c8" stroke="#252e4a" stroke-linecap="round" stroke-linejoin="round" stroke-width="3" d="M49 35.04h1.65v2.97H49z"/><path class="cls-3" d="M52 31.74h8.24v9.56H52a1.32 1.32 0 0 1-1.35-1.3v-6.94A1.32 1.32 0 0 1 52 31.74z"/><path class="cls-2" d="M60.21 31.74l10.23-4.29v18.47L60.21 41.3v-9.56zM59.22 41.3l-1.65 3 1.31 3.5a1.31 1.31 0 0 1-1.23 1.78H55a1.34 1.34 0 0 1-1.3-1.06l-1.4-7.22z"/><path class="cls-3" d="M70.44 39.65a3 3 0 0 0 0-5.93zM95.93 45.48L67.77 73.64v15L52.23 95V73.64L24.07 45.48S27 51.3 60 51.3s35.93-5.82 35.93-5.82z"/></svg>