<svg id="Layer_1" data-name="Layer 1" xmlns="http://www.w3.org/2000/svg" viewBox="0 0 120 120"><defs><style>.cls-1,.cls-2{fill:#579bfc}.cls-2,.cls-3{stroke:#252e4a;stroke-linecap:round;stroke-linejoin:round;stroke-width:3px}.cls-3{fill:#fff}</style></defs><circle class="cls-1" cx="60" cy="60" r="50"/><circle class="cls-1" cx="60" cy="60" r="50"/><ellipse class="cls-2" cx="60" cy="38.69" rx="29" ry="5.09"/><circle class="cls-3" cx="60" cy="33.5" r="17.5"/><path fill="#3773c8" stroke="#252e4a" stroke-linecap="round" stroke-linejoin="round" stroke-width="3" d="M50.16 31.2h1.4v2.52h-1.4z"/><path class="cls-3" d="M52.88 28.39h6.81v8.13h-6.81a1.32 1.32 0 0 1-1.32-1.32v-5.49a1.32 1.32 0 0 1 1.32-1.32z"/><path class="cls-2" d="M59.68 28.39l8.69-3.64v15.69l-8.69-3.92v-8.13zM58.84 36.52L57.44 39l1.12 3a1.13 1.13 0 0 1-1.05 1.52h-2.23a1.12 1.12 0 0 1-1.1-.91L53 36.52z"/><path class="cls-3" d="M68.37 35.12a2.53 2.53 0 0 0 0-5zM89 39.08L66.27 61.81v12.12l-12.54 5.13V61.81L31 39.08s2.35 4.71 29 4.71 29-4.71 29-4.71z"/><circle class="cls-3" cx="60" cy="85" r="18"/><circle class="cls-2" cx="60" cy="85" r="12"/><path d="M60.49 78.17v.76a4.52 4.52 0 0 1 1.29.31 2.55 2.55 0 0 1 .94.7 2.92 2.92 0 0 1 .48.74 1.61 1.61 0 0 1 .18.69.83.83 0 0 1-.26.61.85.85 0 0 1-.62.26.87.87 0 0 1-.89-.75 1.6 1.6 0 0 0-1.12-1.16v2.92c.58.16 1 .3 1.39.43a2.84 2.84 0 0 1 .92.57 2.76 2.76 0 0 1 .67.92 2.86 2.86 0 0 1 .24 1.18 3.15 3.15 0 0 1-.38 1.5 3.07 3.07 0 0 1-1.1 1.15 4 4 0 0 1-1.74.52v1.75a1.48 1.48 0 0 1-.08.6.33.33 0 0 1-.35.19.41.41 0 0 1-.36-.15.86.86 0 0 1-.1-.48v-1.9a4.22 4.22 0 0 1-1.43-.39 3.47 3.47 0 0 1-1-.73 3.16 3.16 0 0 1-.61-.91 2.45 2.45 0 0 1-.19-.93.87.87 0 0 1 .23-.57.88.88 0 0 1 .66-.27.9.9 0 0 1 .53.15.67.67 0 0 1 .3.41c.13.38.24.68.33.88a1.87 1.87 0 0 0 .43.56 1.77 1.77 0 0 0 .75.38v-3.3a7.77 7.77 0 0 1-1.6-.58 2.51 2.51 0 0 1-1.42-2.42 2.68 2.68 0 0 1 .77-2 3.43 3.43 0 0 1 2.22-.9v-.74c0-.4.15-.59.44-.59s.48.21.48.59zM59.6 83v-2.7a2.55 2.55 0 0 0-.92.46 1.09 1.09 0 0 0-.33.87 1.07 1.07 0 0 0 .31.84 3 3 0 0 0 .94.53zm.89 2.08v3.08a2 2 0 0 0 1.1-.57 1.49 1.49 0 0 0 .38-1 1.18 1.18 0 0 0-.37-.94 3 3 0 0 0-1.11-.58z" fill="#fff"/></svg>