<svg width="100" height="100" xmlns="http://www.w3.org/2000/svg"><g fill="none" fill-rule="evenodd"><g fill-rule="nonzero"><circle fill="#579BFC" cx="50" cy="50" r="50"/><circle fill="#579BFC" cx="50" cy="50" r="50"/><ellipse stroke="#252E4A" stroke-width="3" fill="#579BFC" stroke-linecap="round" stroke-linejoin="round" cx="50" cy="28.69" rx="29" ry="5.09"/><circle stroke="#252E4A" stroke-width="3" fill="#FFF" stroke-linecap="round" stroke-linejoin="round" cx="50" cy="23.5" r="17.5"/><path stroke="#252E4A" stroke-width="3" fill="#3773C8" stroke-linecap="round" stroke-linejoin="round" d="M40.16 21.2h1.4v2.52h-1.4z"/><path d="M42.88 18.39h6.81v8.13h-6.81a1.32 1.32 0 0 1-1.32-1.32v-5.49c0-.729.591-1.32 1.32-1.32z" stroke="#252E4A" stroke-width="3" fill="#FFF" stroke-linecap="round" stroke-linejoin="round"/><path stroke="#252E4A" stroke-width="3" fill="#579BFC" stroke-linecap="round" stroke-linejoin="round" d="M49.68 18.39l8.69-3.64v15.69l-8.69-3.92zM48.84 26.52L47.44 29l1.12 3a1.13 1.13 0 0 1-1.05 1.52h-2.23c-.538 0-1-.382-1.1-.91L43 26.52h5.84z"/><path d="M58.37 25.12a2.53 2.53 0 0 0 0-5v5zM79 29.08L56.27 51.81v12.12l-12.54 5.13V51.81L21 29.08s2.35 4.71 29 4.71 29-4.71 29-4.71z" stroke="#252E4A" stroke-width="3" fill="#FFF" stroke-linecap="round" stroke-linejoin="round"/><circle stroke="#252E4A" stroke-width="3" fill="#FFF" stroke-linecap="round" stroke-linejoin="round" cx="50" cy="75" r="18"/><circle stroke="#252E4A" stroke-width="3" fill="#579BFC" stroke-linecap="round" stroke-linejoin="round" cx="50" cy="75" r="12"/><path d="M50.49 68.17v.76c.443.04.878.144 1.29.31.363.157.685.397.94.7.197.22.358.47.48.74.11.214.172.45.18.69a.83.83 0 0 1-.26.61.85.85 0 0 1-.62.26.87.87 0 0 1-.89-.75 1.6 1.6 0 0 0-1.12-1.16v2.92c.58.16 1 .3 1.39.43.34.13.653.323.92.57.285.257.513.57.67.92.163.372.245.774.24 1.18 0 .524-.13 1.04-.38 1.5a3.07 3.07 0 0 1-1.1 1.15 4 4 0 0 1-1.74.52v1.75a1.48 1.48 0 0 1-.08.6.33.33 0 0 1-.35.19.41.41 0 0 1-.36-.15.86.86 0 0 1-.1-.48v-1.9a4.22 4.22 0 0 1-1.43-.39 3.47 3.47 0 0 1-1-.73 3.16 3.16 0 0 1-.61-.91 2.45 2.45 0 0 1-.19-.93.87.87 0 0 1 .23-.57.88.88 0 0 1 .66-.27.9.9 0 0 1 .53.15.67.67 0 0 1 .3.41c.13.38.24.68.33.88.106.212.252.402.43.56.216.185.473.315.75.38v-3.3a7.77 7.77 0 0 1-1.6-.58 2.51 2.51 0 0 1-1.42-2.42 2.68 2.68 0 0 1 .77-2 3.43 3.43 0 0 1 2.22-.9v-.74c0-.4.15-.59.44-.59.29 0 .48.21.48.59zM49.6 73v-2.7a2.55 2.55 0 0 0-.92.46 1.09 1.09 0 0 0-.33.87 1.07 1.07 0 0 0 .31.84 3 3 0 0 0 .94.53zm.89 2.08v3.08a2 2 0 0 0 1.1-.57 1.49 1.49 0 0 0 .38-1 1.18 1.18 0 0 0-.37-.94 3 3 0 0 0-1.11-.58v.01z" fill="#FFF"/></g><path d="M78 64c-6.075 0-11-4.925-11-11s4.925-11 11-11 11 4.925 11 11" stroke="#252E4A" stroke-width="3" fill="#FFF" fill-rule="nonzero" stroke-linecap="round" stroke-linejoin="round"/><path d="M89 53c0 6.075-4.925 11-11 11" fill="#FFF" fill-rule="nonzero"/><path d="M89 53v1" stroke="#252E4A" stroke-width="3" stroke-linecap="round" stroke-linejoin="round"/><path d="M88 57.67a11 11 0 0 1-7.09 6" stroke="#252E4A" stroke-width="3" stroke-linecap="round" stroke-linejoin="round" stroke-dasharray="1.91"/><path d="M79 64h-1" stroke="#252E4A" stroke-width="3" stroke-linecap="round" stroke-linejoin="round"/><path stroke="#252E4A" stroke-width="3" fill="#FFF" fill-rule="nonzero" stroke-linecap="round" stroke-linejoin="round" d="M78 47v6l2.5 2.5M91 52l-2 2-2-2"/></g></svg>