<svg xmlns="http://www.w3.org/2000/svg" viewBox="0 87.6 612 612"><g fill="#F2784B"><path d="M303.6 522.4c9.2 0 16.8-7.6 16.8-16.8s-7.6-16.8-16.8-16.8-16.8 7.7-16.8 16.8c.3 9.1 7.6 16.8 16.8 16.8zM262.3 403.6c0 9.5 7.7 17.1 17.1 17.1h163.4c9.5 0 17.1-7.6 17.1-17.1v-61.5l-197.7-27.5.1 89zM435.2 522.4c9.2 0 16.8-7.6 16.8-16.8s-7.6-16.8-16.8-16.8-16.8 7.7-16.8 16.8c0 9.1 7.6 16.8 16.8 16.8z"/><path d="M306 87.6c-168.9 0-306 136.8-306 306 0 168.9 137.1 306 306 306s306-137.1 306-306c0-169.3-137.1-306-306-306zm170.8 316c0 18.7-15 33.7-33.7 33.7H279.5c-6.4 0-12.2-1.8-17.1-4.6V455c0 9.5 7.7 17.1 17.1 17.1h155.4c18.4 0 33.4 15 33.4 33.4s-15 33.4-33.4 33.4-33.4-15-33.4-33.4c0-6.1 1.5-11.9 4.6-16.8h-73.7c3.1 4.9 4.6 10.7 4.6 16.8 0 18.4-15 33.4-33.4 33.4s-33.4-15-33.4-33.4c0-6.1 1.8-11.9 4.9-17.1-16.5-2.1-29.4-16.2-29.4-33.4V274.5L206 257.7c-4.3-1.8-6.1-6.7-4.3-10.7 1.8-4.3 6.7-6.1 10.7-4.3l45 19c.3 0 .6.3.9.3h.3s.3.3.6.3l.3.3s.3 0 .3.3c.3 0 .3.3.3.3l.3.3.6.6.3.3s0 .3.3.3c0 0 0 .3.3.3l.3.3v.3c0 .3.3.3.3.6v.3l.3.6V298L470 326.5h1.8l.3.3.6.3.3.3s.3 0 .3.3l.3.3.3.3.3.3s.3 0 .3.3l.3.3.3.3.3.3.3.3s0 .3.3.3l.3.3s0 .3.3.3c0 .3 0 .3.3.3v72.2h-.1v.1z"/></g><text transform="translate(75.996 512.604)" fill="#FFF" font-family="'PTSerif-Bold'" font-size="250">#</text></svg>