<svg id="Layer_1" data-name="Layer 1" xmlns="http://www.w3.org/2000/svg" viewBox="0 0 120 120"><defs><style>.cls-1,.cls-2{fill:#579bfc}.cls-2,.cls-3,.cls-5{stroke:#252e4a;stroke-linecap:round;stroke-linejoin:round;stroke-width:3px}.cls-3,.cls-4{fill:#fff}.cls-5{fill:none}</style></defs><circle class="cls-1" cx="60" cy="60" r="50"/><circle class="cls-1" cx="60" cy="60" r="50"/><ellipse class="cls-2" cx="60" cy="38.69" rx="29" ry="5.09"/><circle class="cls-3" cx="60" cy="33.5" r="17.5"/><path class="cls-2" d="M70 41.94l-9.75-9"/><circle class="cls-2" cx="59.89" cy="32.89" r="8.89"/><path class="cls-4" d="M60.25 28.43V29a3.22 3.22 0 0 1 1 .23 1.8 1.8 0 0 1 .69.52 2 2 0 0 1 .36.54 1.21 1.21 0 0 1 .13.52.61.61 0 0 1-.19.45.66.66 0 0 1-.46.19.65.65 0 0 1-.66-.55 1.16 1.16 0 0 0-.83-.87v2.16a10.71 10.71 0 0 1 1 .33 1.93 1.93 0 0 1 .68.42 2 2 0 0 1 .5.68 2.11 2.11 0 0 1 .17.87 2.34 2.34 0 0 1-.27 1.11 2.23 2.23 0 0 1-.82.85 2.88 2.88 0 0 1-1.29.39v1.29a1.24 1.24 0 0 1-.06.45.25.25 0 0 1-.26.14.29.29 0 0 1-.26-.12.62.62 0 0 1-.08-.35v-1.4a3.29 3.29 0 0 1-1.06-.29 2.54 2.54 0 0 1-.76-.54 2.36 2.36 0 0 1-.45-.68 1.7 1.7 0 0 1-.14-.69.65.65 0 0 1 .19-.45.66.66 0 0 1 .49-.2.71.71 0 0 1 .39.11.65.65 0 0 1 .23.31 6 6 0 0 0 .24.65 1.34 1.34 0 0 0 .31.42 1.47 1.47 0 0 0 .56.28v-2.43a6.37 6.37 0 0 1-1.16-.42 2.11 2.11 0 0 1-.44-3.27 2.54 2.54 0 0 1 1.59-.65v-.55c0-.29.11-.44.33-.44s.33.13.33.42zM59.59 32v-2a1.88 1.88 0 0 0-.68.34.84.84 0 0 0-.24.65.78.78 0 0 0 .23.62 2 2 0 0 0 .69.39zm.66 1.55v2.27a1.43 1.43 0 0 0 .81-.42 1 1 0 0 0 .29-.74.88.88 0 0 0-.28-.7 2.23 2.23 0 0 0-.82-.42z"/><path class="cls-3" d="M89 39.08l-22.7 22.7v12.1L53.74 79V61.78L31 39.08s2.35 4.7 29 4.7 29-4.7 29-4.7z"/><circle class="cls-3" cx="59.94" cy="84.75" r="18"/><path class="cls-1" d="M71.29 90.09v3.54a.62.62 0 0 1-.32.55c-1 .56-4.16 2.07-11 2.07s-10.08-1.51-11-2.07a.63.63 0 0 1-.31-.55v-3.54c0-2.59 3.56-3.24 6.48-4.21a3.36 3.36 0 0 0 .66-.29 4.5 4.5 0 0 0 8.4 0 3.36 3.36 0 0 0 .66.29c2.86.97 6.43 1.62 6.43 4.21z"/><path class="cls-4" d="M64.8 75.83v.09s-.25 4.34-1.67 6.51a3.87 3.87 0 0 1-.45.58 4.53 4.53 0 0 1-5.47 0 3.36 3.36 0 0 1-.46-.58c-1.42-2.17-1.67-6.51-1.67-6.51s-.29-4.47 5.79-4.92h.07a1 1 0 0 1 1 .94c3.51 0 2.86 3.89 2.86 3.89z"/><path class="cls-4" d="M64.14 85.59a4.5 4.5 0 0 1-8.4 0 2.38 2.38 0 0 0 1-3.16 3.36 3.36 0 0 0 .46.58 4.53 4.53 0 0 0 5.47 0 3.87 3.87 0 0 0 .45-.58 2.38 2.38 0 0 0 1.02 3.16z"/><path class="cls-5" d="M63.18 82.31v.12a2.38 2.38 0 0 0 1 3.16 3.36 3.36 0 0 0 .66.29c2.92 1 6.49 1.62 6.49 4.21v3.54a.62.62 0 0 1-.32.55c-1 .56-4.16 2.07-11 2.07s-10.08-1.51-11-2.07a.63.63 0 0 1-.31-.55v-3.54c0-2.59 3.56-3.24 6.48-4.21a3.36 3.36 0 0 0 .66-.29 2.38 2.38 0 0 0 1-3.16v-.12M55.73 85.55a4.5 4.5 0 0 0 8.4 0"/><path class="cls-5" d="M57 76.48a11.5 11.5 0 0 0 1.89-.08c1.48-.2 3.3-.79 3.3-2.52a2.89 2.89 0 0 0 2.59 2s.65-3.89-2.91-3.89a1 1 0 0 0-1-.94h-.07c-6.08.45-5.79 4.92-5.79 4.92s.25 4.34 1.67 6.51a3.36 3.36 0 0 0 .46.58 4.53 4.53 0 0 0 5.47 0 3.87 3.87 0 0 0 .45-.58c1.42-2.17 1.67-6.51 1.67-6.51"/><path class="cls-3" d="M88 74a11 11 0 1 1 11-11"/><path class="cls-4" d="M99 63a11 11 0 0 1-11 11"/><path class="cls-5" d="M99 63v1"/><path d="M98 67.67a11 11 0 0 1-7.09 6" stroke-dasharray="1.91 3.82" fill="none" stroke="#252e4a" stroke-linecap="round" stroke-linejoin="round" stroke-width="3"/><path class="cls-5" d="M89 74h-1"/><path class="cls-3" d="M88 57v6l2.5 2.5M101 62l-2 2-2-2"/></svg>