<svg id="Layer_1" data-name="Layer 1" xmlns="http://www.w3.org/2000/svg" viewBox="0 0 120 120"><defs><style>.cls-4{fill:#579bfc;stroke:#252e4a;stroke-width:3px;stroke-linecap:round;stroke-linejoin:round}</style></defs><circle cx="60" cy="60" r="50" fill="#579bfc"/><path d="M62.83 70.62h0l21.74 21.76a5.52 5.52 0 0 0 7.81 0h0a5.52 5.52 0 0 0 0-7.81L70.62 62.83h0a30.76 30.76 0 0 1-7.79 7.79z" stroke-linecap="round" stroke-linejoin="round" stroke="#252e4a" stroke-width="3" fill="#fff"/><path d="M59 33a26 26 0 1 0 26 26 26 26 0 0 0-26-26zm0 43.51A17.53 17.53 0 1 1 76.51 59 17.52 17.52 0 0 1 59 76.51z" stroke-miterlimit="10" stroke="#252e4a" stroke-width="3" fill="#fff"/><circle class="cls-4" cx="58.98" cy="58.98" r="17.53"/><path d="M60.32 48.67v1.14a6.83 6.83 0 0 1 1.94.46 3.92 3.92 0 0 1 1.41 1.06 4.38 4.38 0 0 1 .74 1.11 2.61 2.61 0 0 1 .26 1.05 1.26 1.26 0 0 1-.39.92 1.36 1.36 0 0 1-2.28-.74 2.37 2.37 0 0 0-1.68-1.75v4.4c.87.24 1.57.46 2.09.65a4.44 4.44 0 0 1 1.39.86 4 4 0 0 1 1 1.39 4.3 4.3 0 0 1 .36 1.78 4.76 4.76 0 0 1-.56 2.26A4.44 4.44 0 0 1 62.93 65a5.9 5.9 0 0 1-2.61.8v2.6a2.51 2.51 0 0 1-.12.91.52.52 0 0 1-.54.29.58.58 0 0 1-.53-.24 1.32 1.32 0 0 1-.16-.72v-2.85a6.58 6.58 0 0 1-2.16-.59 4.93 4.93 0 0 1-1.54-1.1 4.5 4.5 0 0 1-.92-1.38 3.57 3.57 0 0 1-.3-1.4A1.39 1.39 0 0 1 55.44 60a1.35 1.35 0 0 1 .8.22 1.19 1.19 0 0 1 .46.63 11.19 11.19 0 0 0 .5 1.32 2.41 2.41 0 0 0 .64.84 2.81 2.81 0 0 0 1.16.59v-4.92a14 14 0 0 1-2.37-.88 3.91 3.91 0 0 1-1.54-1.37 4 4 0 0 1-.59-2.28 4.06 4.06 0 0 1 1.15-3A5.26 5.26 0 0 1 59 49.81v-1.12c0-.6.23-.89.67-.89s.65.29.65.87zM59 55.92v-4.05a3.71 3.71 0 0 0-1.38.7 2 2 0 0 0 0 2.58 4.34 4.34 0 0 0 1.38.77zm1.35 3.15v4.63a2.86 2.86 0 0 0 1.65-.86 2.14 2.14 0 0 0 .58-1.5 1.79 1.79 0 0 0-.58-1.42 4.42 4.42 0 0 0-1.68-.85z" fill="#fff"/><path class="cls-4" d="M60 26v-8M35.96 35.96L30.3 30.3M26 60h-8M35.96 84.04L30.3 89.7M60 94v8M94 60h8M84.04 35.96l5.66-5.66"/></svg>