<svg id="Layer_1" data-name="Layer 1" xmlns="http://www.w3.org/2000/svg" viewBox="0 0 120 120"><defs><style>.cls-1{fill:#579bfc}.cls-3{fill:#fff}.cls-4{stroke:#252e4a;stroke-linecap:round;stroke-linejoin:round;stroke-width:3px;fill:none}</style></defs><circle class="cls-1" cx="60" cy="60" r="50"/><circle cx="60" cy="60" r="34" stroke="#252e4a" stroke-linecap="round" stroke-linejoin="round" stroke-width="3" fill="#fff"/><path class="cls-1" d="M81.47 70.54v6.58a1.23 1.23 0 0 1-.59 1c-1.77 1-7.74 3.84-20.53 3.84s-18.76-2.81-20.53-3.84a1.21 1.21 0 0 1-.59-1v-6.58c0-4.83 6.64-6 12.07-7.85a6.69 6.69 0 0 0 1.23-.53 8.38 8.38 0 0 0 15.63 0 6.8 6.8 0 0 0 1.24.53c5.43 1.81 12.07 3.02 12.07 7.85z"/><path class="cls-3" d="M69.4 44v.16s-.47 8.09-3.12 12.14a7.54 7.54 0 0 1-.84 1.06c-1.7 1.72-5.09 1.72-5.09 1.72s-3.4 0-5.09-1.72a7.59 7.59 0 0 1-.85-1.06c-2.64-4-3.11-12.14-3.11-12.14s-.54-8.33 10.78-9.16h.13A1.76 1.76 0 0 1 64 36.75c6.6 0 5.4 7.25 5.4 7.25z"/><path class="cls-3" d="M68.16 62.16a8.38 8.38 0 0 1-15.63 0 4.42 4.42 0 0 0 1.88-5.87 7.59 7.59 0 0 0 .85 1.06c1.69 1.72 5.09 1.72 5.09 1.72s3.39 0 5.09-1.72a7.54 7.54 0 0 0 .84-1.06c-.35.88-1.37 4.09 1.88 5.87z"/><path class="cls-4" d="M66.38 56.06s0 .08-.1.23c-.35.88-1.37 4.09 1.88 5.87a6.8 6.8 0 0 0 1.24.53c5.43 1.81 12.07 3 12.07 7.85v6.58a1.23 1.23 0 0 1-.59 1c-1.77 1-7.74 3.84-20.53 3.84s-18.76-2.81-20.53-3.84a1.21 1.21 0 0 1-.59-1v-6.58c0-4.83 6.64-6 12.07-7.85a6.69 6.69 0 0 0 1.23-.53 4.42 4.42 0 0 0 1.88-5.87 1.17 1.17 0 0 0-.1-.23"/><path class="cls-4" d="M52.5 62.09v.07a8.38 8.38 0 0 0 15.63 0v-.07M54.92 45.19s9.65.61 9.65-4.82c0 0 1.21 3.62 4.83 3.62 0 0 1.2-7.24-5.43-7.24A1.76 1.76 0 0 0 62.21 35h-.13c-11.32.83-10.78 9.15-10.78 9.15s.47 8.09 3.11 12.14a7.59 7.59 0 0 0 .85 1.06c1.69 1.72 5.09 1.72 5.09 1.72s3.39 0 5.09-1.72a7.54 7.54 0 0 0 .84-1.06c2.65-4 3.12-12.14 3.12-12.14"/><circle cx="77.75" cy="77.75" r="17.25" stroke="#252e4a" stroke-linecap="round" stroke-linejoin="round" stroke-width="3" fill="#579bfc"/><path class="cls-3" d="M78.59 68.79v1a6.06 6.06 0 0 1 1.77.42 3.54 3.54 0 0 1 1.28 1 3.7 3.7 0 0 1 .67 1 2.26 2.26 0 0 1 .24 1 1.14 1.14 0 0 1-.35.83 1.16 1.16 0 0 1-.86.36 1.21 1.21 0 0 1-1.22-1 2.16 2.16 0 0 0-1.53-1.59v4c.8.22 1.43.42 1.9.6a4 4 0 0 1 1.27.78 3.6 3.6 0 0 1 .92 1.26A4.11 4.11 0 0 1 83 80a4.27 4.27 0 0 1-.51 2A4.15 4.15 0 0 1 81 83.63a5.5 5.5 0 0 1-2.38.72v2.4a2.39 2.39 0 0 1-.11.83.48.48 0 0 1-.49.26.51.51 0 0 1-.48-.22 1.14 1.14 0 0 1-.14-.65v-2.6a6 6 0 0 1-2-.53 4.8 4.8 0 0 1-1.41-1 4.19 4.19 0 0 1-.83-1.25 3.3 3.3 0 0 1-.27-1.27 1.18 1.18 0 0 1 .36-.84 1.32 1.32 0 0 1 1.63-.16 1 1 0 0 1 .42.56 11 11 0 0 0 .45 1.21 2.34 2.34 0 0 0 .58.77 2.61 2.61 0 0 0 1 .53V77.9a11.48 11.48 0 0 1-2.16-.8 3.59 3.59 0 0 1-1.41-1.24 4.17 4.17 0 0 1 .52-4.8 4.77 4.77 0 0 1 3.05-1.23v-1q0-.81.6-.81c.46-.02.66.24.66.77zm-1.22 6.61v-3.69a3.37 3.37 0 0 0-1.26.63 1.49 1.49 0 0 0-.46 1.2 1.51 1.51 0 0 0 .43 1.15 4 4 0 0 0 1.29.71zm1.22 2.86v4.21a2.64 2.64 0 0 0 1.5-.78 1.93 1.93 0 0 0 .53-1.36 1.65 1.65 0 0 0-.51-1.3 4.3 4.3 0 0 0-1.52-.77z"/></svg>