<svg xmlns="http://www.w3.org/2000/svg" viewBox="0 178.8 612 613.2"><path fill="#C8232C" d="M305.4 178.8C136.1 178.8-1.1 316.1-1.1 485.4S136.1 792 305.5 792C474.8 792 612 654.7 612 485.4S474.8 178.8 305.4 178.8zM336 510.1c-24.6 0-47.6-12.9-55.6-27.4 0 0-13.2 50.7-16 60.5-9.8 34.6-38.8 69.3-41 72.1-1.6 2-5 1.3-5.4-1.2-.6-4.4-8-48.1.6-83.6l29.3-120s-7.2-14.1-7.2-34.9c0-32.7 19.5-57 43.8-57 20.7 0 30.7 15.1 30.7 33 0 20.2-13.2 50.3-20.1 78.1-5.8 23.4 12.1 42.5 35.9 42.5 43.1 0 72.1-53.6 72.1-117 0-48.2-33.5-84.3-94.6-84.3-68.9 0-111.9 49.8-111.9 105.4 0 19.2 5.9 32.7 15.1 43.2 4.2 4.8 4.8 6.7 3.3 12.2l-4.7 17.7c-1.5 5.6-6.2 7.6-11.4 5.5-31.8-12.6-46.5-46.3-46.5-84.1 0-62.5 54.5-137.6 162.4-137.6 86.8 0 143.9 60.8 143.9 126.1-.1 86.2-49.6 150.8-122.7 150.8z"/><path fill="#FFF" d="M341.9 635H235.8c-4.9 0-8.9 4.1-8.9 8.9v63.6c0 4.9 4.1 8.9 8.9 8.9h6.9v23.8c0 1.6.9 2.8 2.3 3.4.5.2.9.3 1.4.3.9 0 1.9-.3 2.7-1.1l26.3-26.3h5.3c2 0 3.8-1.7 3.8-3.8s-1.7-3.8-3.8-3.8h-7c-.9 0-1.7.5-2.3 1.1l-21 21v-18.8c-.2-1.9-1.7-3.4-3.8-3.4H236c-.8 0-1.4-.6-1.4-1.4v-63.6c0-.8.6-1.4 1.4-1.4h106c.8 0 1.4.6 1.4 1.4v24.4c0 2 1.7 3.8 3.8 3.8 2 0 3.8-1.7 3.8-3.8v-24.4c-.2-4.7-4.1-8.8-9.1-8.8z"/><path fill="#FFF" d="M376.2 680.8h-74.3c-4.9 0-8.9 4.1-8.9 8.9v43.4c0 4.9 4.1 8.9 8.9 8.9h46.5l18.8 18.8c.8.8 1.7 1.1 2.7 1.1.5 0 .9-.2 1.4-.3 1.4-.6 2.3-1.9 2.3-3.4v-16.3h2.5c4.9 0 8.9-4.1 8.9-8.9v-43.4c.1-4.9-4-8.8-8.8-8.8zm1.4 52.3c0 .8-.6 1.4-1.4 1.4h-6.3c-2 0-3.6 1.6-3.8 3.4v11.3l-13.5-13.5-.2-.2c-.6-.6-1.6-.9-2.5-.9h-48.1c-.8 0-1.4-.6-1.4-1.4v-43.4c0-.8.6-1.4 1.4-1.4h74.3c.8 0 1.4.6 1.4 1.4l.1 43.3z"/><path fill="#FFF" d="M339.1 707.6c-2 0-3.8 1.7-3.8 3.8 0 2 1.7 3.8 3.8 3.8 2 0 3.8-1.7 3.8-3.8-.1-2.1-1.8-3.8-3.8-3.8zM322.8 659.8H255c-2 0-3.8 1.7-3.8 3.8s1.7 3.8 3.8 3.8h67.8c2 0 3.8-1.7 3.8-3.8s-1.6-3.8-3.8-3.8zM280.6 684.4h-25.8c-2 0-3.8 1.7-3.8 3.8 0 2 1.7 3.8 3.8 3.8h25.8c2 0 3.8-1.7 3.8-3.8s-1.6-3.8-3.8-3.8zM321.7 707.6c-2 0-3.8 1.7-3.8 3.8 0 2 1.7 3.8 3.8 3.8 2 0 3.8-1.7 3.8-3.8-.1-2.1-1.8-3.8-3.8-3.8zM356.4 707.6c-2 0-3.8 1.7-3.8 3.8 0 2 1.7 3.8 3.8 3.8 2 0 3.8-1.7 3.8-3.8-.2-2.1-1.7-3.8-3.8-3.8z"/></svg>