<svg xmlns="http://www.w3.org/2000/svg" viewBox="0 89.4 612 613.2"><path fill="#C8232C" d="M305.4 89.4C136.1 89.4-1.1 226.7-1.1 396s137.2 306.6 306.6 306.6C474.8 702.6 612 565.3 612 396S474.8 89.4 305.4 89.4zM336 500.7c-24.6 0-47.6-12.9-55.6-27.4 0 0-13.2 50.7-16 60.5-9.8 34.6-38.8 69.3-41 72.1-1.6 2-5 1.3-5.4-1.2-.6-4.4-8-48.1.6-83.6l29.3-120s-7.2-14.1-7.2-34.9c0-32.7 19.5-57 43.8-57 20.7 0 30.7 15.1 30.7 33 0 20.2-13.2 50.3-20.1 78.1-5.8 23.4 12.1 42.5 35.9 42.5 43.1 0 72.1-53.6 72.1-117 0-48.2-33.5-84.3-94.6-84.3-68.9 0-111.9 49.8-111.9 105.4 0 19.2 5.9 32.7 15.1 43.2 4.2 4.8 4.8 6.7 3.3 12.2l-4.7 17.7c-1.5 5.6-6.2 7.6-11.4 5.5-31.8-12.6-46.5-46.3-46.5-84.1 0-62.5 54.5-137.6 162.4-137.6 86.8 0 143.9 60.8 143.9 126.1-.1 86.2-49.6 150.8-122.7 150.8z"/></svg>