<?xml version="1.0" encoding="utf-8"?>
<!-- Generator: Adobe Illustrator 23.0.3, SVG Export Plug-In . SVG Version: 6.00 Build 0)  -->
<svg version="1.1" id="Layer_1" xmlns="http://www.w3.org/2000/svg" xmlns:xlink="http://www.w3.org/1999/xlink" x="0px" y="0px"
	 viewBox="0 0 100 100" style="enable-background:new 0 0 100 100;" xml:space="preserve">
<style type="text/css">
	.st0{fill:#61CF95;}
	.st1{fill:#FFFFFF;stroke:#252E4A;stroke-width:3;stroke-linecap:round;stroke-linejoin:round;}
	.st2{fill:#FFFFFF;stroke:#252E4A;stroke-width:3;stroke-miterlimit:10;}
	.st3{fill:#61CF95;stroke:#252E4A;stroke-width:3;stroke-linecap:round;stroke-linejoin:round;}
	.st4{fill:#FFFFFF;}
	.st5{fill:none;stroke:#252E4A;stroke-width:3;stroke-linecap:round;stroke-linejoin:round;}
</style>
<title>Oppotunities</title>
<circle class="st0" cx="50" cy="50" r="50"/>
<path class="st1" d="M52.8,60.6L52.8,60.6l21.7,21.8c2.2,2.2,5.6,2.2,7.8,0c0,0,0,0,0,0l0,0c2.2-2.2,2.2-5.6,0-7.8c0,0,0,0,0,0
	L60.6,52.8l0,0C58.5,55.9,55.9,58.5,52.8,60.6z"/>
<path class="st2" d="M49,23c-14.4,0-26,11.6-26,26s11.6,26,26,26s26-11.6,26-26S63.4,23,49,23z M49,66.5c-9.7,0-17.5-7.8-17.5-17.5
	S39.3,31.5,49,31.5S66.5,39.3,66.5,49c0,0,0,0,0,0C66.5,58.7,58.7,66.5,49,66.5z"/>
<circle class="st3" cx="49" cy="49" r="17.5"/>
<path class="st4" d="M50.3,38.7v1.1c0.7,0.1,1.3,0.2,1.9,0.5c0.5,0.2,1,0.6,1.4,1.1c0.3,0.3,0.6,0.7,0.7,1.1c0.2,0.3,0.2,0.7,0.3,1
	c0,0.3-0.1,0.7-0.4,0.9c-0.5,0.5-1.4,0.5-1.9,0c-0.2-0.2-0.3-0.4-0.4-0.7c-0.2-0.8-0.8-1.5-1.7-1.8v4.4c0.9,0.2,1.6,0.5,2.1,0.7
	c0.5,0.2,1,0.5,1.4,0.9c0.4,0.4,0.8,0.9,1,1.4c0.2,0.6,0.4,1.2,0.4,1.8c0,0.8-0.2,1.6-0.6,2.3c-0.4,0.7-1,1.3-1.7,1.7
	c-0.8,0.5-1.7,0.7-2.6,0.8v2.6c0,0.3,0,0.6-0.1,0.9c-0.1,0.2-0.3,0.3-0.5,0.3c-0.2,0-0.4-0.1-0.5-0.2C49,59.1,49,58.9,49,58.6v-2.9
	c-0.7-0.1-1.5-0.3-2.2-0.6c-0.6-0.3-1.1-0.6-1.5-1.1c-0.4-0.4-0.7-0.9-0.9-1.4c-0.2-0.4-0.3-0.9-0.3-1.4c0-0.7,0.6-1.3,1.4-1.3
	c0.3,0,0.6,0.1,0.8,0.2c0.2,0.2,0.4,0.4,0.5,0.6c0.1,0.5,0.3,0.9,0.5,1.3c0.1,0.3,0.4,0.6,0.6,0.8c0.3,0.3,0.7,0.5,1.2,0.6v-4.9
	c-0.8-0.2-1.6-0.5-2.4-0.9c-0.6-0.3-1.2-0.8-1.5-1.4c-0.4-0.7-0.6-1.5-0.6-2.3c0-1.1,0.4-2.2,1.2-3c0.9-0.8,2.1-1.3,3.3-1.3v-1.1
	c0-0.6,0.2-0.9,0.7-0.9S50.3,38.1,50.3,38.7z M49,45.9v-4c-0.5,0.1-1,0.4-1.4,0.7c-0.6,0.7-0.6,1.8,0,2.6C48,45.5,48.5,45.7,49,45.9
	z M50.3,49.1v4.6c0.6-0.1,1.2-0.4,1.7-0.9c0.4-0.4,0.6-0.9,0.6-1.5c0-0.5-0.2-1.1-0.6-1.4C51.5,49.5,50.9,49.2,50.3,49.1L50.3,49.1z
	"/>
<line class="st5" x1="50" y1="16" x2="50" y2="8"/>
<line class="st5" x1="26" y1="26" x2="20.3" y2="20.3"/>
<line class="st5" x1="16" y1="50" x2="8" y2="50"/>
<line class="st5" x1="26" y1="74" x2="20.3" y2="79.7"/>
<line class="st5" x1="50" y1="84" x2="50" y2="92"/>
<line class="st5" x1="84" y1="50" x2="92" y2="50"/>
<line class="st5" x1="74" y1="26" x2="79.7" y2="20.3"/>
</svg>
