<svg version="1.1" id="Layer_1" xmlns="http://www.w3.org/2000/svg" x="0" y="0" viewBox="0 0 200 200" xml:space="preserve"><style>.st0{fill:#f2784b}</style><g id="XMLID_10_"><path id="XMLID_11_" class="st0" d="M85.5 141.3c3 0 5.5-2.5 5.5-5.5s-2.5-5.5-5.5-5.5-5.5 2.5-5.5 5.5c.1 3 2.5 5.5 5.5 5.5z"/><path id="XMLID_12_" class="st0" d="M72 102.5c0 3.1 2.5 5.6 5.6 5.6H131c3.1 0 5.6-2.5 5.6-5.6V82.4l-64.6-9v29.1z"/><path id="XMLID_13_" class="st0" d="M128.5 141.3c3 0 5.5-2.5 5.5-5.5s-2.5-5.5-5.5-5.5-5.5 2.5-5.5 5.5 2.5 5.5 5.5 5.5z"/><path id="XMLID_16_" class="st0" d="M100-.8C44.8-.8 0 43.9 0 99.2c0 55.2 44.8 100 100 100s100-44.8 100-100c0-55.3-44.8-100-100-100zm42.1 103.3c0 6.1-4.9 11-11 11H77.6c-2.1 0-4-.6-5.6-1.5v7.3c0 3.1 2.5 5.6 5.6 5.6h50.8c6 0 10.9 4.9 10.9 10.9s-4.9 10.9-10.9 10.9-10.9-4.9-10.9-10.9c0-2 .5-3.9 1.5-5.5H94.9c1 1.6 1.5 3.5 1.5 5.5 0 6-4.9 10.9-10.9 10.9s-10.9-4.9-10.9-10.9c0-2 .6-3.9 1.6-5.6-5.4-.7-9.6-5.3-9.6-10.9v-59l-13-5.5c-1.4-.6-2-2.2-1.4-3.5.6-1.4 2.2-2 3.5-1.4l14.7 6.2c.1 0 .2.1.3.1h.1s.1.1.2.1l.1.1s.1 0 .1.1c.1 0 .1.1.1.1l.1.1.2.2.1.1s0 .1.1.1c0 0 0 .1.1.1l.1.1v.1c0 .1.1.1.1.2v.1l.1.2V68l67.7 9.3h.6l.1.1.2.1.1.1s.1 0 .1.1l.1.1.1.1.1.1s.1 0 .1.1l.1.1.1.1.1.1.1.1s0 .1.1.1l.1.1s0 .1.1.1c0 .1 0 .1.1.1v23.6z"/></g></svg>