<svg xmlns="http://www.w3.org/2000/svg" viewBox="0 90 612 612"><path fill="#994D1A" d="M306 90C137.1 90 0 227.1 0 396s137.1 306 306 306 306-137.1 306-306S474.9 90 306 90z"/><g fill="#FFF"><path d="M438.9 257.5H173.1c-3.1 0-5.6 2.5-5.6 5.6v265.7c0 3.1 2.5 5.6 5.6 5.6s5.6-2.5 5.6-5.6V317.6h226.8c3.1 0 5.6-2.5 5.6-5.6s-2.5-5.6-5.6-5.6H178.8v-37.6h254.5v254.5H229.9c-3.1 0-5.6 2.5-5.6 5.6s2.5 5.6 5.6 5.6h209c3.1 0 5.6-2.5 5.6-5.6V263.1c0-3.1-2.5-5.6-5.6-5.6z"/><path d="M193.5 283.6c-1 1.1-1.6 2.5-1.6 4s.6 2.9 1.6 4c1.1 1 2.5 1.6 4 1.6s2.9-.6 4-1.6c1-1.1 1.6-2.5 1.6-4s-.6-2.9-1.6-4c-1.1-1-2.5-1.6-4-1.6-1.5-.1-2.9.5-4 1.6zM212.3 283.6c-1.1 1.1-1.7 2.5-1.7 4s.6 2.9 1.7 4c1 1 2.5 1.6 4 1.6s2.9-.6 4-1.6c1.1-1.1 1.7-2.5 1.7-4s-.6-2.9-1.7-4c-1-1-2.5-1.6-4-1.6-1.5-.1-3 .5-4 1.6zM231.1 283.6c-1 1.1-1.6 2.5-1.6 4s.6 2.9 1.6 4c1.1 1 2.5 1.7 4 1.7s2.9-.6 4-1.7 1.7-2.5 1.7-4-.6-2.9-1.7-4c-1.1-1-2.5-1.7-4-1.7s-3 .6-4 1.7z"/></g></svg>