<svg id="Layer_1" data-name="Layer 1" xmlns="http://www.w3.org/2000/svg" viewBox="0 0 120 120"><defs><style>.cls-2,.cls-3{fill:#579bfc;stroke:#252e4a;stroke-linecap:round;stroke-linejoin:round;stroke-width:3px}.cls-3{fill:#fff}</style></defs><circle cx="60" cy="60" r="50" fill="#579bfc"/><ellipse class="cls-2" cx="60" cy="44.99" rx="35.93" ry="6.31"/><circle class="cls-3" cx="61" cy="38" r="20"/><circle class="cls-2" cx="61" cy="38" r="13"/><path class="cls-3" d="M95.93 45.48L67.77 73.64v15L52.23 95V73.64L24.07 45.48S27 51.3 60 51.3s35.93-5.82 35.93-5.82z"/><path d="M61.53 30.6v.82a4.79 4.79 0 0 1 1.4.34 2.75 2.75 0 0 1 1 .76 3 3 0 0 1 .53.8 1.73 1.73 0 0 1 .19.75.9.9 0 0 1-.28.66.93.93 0 0 1-.67.28 1 1 0 0 1-1-.81 1.73 1.73 0 0 0-1.21-1.26v3.16c.63.17 1.13.33 1.5.47a3 3 0 0 1 1 .62 2.78 2.78 0 0 1 .73 1 3.13 3.13 0 0 1 .28 1.27 3.35 3.35 0 0 1-.4 1.62 3.17 3.17 0 0 1-1.2 1.24 4.24 4.24 0 0 1-1.88.57v1.89a2.09 2.09 0 0 1-.08.66.39.39 0 0 1-.39.2.4.4 0 0 1-.38-.17.88.88 0 0 1-.11-.51v-2.05a5 5 0 0 1-1.56-.42 3.86 3.86 0 0 1-1.11-.8 3.2 3.2 0 0 1-.65-1 2.45 2.45 0 0 1-.22-1 .91.91 0 0 1 .29-.66.92.92 0 0 1 .71-.29 1 1 0 0 1 .58.16.81.81 0 0 1 .32.44q.21.63.36 1a1.73 1.73 0 0 0 .46.6 1.93 1.93 0 0 0 .82.42V37.8a9.71 9.71 0 0 1-1.71-.63 3.08 3.08 0 0 1-.7-4.77 3.79 3.79 0 0 1 2.41-1v-.8c0-.43.16-.64.48-.64s.49.23.49.64zm-1 5.22v-2.91a2.53 2.53 0 0 0-1 .5 1.4 1.4 0 0 0 0 1.85 3 3 0 0 0 1.04.56zm1 2.26v3.33a2.1 2.1 0 0 0 1.19-.62 1.56 1.56 0 0 0 .42-1.08 1.3 1.3 0 0 0-.41-1 3.19 3.19 0 0 0-1.2-.63z" fill="#fff"/></svg>