<svg width="100" height="100" xmlns="http://www.w3.org/2000/svg"><g fill="none" fill-rule="evenodd"><g fill-rule="nonzero"><circle fill="#579BFC" cx="50" cy="50" r="50"/><circle fill="#579BFC" cx="50" cy="50" r="50"/><ellipse stroke="#252E4A" stroke-width="3" fill="#579BFC" stroke-linecap="round" stroke-linejoin="round" cx="50" cy="28.69" rx="29" ry="5.09"/><circle stroke="#252E4A" stroke-width="3" fill="#FFF" stroke-linecap="round" stroke-linejoin="round" cx="50" cy="23.5" r="17.5"/><circle stroke="#252E4A" stroke-width="3" fill="#579BFC" stroke-linecap="round" stroke-linejoin="round" cx="50" cy="24" r="12"/><path d="M50.49 17.17v.76c.443.04.878.144 1.29.31.363.157.685.397.94.7.197.22.358.47.48.74.11.214.172.45.18.69a.83.83 0 0 1-.26.61.85.85 0 0 1-.62.26.87.87 0 0 1-.89-.75 1.6 1.6 0 0 0-1.12-1.16v2.92c.58.16 1 .3 1.39.43.34.13.653.323.92.57.285.257.513.57.67.92.163.372.245.774.24 1.18 0 .524-.13 1.04-.38 1.5a3.07 3.07 0 0 1-1.1 1.15 4 4 0 0 1-1.74.52v1.75a1.48 1.48 0 0 1-.08.6.33.33 0 0 1-.35.19.41.41 0 0 1-.36-.15.86.86 0 0 1-.1-.48v-1.9a4.22 4.22 0 0 1-1.43-.39 3.47 3.47 0 0 1-1-.73 3.16 3.16 0 0 1-.61-.91 2.45 2.45 0 0 1-.19-.93.87.87 0 0 1 .23-.57.88.88 0 0 1 .66-.27.9.9 0 0 1 .53.15.67.67 0 0 1 .3.41c.13.38.24.68.33.88.106.212.252.402.43.56.216.185.473.315.75.38v-3.3a7.77 7.77 0 0 1-1.6-.58 2.51 2.51 0 0 1-1.42-2.42 2.68 2.68 0 0 1 .77-2 3.43 3.43 0 0 1 2.22-.9v-.74c0-.4.15-.59.44-.59.29 0 .48.21.48.59zM49.6 22v-2.7a2.55 2.55 0 0 0-.92.46 1.09 1.09 0 0 0-.33.87 1.07 1.07 0 0 0 .31.84 3 3 0 0 0 .94.53zm.89 2.08v3.08a2 2 0 0 0 1.1-.57 1.49 1.49 0 0 0 .38-1 1.18 1.18 0 0 0-.37-.94 3 3 0 0 0-1.11-.58v.01z" fill="#FFF"/><path d="M79 29.08L56.27 51.81v12.12l-12.54 5.13V51.81L21 29.08s2.35 4.71 29 4.71 29-4.71 29-4.71z" stroke="#252E4A" stroke-width="3" fill="#FFF" stroke-linecap="round" stroke-linejoin="round"/><circle stroke="#252E4A" stroke-width="3" fill="#FFF" stroke-linecap="round" stroke-linejoin="round" cx="50" cy="75" r="18"/><path d="M60 84l-9.75-9" stroke="#252E4A" stroke-width="3" fill="#579BFC" stroke-linecap="round" stroke-linejoin="round"/><circle stroke="#252E4A" stroke-width="3" fill="#579BFC" stroke-linecap="round" stroke-linejoin="round" cx="49.89" cy="74.94" r="8.89"/><path d="M50.25 69.89v.56c.343.023.681.1 1 .23.267.118.503.296.69.52a2 2 0 0 1 .36.54c.082.161.126.34.13.52a.61.61 0 0 1-.19.45.66.66 0 0 1-.46.19.65.65 0 0 1-.66-.55 1.18 1.18 0 0 0-.83-.87v2.17c.34.086.673.193 1 .32.25.099.48.24.68.42a2 2 0 0 1 .5.68c.118.275.176.571.17.87a2.34 2.34 0 0 1-.27 1.11 2.23 2.23 0 0 1-.82.85 2.88 2.88 0 0 1-1.29.39v1.29a1.21 1.21 0 0 1-.06.45.25.25 0 0 1-.26.14.3.3 0 0 1-.26-.11.69.69 0 0 1-.08-.36v-1.4a3.29 3.29 0 0 1-1.07-.3 2.39 2.39 0 0 1-1.21-1.22 1.7 1.7 0 0 1-.14-.69.65.65 0 0 1 .19-.45.66.66 0 0 1 .49-.2.71.71 0 0 1 .39.11.65.65 0 0 1 .23.31c.066.222.146.439.24.65.075.159.18.302.31.42.164.132.355.228.56.28V74.8a6.37 6.37 0 0 1-1.16-.42 2.11 2.11 0 0 1-.43-3.27 2.54 2.54 0 0 1 1.64-.66v-.55c0-.29.11-.44.33-.44.22 0 .28.14.28.43zm-.66 3.56v-2a1.74 1.74 0 0 0-.68.35.8.8 0 0 0-.24.64.78.78 0 0 0 .23.62 2 2 0 0 0 .69.39zm.66 1.55v2.27a1.43 1.43 0 0 0 .81-.42 1 1 0 0 0 .29-.74.85.85 0 0 0-.28-.69 2.09 2.09 0 0 0-.82-.42z" fill="#FFF"/></g><path d="M78 64c-6.075 0-11-4.925-11-11s4.925-11 11-11 11 4.925 11 11" stroke="#252E4A" stroke-width="3" fill="#FFF" fill-rule="nonzero" stroke-linecap="round" stroke-linejoin="round"/><path d="M89 53c0 6.075-4.925 11-11 11" fill="#FFF" fill-rule="nonzero"/><path d="M89 53v1" stroke="#252E4A" stroke-width="3" stroke-linecap="round" stroke-linejoin="round"/><path d="M88 57.67a11 11 0 0 1-7.09 6" stroke="#252E4A" stroke-width="3" stroke-linecap="round" stroke-linejoin="round" stroke-dasharray="1.91"/><path d="M79 64h-1" stroke="#252E4A" stroke-width="3" stroke-linecap="round" stroke-linejoin="round"/><path stroke="#252E4A" stroke-width="3" fill="#FFF" fill-rule="nonzero" stroke-linecap="round" stroke-linejoin="round" d="M78 47v6l2.5 2.5M91 52l-2 2-2-2"/></g></svg>