<svg id="Layer_1" data-name="Layer 1" xmlns="http://www.w3.org/2000/svg" viewBox="0 0 120 120"><defs><style>.cls-1,.cls-2{fill:#579bfc}.cls-2,.cls-3{stroke:#252e4a;stroke-linecap:round;stroke-linejoin:round;stroke-width:3px}.cls-3,.cls-4{fill:#fff}</style></defs><circle class="cls-1" cx="60" cy="60" r="50"/><circle class="cls-1" cx="60" cy="60" r="50"/><ellipse class="cls-2" cx="60" cy="38.69" rx="29" ry="5.09"/><circle class="cls-3" cx="60" cy="33.5" r="17.5"/><circle class="cls-2" cx="60" cy="34" r="12"/><path class="cls-4" d="M60.49 27.17v.76a4.52 4.52 0 0 1 1.29.31 2.55 2.55 0 0 1 .94.7 2.92 2.92 0 0 1 .48.74 1.61 1.61 0 0 1 .18.69.83.83 0 0 1-.26.61.85.85 0 0 1-.62.26.87.87 0 0 1-.89-.75 1.6 1.6 0 0 0-1.12-1.16v2.92c.58.16 1 .3 1.39.43a2.84 2.84 0 0 1 .92.57 2.76 2.76 0 0 1 .67.92 2.86 2.86 0 0 1 .24 1.18 3.15 3.15 0 0 1-.38 1.5 3.07 3.07 0 0 1-1.1 1.15 4 4 0 0 1-1.74.52v1.75a1.48 1.48 0 0 1-.08.6.33.33 0 0 1-.35.19.41.41 0 0 1-.36-.15.86.86 0 0 1-.1-.48v-1.9a4.22 4.22 0 0 1-1.43-.39 3.47 3.47 0 0 1-1-.73 3.16 3.16 0 0 1-.61-.91 2.45 2.45 0 0 1-.19-.93.87.87 0 0 1 .23-.57.88.88 0 0 1 .66-.27.9.9 0 0 1 .53.15.67.67 0 0 1 .3.41c.13.38.24.68.33.88a1.87 1.87 0 0 0 .43.56 1.77 1.77 0 0 0 .75.38v-3.3a7.77 7.77 0 0 1-1.6-.58 2.51 2.51 0 0 1-1.42-2.42 2.68 2.68 0 0 1 .77-2 3.43 3.43 0 0 1 2.22-.9v-.74c0-.4.15-.59.44-.59s.48.21.48.59zM59.6 32v-2.7a2.55 2.55 0 0 0-.92.46 1.09 1.09 0 0 0-.33.87 1.07 1.07 0 0 0 .31.84 3 3 0 0 0 .94.53zm.89 2.08v3.08a2 2 0 0 0 1.1-.57 1.49 1.49 0 0 0 .38-1 1.18 1.18 0 0 0-.37-.94 3 3 0 0 0-1.11-.58z"/><path class="cls-3" d="M89 39.08L66.27 61.81v12.12l-12.54 5.13V61.81L31 39.08s2.35 4.71 29 4.71 29-4.71 29-4.71z"/><circle class="cls-3" cx="60" cy="85" r="18"/><path class="cls-2" d="M70 94l-9.75-9"/><circle class="cls-2" cx="59.89" cy="84.94" r="8.89"/><path class="cls-4" d="M60.25 79.89v.56a3.22 3.22 0 0 1 1 .23 1.91 1.91 0 0 1 .69.52 2 2 0 0 1 .36.54 1.21 1.21 0 0 1 .13.52.61.61 0 0 1-.19.45.66.66 0 0 1-.46.19.65.65 0 0 1-.66-.55 1.18 1.18 0 0 0-.83-.87v2.17a8.72 8.72 0 0 1 1 .32 2.27 2.27 0 0 1 .68.42 2 2 0 0 1 .5.68 2.11 2.11 0 0 1 .17.87 2.34 2.34 0 0 1-.27 1.11 2.23 2.23 0 0 1-.82.85 2.88 2.88 0 0 1-1.29.39v1.29a1.21 1.21 0 0 1-.06.45.25.25 0 0 1-.26.14.3.3 0 0 1-.26-.11.69.69 0 0 1-.08-.36v-1.4a3.29 3.29 0 0 1-1.07-.3 2.39 2.39 0 0 1-1.21-1.22 1.7 1.7 0 0 1-.14-.69.65.65 0 0 1 .19-.45.66.66 0 0 1 .49-.2.71.71 0 0 1 .39.11.65.65 0 0 1 .23.31 5.27 5.27 0 0 0 .24.65 1.34 1.34 0 0 0 .31.42 1.47 1.47 0 0 0 .56.28V84.8a6.37 6.37 0 0 1-1.16-.42 2.11 2.11 0 0 1-.43-3.27 2.54 2.54 0 0 1 1.64-.66v-.55c0-.29.11-.44.33-.44s.28.14.28.43zm-.66 3.56v-2a1.74 1.74 0 0 0-.68.35.8.8 0 0 0-.24.64.78.78 0 0 0 .23.62 2 2 0 0 0 .69.39zm.66 1.55v2.27a1.43 1.43 0 0 0 .81-.42 1 1 0 0 0 .29-.74.85.85 0 0 0-.28-.69 2.09 2.09 0 0 0-.82-.42z"/></svg>