<svg xmlns="http://www.w3.org/2000/svg" viewBox="0 90 612 612"><path fill="#1DA1F2" d="M306 90C136.9 90 0 226.9 0 396s136.9 306 306 306 306-136.9 306-306S474.9 90 306 90zm133.6 239.8v8.4c0 88.8-70.4 191.5-197.2 191.5-39.5 0-76-11.3-105.6-29.6 5.7 0 11.3 1.5 16.8 1.5 32.3 0 62-11.3 85.9-28.1-31.1 0-56.3-19.7-64.9-46.4 4.2 1.5 8.4 1.5 12.8 1.5 5.7 0 12.8-1.5 18.3-2.7-32.3-5.7-56.3-33.8-56.3-66.4V358c9.9 5.7 19.7 8.4 31.1 8.4-18.3-12.8-31.1-32.3-31.1-56.3 0-12.8 2.7-23.9 9.9-33.8 33.8 40.7 85.9 67.6 142.4 70.4-1.5-4.2-1.5-9.9-1.5-15.5 0-36.8 31.1-67.6 68.9-67.6 19.7 0 38 8.4 50.6 21 15.5-2.7 31.1-8.4 43.7-16.8-5.7 15.5-15.5 29.6-31.1 36.8 14.1-1.5 26.7-5.7 39.5-11.3-6.8 15.3-18.2 26.7-32.2 36.5z"/></svg>