<svg xmlns="http://www.w3.org/2000/svg" viewBox="0 90 612 612"><path fill="#1DA1F2" d="M306 90C136.9 90 0 226.9 0 396s136.9 306 306 306 306-136.9 306-306S474.9 90 306 90zm133.6 210.8v8.4c0 88.8-70.4 191.5-197.2 191.5-39.5 0-76-11.3-105.6-29.6 5.7 0 11.3 1.5 16.8 1.5 32.3 0 62-11.3 85.9-28.1-31.1 0-56.3-19.7-64.9-46.4 4.2 1.5 8.4 1.5 12.8 1.5 5.7 0 12.8-1.5 18.3-2.7-32.3-5.7-56.3-33.8-56.3-66.4V329c9.9 5.7 19.7 8.4 31.1 8.4-18.3-12.8-31.1-32.3-31.1-56.3 0-12.8 2.7-23.9 9.9-33.8 33.8 40.7 85.9 67.6 142.4 70.4-1.5-4.2-1.5-9.9-1.5-15.5 0-36.8 31.1-67.6 68.9-67.6 19.7 0 38 8.4 50.6 21 15.5-2.7 31.1-8.4 43.7-16.8-5.7 15.5-15.5 29.6-31.1 36.8 14.1-1.5 26.7-5.7 39.5-11.3-6.8 15.3-18.2 26.7-32.2 36.5z"/><path fill="#FFF" d="M341.9 543.3H235.8c-4.9 0-8.9 4.1-8.9 8.9v63.6c0 4.9 4.1 8.9 8.9 8.9h6.9v23.8c0 1.6.9 2.8 2.3 3.4.5.2.9.3 1.4.3.9 0 1.9-.3 2.7-1.1l26.3-26.3h5.3c2 0 3.8-1.7 3.8-3.8 0-2-1.7-3.8-3.8-3.8h-7c-.9 0-1.7.5-2.3 1.1l-21 21v-18.8c-.2-1.9-1.7-3.4-3.8-3.4H236c-.8 0-1.4-.6-1.4-1.4v-63.6c0-.8.6-1.4 1.4-1.4h106c.8 0 1.4.6 1.4 1.4v24.4c0 2 1.7 3.8 3.8 3.8 2 0 3.8-1.7 3.8-3.8v-24.4c-.2-4.8-4.1-8.8-9.1-8.8z"/><path fill="#FFF" d="M376.2 589h-74.3c-4.9 0-8.9 4.1-8.9 8.9v43.4c0 4.9 4.1 8.9 8.9 8.9h46.5l18.8 18.8c.8.8 1.7 1.1 2.7 1.1.5 0 .9-.2 1.4-.3 1.4-.6 2.3-1.9 2.3-3.4v-16.3h2.5c4.9 0 8.9-4.1 8.9-8.9v-43.4c.1-4.9-4-8.8-8.8-8.8zm1.4 52.3c0 .8-.6 1.4-1.4 1.4h-6.3c-2 0-3.6 1.6-3.8 3.4v11.3L352.7 644l-.2-.2c-.6-.6-1.6-.9-2.5-.9h-48.1c-.8 0-1.4-.6-1.4-1.4v-43.4c0-.8.6-1.4 1.4-1.4h74.3c.8 0 1.4.6 1.4 1.4v43.2z"/><path fill="#FFF" d="M339.1 615.8c-2 0-3.8 1.7-3.8 3.8 0 2 1.7 3.8 3.8 3.8 2 0 3.8-1.7 3.8-3.8-.1-2.1-1.8-3.8-3.8-3.8zM322.8 568H255c-2 0-3.8 1.7-3.8 3.8s1.7 3.8 3.8 3.8h67.8c2 0 3.8-1.7 3.8-3.8s-1.6-3.8-3.8-3.8zM280.6 592.6h-25.8c-2 0-3.8 1.7-3.8 3.8s1.7 3.8 3.8 3.8h25.8c2 0 3.8-1.7 3.8-3.8s-1.6-3.8-3.8-3.8zM321.7 615.8c-2 0-3.8 1.7-3.8 3.8 0 2 1.7 3.8 3.8 3.8 2 0 3.8-1.7 3.8-3.8s-1.8-3.8-3.8-3.8zM356.4 615.8c-2 0-3.8 1.7-3.8 3.8 0 2 1.7 3.8 3.8 3.8 2 0 3.8-1.7 3.8-3.8-.2-2.1-1.7-3.8-3.8-3.8z"/></svg>