<svg xmlns="http://www.w3.org/2000/svg" viewBox="0 89.4 612 613.2"><path fill="#C8232C" d="M305.4 89.4C136.1 89.4-1.1 226.7-1.1 396s137.2 306.6 306.6 306.6C474.8 702.6 612 565.3 612 396S474.8 89.4 305.4 89.4z"/><path fill="#FFF" d="M315.3 502.7c-44.1 0-92.1-1.4-142.6-4.1-29.9-1.6-53-24.7-56.3-56-5.5-52.4-5.5-105.2 0-157.1 3.3-31.1 26.4-54.1 56.3-56 87.2-5.5 176.9-5.5 266.8 0 30.2 1.8 52.8 24.3 56.3 56 5.5 50.1 5.5 102.9 0 157.1-3.2 31.3-25.8 53.8-56.2 56-38.5 2.7-80.2 4.1-124.3 4.1zM305 240.2c-43.9 0-88.2 1.4-131.5 4.1-22.8 1.4-39.8 18.6-42.4 42.7-5.4 50.8-5.4 102.6 0 154 2.6 24.3 19.6 41.4 42.3 42.7 50.3 2.7 98 4.1 141.8 4.1 43.7 0 85.1-1.4 123.1-4.1 23-1.7 40-18.8 42.5-42.7 5.4-53.1 5.4-104.9 0-154-2.7-24.2-19.7-41.3-42.4-42.7-44.6-2.7-89.5-4.1-133.4-4.1zm-36.9 71.1v102.2l98.1-50.7-98.1-51.5zM341.9 550H235.8c-4.9 0-8.9 4.1-8.9 8.9v63.6c0 4.9 4.1 8.9 8.9 8.9h6.9v23.8c0 1.6.9 2.8 2.3 3.4.5.2.9.3 1.4.3.9 0 1.9-.3 2.7-1.1l26.3-26.3h5.3c2 0 3.8-1.7 3.8-3.8 0-2-1.7-3.8-3.8-3.8h-7c-.9 0-1.7.5-2.3 1.1l-21 21v-18.8c-.2-1.9-1.7-3.4-3.8-3.4H236c-.8 0-1.4-.6-1.4-1.4v-63.6c0-.8.6-1.4 1.4-1.4h106c.8 0 1.4.6 1.4 1.4v24.4c0 2 1.7 3.8 3.8 3.8 2 0 3.8-1.7 3.8-3.8v-24.4c-.2-4.7-4.1-8.8-9.1-8.8z"/><path fill="#FFF" d="M376.2 595.7h-74.3c-4.9 0-8.9 4.1-8.9 8.9V648c0 4.9 4.1 8.9 8.9 8.9h46.5l18.8 18.8c.8.8 1.7 1.1 2.7 1.1.5 0 .9-.2 1.4-.3 1.4-.6 2.3-1.9 2.3-3.4v-16.3h2.5c4.9 0 8.9-4.1 8.9-8.9v-43.4c.1-4.8-4-8.8-8.8-8.8zm1.4 52.4c0 .8-.6 1.4-1.4 1.4h-6.3c-2 0-3.6 1.6-3.8 3.4v11.3l-13.5-13.5-.2-.2c-.6-.6-1.6-.9-2.5-.9h-48.1c-.8 0-1.4-.6-1.4-1.4v-43.4c0-.8.6-1.4 1.4-1.4h74.3c.8 0 1.4.6 1.4 1.4v43.3z"/><path fill="#FFF" d="M339.1 622.5c-2 0-3.8 1.7-3.8 3.8 0 2 1.7 3.8 3.8 3.8s3.8-1.7 3.8-3.8c-.1-2-1.8-3.8-3.8-3.8zM322.8 574.8H255c-2 0-3.8 1.7-3.8 3.8 0 2 1.7 3.8 3.8 3.8h67.8c2 0 3.8-1.7 3.8-3.8-.1-2.1-1.6-3.8-3.8-3.8zM280.6 599.3h-25.8c-2 0-3.8 1.7-3.8 3.8 0 2 1.7 3.8 3.8 3.8h25.8c2 0 3.8-1.7 3.8-3.8 0-2-1.6-3.8-3.8-3.8zM321.7 622.5c-2 0-3.8 1.7-3.8 3.8 0 2 1.7 3.8 3.8 3.8 2 0 3.8-1.7 3.8-3.8-.1-2-1.8-3.8-3.8-3.8zM356.4 622.5c-2 0-3.8 1.7-3.8 3.8 0 2 1.7 3.8 3.8 3.8 2 0 3.8-1.7 3.8-3.8-.2-2-1.7-3.8-3.8-3.8z"/></svg>