<svg xmlns="http://www.w3.org/2000/svg" viewBox="0 89.4 612 613.2"><path fill="#C8232C" d="M305.4 89.4C136.1 89.4-1.1 226.7-1.1 396s137.2 306.6 306.6 306.6C474.8 702.6 612 565.3 612 396S474.8 89.4 305.4 89.4z"/><path fill="#FFF" d="M315.3 534.7c-44.1 0-92.1-1.4-142.6-4.1-29.9-1.6-53-24.7-56.3-56-5.5-52.4-5.5-105.2 0-157.1 3.3-31.1 26.4-54.1 56.3-56 87.2-5.5 176.9-5.5 266.8 0 30.2 1.8 52.8 24.3 56.3 56 5.5 50.1 5.5 102.9 0 157.1-3.2 31.3-25.8 53.8-56.2 56-38.5 2.7-80.2 4.1-124.3 4.1zM305 272.2c-43.9 0-88.2 1.4-131.5 4.1-22.8 1.4-39.8 18.6-42.4 42.7-5.4 50.8-5.4 102.6 0 154 2.6 24.3 19.6 41.4 42.3 42.7 50.3 2.7 98 4.1 141.8 4.1 43.7 0 85.1-1.4 123.1-4.1 23-1.7 40-18.8 42.5-42.7 5.4-53.1 5.4-104.9 0-154-2.7-24.2-19.7-41.3-42.4-42.7-44.6-2.7-89.5-4.1-133.4-4.1zm-36.9 71.1v102.2l98.1-50.7-98.1-51.5z"/></svg>