<svg xmlns="http://www.w3.org/2000/svg" width="36" height="36"><g fill="none" fill-rule="evenodd"><rect width="36" height="36" fill="#90E0DA" rx="3"/><path fill="#FFF" fill-rule="nonzero" d="M14.5 9a.5.5 0 1 0 0 1 .5.5 0 0 0 0-1zm7 0a.5.5 0 1 0 0 1 .5.5 0 0 0 0-1zM18 10a2 2 0 0 0-1 3.73V15a1 1 0 0 0 2 0v-1.271A2 2 0 0 0 20 12a2 2 0 0 0-2-2zm-4.5 1a.5.5 0 1 0 0 1 .5.5 0 0 0 0-1zm9 0a.5.5 0 1 0 0 1 .5.5 0 0 0 0-1zM13 14c-1.683 0-3 1.318-3 3s1.317 3 3 3 3-1.318 3-3-1.317-3-3-3zm10 0c-1.683 0-3 1.318-3 3s1.317 3 3 3 3-1.318 3-3-1.317-3-3-3zm-10 8c-3.532 0-6 1.323-6 3.217V28h8v-2.783c0-1.075.39-2.024 1.086-2.813C15.205 22.145 14.16 22 13 22zm10 0c-3.532 0-6 1.323-6 3.217V28h12v-2.783C29 23.323 26.532 22 23 22z"/></g></svg>