<svg xmlns="http://www.w3.org/2000/svg" width="36" height="36"><g fill="none" fill-rule="evenodd"><rect width="36" height="36" fill="#FF8A74" rx="3"/><path fill="#FFF" d="M13.424 9.555h6.85a3.6 3.6 0 0 0-6.85 0zm6.713 6.809a1.934 1.934 0 0 0-1.576-.84c-.616-.051-1.255.388-1.6.378a2.89 2.89 0 0 1-.796-.258 1.933 1.933 0 0 0-2.138.59c-.485.642-.556 1.623-.439 2.454.225 1.587 1.044 3.349 2.085 3.312.542-.02.74-.358 1.392-.355.653.003.833.335 1.402.335.57 0 .944-.543 1.305-1.062a5.71 5.71 0 0 0 .553-1.088l.04-.117c-1.095-.312-1.483-2.057-.757-2.9.167-.162.343-.312.53-.45zM18.15 14.79a1.92 1.92 0 0 0 .432-1.34 1.885 1.885 0 0 0-1.258.65 1.76 1.76 0 0 0-.448 1.32 1.6 1.6 0 0 0 1.274-.63zm7.028 10.82a1.56 1.56 0 1 1-1.576 1.57 1.561 1.561 0 0 1 1.572-1.557l.004-.013zm0-2.267a.864.864 0 0 1 .86.86v.118c.187.056.37.131.542.224l.084-.084a.86.86 0 1 1 1.218 1.22l-.084.083c.092.173.168.355.224.543h.117a.862.862 0 0 1 0 1.724h-.117c-.056.188-.132.37-.224.543l.08.083a.862.862 0 0 1-1.218 1.22l-.083-.08a2.96 2.96 0 0 1-.543.223v.118a.862.862 0 1 1-1.723 0v-.118a2.96 2.96 0 0 1-.542-.224l-.084.08a.86.86 0 1 1-1.218-1.219l.084-.083a2.965 2.965 0 0 1-.224-.543h-.117a.862.862 0 0 1 0-1.724h.117c.056-.188.131-.37.224-.543l-.084-.084a.862.862 0 0 1 1.218-1.219l.084.084a2.88 2.88 0 0 1 .542-.224v-.118a.864.864 0 0 1 .863-.847l.004-.013zM9.23 9.542h3.08a4.686 4.686 0 0 1 9.084 0h3.193c.686.004 1.241.56 1.245 1.246V22.7a12.452 12.452 0 0 1-3.906 1.225 4.861 4.861 0 0 1-1.338 3.259v.064H9.245A1.252 1.252 0 0 1 8 26.002v-15.2a1.252 1.252 0 0 1 1.228-1.247l.003-.013z"/></g></svg>