<svg xmlns="http://www.w3.org/2000/svg" width="36" height="36"><g fill="none" fill-rule="evenodd"><rect width="36" height="36" fill="#D6975E" rx="3"/><path fill="#FFF" d="M25.875 13.5H24.75v-2.25h1.125a1.125 1.125 0 0 0 0-2.25h-15.75C9.504 9 9 9.504 9 10.125V27h2.25V11.25h3.375v2.25H13.5c-.621 0-1.125.504-1.125 1.125V22.5c0 .621.504 1.125 1.125 1.125h12.375c.621 0 1.125-.504 1.125-1.125v-7.875c0-.621-.504-1.125-1.125-1.125zm-9-2.25H22.5v2.25h-5.625v-2.25zm7.875 10.125H14.625V15.75H24.75v5.625z"/></g></svg>