<svg xmlns="http://www.w3.org/2000/svg" width="36" height="36"><g fill="none" fill-rule="evenodd"><rect width="36" height="36" fill="#39D98D" rx="3"/><path fill="#FFF" fill-rule="nonzero" d="M11 8c-1.102 0-2 .898-2 2v15c0 1.102.898 2 2 2h9.406c-1.785 0-3.398-.777-4.562-2H11V10h11v4.219a6.338 6.338 0 0 1 2 .875V10c0-1.102-.898-2-2-2H11zm2 4v2h7v-2h-7zm7.406 3A5.403 5.403 0 0 0 15 20.406c0 2.989 2.418 5.438 5.406 5.438a5.382 5.382 0 0 0 3.063-.969l3.031 3.031 1.406-1.406-3.031-3.031a5.382 5.382 0 0 0 .969-3.063c0-2.988-2.45-5.406-5.438-5.406zM13 16v2h1.469a6.483 6.483 0 0 1 1.312-2H13zm7.406 1.156a3.253 3.253 0 0 1 3.25 3.25 3.253 3.253 0 0 1-3.25 3.25 3.253 3.253 0 0 1-3.25-3.25 3.253 3.253 0 0 1 3.25-3.25zM18.688 19c-.317.387-.532.867-.532 1.406 0 .617.254 1.188.657 1.594H22v-3h-3.313zM13 20v2h1.188A6.543 6.543 0 0 1 14 20.406c0-.14.023-.265.031-.406H13z"/></g></svg>