<svg xmlns="http://www.w3.org/2000/svg" width="36" height="36"><g fill="none" fill-rule="evenodd"><rect width="36" height="36" fill="#FF7E7E" rx="3"/><path fill="#FFF" fill-rule="nonzero" d="M11 9c-.523 0-1.059.184-1.438.563C9.184 9.94 9 10.476 9 11v14c0 .523.184 1.059.563 1.438.378.378.914.562 1.437.562h14c.523 0 1.059-.184 1.438-.563.378-.378.562-.914.562-1.437V11c0-.523-.184-1.059-.563-1.438C26.06 9.184 25.523 9 25 9H11zm0 2h14v14H11V11zm3 2c-.602 0-1 .398-1 1v2c0 .602.398 1 1 1h2c.602 0 1-.398 1-1v-2c0-.602-.398-1-1-1h-2zm6 0c-.602 0-1 .398-1 1v2c0 .602.398 1 1 1h2c.602 0 1-.398 1-1v-2c0-.602-.398-1-1-1h-2zm-6 6c-.602 0-1 .398-1 1v2c0 .602.398 1 1 1h2c.602 0 1-.398 1-1v-2c0-.602-.398-1-1-1h-2zm6 0c-.602 0-1 .398-1 1v2c0 .602.398 1 1 1h2c.602 0 1-.398 1-1v-2c0-.602-.398-1-1-1h-2z"/></g></svg>