<svg xmlns="http://www.w3.org/2000/svg" width="36" height="36"><g fill="none" fill-rule="evenodd"><rect width="36" height="36" fill="#BC8352" rx="3"/><path fill="#FFF" d="M21.68 27.07c.14.115.276.249.433.36.331.208.7.35 1.085.42.416.09.84.14 1.264.15.318 0 .44-.054.79-.578a18.67 18.67 0 0 0 1.435-2.667 17.752 17.752 0 0 0 1.154-3.542c.164-.76.202-1.541.11-2.313-.069-.434-.179-.488-.681-.564a23.993 23.993 0 0 0-1.933-.197 3.26 3.26 0 0 0-.955.055l-.113.022c-.215 3.877-1.741 7.253-2.58 8.844l-.009.01zm-6.616-13.037c.17.434.221.904.149 1.363a1.178 1.178 0 0 1-.897.95 6.15 6.15 0 0 1-2.062.096c-.619-.06-.977-.169-1.45-.114a2.912 2.912 0 0 0-1.402.545c-.282.23-.431.582-.397.942.017.272.113.533.276.752.143.191.309.314.392.42a.302.302 0 0 1-.042.4c-.2.257-.353.547-.452.856a1.49 1.49 0 0 0 .198 1.09c.2.313.517.515.591.774.075.258-.088.569-.102.929a1.81 1.81 0 0 0 .356 1.09c.235.318.552.544.729.847.176.302.165.665.276 1.07.095.49.418.907.872 1.126.552.272 1.485.365 2.399.387a14.83 14.83 0 0 0 2.76-.19c.95-.156 1.932-.415 2.647-.546.21-.038.422-.064.635-.079.778-1.428 2.448-4.929 2.584-8.934a2.303 2.303 0 0 1-.45-.48c-.276-.4-.411-.915-.784-1.457-.373-.542-.977-1.112-1.919-1.907-.94-.796-2.208-1.853-3.08-2.687a8.126 8.126 0 0 1-1.582-1.98c-.276-.524-.405-.943-.571-1.148-.166-.204-.37-.19-.605 0a2.125 2.125 0 0 0-.612 1.14 4.1 4.1 0 0 0 .082 1.857 6.5 6.5 0 0 0 .768 1.635c.274.398.507.821.695 1.264l-.002-.01z"/></g></svg>