<svg xmlns="http://www.w3.org/2000/svg" width="36" height="36"><g fill="none" fill-rule="evenodd"><rect width="36" height="36" fill="#7ED321" rx="3"/><path fill="#FFF" d="M18.494 25.96c.542 0 .98.43.98.961a.97.97 0 0 1-.98.961.97.97 0 0 1-.98-.96.97.97 0 0 1 .98-.961zm-5.014-7.5h10.034v1.537H13.48v-1.536zm0 3.312h10.034v1.537H13.48v-1.537zm0-9.935h5.1v1.537h-5.1v-1.537zm0 3.312h7.7v1.536h-7.7v-1.539.003zm6.53-7.146h3.498v7.143l-2.242-2.977-1.255 1.202V8v.003zm-8.832 0h7.405v1.989h-6.53V25.16h12.883V8.008h.874A1.18 1.18 0 0 1 27 9.174v18.66A1.18 1.18 0 0 1 25.81 29H11.19A1.18 1.18 0 0 1 10 27.834V9.174a1.18 1.18 0 0 1 1.175-1.171h.003z"/></g></svg>