<?xml version="1.0" encoding="UTF-8"?>
<svg width="94px" height="104px" viewBox="0 0 94 104" version="1.1" xmlns="http://www.w3.org/2000/svg" xmlns:xlink="http://www.w3.org/1999/xlink">
    <!-- Generator: Sketch 55.2 (78181) - https://sketchapp.com -->
    <title>efficiency</title>
    <desc>Created with Sketch.</desc>
    <g id="New-Design---1366x768" stroke="none" stroke-width="1" fill="none" fill-rule="evenodd" opacity="0.12">
        <g id="Answers---new-design" transform="translate(-780.000000, -516.000000)">
            <g id="Group">
                <g id="Boxes" transform="translate(492.000000, 300.000000)">
                    <g id="Box-#2">
                        <g id="time">
                            <g id="efficiency" transform="translate(288.000000, 216.000000)">
                                <g id="time">
                                    <path d="M109.26222,74.0035884 C108.10302,78.6360776 106.258643,83.0681854 103.789418,87.1533946 L112.130054,99.6869717 L99.6869717,112.130054 L87.1533946,103.789418 C83.0681854,106.258643 78.6360776,108.10302 74.0035884,109.26222 L71.0474138,124 L53.3965517,124 L50.4403771,109.26222 C45.8078879,108.10302 41.3757802,106.258643 37.2905709,103.789418 L24.7569938,112.130054 L12.3139116,99.6869717 L20.6545473,87.1533946 C19.960751,86.02436 19.3294397,84.860851 18.7563041,83.6671767 C17.2157319,80.5860329 16.0177486,77.3454449 15.1817459,74.0035884 L0.443965517,71.0474138 L0.443965517,53.3965517 L15.1817459,50.4403771 C16.3409453,45.8078879 18.1853225,41.3757802 20.6545473,37.2905709 L12.3139116,24.7569938 L24.7569938,12.3139116 L37.2905709,20.6545473 C41.3757802,18.1853225 45.8078879,16.3409453 50.4403771,15.1817459 L53.3965517,0.443965517 L71.0474138,0.443965517 L74.0035884,15.1817459 C77.3454449,16.0177486 80.5860329,17.2157319 83.6671767,18.7563041 C84.860851,19.3294397 86.02436,19.960751 87.1533946,20.6545473 L99.6869717,12.3139116 L112.130054,24.7569938 L103.789418,37.2905709 C106.258643,41.3757802 108.10302,45.8078879 109.26222,50.4403771 L124,53.3965517 L124,71.0474138 L109.26222,74.0035884 Z" id="Path" fill="#2FCF5F" fill-rule="nonzero"></path>
                                    <path d="M92.1844932,43.5562822 C82.8764214,28.6159654 63.9823286,22.8156577 47.89574,29.9604646 C31.8069963,37.1031171 23.4405048,55.0082271 28.281995,71.9329735 C33.1234853,88.8555649 49.6927147,99.6287961 67.1238031,97.1832725 C84.557046,94.7377494 97.5237537,79.8254423 97.5237537,62.2219828 C97.53448,55.6223012 95.6836387,49.1518989 92.1844932,43.5562822 L92.1844932,43.5562822 Z" id="Path" fill="#EAFAEF" fill-rule="nonzero"></path>
                                    <path d="M62.2219828,57.8092672 C59.7850777,57.8092672 57.8092672,55.8334568 57.8092672,53.3965517 C57.8092672,50.9596467 59.7850777,48.9838362 62.2219828,48.9838362 C64.6588878,48.9838362 66.6346983,50.9596467 66.6346983,53.3965517 L75.4601293,53.3965517 C75.4364281,47.8073996 71.9049633,42.8344755 66.6346983,40.9707067 L66.6346983,35.7456897 L57.8092672,35.7456897 L57.8092672,40.9707067 C51.7353193,43.1102703 48.0896579,49.3178065 49.1799092,55.6653941 C50.2723149,62.0129822 55.7817453,66.6476264 62.2219828,66.6346983 C64.6588878,66.6346983 66.6346983,68.6105087 66.6346983,71.0474138 C66.6346983,73.4843188 64.6588878,75.4601293 62.2219828,75.4601293 C59.7850777,75.4601293 57.8092672,73.4843188 57.8092672,71.0474138 L48.9838362,71.0474138 C49.0075375,76.6365659 52.5390022,81.60949 57.8092672,83.4732588 L57.8092672,88.6982759 L66.6346983,88.6982759 L66.6346983,83.4732588 C72.7086462,81.3336953 76.3543076,75.126159 75.2640564,68.7785714 C74.1716506,62.4309833 68.6622203,57.7963391 62.2219828,57.8092672 Z" id="Path" fill="#2FCF5F" fill-rule="nonzero"></path>
                                </g>
                            </g>
                        </g>
                    </g>
                </g>
            </g>
        </g>
    </g>
</svg>