<svg xmlns="http://www.w3.org/2000/svg" width="36" height="36"><g fill="none" fill-rule="evenodd"><rect width="36" height="36" fill="#FF1D1D" rx="3"/><path fill="#FFF" d="M15.799 19.86l1.93.635v.018a1.074 1.074 0 1 1-1.93-.653zm2.198-8.764a6.904 6.904 0 1 1-4.88 2.023A6.904 6.904 0 0 1 18 11.1l-.003-.003zM7 19.233v-2.466a.927.927 0 0 1 .924-.924h.971a9.3 9.3 0 0 1 1.142-2.752l-.686-.685a.927.927 0 0 1 0-1.31l1.745-1.745a.927.927 0 0 1 1.31 0l.685.686a9.302 9.302 0 0 1 2.752-1.142v-.971A.927.927 0 0 1 16.767 7h2.466c.51.002.922.414.924.924v.971a9.3 9.3 0 0 1 2.752 1.142l.685-.686a.927.927 0 0 1 1.31 0l1.745 1.745a.927.927 0 0 1 0 1.31l-.686.685c.526.85.912 1.78 1.142 2.752h.971c.51.002.922.414.924.924v2.466a.927.927 0 0 1-.924.924h-.971a9.3 9.3 0 0 1-1.142 2.752l.686.685a.927.927 0 0 1 0 1.31l-1.754 1.745a.927.927 0 0 1-1.31 0l-.685-.686a9.302 9.302 0 0 1-2.752 1.142v.971a.927.927 0 0 1-.924.924h-2.466a.927.927 0 0 1-.924-.924v-.971a9.3 9.3 0 0 1-2.751-1.142l-.686.686a.927.927 0 0 1-1.31 0l-1.745-1.745a.927.927 0 0 1 0-1.31l.686-.685a9.302 9.302 0 0 1-1.142-2.752h-.97a.927.927 0 0 1-.913-.921L7 19.233zm14.184-5.268c.488 0 .883.396.883.883v6.271a.883.883 0 0 1-1.719.239l-2.157-.71a1.524 1.524 0 1 1-2.819-.926l-.86-.295a.747.747 0 0 1-1.47-.153v-2.628a.747.747 0 0 1 1.47-.15l.884-.294 4.97-1.619a.883.883 0 0 1 .818-.618z"/></g></svg>