<?xml version="1.0" encoding="UTF-8"?>
<svg width="112px" height="126px" viewBox="0 0 112 126" version="1.1" xmlns="http://www.w3.org/2000/svg" xmlns:xlink="http://www.w3.org/1999/xlink">
    <!-- Generator: Sketch 55.2 (78181) - https://sketchapp.com -->
    <title>growth trending</title>
    <desc>Created with Sketch.</desc>
    <g id="New-Design---1366x768" stroke="none" stroke-width="1" fill="none" fill-rule="evenodd" opacity="0.12">
        <g id="Answers---new-design" transform="translate(-1174.000000, -494.000000)">
            <g id="Group">
                <g id="Boxes" transform="translate(132.000000, 300.000000)">
                    <g id="Box-#2">
                        <g id="growth" transform="translate(772.000000, 0.000000)">
                            <g id="growth-trending" transform="translate(270.000000, 194.000000)">
                                <g id="growth">
                                    <path d="M20.1259594,98.6552906 L13.5490679,98.6552906 C6.077988,98.6552906 0,104.733278 0,112.204358 L0,122.070175 C0,124.105126 1.64925993,125.754386 3.68421053,125.754386 L29.9917763,125.754386 C32.0267269,125.754386 33.6759868,124.105126 33.6759868,122.070175 L33.6759868,112.204358 C33.6759868,104.733278 27.5979988,98.6552906 20.1259594,98.6552906 Z" id="Path" fill="#FF6D15" fill-rule="nonzero"></path>
                                    <path d="M46.4344848,78.9236567 L39.8575933,78.9236567 C32.3865132,78.9236567 26.3075658,85.0026041 26.3075658,92.4736842 L26.3075658,122.070175 C26.3075658,124.105126 27.9577851,125.754386 29.9917763,125.754386 L56.3003015,125.754386 C58.3342927,125.754386 59.984512,124.105126 59.984512,122.070175 L59.984512,92.4736842 C59.984512,85.0026041 53.9055646,78.9236567 46.4344848,78.9236567 Z" id="Path" fill="#FFD12B" fill-rule="nonzero"></path>
                                    <path d="M72.7420503,59.1929825 L66.1651591,59.1929825 C58.6940789,59.1929825 52.6160909,65.2719298 52.6160909,72.7430099 L52.6160909,122.070175 C52.6160909,124.105126 54.2653509,125.754386 56.3003015,125.754386 L82.6069079,125.754386 C84.6418585,125.754386 86.2911184,124.105126 86.2911184,122.070175 L86.2911184,72.7430099 C86.2911184,65.2719298 80.2131304,59.1929825 72.7420503,59.1929825 Z" id="Path" fill="#80D398" fill-rule="nonzero"></path>
                                    <path d="M125.030976,37.0071272 L98.7214912,1.49095382 C98.026864,0.553590947 96.9292763,0 95.7616503,0 C94.594024,0 93.4954769,0.553590947 92.8008497,1.49095382 L66.4932839,37.0071272 C65.6652959,38.1248629 65.5376918,39.6148573 66.1632401,40.857319 C66.7897479,42.0997807 68.0619518,42.8845942 69.4531251,42.8845942 L78.9226974,42.8845942 L78.9226974,122.070175 C78.9226974,124.105126 80.5729167,125.754386 82.6069079,125.754386 L108.915433,125.754386 C110.950384,125.754386 112.599644,124.105126 112.599644,122.070175 L112.599644,42.8845942 L122.070175,42.8845942 C123.461349,42.8845942 124.734512,42.0997807 125.36102,40.857319 C125.986568,39.6148573 125.858964,38.1248629 125.030976,37.0071272 Z" id="Path" fill="#00B44B" fill-rule="nonzero"></path>
                                </g>
                            </g>
                        </g>
                    </g>
                </g>
            </g>
        </g>
    </g>
</svg>