<svg xmlns="http://www.w3.org/2000/svg" width="36" height="36"><g fill="none" fill-rule="evenodd"><rect width="36" height="36" fill="#7BC400" rx="3"/><path fill="#FFF" fill-rule="nonzero" d="M11.81 21.429a.513.513 0 0 1-.467-.52c0-.274.204-.501.467-.52h4.13c.056.354.144.702.261 1.04H11.81zm0 2.471a.513.513 0 0 1-.467-.52c0-.274.204-.501.467-.52h5.12c.267.384.577.733.923 1.04H11.81zm0-7.414a.513.513 0 0 1-.467-.52c0-.274.204-.5.467-.52h5.547a5.93 5.93 0 0 0-.734 1.04H11.81zm0 2.472a.513.513 0 0 1-.467-.52c0-.274.204-.502.467-.52h4.236c-.087.34-.145.688-.172 1.04H11.81zM21.094 27H9.904a.889.889 0 0 1-.638-.276A.961.961 0 0 1 9 26.06V13.02l.146-.152 2.612-2.716.146-.152h9.19c.24.001.469.1.638.276.17.176.265.415.266.664v.824a1.725 1.725 0 0 0-1 0v-.734h-8.682l-2.318 2.41v12.513H21v-.683c.17.017.343.025.518.025.174 0 .324 0 .482-.022v.778a.961.961 0 0 1-.266.663.888.888 0 0 1-.64.286z"/><path fill="#FFF" d="M22 14.974c2.133 0 3.862 1.761 3.862 3.933 0 2.173-1.729 3.934-3.862 3.934s-3.862-1.761-3.862-3.934c0-2.172 1.729-3.933 3.862-3.933zm0 1.919c1.094 0 1.98.903 1.98 2.017 0 1.114-.886 2.017-1.98 2.017-1.094 0-1.98-.903-1.98-2.017 0-.535.208-1.048.58-1.426a1.958 1.958 0 0 1 1.4-.591zm0-1.118c1.7 0 3.078 1.404 3.078 3.135 0 1.731-1.378 3.135-3.078 3.135s-3.078-1.404-3.078-3.135c0-.832.323-1.63.9-2.218a3.05 3.05 0 0 1 2.178-.92v.003zm0 1.976c.628 0 1.137.519 1.137 1.159s-.509 1.158-1.137 1.158a1.148 1.148 0 0 1-1.137-1.158 1.161 1.161 0 0 1 .332-.82c.213-.219.503-.341.805-.341v.002zm1.137-3.801c2.474.588 4.12 2.972 3.83 5.541C26.676 22.061 24.54 24 22 24c-2.54 0-4.676-1.94-4.967-4.509-.29-2.57 1.356-4.953 3.83-5.541v-.792A1.15 1.15 0 0 1 22 12a1.15 1.15 0 0 1 1.137 1.158v.792zm-.901-.127c.157 0 .307.014.452.043v-.708a.693.693 0 0 0-.687-.699.693.693 0 0 0-.686.7v.707c.149-.02.3-.035.452-.043v-.665c0-.132.105-.24.235-.24s.236.108.236.24v.665h-.002z"/></g></svg>