<svg xmlns="http://www.w3.org/2000/svg" width="36" height="36"><g fill="none" fill-rule="evenodd"><rect width="36" height="36" fill="#1899FF" rx="3"/><path fill="#FFF" fill-rule="nonzero" d="M13.672 14a.663.663 0 0 0-.672.672v3.434c0 .357.274.672.672.672h6.656a.69.69 0 0 0 .672-.672v-3.434c-.04-.358-.311-.672-.71-.672h-6.618zm2.513 1.194h.635c.158 0 .958-.04.958.996v.398c0 .995-.8.995-.958.995h-.635v-2.389zm-1.468.038h.435l.797 2.351h-.523l-.112-.473h-.684l-.162.473h-.51l.759-2.351zm3.26.037h.56l.398 1.642.398-1.642h.56l-.685 2.314h-.51l-.721-2.314zm-1.27.36v1.481s.557.078.598-.56v-.36c0-.677-.597-.56-.597-.56zm-1.754.287l-.236.796h.473l-.237-.796z"/><path fill="#FFF" fill-rule="nonzero" d="M22 10H12a2 2 0 0 0-2 2v13a2 2 0 0 0 2 2h10a2 2 0 0 0 2-2V12a2 2 0 0 0-2-2zm-5 15a1 1 0 1 1 0-2 1 1 0 0 1 0 2zm5-4H12v-9h10v9z"/></g></svg>