<svg xmlns="http://www.w3.org/2000/svg" width="36" height="36"><g fill="none" fill-rule="evenodd" transform="translate(-.811 -.811)"><rect width="36" height="36" x=".811" y=".811" fill="#0085C4" rx="3"/><path fill="#FFF" fill-rule="nonzero" d="M11 15.755h3.396v11.547H11zm1.688-1.359h-.02c-1.013 0-1.668-.755-1.668-1.699 0-.963.676-1.697 1.708-1.697 1.033 0 1.67.734 1.688 1.697 0 .943-.655 1.7-1.708 1.7zm14.614 12.906h-3.396v-6.18c0-1.494-.832-2.512-2.168-2.512-1.02 0-1.572.687-1.84 1.351-.097.238-.068.896-.068 1.228v6.113h-3.396V15.755h3.396v1.777c.49-.758 1.257-1.777 3.218-1.777 2.43 0 4.253 1.528 4.253 4.94v6.607z"/></g></svg>