<svg xmlns="http://www.w3.org/2000/svg" width="36" height="36"><g fill="none" fill-rule="evenodd"><rect width="36" height="36" fill="#6AE18F" rx="3"/><path fill="#FFF" fill-rule="nonzero" d="M13 8c-1.102 0-2 .898-2 2v16c0 1.102.898 2 2 2h11c1.102 0 2-.898 2-2V10c0-1.102-.898-2-2-2H13zm0 2h11v13H13V10zm5.5 14a1.5 1.5 0 0 1 1.5 1.5V27h-1v-1.5c0-.273-.227-.5-.5-.5s-.5.227-.5.5V27h-1v-1.5a1.5 1.5 0 0 1 1.5-1.5zm0-5.75l-2.057 1.082.393-2.291-1.665-1.623 2.3-.334L18.5 13l1.029 2.084 2.3.334-1.665 1.623.393 2.29L18.5 18.25z"/></g></svg>