<svg width="36" height="36" xmlns="http://www.w3.org/2000/svg"><g fill="none" fill-rule="evenodd"><rect width="36" height="36" rx="3" fill="#F28520"/><path d="M14.677 18.749a1.819 1.819 0 1 1 0 3.637 1.819 1.819 0 0 1 0-3.637zm6.646 0a1.819 1.819 0 1 1-1.285.531 1.819 1.819 0 0 1 1.288-.531h-.003zm-3.63 2.222a3.04 3.04 0 0 1-6.05-.205H9.549v.099c0 4.445 3.781 8.02 8.442 8.02 4.66 0 8.441-3.59 8.441-8.02v-.1h-2.086a3.04 3.04 0 0 1-6.048.206h-.619.014zm-3.016-3.45a3.04 3.04 0 0 1 2.93 2.23h.783a3.04 3.04 0 0 1 5.73-.38H26.3a7.761 7.761 0 0 0-1.268-2.961 10.862 10.862 0 0 1-7.03-3.002 10.862 10.862 0 0 1-7.03 3.002 7.761 7.761 0 0 0-1.268 2.96h2.178a3.04 3.04 0 0 1 2.794-1.849zM18 5.5a12.5 12.5 0 1 1-8.836 3.662 12.5 12.5 0 0 1 8.84-3.659L18 5.5z" fill="#FFF"/></g></svg>