<svg xmlns="http://www.w3.org/2000/svg" width="36" height="36"><g fill="none" fill-rule="evenodd"><rect width="36" height="36" fill="#6A7FE1" rx="3"/><path fill="#FFF" fill-rule="nonzero" d="M8 8v4h4V8H8zm6 0v4h2.563l-.375-1.25L18 10.406V8h-4zm6 0v2l.656 2H24V8h-4zm-.656 2.844l-1.938.594 2.532 8.28.843 2.813s-3.261-.992-3.75-.843c-1.254.378-1.187 1.812-1.187 1.812L22.03 28H28V16.469l-4.063.562a3.773 3.773 0 0 0-1.28.157l-1.282.406-2.031-6.75zM8 14v4h4v-4H8zm6 0v4h4v-1.188L17.156 14H14zm7.281 0l.75 2.344.344-.094a4.684 4.684 0 0 1 1.5-.219H24V14h-2.719zM8 20v4h4v-4H8zm6 0v4h.875l-.031-.438c-.047-.769.285-2.363 1.875-2.843.148-.047.41-.102 1.281.062V20h-4z"/></g></svg>