<svg xmlns="http://www.w3.org/2000/svg" width="36" height="36"><g fill="none" fill-rule="evenodd"><rect width="36" height="36" fill="#FF8A74" rx="3"/><path fill="#FFF" d="M11 26.512V10h7.104c.96 0 1.824.132 2.592.396s1.412.636 1.932 1.116a4.74 4.74 0 0 1 1.188 1.728c.272.672.408 1.408.408 2.208 0 .816-.136 1.572-.408 2.268a5.016 5.016 0 0 1-1.188 1.8c-.52.504-1.164.896-1.932 1.176-.768.28-1.632.42-2.592.42h-3.888v5.4H11zm6.816-13.92h-3.6v5.928h3.6c.512 0 .964-.072 1.356-.216.392-.144.72-.352.984-.624a2.71 2.71 0 0 0 .6-.96c.136-.368.204-.776.204-1.224 0-.432-.068-.828-.204-1.188a2.498 2.498 0 0 0-.6-.924 2.626 2.626 0 0 0-.984-.588 4.131 4.131 0 0 0-1.356-.204z"/></g></svg>