<svg xmlns="http://www.w3.org/2000/svg" width="36" height="36"><g fill="none" fill-rule="evenodd"><rect width="36" height="36" fill="#66D99B" rx="3"/><path fill="#FFF" fill-rule="nonzero" d="M11.75 9a1.33 1.33 0 0 0-.75.313l-1.5 1.28c-.602.5-.695 1.4-.094 2l.438.563-.344 2.625 2 .25.281-2.093 2.094-1.75 2.031.218.188-2-2.563-.281L13 9.5a1.463 1.463 0 0 0-1.25-.5zm5.156 4.594l-1.218 1.094 9.03 8.5A18.538 18.538 0 0 0 22 23c-2.418 0-4.555.43-5.813 1.094L13.5 16.5l-1.313 1L15 25.813h.063C15.5 27.043 18.436 28 22 28c3.867 0 7-1.121 7-2.5 0-.29-.156-.555-.406-.813l-.157-.156c-.011-.008-.019-.023-.03-.031l-11.5-10.906z"/></g></svg>