<svg xmlns="http://www.w3.org/2000/svg" width="36" height="36"><g fill="none" fill-rule="evenodd"><rect width="36" height="36" fill="#B92B27" rx="3"/><path fill="#FFF" d="M14.857 21.502l-.487-.96c3.466-1.502 5.017-.445 6.137 1.136a7.954 7.954 0 0 0 .901-3.768c0-3.41-1.948-6.174-4.337-6.174-2.39 0-4.338 2.765-4.338 6.174 0 3.41 1.949 6.174 4.338 6.174.377 0 .75-.07 1.103-.202-.73-1.461-1.449-2.557-3.324-2.38h.007zM17.071 10c4.457 0 8.07 3.541 8.07 7.91a7.84 7.84 0 0 1-3.112 6.242c.299.48.669.912 1.096 1.281a1.045 1.045 0 0 0 1.635-.73h1.2c.502 2.898-3.845 5.752-6.892.884a8.239 8.239 0 0 1-1.997.243C12.614 25.83 9 22.29 9 17.92S12.624 10 17.08 10h-.01z"/></g></svg>