<svg xmlns="http://www.w3.org/2000/svg" width="36" height="36"><g fill="none" fill-rule="evenodd"><rect width="36" height="36" fill="#FF9602" rx="3"/><path fill="#FFF" fill-rule="nonzero" d="M19.989 9c-1.696 0-2.994 1.414-2.994 3v2.031c-2.113.145-4.016.754-5.552 1.688-.557-.438-1.216-.688-1.871-.688-.725 0-1.43.278-1.934.844-.955 1.195-.87 3.148.468 4.156a4.977 4.977 0 0 0-.093.969c0 2.055 1.24 3.844 3.056 5.063C12.886 27.28 15.319 28 17.993 28c2.674 0 5.107-.719 6.924-1.938 1.816-1.218 3.056-3.007 3.056-5.062 0-.332-.062-.652-.125-.969 1.36-1.086 1.501-3.027.5-4.156-.504-.566-1.21-.844-1.934-.844-.655 0-1.314.25-1.872.688-1.536-.934-3.438-1.543-5.551-1.688V12c0-.613.3-1 .998-1 .32 0 .772.172 1.528.438.67.234 1.56.476 2.713.53.34.618.998 1.032 1.747 1.032a2.001 2.001 0 0 0 0-4c-.725 0-1.364.383-1.715.969a6.996 6.996 0 0 1-2.09-.406C21.505 9.328 20.866 9 19.989 9zm5.988 1c.6 0 .998.398.998 1s-.398 1-.998 1-.998-.398-.998-1 .398-1 .998-1zm-7.984 6c2.316 0 4.374.637 5.8 1.594 1.428.957 2.184 2.16 2.184 3.406s-.756 2.45-2.183 3.406C22.367 25.363 20.309 26 17.993 26c-2.316 0-4.374-.637-5.801-1.594-1.427-.957-2.183-2.16-2.183-3.406s.756-2.45 2.183-3.406c1.427-.957 3.485-1.594 5.8-1.594zm-8.39.031c.332 0 .682.07.998.25-.963.742-1.711 1.657-2.152 2.688-.58-.688-.569-1.778-.062-2.438.296-.336.744-.5 1.216-.5zm16.78 0c.471 0 .92.164 1.216.5.491.555.53 1.645-.063 2.407-.44-1.024-1.196-1.918-2.152-2.657.316-.18.667-.25.998-.25zM14.998 18c-.827 0-1.497.672-1.497 1.5s.67 1.5 1.497 1.5a1.5 1.5 0 0 0 0-3zm5.988 0c-.827 0-1.497.672-1.497 1.5s.67 1.5 1.497 1.5a1.5 1.5 0 0 0 0-3zm1.091 4.406c-.896.801-2.39 1.282-4.085 1.282-1.696 0-3.19-.489-4.086-1.188.5 1.3 2.09 2.5 4.086 2.5 1.996 0 3.586-1.195 4.085-2.594z"/></g></svg>