<svg xmlns="http://www.w3.org/2000/svg" width="36" height="36"><g fill="none" fill-rule="evenodd"><rect width="36" height="36" fill="#66D99B" rx="3"/><path fill="#FFF" fill-rule="nonzero" d="M10 8a2 2 0 0 0-2 2v14c0 1.103.897 2 2 2h6.684a6.926 6.926 0 0 1-.604-2H10V12h14v4.078a6.926 6.926 0 0 1 2 .604V10a2 2 0 0 0-2-2H10zm3.773 5v1.125a2.06 2.06 0 0 0-.722.225c-.216.116-.4.266-.555.449a1.99 1.99 0 0 0-.357.637 2.46 2.46 0 0 0-.127.806c0 .347.047.645.142.893.095.246.229.465.4.652.173.187.377.351.618.494.24.141.506.278.797.408.137.074.252.15.35.225.095.078.177.16.24.25a.871.871 0 0 1 .136.303c.028.11.041.24.041.383 0 .13-.013.25-.04.36a.828.828 0 0 1-.128.284.581.581 0 0 1-.213.188.627.627 0 0 1-.3.068.783.783 0 0 1-.303-.06.626.626 0 0 1-.256-.211 1.168 1.168 0 0 1-.176-.397 2.44 2.44 0 0 1-.064-.62h-1.49c0 .42.053.776.158 1.075.105.301.247.548.424.746.177.2.378.352.605.46.228.106.465.177.711.21V23h.79v-1.047c.266-.034.509-.107.728-.219a1.77 1.77 0 0 0 .558-.433c.154-.18.275-.391.36-.635a2.55 2.55 0 0 0 .125-.826 2.53 2.53 0 0 0-.14-.883 1.997 1.997 0 0 0-.398-.654 2.764 2.764 0 0 0-.615-.496 8.709 8.709 0 0 0-.789-.422 2.918 2.918 0 0 1-.363-.246c-.1-.078-.18-.162-.242-.252a.91.91 0 0 1-.135-.287 1.347 1.347 0 0 1-.041-.35c0-.13.011-.25.033-.361a.943.943 0 0 1 .108-.29.594.594 0 0 1 .183-.195.502.502 0 0 1 .27-.068c.193 0 .35.103.47.309.121.208.18.52.18.94h1.488c0-.344-.038-.655-.117-.933a2.394 2.394 0 0 0-.334-.728 1.847 1.847 0 0 0-.525-.51 2.003 2.003 0 0 0-.69-.268V13h-.795zM23 18c-2.8 0-5 2.2-5 5s2.2 5 5 5c1 0 2-.3 2.8-.8l1.8 1.8 1.4-1.4-1.8-1.8c.5-.8.8-1.8.8-2.8 0-2.8-2.2-5-5-5zm0 2c1.7 0 3 1.3 3 3s-1.3 3-3 3-3-1.3-3-3 1.3-3 3-3z"/></g></svg>