<svg xmlns="http://www.w3.org/2000/svg" width="36" height="36"><g fill="none" fill-rule="evenodd"><rect width="36" height="36" fill="#FF9602" rx="3"/><path fill="#FFF" d="M12.79 11.408h10.463v8.911H12.789v-8.91zm7.01 1.308c.66 0 1.195.555 1.195 1.24 0 .685-.535 1.24-1.195 1.24s-1.196-.555-1.196-1.24c0-.329.126-.645.35-.878.224-.233.528-.364.846-.364v.002zm1.842 5.192v-.363c0-.796-.487-1.505-1.212-1.765a1.761 1.761 0 0 0-2.004.611c.423.399.705.933.8 1.517h2.416zm-4.984-5.317c.786 0 1.424.662 1.424 1.479 0 .816-.638 1.478-1.424 1.478-.787 0-1.425-.662-1.425-1.478 0-.817.638-1.48 1.425-1.48zm2.197 6.19v-.433c0-1.23-.961-2.229-2.148-2.229-1.186 0-2.147.998-2.147 2.23v.431h4.295zm6.23-7.753v9.296h.465a.459.459 0 0 1 .448.465v1.098a.459.459 0 0 1-.448.465h-.367v4.183a.459.459 0 0 1-.448.465H11.262a.459.459 0 0 1-.447-.465v-4.183h-.367a.459.459 0 0 1-.448-.465V20.79a.459.459 0 0 1 .448-.465h.508v-9.296h-.508a.459.459 0 0 1-.448-.465V9.465A.459.459 0 0 1 10.448 9h15.104a.459.459 0 0 1 .448.465v1.098a.459.459 0 0 1-.448.465h-.466z"/></g></svg>