<svg xmlns="http://www.w3.org/2000/svg" width="36" height="36"><g fill="none" fill-rule="evenodd"><rect width="36" height="36" fill="#4BBAFF" rx="3"/><path fill="#FFF" d="M18.5 7.012c1.284 0 2.442.795 2.932 2.014a3.324 3.324 0 0 1-.693 3.553 3.11 3.11 0 0 1-3.46.7c-1.186-.509-1.956-1.7-1.951-3.02 0-1.8 1.42-3.259 3.172-3.259v.012zM9 22.616h19v2.149h-5.892V29H14.9v-4.218H9v-2.166zm2.449-.895h2.544v-1.423a.36.36 0 0 1 .355-.365.36.36 0 0 1 .355.365v1.423h5.853v-2.057a.98.98 0 0 1-.597-.906v-1.356c0-.54.425-.976.95-.976.525 0 .95.437.95.976v1.356a.98.98 0 0 1-.597.906v2.057h1.03v-1.423a.36.36 0 0 1 .354-.365.36.36 0 0 1 .355.365v1.423h2.545v-3.689c-.006-2.035-1.61-3.683-3.59-3.689H20.16l-1.61 4.267-1.696-4.267h-1.803c-1.981.006-3.585 1.654-3.591 3.689v3.689h-.011z"/></g></svg>