<svg xmlns="http://www.w3.org/2000/svg" width="36" height="36"><g fill="none" fill-rule="evenodd"><rect width="36" height="36" fill="#4CC8FF" rx="3"/><path fill="#FFF" fill-rule="nonzero" d="M27 12.734a7.36 7.36 0 0 1-2.121.58 3.706 3.706 0 0 0 1.623-2.042 7.44 7.44 0 0 1-2.344.897 3.693 3.693 0 0 0-6.293 3.366 10.468 10.468 0 0 1-7.611-3.858 3.664 3.664 0 0 0-.501 1.857c0 1.28.65 2.411 1.643 3.073a3.672 3.672 0 0 1-1.672-.462v.046a3.691 3.691 0 0 0 2.962 3.622 3.677 3.677 0 0 1-1.667.064 3.7 3.7 0 0 0 3.448 2.566A7.407 7.407 0 0 1 9 23.97a10.443 10.443 0 0 0 5.66 1.66c6.794 0 10.509-5.627 10.509-10.508 0-.158-.006-.32-.012-.477A7.564 7.564 0 0 0 27 12.735z"/></g></svg>