<svg xmlns="http://www.w3.org/2000/svg" width="36" height="36"><g fill="none" fill-rule="evenodd"><rect width="36" height="36" fill="#BA81EF" rx="3"/><path fill="#FFF" fill-rule="nonzero" d="M18.5 8a3.5 3.5 0 1 0 0 7 3.5 3.5 0 0 0 0-7zm0 7H9c-.55 0-1 .45-1 1v11c0 .55.45 1 1 1h13c.55 0 1-.45 1-1V16c0-.55-.45-1-1-1h-3.5zm-7 0a2.5 2.5 0 1 0 0-5 2.5 2.5 0 0 0 0 5zm16.576 2.006a.996.996 0 0 0-.486.084L25 18.25v6.5l2.59 1.16c.13.06.27.09.41.09.19 0 .38-.05.54-.16.29-.18.46-.5.46-.84v-7a.995.995 0 0 0-.924-.994z"/></g></svg>