<svg xmlns="http://www.w3.org/2000/svg" width="36" height="36"><g fill="none" fill-rule="evenodd"><rect width="36" height="36" fill="#F5A623" rx="3"/><path fill="#FFF" d="M24.655 22.6h1.07v.271h-1.07V22.6zM9.56 10.58h16.874v11.288H9.563V10.58H9.56zm8.666 13.303H16.43l-.267 2.176h-3.025l-.334.941h10.724l-.335-.941H20.17l-.267-2.176h-1.676zm-3.289-7.733a8.741 8.741 0 0 1 6.12 0v3.185H14.94V16.14l-.003.01zm8.366 2.992l.123.479.268.982H22.67l.268-.982.123-.479a.52.52 0 0 1-.38-.495.521.521 0 0 1 .364-.508v-1.632l-1.442.544v-1.26l-.343-.127a9.274 9.274 0 0 0-6.471 0l-.353.122v1.374L11 15.838l6.908-3.683 6.958 3.653-1.558.582v1.738a.52.52 0 0 1 .366.501c0 .231-.15.434-.368.5l-.003.013zM8.484 9h19.032a.491.491 0 0 1 .484.492v13.48a.491.491 0 0 1-.484.492H8.484A.491.491 0 0 1 8 22.972V9.492A.491.491 0 0 1 8.484 9z"/></g></svg>