<svg xmlns="http://www.w3.org/2000/svg" width="24" height="24"><path fill="#FFF" d="M11.23 2v1.538H4.309A2.316 2.316 0 0 0 2 5.846v9.23a2.316 2.316 0 0 0 2.308 2.309h6.923v1.694l-6.13 1.4.337 1.503L12 20.486l6.563 1.496.336-1.502-6.13-1.4v-1.695h6.923A2.316 2.316 0 0 0 22 15.077v-9.23a2.316 2.316 0 0 0-2.308-2.309H12.77V2h-1.538zM4.309 5.077h15.384a.76.76 0 0 1 .77.77v9.23a.76.76 0 0 1-.77.77H4.308a.76.76 0 0 1-.77-.77v-9.23a.76.76 0 0 1 .77-.77zm11.544 1.887l-3.888 3.738L8.9 8.172l-3.762 3.455 1.034 1.13 2.776-2.548 3.09 2.548 3.881-3.726 1.93 1.635.997-1.178-2.993-2.524z"/></svg>