<svg xmlns="http://www.w3.org/2000/svg" viewBox="0 0 191.554 191.554" width="512" height="512"><g fill="#FFF"><path d="M177.824 12.459h-47.199V7.5a7.5 7.5 0 0 0-7.5-7.5 7.5 7.5 0 0 0-7.5 7.5v4.959H75.928V7.5a7.5 7.5 0 0 0-15 0v4.959H13.73a7.5 7.5 0 0 0-7.5 7.5v164.095a7.5 7.5 0 0 0 7.5 7.5h164.094a7.5 7.5 0 0 0 7.5-7.5V19.959a7.5 7.5 0 0 0-7.5-7.5zm-116.896 15v9.877a7.5 7.5 0 0 0 15 0v-9.877h39.697v9.877a7.5 7.5 0 0 0 7.5 7.5 7.5 7.5 0 0 0 7.5-7.5v-9.877h39.699v26.024H21.23V27.459h39.698zM21.23 176.554V68.483h149.094v108.07H21.23z"/><path d="M129.207 107.833l-18.453-2.681-8.252-16.72a7.499 7.499 0 0 0-13.451 0l-8.252 16.72-18.453 2.681a7.498 7.498 0 0 0-4.156 12.792l13.352 13.015-3.152 18.376a7.5 7.5 0 0 0 10.881 7.907l16.504-8.676 16.504 8.676a7.493 7.493 0 0 0 3.489.861h.024a7.5 7.5 0 0 0 7.273-9.324l-3.057-17.821 13.352-13.015a7.503 7.503 0 0 0 1.898-7.688 7.49 7.49 0 0 0-6.051-5.103zm-22.489 17.818a7.496 7.496 0 0 0-2.156 6.638l1.249 7.286-6.544-3.44a7.5 7.5 0 0 0-6.98 0l-6.544 3.44 1.25-7.286a7.499 7.499 0 0 0-2.157-6.638l-5.293-5.16 7.316-1.063a7.5 7.5 0 0 0 5.647-4.103l3.271-6.628 3.271 6.628a7.502 7.502 0 0 0 5.648 4.103l7.315 1.063-5.293 5.16z"/></g></svg>