<svg xmlns="http://www.w3.org/2000/svg" viewBox="0 0 511.997 511.997" width="512" height="512"><path d="M439.208 162.493c-42.656-33.504-84.672-66.976-127.168-100.48-18.432-14.176-27.392-32.192-23.648-55.488.64-5.792-2.592-7.744-8.96-5.792-14.656 4.48-26.752 12.896-33.76 26.432-9.6 19.328-24.8 26.432-44 25.792-28.704-1.312-46.496 14.208-61.792 36.16-16.64 23.296-24.8 50.368-31.168 77.472-7.008 29.056-10.272 58.144-11.424 87.712-1.312 22.624-.64 44.576-1.312 67.072v62.624h281.632v-45.248s2.272-19.04-11.808-32.992c-14.08-13.952-29.024-27.008-29.024-27.008a123.073 123.073 0 0 1-19.424-19.936l-51.936-67.2c3.232 2.624 6.368 5.12 9.6 7.744 15.968 12.224 33.12 17.376 52.832 12.224 11.424-2.624 22.976-1.312 33.12 5.12 5.664 3.776 11.936 7.04 18.24 10.304 14.816 7.68 33.056 4.16 43.712-8.64 6.56-7.872 13.12-15.744 19.68-23.488 8.352-9.888 6.816-24.384-3.392-32.384zM414.312 488.861l-32-64.032a16.026 16.026 0 0 0-14.304-8.832h-256a16.026 16.026 0 0 0-14.304 8.832l-32 64a15.937 15.937 0 0 0 .704 15.552c2.912 4.704 8.064 7.616 13.6 7.616h320c5.536 0 10.688-2.88 13.632-7.584a15.934 15.934 0 0 0 .672-15.552z" fill="#FFF"/></svg>