<svg xmlns="http://www.w3.org/2000/svg" width="512" height="512"><path d="M512 224.039V224c0-.051-.007-.1-.008-.151a8.067 8.067 0 0 0-.031-.621c-.01-.105-.029-.207-.043-.31-.021-.154-.04-.307-.07-.461-.031-.156-.072-.309-.112-.462-.025-.098-.046-.196-.076-.294a8.027 8.027 0 0 0-.209-.594c-.018-.045-.03-.092-.048-.137l-.019-.047-.025-.06-71.955-175.892a7.994 7.994 0 0 0-1.017-1.774C444.22 38.814 448 31.84 448 24c0-13.233-10.766-24-24-24-12.834 0-23.346 10.126-23.97 22.808L283.626 55.844c-7.191-12.289-22.047-18.688-36.361-14.628-8.223 2.333-15.045 7.729-19.209 15.194-2.832 5.075-4.2 10.694-4.055 16.355l-116.623 33.097C103.008 99.889 95.951 96 88 96c-13.234 0-24 10.767-24 24 0 7.537 3.496 14.271 8.948 18.674L.637 316.869l-.02.049-.03.074c-.022.054-.036.109-.057.164-.07.183-.138.368-.194.557-.031.103-.053.207-.08.31-.037.147-.077.294-.106.444-.03.154-.049.307-.07.461-.014.103-.032.204-.042.308a7.953 7.953 0 0 0-.03.597c-.001.056-.008.111-.008.167l.001.056.001.111C.093 368.614 39.533 408 88 408c48.475 0 87.919-39.398 87.998-87.854l.001-.107V320c0-.051-.007-.1-.008-.151a8.067 8.067 0 0 0-.031-.621c-.01-.105-.029-.207-.043-.31-.021-.154-.04-.307-.07-.461-.031-.156-.072-.309-.112-.462-.025-.098-.046-.196-.076-.294a8.027 8.027 0 0 0-.209-.594c-.018-.045-.03-.092-.048-.137l-.019-.047-.025-.06-71.956-175.893a7.994 7.994 0 0 0-1.017-1.774c5.535-4.159 9.221-10.652 9.582-18.005l116.406-33.035a31.73 31.73 0 0 0 4.008 5.398A8.092 8.092 0 0 0 232 96v328c-13.234 0-24 10.767-24 24v16h-40c-13.233 0-24 10.767-24 24v16a8 8 0 0 0 8 8h208a8 8 0 0 0 8-8v-16c0-13.233-10.767-24-24-24h-40v-16c0-13.233-10.766-24-24-24V96c0-.841-.131-1.652-.372-2.414a32.284 32.284 0 0 0 4.318-5.996c2.832-5.075 4.2-10.694 4.055-16.356l116.622-33.097a24.156 24.156 0 0 0 4.326 4.537l-72.311 178.195-.02.049-.03.074c-.022.054-.036.109-.057.164-.07.183-.138.368-.194.557-.031.103-.053.207-.08.31-.038.147-.077.294-.106.444-.03.154-.049.307-.07.461-.014.103-.032.204-.042.308a7.953 7.953 0 0 0-.03.597c-.001.056-.008.11-.008.167l.001.056.001.111C336.093 272.614 375.533 312 424 312c48.475 0 87.919-39.398 87.998-87.854l.002-.107zM424 16c4.411 0 8 3.589 8 8s-3.589 8-8 8-8-3.589-8-8 3.589-8 8-8zM242.027 64.205a15.892 15.892 0 0 1 9.605-7.597 15.948 15.948 0 0 1 4.362-.61c6.971 0 13.399 4.599 15.396 11.629l.001.005.001.003a15.896 15.896 0 0 1-1.421 12.16 15.892 15.892 0 0 1-9.605 7.597c-8.486 2.409-17.35-2.536-19.759-11.02l-.001-.003-.001-.002a15.905 15.905 0 0 1 1.422-12.162zM88 112c4.411 0 8 3.589 8 8s-3.589 8-8 8-8-3.589-8-8 3.589-8 8-8zm68.084 200H152a8 8 0 0 0 0 16h7.559c-3.993 35.949-34.562 64-71.559 64s-67.566-28.051-71.559-64H120a8 8 0 0 0 0-16H19.88l68.126-167.883c.014.972.199 1.958.589 2.912L156.084 312zM288 448v24a8 8 0 0 0 8 8h48c4.411 0 8 3.589 8 8v8H160v-8c0-4.411 3.589-8 8-8h96a8 8 0 0 0 0-16h-40v-16c0-4.411 3.589-8 8-8h48c4.411 0 8 3.589 8 8zm-40-24V102.965a31.805 31.805 0 0 0 8.011 1.039c2.642 0 5.322-.349 7.989-1.038V424h-16zm176-128c-36.997 0-67.566-28.051-71.559-64H456a8 8 0 0 0 0-16H355.88l68.126-167.883c.014.972.199 1.958.589 2.912L492.084 216H488a8 8 0 0 0 0 16h7.559c-3.993 35.949-34.562 64-71.559 64z" fill="#FFF"/></svg>