<svg xmlns="http://www.w3.org/2000/svg" width="24" height="24"><path fill="#FFF" d="M7.613 4.036L5.077 6.578l-.998-.996-1.081 1.086 2.079 2.095 3.618-3.64-1.082-1.087zm3.618 1.51V7.09H22V5.545H11.23zm-3.618 4.672L5.077 12.76l-.998-.997-1.081 1.087 2.079 2.095 3.618-3.64-1.082-1.087zm3.618 1.51v1.545H22v-1.546H11.23zm-6.923 4.636a.769.769 0 0 0-.77.772v3.091a.77.77 0 0 0 .77.773h3.077a.769.769 0 0 0 .769-.773v-3.09a.769.769 0 0 0-.77-.773H4.309zm.769 1.545h1.538v1.546H5.077v-1.546zm6.154 0v1.546H22v-1.546H11.23z"/></svg>