<svg xmlns="http://www.w3.org/2000/svg" width="512" height="512" viewBox="0 0 489.014 489.014"><path d="M483.97 105.709c-2.491-9.958-14.903-13.424-22.157-6.165L402.9 158.458c-13.083 13.077-34.291 13.077-47.372 0l-27.03-27.031c-13.082-13.081-13.082-34.289 0-47.372l58.196-58.197c7.307-7.307 3.751-19.838-6.306-22.193C366.616.447 352.061-.741 337.049.457c-64.522 5.148-123.907 65.649-127.923 130.254-1.521 24.503 3.43 47.667 13.077 68.186L16.253 375.878A44.108 44.108 0 0 0 .93 407.48a44.1 44.1 0 0 0 12.599 32.78l34.902 35.541a44.115 44.115 0 0 0 32.899 13.19 44.137 44.137 0 0 0 31.986-15.271l178.388-206.684c19.917 8.889 42.21 13.424 65.747 11.956 65.041-4.058 125.554-63.92 130.29-128.91 1.122-15.396-.259-30.305-3.771-44.373z" fill="#FFF"/></svg>