<svg xmlns="http://www.w3.org/2000/svg" viewBox="0 0 488.401 488.401" width="512" height="512"><path d="M465.3 145.05h-43.5c-17.7 0-21.8-14.7-12.6-25.3 15.2-17.2 7.1-43-20.2-44.5-27.3 1-35.4 27.3-20.2 44 9.1 10.1 5.1 25.3-12.6 25.3h-42.5c-12.6 0-23.3 10.1-23.3 23.3v55.1H211v-21.8c0-2-2.5-3-4.6-1.5l-51.1 42c-1.5 1.5-1.5 4 0 5.6l51.1 42c2 1.5 4.6 0 4.6-2v-21.8h79.2v55.6c0 12.6 10.1 23.3 23.3 23.3H356c17.7 0 21.8 14.7 12.6 24.8-15.2 17.2-7.1 43 20.2 44 27.3-1 35.4-27.3 20.2-44-9.1-10.1-5.1-24.8 12.6-24.8h43c13.2 0 23.8-10.6 23.8-23.8V276.95c-.5-17.2-15.2-21.2-25.3-12.1-17.2 15.2-43.5 7.1-44.5-20.2 1-27.3 27.3-35.4 44.5-20.2 10.1 9.1 24.8 5.1 25.3-12.1v-44c.1-12.7-10-23.3-23.1-23.3z" fill="#FFF"/><path d="M244.7 145.45h-43.5c-17.7 0-21.8-15.2-12.6-25.3 15.2-17.2 7.1-43.5-20.2-44.5-27.3 1-35.4 26.8-20.2 44 9.1 10.1 5.1 25.3-12.6 25.3H93.1c-13.2 0-23.3 10.6-23.3 23.3v43.5c0 17.7-15.2 21.8-25.3 12.6-17.2-15.2-43.5-7.1-44.5 20.2 1 27.3 27.3 35.4 44 20.2 10.1-9.1 25.3-5.1 25.3 12.6v43c0 13.2 10.6 23.3 23.3 23.3h42.5c17.7 0 21.8 14.7 12.6 24.8-15.2 16.7-7.1 43 20.2 44 27.3-1 35.4-26.8 20.2-44-9.1-10.1-5.1-24.8 12.6-24.8h43c13.2 0 23.8-10.6 23.8-23.8V287.15h-34.4c-.5 13.7-11.7 24.8-25.3 24.8-6.1 0-11.6-2-16.2-5.6l-51.1-42c-6.1-5.1-9.6-12.1-9.6-20.2s3.5-15.2 9.6-20.2l51.6-42c4.6-3.5 10.1-5.6 16.2-5.6 13.7 0 24.8 11.1 25.3 24.8H268v-32.4c0-13.2-10.6-23.3-23.3-23.3z" fill="#FFF"/></svg>