<svg xmlns="http://www.w3.org/2000/svg" width="512" height="512" viewBox="0 0 103.077 103.078"><g fill="#FFF"><path d="M100.954 90.332l-20.859-20.86a7.25 7.25 0 0 0-6.572-1.977l-4.854-4.854c8.204-10.958 7.333-26.606-2.624-36.563-10.917-10.917-28.681-10.917-39.598 0s-10.917 28.681 0 39.598c9.957 9.957 25.605 10.829 36.564 2.624l4.854 4.854a7.227 7.227 0 0 0 1.977 6.571l20.859 20.859a7.25 7.25 0 0 0 10.253-10.252zM60.387 60.017c-7.798 7.798-20.486 7.798-28.283 0-7.799-7.797-7.799-20.485 0-28.284 7.798-7.799 20.486-7.798 28.284 0 7.798 7.799 7.797 20.487-.001 28.284zM15.771 52.083L.438 67.471a1.5 1.5 0 0 0 1.063 2.559c.385 0 .77-.147 1.063-.441l14.38-14.433a29.806 29.806 0 0 1-1.076-3.141c-.032.027-.068.039-.097.068zM63.854 8.892l12.064-4.467-8.729 19.529c.75.852 1.467 1.726 2.104 2.644l9.218-20.623 4.511 11.396a1.502 1.502 0 0 0 2.791-1.104l-5.917-14.95a1.5 1.5 0 0 0-1.915-.854L62.814 6.079a1.501 1.501 0 0 0-.886 1.928 1.503 1.503 0 0 0 1.926.885z"/><path d="M47.254 34.163a1.504 1.504 0 0 0-1.365-.44 1.503 1.503 0 0 0-1.111.909l-9.864 24.243a17.977 17.977 0 0 0 2.659 1.424l9.108-22.385L57.08 48.852a1.502 1.502 0 0 0 2.456-.422l3.027-6.774a17.877 17.877 0 0 0-1.191-4.686l-3.661 8.191-10.457-10.998z"/></g></svg>