<svg xmlns="http://www.w3.org/2000/svg" width="512" height="512" viewBox="0 0 47.001 47.001"><g fill="#FFF"><path d="M34.658 22.375c-.089.09-.172.185-.261.273a19.371 19.371 0 0 1-3.485 2.759c1.608 2.37 2.812 4.805 3.485 7.163 1.02 3.561.685 6.521-.917 8.124-.996.995-2.455 1.502-4.337 1.502-4.782 0-10.932-3.18-16.046-8.296C5.088 25.891 3.087 16.729 6.3 13.514c.996-.996 2.455-1.5 4.337-1.5 3.268 0 7.175 1.485 10.954 4.059a19.52 19.52 0 0 1 2.755-3.476c.091-.092.188-.177.279-.267-4.687-3.266-9.634-5.122-13.988-5.122-3.157 0-5.831 1.006-7.734 2.909C-2.812 15.832.174 27.77 9.7 37.297c6.074 6.077 13.344 9.704 19.443 9.704 3.156 0 5.831-1.007 7.733-2.909 2.914-2.914 3.675-7.475 2.14-12.843-.84-2.949-2.343-5.976-4.358-8.874z"/><path d="M14.691 15.647c-1.678 0-2.717.688-3.294 1.264-.894.894-2.13 2.992-.363 7.008 1 2.272 2.788 4.758 5.035 7.006 3.66 3.662 7.769 5.937 10.721 5.937 1.678 0 2.717-.688 3.293-1.263.894-.895 2.132-2.993.365-7.009a18.33 18.33 0 0 0-1.205-2.242c-3.588 1.782-6.611 1.944-6.794 1.954a3.608 3.608 0 0 1-3.755-3.755c.008-.185.167-3.203 1.945-6.786-2.16-1.339-4.246-2.114-5.948-2.114z"/><path d="M46.961 7.708a1.201 1.201 0 0 0-.81-.857l-4.572-1.435L40.144.841a1.207 1.207 0 0 0-.859-.807c-.408-.1-.84.021-1.138.317l-4.169 4.17a1.201 1.201 0 0 0-.329 1.081l.515 2.613c-2.434 1.178-5.508 3.468-8.119 6.078-4.655 4.656-4.941 10.123-4.951 10.354a1.201 1.201 0 0 0 1.252 1.251c.231-.01 5.698-.296 10.354-4.951 2.608-2.612 4.899-5.688 6.076-8.119l2.615.514c.394.078.797-.046 1.08-.329l4.17-4.17c.297-.295.42-.725.32-1.135z"/></g></svg>