<svg width="452" height="182" xmlns="http://www.w3.org/2000/svg"><g fill-rule="nonzero" fill="#000"><path d="M197.007 52.712c0-1.238.927-2.322 2.162-2.322h29.34c23.163 0 42.157 18.88 42.157 42.092 0 23.367-18.994 42.246-42.157 42.246h-29.34c-1.235 0-2.162-1.083-2.162-2.32V52.711zm31.348 64.22c13.589 0 22.39-10.677 22.39-24.45 0-13.618-8.801-24.295-22.39-24.295h-12.663v48.745h12.663zM280.395 82.114c0-1.548 1.235-2.63 2.625-2.63h5.714c1.39 0 2.162.773 2.47 1.701l2.471 6.19c2.47-4.487 6.64-8.975 13.898-8.975 5.096 0 8.802 1.393 10.81 2.94.926.774.926 1.857.309 2.94l-5.56 10.988c-.617 1.083-1.544 1.857-3.088 1.392-.927-.31-2.934-.773-4.17-.773-4.169 0-7.412 2.94-7.412 7.737v29.247c0 1.703-.926 2.631-2.934 2.631h-12.662c-1.39 0-2.626-1.238-2.626-2.63V82.113M326.721 61.068c0-5.726 4.633-10.678 10.347-10.678 5.713 0 10.5 4.798 10.5 10.678 0 5.726-4.632 10.368-10.5 10.368-5.714 0-10.347-4.797-10.347-10.368zm1.39 20.736c0-1.547 1.236-2.63 2.625-2.63h12.972c1.39 0 2.625 1.083 2.625 2.63v50.448c0 1.393-1.235 2.631-2.625 2.631h-12.972c-1.39 0-2.625-1.238-2.625-2.63V81.803zM365.018 95.268h-4.787c-1.544 0-2.625-1.238-2.625-2.631V81.34c0-1.547 1.08-2.63 2.625-2.63h4.787v-4.643c0-15.01 7.876-25.379 23.935-25.379 7.258 0 14.516 2.94 16.987 5.262.772.619 1.08 2.011.463 3.095l-5.868 10.368c-.618.928-1.853 1.393-2.934.774-1.853-1.084-4.478-2.167-7.258-2.167-6.331 0-6.949 3.56-6.949 7.892v4.643h13.898c1.39 0 2.625 1.083 2.625 2.63v11.142c0 1.393-1.235 2.631-2.625 2.631h-13.898v36.52c0 1.393-1.39 2.631-2.78 2.631h-12.816c-1.39 0-2.626-1.238-2.626-2.63l-.154-36.211M417.058 95.887h-4.632c-1.39 0-2.471-1.238-2.471-2.631V82.114c0-1.548 1.08-2.63 2.47-2.63h4.633V64.007c0-1.392 1.236-2.63 2.625-2.63h13.28c1.39 0 2.471 1.238 2.471 2.63v15.475h11.119c1.39 0 2.625 1.083 2.625 2.63v11.143c0 1.393-1.235 2.63-2.625 2.63h-11.119v19.344c0 2.63 1.39 3.869 3.706 3.869 1.854 0 5.56-.774 6.795-1.238 1.39-.31 2.78.31 3.088 1.702l2.471 10.523c.31 1.702-.309 2.476-1.853 3.095-3.706 1.547-10.037 3.095-15.905 3.095-10.655 0-16.678-6.809-16.678-19.344V95.887"/><g><path d="M91.074.87C41.196.87.892 41.416.892 91.245c0 49.984 40.458 90.373 90.182 90.373 49.878 0 90.182-40.544 90.182-90.373 0-49.829-40.304-90.373-90.182-90.373zm-2.78 113.122c0 1.393-.772 2.63-1.853 3.405-1.235.619-2.625.619-3.706 0l-16.06-9.285v34.818c0 1.393-.772 2.63-1.853 3.405-.618.31-1.235.464-1.853.464-.618 0-1.39-.155-1.853-.464l-9.574-5.571c-1.236-.62-1.853-2.012-1.853-3.405V98.208l-15.442-8.976c-1.236-.619-1.853-2.011-1.853-3.404v-15.32c0-1.393.772-2.631 1.853-3.405a4.245 4.245 0 0 1 3.86 0L86.75 95.577c1.235.619 1.853 2.012 1.853 3.404v15.011h-.309zm.772-60.042c0 1.857-1.08 3.714-2.625 4.642L72.39 66.794c-.463.31-.772.774-.772 1.238v10.523c0 1.083-1.236 1.857-2.162 1.238-5.868-3.405-22.083-12.844-27.95-16.249-.927-.619-.927-2.012 0-2.63l41.848-24.451a4.245 4.245 0 0 1 3.86 0c1.236.619 1.853 2.012 1.853 3.404V53.95zm4.787-14.083c0-1.392.773-2.63 1.853-3.404a4.245 4.245 0 0 1 3.861 0l41.848 24.45c1.081.62 1.081 2.012 0 2.631-5.868 3.405-21.928 12.844-27.95 16.249-1.081.619-2.316-.155-2.316-1.393V68.032c0-.62-.31-1.083-.772-1.393l-14.67-8.666c-1.236-.619-1.854-2.012-1.854-3.404V39.867zm56.364 45.651c0 1.393-.772 2.631-1.853 3.405l-15.442 8.975v39.152c0 1.392-.772 2.63-1.853 3.404l-9.574 5.571c-.618.31-1.235.464-1.853.464-.618 0-1.39-.154-1.853-.464-1.236-.619-1.853-2.012-1.853-3.404v-34.819l-16.06 9.285c-1.236.62-2.625.62-3.706 0-1.236-.619-1.853-2.012-1.853-3.404V98.672c0-1.393.772-2.63 1.853-3.404l48.643-28.474a4.245 4.245 0 0 1 3.86 0c1.236.619 1.853 2.012 1.853 3.404v15.32h-.309z"/></g></g></svg>