<svg xmlns="http://www.w3.org/2000/svg" viewBox="0 0 1317.16 411.09"><path d="M0 334.09c10.14-11 20.67-21.64 30.37-33 50.56-59.23 90.94-124.74 120.32-196.9 12.06-29.62 21.94-60 27.64-91.53.23-1.28 2.3-3.4 3-3.22 2.39.64 6.17-.49 6.53 3.73.11 1.32 0 2.67 0 4v264.48c0 7.07-.51 7.62-7.82 8.36-41.61 4.2-81.5 14.77-119 33.29-13.54 6.68-26.28 15-39.36 22.61a6.59 6.59 0 0 0-2.85 3.24c1.52-.85 3.06-1.65 4.55-2.54 41.92-25.23 87.25-40.77 135.65-47.42 9.88-1.36 19.85-2.14 29.79-3 4.34-.39 6.42-1.92 6.38-6.82-.22-24.66 0-49.33-.17-74a13.38 13.38 0 0 1 3.87-10.16c36.31-38.66 64-82.9 84.55-131.68.44-1 1-2 1.49-3 7.63 1.56 7.63 1.56 7.63 8.82v229c0 8.75-4 12-12.9 10.11a394.21 394.21 0 0 0-90.8-8.41C130 311.21 73.68 323.22 21.12 350.64a4.77 4.77 0 0 0-2.58 2.65c1.37-.51 2.77-1 4.11-1.54a451.75 451.75 0 0 1 133.25-34.64c45.16-4.78 89.75-1.35 133.82 9.39 7.08 1.73 10.19-.67 10.19-7.87 0-38 0-76-.08-114a10.69 10.69 0 0 1 3.81-8.57c22.88-21.84 45.59-43.86 68.36-65.82a9.37 9.37 0 0 1 1.1-.81c4.7.9 5.8 3.7 5.8 8.21q-.21 109-.1 218c0 6.4-4 9.38-10.25 7.28a528.64 528.64 0 0 0-105.79-24.48C243 336 223 334.55 203 333.78A569.66 569.66 0 0 0 26.34 355c-6.24 1.75-12.34 4-18.57 5.78A68.88 68.88 0 0 1 0 362.09v-28zm630 77c13-3.4 21.54-12 27.49-23.52 1.67-3.25 3.17-6.6 4.52-10q22.69-57 45.29-114c1.18-3 2.29-6 3.65-9.58-5 0-9.17.21-13.3-.07-3.27-.22-4.58 1.16-5.64 4.1-8.2 22.66-16.58 45.25-24.88 67.88-2.16 5.88-4.2 11.79-6.47 18.16-.47-1-.71-1.44-.86-1.9q-14.55-42.16-29.14-84.32c-.48-1.39-1.71-3.5-2.7-3.57-5.52-.35-11.08-.17-17.26-.17 1 2.6 1.54 4.3 2.19 6q18.78 48.07 37.51 96.16c.73 1.87 1.45 4.37.81 6a232.69 232.69 0 0 1-9.86 22.87c-4.89 9.49-12.87 12.74-23.44 10.55-1.07-.22-2.19-.23-3.81-.38 0 3.32.22 6.31-.06 9.25-.31 3.31.28 5.77 4 6.52zM484.45 160.32h16V32.53c1.89 5.41 3.23 10.37 5.29 15 16.16 36.33 32.48 72.59 48.66 108.91 1.29 2.89 2.68 4.38 6.2 4.38s4.9-1.6 6.16-4.46q24.17-54.79 48.45-109.54c1.92-4.35 3.33-8.93 4.21-11.34v113.94a64.13 64.13 0 0 0 .12 8c.14 1.14 1.37 3 2.19 3.05 4.93.29 9.88.14 14.83.14V11c-5.77 0-11.24.23-16.68-.08-3.74-.21-5.51 1.17-7 4.6-13.46 30.25-27.17 60.38-40.72 90.59-4 8.86-7.69 17.85-11.62 27-4.31-10.11-8.38-19.91-12.64-29.64q-19.35-44.1-38.9-88.12c-.79-1.77-2.89-4-4.52-4.14-6.45-.48-13-.2-20-.2zM544 358.27c20.92-2.67 38.19-13.34 49.78-31.7 10.2-16.16 12.44-34 11.22-52.71-2.26-34.65-22.93-57.91-57.4-61.38-20-2-40.23-1.36-60.35-1.87a6.54 6.54 0 0 0-1.93.62V360.9c19.95-.77 39.53-.18 58.68-2.63zm-41.46-19.32c0-35.66.07-71.33-.11-107 0-4.64 1.31-6.12 5.89-5.84 11.78.73 23.74.07 35.33 1.85 26.73 4.12 41.56 21.12 43.35 48.16.72 10.85.35 21.69-3.34 32.08-8 22.5-25 33.44-47.84 35.77-10.7 1.1-21.6.19-33 .19-.09-1.96-.24-3.59-.24-5.22zm703.36-184.86c0-26.83.09-53.67-.09-80.5 0-4.24.89-5.95 5.49-5.71 7.48.39 15 0 22.49.13 5 .06 12-1.54 14.31 1 2.64 3 1.22 9.69 1.3 14.78.28 18.48.22 37 .79 55.45.23 7.53 3.09 14.5 9.7 18.88 9.64 6.39 20.13 6 30.7 2.64a4 4 0 0 0 2.34-2.7c.27-3.85.11-7.73.11-11.87-1.38.36-1.86.44-2.31.6-15 5.39-24-.67-24.13-16.44-.1-19.17.09-38.33-.11-57.5 0-4.09 1.36-5.11 5.17-5 6.94.26 13.89.07 21.11.07V54h-19.17c-7 0-7 0-7-7V22.2c-5.13 1.59-9.35 3-13.63 4.2-2.68.75-3.65 2.25-3.56 5.05.19 6.16 0 12.33.08 18.5 0 2.54-.47 4.11-3.51 4.09-12.17-.09-24.33 0-36.49-.17-1.19 0-3.37-1.87-3.37-2.86 0-7.64-.18-15.38 1-22.89 1.53-9.95 9.87-15.25 19.84-13.65 2.59.41 5.12 1.14 8.2 1.84 0-4-.14-7.6 0-11.24.14-2.73-1-3.81-3.6-4.28-22.21-4-38.19 8-41.34 26.2-1.21 7-1.08 14.26-1 21.39.06 4.3-1 6.1-5.56 5.7-4-.36-8.15-.08-12.17-.08v14c4.36 0 8.36.25 12.31-.07 4.12-.33 5.41 1.07 5.38 5.28-.18 27-.09 54-.09 81v6.12h16.79c.02-2.33.02-4.27.02-6.24zm-179.8 200.38c0-18.16-.07-36.32 0-54.48.06-11.3 3.49-21.36 12.23-29 13.15-11.45 33.05-5.06 36.71 11.86a82.2 82.2 0 0 1 1.75 16.33c.21 18.33.08 36.65.08 55v6.15h16.89c0-7.43.08-14.55 0-21.67-.26-18.48-.12-37-1.08-55.42-.57-10.92-4.6-20.92-14.55-27.12-15-9.31-37.28-5.65-48.73 7.84-2.21 2.6-4.16 5.41-6.65 8.66-5.72-14.24-15.93-21.2-30.58-21.41-14.32-.21-24.85 6.67-33.48 18V254c-3.84 0-7.17.28-10.43-.07-4.86-.51-6.56.91-6.51 6.2.27 31.49.13 63 .13 94.47v5.58h16.55a10.24 10.24 0 0 0 .28-1.45q0-30 .05-60c0-7.65 1.6-14.87 5.75-21.39 6-9.5 15-13.36 26.17-11.32 9.26 1.69 15.4 8.4 17.47 19.44a58.31 58.31 0 0 1 1 10.41c.09 19.66 0 39.32.05 59 0 1.76.15 3.53.23 5.52h16.65c.02-2.3.02-4.11.02-5.92zm-58.55-229.35a74.83 74.83 0 0 0 1.16-31.73c-3.27-18.64-12.17-33.39-31.11-39.2-7.61-2.34-16.08-3-24.11-2.7-23.49.78-41.17 15.19-46.49 38.09a90.85 90.85 0 0 0-1.89 25.19c1.62 29.57 22 48.37 51.5 48.32 25.86-.09 44.84-14.09 50.94-37.97zm-17.26-1c-4.2 16-14.72 24.08-31.42 24.84-15.05.68-28.18-7.4-33.5-21.32a55.32 55.32 0 0 1 .23-41c6.15-15.64 19.45-22.63 38-20.76 14.08 1.42 24.7 11.95 27.52 27.56.82 4.57 1.09 9.23 1.72 14.77-.75 4.79-1.12 10.51-2.55 15.93zm213 .39c2-8.9 2-18.48 1.49-27.67-1.43-24.67-16.92-41.75-41.41-45-26-3.48-48.7 6-58.58 30.85-3.69 9.27-4.54 19-4.32 28.9.69 30.76 21.42 51.43 51.64 51.51 26.24.05 45.62-14.01 51.14-38.57zm-17.11-.33c-4 15.71-14.86 24.05-31.52 24.78-15.26.67-28.56-7.73-33.66-21.8a57.08 57.08 0 0 1 .23-40.11c5.77-15.65 19.61-23.05 38.2-21.13 14.18 1.47 25 12.39 27.62 28.08.76 4.58 1 9.24 1.6 14.65-.75 4.76-1.16 10.27-2.51 15.54zM875.89 265.67c15.08.09 24.77 12.27 21.55 27.38-5.17.74-10.47 1.26-15.68 2.28-10.89 2.14-22.05 3.56-32.49 7.09-11.33 3.84-17.12 13.17-18.21 25.2-1.11 12.26 1.71 22.9 12.59 30.06 12.43 8.18 37.58 8.87 50.12-8.14 1.14-1.55 2.34-3.06 4.41-5.78v16.52h16.51c0-26 .71-51.69-.25-77.29-.62-16.55-9.3-26.49-23.24-30.09-16.66-4.3-32.3-.2-47.4 6.77a5.25 5.25 0 0 0-2.48 3.75c-.3 4.59-.12 9.2-.12 14.52 16.4-10.15 22.8-12.35 34.69-12.27zm1.4 81.74a36.62 36.62 0 0 1-15.16.53c-8.29-1.36-13.75-8.31-14.2-16.38-.51-9.16 3.35-16.24 12-18.38 12.31-3.06 24.95-4.83 37.4-7.14 4.21 19.64-4.26 37.03-20.04 41.37zm-136.39 7.26v-55c0-9.3 2.56-17.77 8.92-24.79 7.53-8.31 17.09-10.88 27.72-8.54 10.18 2.24 15 9.87 16.85 19.54a75.09 75.09 0 0 1 1.43 13.36c.16 18.83 0 37.67.18 56.5 0 1.63 1.47 4.54 2.51 4.66 4.56.51 9.22.22 14.27.22 0-6.6.07-12.56 0-18.52-.27-19.48.17-39-1.15-58.42-1-14.23-7.65-25.86-22.43-30.69a39.84 39.84 0 0 0-44.64 14c-.89 1.18-1.86 2.3-2.79 3.45l-1.06-.51v-15.56h-16.35v106h16.54zM1044 60.48c.39-3.81-1.41-5.29-4.65-6.36-11.09-3.63-22.29-4.36-33.35-.54-11.54 4-20.06 11.31-21.85 24.17-2 14.15 3.43 24.69 16.28 31.23 2.67 1.36 5.37 2.64 8 4 5.17 2.66 10.48 5.11 15.45 8.1 6.73 4.06 8.84 9.29 7.31 16.44-1.26 5.93-6 9.56-13.44 10.78-10.7 1.74-20.46-.68-29.59-6.24-1.33-.81-2.68-1.6-4.73-2.81 0 5.6-.14 10.4.1 15.18a4.88 4.88 0 0 0 2.15 3.44c12.91 7.08 39.34 7.88 52.73-3.32 14.4-12.05 14.32-33.81-.79-44.89-4.78-3.5-10.4-5.86-15.67-8.69s-10.63-4.91-15.36-8.21c-7.88-5.48-7.84-17.75.11-23.1a26.53 26.53 0 0 1 11.56-3.85c9-1 17.33 1.82 25.62 6.91.02-4.66-.28-8.48.12-12.24zm207.39 292.35c-.2 3.21 1.1 4.85 4 6 13.86 5.45 27.91 6.19 41.89 1 15.86-5.87 23.42-21.46 18.41-37.11-3.24-10.11-11.67-15-20.37-19.39-6.22-3.16-12.64-5.92-18.8-9.19-5.78-3.07-8-8.41-7.41-14.68.6-6.48 4.6-10.61 10.64-12.54 7.22-2.3 14.49-1.63 21.56.77 3.51 1.19 6.86 2.87 10.65 4.49 0-4.47-.21-8.47.07-12.44.22-3.1-1.15-4.49-3.86-5.4-11.2-3.75-22.51-4.52-33.83-.91-17.84 5.7-26.61 22.34-21 39.36 3.29 10 11.66 14.51 20.19 18.87 6.07 3.1 12.32 5.86 18.2 9.27 6.9 4 9.13 9.31 7.65 16.26-1.37 6.44-5.73 9.88-13.61 11.15-12.42 2-23.32-1.61-34.29-9.5-.05 5.42.15 9.72-.11 13.99zm-12.72-93.06a6.33 6.33 0 0 0-3.19-4.5c-16.9-6.33-33.86-6.14-49.69 2.66-21.8 12.11-28.71 32.56-27.17 55.94 3 45.67 44.33 57.66 75.47 44.13 1.75-.76 4.07-2.53 4.28-4.08.59-4.33.2-8.8.2-13.75-3.6 1.94-6.29 3.58-9.14 4.9-21.16 9.82-44.4.86-51.2-20a52.59 52.59 0 0 1 .5-34.8c5.75-16 18.64-24.72 35.53-24.59 8.76.07 16.49 3.22 24.55 8.05-.02-5.32.28-9.73-.17-13.96zM776 145.61c-22.29 9.34-44.83-.94-50.57-23.41-1.45-5.7-1.62-11.86-1.54-17.8.45-30.47 29.82-48 56.9-34.06 1.68.86 3.33 1.76 5.16 2.72a11.56 11.56 0 0 0 .57-2.08c0-3.66.43-7.38-.11-11-.27-1.82-1.91-4.34-3.51-4.91-18.22-6.49-36-5.67-52.63 4.81-20.64 13-27.37 39.4-22.63 62.81 6.74 33.3 36.82 46.81 68.29 37.67 10.25-3 10.18-3.23 10.17-13.64v-6.24c-3.93 2.03-6.93 3.79-10.1 5.13zm47.8 9c0-17.15-.06-34.3 0-51.45 0-8.81 2-17.16 6.88-24.64 5.38-8.3 12.87-12.27 22.87-10.69 2.71.43 5.37 1.17 8.5 1.87 0-4.78.23-9.27-.15-13.72a4.89 4.89 0 0 0-3.09-3.45c-10.51-1.66-20 .46-26.86 9.25-2.9 3.71-5.12 8-8.28 13V54h-10.16c-6.59 0-6.6 0-6.6 6.39v56.45c0 13.15-.08 26.31.12 39.46 0 1.46 1.53 4 2.55 4.13 4.57.45 9.21.2 14.23.2-.02-2.46-.02-4.26-.02-6.06zm-138.7 5.69v-5.77-94.44c0-1.17.27-2.45-.14-3.46s-1.46-2.4-2.29-2.44c-4.73-.23-9.47-.11-14.32-.11V160.3zm452 193.7v-89.35c0-10.74 0-10.47-10.78-10.81-5-.15-6 1.6-6 6.23.19 31.44.1 62.89.1 94.34 0 1.16-.28 2.44.11 3.46s1.41 2.53 2.22 2.57c4.59.25 9.21.12 14.34.12.01-2.56.01-4.56.01-6.56zM677.27 7.54a10.6 10.6 0 0 0-11.16 10.78c-.09 6.49 4.31 11.1 10.71 11.23A10.85 10.85 0 0 0 688 18.72a10.59 10.59 0 0 0-10.73-11.18zm451.68 200a11 11 0 0 0 .33 22 10.85 10.85 0 0 0 10.8-11.24 10.56 10.56 0 0 0-11.13-10.76z" fill="#2a3281"/></svg>