<svg id="Layer_1" data-name="Layer 1" xmlns="http://www.w3.org/2000/svg" viewBox="0 0 400 240"><defs><style>.cls-1{fill:#3c5a99}</style></defs><rect class="cls-1" x="147.5" y="29" width="105.1" height="105.09" rx="5.8" ry="5.8"/><path d="M220 134.1V93.4h13.7l2-15.9H220V67.4c0-4.6 1.3-7.7 7.9-7.7h8.4V45.5a112.4 112.4 0 0 0-12.2-.6c-12.1 0-20.4 7.4-20.4 21v11.6h-13.8v15.9h13.7v40.7z" fill="#fff" fill-rule="evenodd"/><g><path class="cls-1" d="M37.9 188H18l-3.8 9.5h-12l20.4-46.2h10.6l20.6 46.2h-12zm-16.8-7.7h13.7L27.9 163zM56.4 180.1q0-8 4.3-12.8t11.7-4.8a13.6 13.6 0 0 1 9.8 3.7v-17.4h11v48.7h-9.8l-.5-3.6a13.8 13.8 0 0 1-10.5 4.3 14.9 14.9 0 0 1-11.6-4.8q-4.4-4.8-4.4-13.3zm10.9.7q0 4.8 2 7.4a6.9 6.9 0 0 0 5.8 2.6q5.1 0 7.1-3.6v-13.6q-2-3.6-7.1-3.6-7.8 0-7.8 10.8zM116.9 186.3l7.6-23.1h11.4l-13.8 34.3h-10.4L98 163.2h11.4zM159 198.1q-9 0-14.6-4.6a15.2 15.2 0 0 1-5.6-12.3v-.9a18 18 0 0 1 2.4-9.3 15.9 15.9 0 0 1 6.7-6.3 21.7 21.7 0 0 1 9.9-2.2q8.4 0 13.2 4.4t4.8 12.6v3.7h-26a8.1 8.1 0 0 0 3.2 5.4 10.8 10.8 0 0 0 6.7 2q6.3 0 9.8-3.8l5.4 5a16.1 16.1 0 0 1-6.6 4.6 25.3 25.3 0 0 1-9.3 1.7zm-1.2-28.2a7.5 7.5 0 0 0-5.3 1.8 8.9 8.9 0 0 0-2.6 5.3h15.2v-.7a6.2 6.2 0 0 0-2-4.7 7.8 7.8 0 0 0-5.4-1.7zM204.9 171.8l-3.9-.3q-6.2 0-8.1 3.5v22.5H182v-34.3h10.3l.3 4.1a10.5 10.5 0 0 1 9.1-4.7 13.5 13.5 0 0 1 3.4.4zM225.1 154.7v8.4h7v6.7h-7V187a3.6 3.6 0 0 0 .9 2.7 4.9 4.9 0 0 0 3.3.8l3.2-.2v7a26.4 26.4 0 0 1-6.6.8q-11.5 0-11.7-9.7v-18.5h-6v-6.7h6v-8.4zM238 154.3a4.2 4.2 0 0 1 1.6-3.4 8.1 8.1 0 0 1 8.9 0 4.3 4.3 0 0 1 0 6.8 8 8 0 0 1-8.9 0 4.2 4.2 0 0 1-1.6-3.4zm11.6 43.2h-10.9v-34.3h10.9zM280.7 188a3 3 0 0 0-2-2.7 25.5 25.5 0 0 0-6.4-1.7q-14.6-2.6-14.6-10.4 0-4.6 4.5-7.6t11.8-3.1q7.8 0 12.4 3.1t4.7 8h-10.8a4.1 4.1 0 0 0-1.5-3.3 7.2 7.2 0 0 0-4.7-1.3 7.4 7.4 0 0 0-4.3 1 3.1 3.1 0 0 0-1.5 2.7 2.8 2.8 0 0 0 1.7 2.5 20 20 0 0 0 5.8 1.6 54.6 54.6 0 0 1 6.9 1.5q8.6 2.7 8.6 9.2 0 4.7-4.8 7.6t-12.4 2.9a25.1 25.1 0 0 1-9.1-1.5 15.1 15.1 0 0 1-6.2-4.2 8.8 8.8 0 0 1-2.3-5.8h10.3a4.6 4.6 0 0 0 2.1 3.7 9.7 9.7 0 0 0 5.4 1.3 9.1 9.1 0 0 0 4.7-1 3 3 0 0 0 1.7-2.5zM298.2 154.3a4.2 4.2 0 0 1 1.6-3.4 8.1 8.1 0 0 1 8.9 0 4.3 4.3 0 0 1 0 6.8 8 8 0 0 1-8.9 0 4.2 4.2 0 0 1-1.6-3.4zm11.6 43.2h-10.9v-34.3h10.9zM328.8 163.2l.3 4q4.4-4.6 11.7-4.6t9.7 3.2q3.2 3.2 3.2 9.6v22.2h-10.8v-22a5.4 5.4 0 0 0-1.5-4.2q-1.5-1.3-5-1.3a7.9 7.9 0 0 0-6.9 3.3v24.2h-10.9v-34.4zM360.5 180.1q0-7.9 4.5-12.7t12.1-4.8q6.7 0 10.4 3.9l.5-3.2h9.9v33.2a12.9 12.9 0 0 1-2.4 7.8 15.1 15.1 0 0 1-6.8 5.1 28 28 0 0 1-10.3 1.7 26.1 26.1 0 0 1-8.8-1.5 15.7 15.7 0 0 1-6.4-3.9l4.8-5.6a13.9 13.9 0 0 0 9.9 3.8 10.5 10.5 0 0 0 6.8-2 6.7 6.7 0 0 0 2.4-5.5v-1.8a13.8 13.8 0 0 1-9.9 3.6 15.6 15.6 0 0 1-11.9-4.8q-4.5-4.8-4.5-12.8zm10.9.7a11.1 11.1 0 0 0 2.2 7.3 7.5 7.5 0 0 0 6.1 2.7q5 0 7.1-3.1v-14.6q-2.2-3.1-7.1-3.1a7.6 7.6 0 0 0-6.2 2.7q-2.1 2.7-2.1 8.1z"/></g></svg>