<svg xmlns="http://www.w3.org/2000/svg" version="1.1" id="Layer_1" x="0" y="0" viewBox="26 -29 256 186.355" xml:space="preserve" width="256" height="186.355"><style type="text/css" id="style4345">.st1,.st2{fill:#757575}.st2{fill-rule:evenodd;clip-rule:evenodd}</style><linearGradient id="SVGID_1_" gradientUnits="userSpaceOnUse" x1="103.252" y1="39.101" x2="119.015" y2="39.101"><stop offset="0" id="stop4386" stop-color="#e96f0b"/><stop offset="1" id="stop4388" stop-color="#f37901"/></linearGradient><g id="g4398" transform="translate(-107.033 -52.668) scale(2.72051)"><path id="path4349" d="M97.5 66.4l1.6 4.2H96l1.5-4.2zm-.6-1.4l-3.5 9.2h1.3l.9-2.5h3.9l.9 2.5h1.3L98.2 65h-1.3z" class="st1" fill="#757575"/><path id="path4351" d="M115.8 74.2h1.2V65h-1.2v9.2z" class="st1" fill="#757575"/><path id="path4353" d="M103.5 68.8c.4-.6 1.2-1.1 2-1.1 1.6 0 2.4 1.1 2.4 2.7v3.9h-1.2v-3.7c0-1.3-.7-1.8-1.6-1.8-1 0-1.7 1-1.7 1.9v3.5h-1.2v-6.4h1.2l.1 1z" class="st1" fill="#757575"/><path id="path4355" d="M108.9 72.3c0-1.4 1.3-2.2 2.8-2.2.9 0 1.5.2 1.7.4v-.2c0-1-.8-1.5-1.6-1.5-.7 0-1.3.3-1.5.9l-1.1-.5c.2-.6 1-1.5 2.6-1.5 1.5 0 2.8.9 2.8 2.7v3.8h-1.1v-.9h-.1c-.3.5-1 1.1-2.1 1.1-1.3 0-2.4-.8-2.4-2.1m4.5-.8s-.5-.4-1.5-.4c-1.2 0-1.7.7-1.7 1.2 0 .7.7 1 1.3 1 .9 0 1.9-.8 1.9-1.8" class="st1" fill="#757575"/><path id="path4357" d="M118.7 77l1.4-3.3-2.5-5.8h1.2l1.9 4.4 1.9-4.4h1.2l-3.9 9.1h-1.2z" class="st2" clip-rule="evenodd" fill="#757575" fill-rule="evenodd"/><path id="path4359" d="M136.3 70c-.3-.8-1-1.3-1.7-1.3-1 0-1.9.9-1.9 2.2 0 1.3.9 2.2 1.9 2.2.7 0 1.4-.5 1.7-1.2l1 .6c-.5 1.1-1.5 1.8-2.7 1.8-1.7 0-3.1-1.5-3.1-3.4 0-2 1.4-3.4 3.1-3.4 1.2 0 2.2.7 2.7 1.8l-1 .7z" class="st2" clip-rule="evenodd" fill="#757575" fill-rule="evenodd"/><path id="path4361" d="M140.6 74.4c1.6 0 2.4-.9 2.4-2 0-2.4-3.5-1.5-3.5-2.9 0-.5.4-.8 1.1-.8.7 0 1.4.3 1.7.8l.7-.7c-.4-.5-1.5-1.2-2.5-1.2-1.5 0-2.3.9-2.3 2 0 2.3 3.6 1.5 3.6 2.7 0 .6-.4 1-1.2 1-.8 0-1.2-.5-1.6-1l-.9.7c.6.6 1.5 1.4 2.5 1.4z" class="st1" fill="#757575"/><path id="path4363" d="M129.2 74.2h1.2v-6.4h-1.2v6.4z" class="st1" fill="#757575"/><path id="path4365" d="M129.7 64.7c.5 0 .8.4.8.8 0 .5-.4.8-.8.8s-.8-.4-.8-.8.4-.8.8-.8z" class="st2" clip-rule="evenodd" fill="#757575" fill-rule="evenodd"/><path id="path4367" d="M128 73.2l.2.9H127c-1.1 0-1.6-.8-1.6-2V69h-1.2v-1.2h1.2v-1.9h1.2v1.9h1.4V69h-1.4v3.3c0 .9.7.9 1.4.9z" class="st2" clip-rule="evenodd" fill="#757575" fill-rule="evenodd"/><path id="path4369" d="M54.3 68.7v1.5h3.5c-.1.8-.4 1.4-.8 1.8-.5.5-1.3 1.1-2.7 1.1-2.1 0-3.8-1.7-3.8-3.9 0-2.1 1.7-3.9 3.8-3.9 1.2 0 2 .5 2.6 1l1-1c-.9-.8-2-1.5-3.6-1.5-2.9 0-5.4 2.4-5.4 5.3s2.5 5.3 5.4 5.3c1.6 0 2.8-.5 3.7-1.5 1-1 1.3-2.3 1.3-3.4 0-.3 0-.7-.1-.9h-4.9z" class="st1" fill="#757575"/><path id="path4371" d="M63.2 67.5c-1.9 0-3.4 1.4-3.4 3.4s1.5 3.4 3.4 3.4 3.4-1.5 3.4-3.4c0-2-1.5-3.4-3.4-3.4zm0 5.5c-1 0-1.9-.9-1.9-2.1 0-1.2.9-2.1 1.9-2.1 1 0 1.9.8 1.9 2.1s-.9 2.1-1.9 2.1z" class="st1" fill="#757575"/><path id="path4373" d="M79.6 68.2c-.4-.4-1-.8-1.9-.8-1.7 0-3.2 1.5-3.2 3.4s1.5 3.4 3.2 3.4c.8 0 1.5-.4 1.8-.8h.1v.5c0 1.3-.7 2-1.8 2-.9 0-1.5-.7-1.7-1.2l-1.3.5c.4.9 1.4 2 3 2 1.8 0 3.3-1 3.3-3.6v-6.2h-1.4v.8zM77.9 73c-1 0-1.8-.9-1.8-2.1 0-1.2.8-2.1 1.8-2.1s1.8.9 1.8 2.1c0 1.2-.8 2.1-1.8 2.1z" class="st1" fill="#757575"/><path id="path4375" d="M70.6 67.5c-1.9 0-3.4 1.4-3.4 3.4s1.5 3.4 3.4 3.4 3.4-1.5 3.4-3.4c.1-2-1.5-3.4-3.4-3.4zm0 5.5c-1 0-1.9-.9-1.9-2.1 0-1.2.9-2.1 1.9-2.1 1 0 1.9.8 1.9 2.1s-.9 2.1-1.9 2.1z" class="st1" fill="#757575"/><path id="path4377" d="M82.2 63.9h1.5v10.4h-1.5V63.9z" class="st1" fill="#757575"/><path id="path4379" d="M87.8 73c-.8 0-1.3-.4-1.7-1l4.6-1.9-.2-.4c-.3-.8-1.2-2.2-2.9-2.2-1.8 0-3.2 1.4-3.2 3.4 0 1.9 1.5 3.4 3.4 3.4 1.6 0 2.5-1 2.9-1.5l-1.2-.8c-.4.6-.9 1-1.7 1zm-.1-4.2c.6 0 1.1.3 1.3.8l-3.1 1.3c0-1.5 1-2.1 1.8-2.1z" class="st1" fill="#757575"/><path id="path4381" d="M93.8 54.9H76.7c-2.1 0-3.8-1.7-3.8-3.8v-8.2c0-2.1 1.7-3.8 3.8-3.8h10.8v-12c0-2.1 1.7-3.8 3.8-3.8h12v31.5h-9.5z" clip-rule="evenodd" fill="#ffc517" fill-rule="evenodd"/><path id="path4383" d="M115.3 54.9h-12V12.5c0-2.1 1.7-3.8 3.8-3.8h8.2c2.1 0 3.8 1.7 3.8 3.8v38.6c-.1 2.1-1.8 3.8-3.8 3.8z" clip-rule="evenodd" fill="#f57e02" fill-rule="evenodd"/><path id="path4390" d="M119 39.1v12c0 2.1-1.7 3.8-3.8 3.8h-12V23.3L119 39.1z" clip-rule="evenodd" fill="url(#SVGID_1_)" fill-rule="evenodd"/></g></svg>