<svg xmlns="http://www.w3.org/2000/svg" viewBox="0 0 614.6 134.2"><path d="M50.6 27.1c-11.9 0-18.8 5.4-22.1 9-.4-3.2-2.5-7.3-10.7-7.3H0v18.6h7.3c1.2 0 1.6.4 1.6 1.6v85.1h21.2v-31.9-2.4c3.3 3 9.6 7.2 19.5 7.2 20.7 0 35.2-16.4 35.2-40 .1-23.8-13.7-39.9-34.2-39.9m-4.3 61.5c-11.4 0-16.6-10.9-16.6-21.1 0-16 8.7-21.7 16.9-21.7 10 0 16.8 8.6 16.8 21.5 0 14.7-8.6 21.3-17.1 21.3m67.1-3.4c0 1.2.5 1.6 1.6 1.6h7.3v18.5h-19c-7.6 0-11.2-3.6-11.2-11.3V49.1c0-1.2-.4-1.6-1.6-1.6h-7.3V28.8h19c7.5 0 11.2 3.7 11.2 11.3v45.1m55.4-58.1c-11.9 0-18.8 5.4-22.2 9-.4-3.2-2.5-7.3-10.7-7.3h-17.8v18.6h7.3c1.2 0 1.6.4 1.6 1.6v85.1h21.2v-31.9-2.4c3.3 3 9.7 7.2 19.5 7.2 20.7 0 35.2-16.4 35.2-40 .2-23.8-13.6-39.9-34.1-39.9m-4.3 61.5c-11.4 0-16.6-10.9-16.6-21.1 0-16 8.7-21.7 16.9-21.7 10 0 16.8 8.6 16.8 21.5-.1 14.7-8.6 21.3-17.1 21.3M243 27.1c-22.9 0-38.8 16.5-38.8 40 0 23.2 17.2 40 41 40 18.7 0 30.1-11.1 30.6-11.5l.9-.8-9.2-15.3-1.4 1.3c-.1.1-8.5 7.8-19.6 7.8-10.6 0-18.4-6.5-20.3-16.7h50.3l.1-1.4c0-.2.5-4.7.5-6.9 0-21.9-13.7-36.5-34.1-36.5M227 56c2.3-7.5 8.1-11.8 16-11.8 6.4 0 11.3 4.9 12.2 11.8H227zm127.3 29.2V11.3C354.3 3.7 350.6 0 343 0h-19v18.6h7.3c1.2 0 1.6.4 1.6 1.6v13.4c-3.1-2.8-9.2-6.5-19.8-6.5-20.6 0-35 16.5-35 40 0 23.9 13.8 40 34.2 40 11.7 0 18.5-5.4 21.8-9.2.4 3.3 2.6 7.5 10.5 7.5H363V86.9h-7.1c-1.2 0-1.6-.5-1.6-1.7m-37.9 3.4c-10.1 0-16.6-8.4-16.6-21.5 0-12.7 6.8-21.2 16.9-21.2 11.5 0 16.6 10.6 16.6 21.1 0 15.9-8.7 21.6-16.9 21.6m93.9-60.8c1.7 0 3.5.3 3.6.3l1.3.2v21.1l-1.8-.3s-1.8-.3-4.2-.3c-6.9 0-15.4 3.8-18.5 14.3-1 3.6-1.5 7.5-1.5 11.5v30.6H368V49.1c0-1.2-.4-1.6-1.6-1.6h-7.3V28.8h18.2c7.5 0 11.3 3.5 11.3 10.5V41c4.7-8.1 12.8-13.2 21.7-13.2m35 57.4c0 1.2.5 1.6 1.6 1.6h7.3v18.5h-19c-7.6 0-11.2-3.6-11.2-11.3V49.1c0-1.2-.4-1.6-1.6-1.6H417V28.8h17.2c7.5 0 11.2 3.7 11.2 11.3v45.1m80-37.8h-3.3c-1.7 0-2.2.6-2.6 1.6l-21.4 56.3h-23.9L452.9 49c-.4-1-.9-1.6-2.6-1.6h-3.1V28.8h12c6.7 0 10.1 2.2 12.3 7.9l13.8 38.6c.5 1.4 1 3.1 1.4 4.6.4-1.5.8-3.1 1.3-4.6l13.8-38.6c2.1-5.6 5.6-7.9 12.3-7.9h11.3v18.6zM562 27.1c-22.9 0-38.8 16.5-38.8 40 0 23.2 17.2 40 41 40 18.7 0 30.1-11.1 30.6-11.5l.9-.8-9.2-15.3-1.4 1.3c-.1.1-8.5 7.8-19.5 7.8-10.6 0-18.4-6.5-20.3-16.7h50.3l.1-1.4c0-.2.4-4.7.4-6.9 0-21.9-13.7-36.5-34.1-36.5M545.9 56c2.3-7.5 8.1-11.8 16-11.8 6.4 0 11.3 4.9 12.2 11.8h-28.2zm-434-36.1H93V0h18.9v19.9zm332 0H425V0h18.9v19.9zm151.8 7.2h7.7v1.7h-2.8v7.7h-2.1v-7.7h-2.8v-1.7zm18.9 0v9.4h-1.9v-6.7l-2.3 6.7h-1.6l-2.3-6.6v6.6h-1.9v-9.4h2.9l2.2 6.5 2.1-6.5h2.8z" fill="#203232"/></svg>