<svg xmlns="http://www.w3.org/2000/svg" width="231" height="26"><g fill="none" fill-rule="evenodd"><path fill="#004683" d="M51.2 1.825c-1.423.552-2.524 1.321-3.303 2.31-.778.99-1.168 2.134-1.168 3.427 0 2.598 1.563 4.64 4.685 6.128.96.458 2.195.937 3.707 1.426 1.512.495 2.57.969 3.17 1.43.602.46.9 1.1.9 1.925 0 .727-.278 1.291-.835 1.692-.558.4-1.315.602-2.277.602-1.5 0-2.585-.297-3.252-.89-.67-.593-1.002-1.516-1.002-2.766H46c0 1.54.4 2.9 1.2 4.083.8 1.181 1.992 2.112 3.577 2.79 1.582.68 3.351 1.02 5.304 1.02 2.77 0 4.95-.58 6.538-1.747C64.208 22.086 65 20.481 65 18.44c0-2.555-1.3-4.562-3.905-6.015-1.07-.599-2.437-1.159-4.105-1.677-1.663-.52-2.828-1.02-3.491-1.508-.663-.487-.992-1.03-.992-1.63 0-.683.3-1.248.901-1.69.602-.445 1.42-.668 2.459-.668 1.025 0 1.84.263 2.441.787.6.525.903 1.262.903 2.214H65c0-1.421-.379-2.69-1.14-3.794-.762-1.107-1.83-1.96-3.203-2.559-1.376-.6-2.928-.899-4.66-.899-1.775 0-3.375.275-4.798.825M72 1v24h15.969v-4.452h-10.38v-5.735h8.789v-4.285h-8.79V5.467H88V1m7 0v24h5.682v-8.488h3.072L107.915 25H114v-.248l-4.918-9.69c1.412-.681 2.449-1.569 3.113-2.667.663-1.1.995-2.483.995-4.15 0-2.306-.788-4.09-2.363-5.352C109.252 1.63 107.068 1 104.275 1H95zm5.682 4.45h3.592c1.067 0 1.877.294 2.427.885.552.589.826 1.402.826 2.437s-.271 1.84-.818 2.419c-.545.58-1.356.869-2.435.869h-3.592V5.45zM120 1v24h5.818v-8.144h3.717c2.937 0 5.25-.7 6.937-2.1 1.684-1.4 2.528-3.273 2.528-5.613 0-1.583-.389-2.998-1.17-4.245-.78-1.248-1.879-2.209-3.298-2.883-1.421-.678-3.055-1.015-4.9-1.015H120zm5.818 4.467h3.881c1.049.011 1.878.352 2.486 1.021.607.672.91 1.566.91 2.686 0 1.024-.293 1.815-.885 2.376-.592.561-1.45.841-2.578.841h-3.814V5.467z"/><path fill="#006EC2" d="M148.196 1.825c-1.423.552-2.522 1.321-3.3 2.31-.78.99-1.169 2.134-1.169 3.427 0 2.598 1.561 4.64 4.684 6.128.96.458 2.196.937 3.707 1.426 1.512.495 2.567.969 3.17 1.43.6.46.902 1.1.902 1.925 0 .727-.279 1.291-.836 1.692-.56.4-1.316.602-2.276.602-1.5 0-2.583-.297-3.252-.89-.667-.593-1-1.516-1-2.766H143c0 1.54.4 2.9 1.2 4.083.8 1.181 1.992 2.112 3.576 2.79 1.581.68 3.349 1.02 5.302 1.02 2.77 0 4.949-.58 6.538-1.747 1.59-1.169 2.384-2.774 2.384-4.816 0-2.555-1.303-4.562-3.905-6.015-1.072-.599-2.44-1.159-4.105-1.677-1.667-.52-2.832-1.02-3.492-1.508-.662-.487-.993-1.03-.993-1.63 0-.684.299-1.248.9-1.691.601-.445 1.421-.667 2.46-.667 1.025 0 1.837.263 2.442.787.598.524.9 1.26.9 2.213h5.79c0-1.421-.38-2.69-1.14-3.794-.76-1.107-1.829-1.96-3.203-2.56S154.727 1 152.998 1c-1.778 0-3.38.275-4.802.825M166 1v4.467h7.051V25h5.768V5.467H186V1m9.76 0L187 25h6.152l1.379-4.484h7.89L203.815 25H210l-8.827-24h-5.414zm2.707 6.725l2.576 8.325h-5.135l2.558-8.325zM211 1v4.467h7.051V25h5.768V5.467H231V1"/><path fill="#004683" d="M36.25 0H12.883l.001.006a.739.739 0 1 0-.485 1.28l-.003.004 5.058 5.024c.294.293.294.77 0 1.063l-8.322 8.275a.454.454 0 0 0 .104.72l1.035.56c.19.104.488.083.674-.028a1.668 1.668 0 0 1 1.498-.122c.108.044.232.03.319-.05l1.975-1.79c-.002-.036-.011-.072-.011-.11a1.718 1.718 0 1 1 3.383-.435l1.915.815a.19.19 0 0 0 .178-.022 1.69 1.69 0 0 1 .97-.31c.172 0 .338.029.494.077a.165.165 0 0 0 .166-.037l3.308-3.231a.248.248 0 0 0 .071-.181c-.029-1.697 1.221-1.894 1.713-1.91.746-.028 1.373.487 1.604 1.162a.23.23 0 0 0 .137.14l2.096.718c.08.028.163.006.226-.05a1.705 1.705 0 0 1 1.149-.445c.157 0 .43.1.589-.074l4.158-4.248a.392.392 0 0 0 .113-.276V.752A.744.744 0 0 0 36.25 0"/><path fill="#006EC2" d="M36.988 10.253a.252.252 0 0 0-.433-.176l-2.681 2.738a.259.259 0 0 0-.068.226c.069.45-.023.954-.62 1.508-.315.293-.715.494-1.145.484a1.732 1.732 0 0 1-1.549-1.071.25.25 0 0 0-.145-.142l-2.216-.76a.235.235 0 0 0-.223.045 1.722 1.722 0 0 1-1.09.39 1.69 1.69 0 0 1-.533-.094s-2.528 2.452-3.427 3.338c-.11.11-.11.118-.086.34a1.735 1.735 0 1 1-3.416.429.256.256 0 0 0-.143-.175l-1.645-.699a.245.245 0 0 0-.25.037 1.713 1.713 0 0 1-1.582.272.294.294 0 0 0-.289.054l-2.002 1.814a.365.365 0 0 0-.114.237 1.728 1.728 0 1 1-3.292.555.807.807 0 0 0-.354-.356l-2.254-1.22a.455.455 0 0 0-.537.078L.223 24.71l-.002.002-.01.01h.003A.753.753 0 0 0 .754 26H22.63c.419 0 1.004-.241 1.302-.536l.43-.427.012-.012 5.134-5.099a.769.769 0 0 1 1.078 0l5.12 5.088A.754.754 0 0 0 37 24.492l-.014-14.237z"/></g></svg>