<svg xmlns="http://www.w3.org/2000/svg" width="220" height="55"><g font-size="48" font-weight="400" letter-spacing="0" word-spacing="0" font-family="SQ Market"><path style="text-align:start;line-height:110.00000237999999797%;-inkscape-font-specification:SQ Market" d="M110.096 19.063c-2.159.062-4.217.936-5.906 2.25-.604.431-1.34 1.144-1.738 1.79-.865 1.186-1.6 2.454-2.014 3.87-1.198 3.957-.985 8.437.932 12.131.746 1.314 1.546 2.454 2.726 3.427.957.596 2.07 1.381 3.256 1.69 3.243 1.03 7.002.5 9.713-1.596.678-.421 1.296-1.232 1.843-1.906-.04-.177.52-.903.563-.338-.002 4.023.002 8.082 0 12.119h3.656V19.625h-3.656V24c-.655-.96-1.233-2.01-2.156-2.625-2.018-1.62-4.622-2.516-7.219-2.312zm1.281 3.312c1.679-.004 3.583.47 4.781 1.531.956.774 1.67 1.592 2.187 2.73 1.367 2.938 1.488 6.433.42 9.485-.478 1.476-1.4 2.723-2.607 3.691-1.776 1.52-4.35 1.774-6.597 1.382-1.487-.255-2.75-1.106-3.705-2.238-1.78-1.953-2.287-4.78-2.254-7.368.09-2.247.521-4.604 1.9-6.432.929-1.148 2.143-2.14 3.631-2.492.723-.234 1.487-.31 2.244-.289zM83.238 9.656c-2.782.112-5.614.841-7.844 2.563-.458.304-.964.852-1.28 1.329-1.36 1.718-2.056 3.951-1.84 6.146.079 1.596.668 3.148 1.745 4.337.315.475.924 1.015 1.42 1.326 2.878 2.238 6.622 2.654 10.02 3.671 2.121.646 4.578 1.084 5.966 2.972 1.176 1.436 1.143 3.594.5 5.281-.55 1.382-1.75 2.37-3.031 3.063-2.682 1.16-5.788 1.084-8.562.308a10.72 10.72 0 0 1-5.3-3.604c-.348-.566-.657-.93-1.2-.277l-2.47 1.729c.662 1.038 1.443 2.035 2.376 2.75 1.596 1.22 3.327 2.3 5.29 2.807 3.674 1.094 7.751.98 11.303-.495 1.434-.748 2.804-1.505 3.818-2.761 1.312-1.55 2.154-3.725 2.195-5.844.107-2.035-.55-4.098-1.888-5.645-.255-.402-.715-.813-1.158-1.07-.668-.594-1.425-.966-2.244-1.41-3.656-1.828-7.824-2.223-11.558-3.821-1.144-.568-2.289-1.356-2.883-2.511-.89-1.973-.197-4.47 1.544-5.721 1.521-1.219 3.61-1.577 5.537-1.591 3.348-.035 6.742 1.425 8.762 4.124l3-2.25c-.877-1.22-1.973-2.167-3.173-2.976-2.65-1.742-5.876-2.593-9.045-2.43zM129.298 35.563c.004 2.147.44 4.378 1.75 6.124.573.932 1.703 1.672 2.707 2.22 2.625 1.215 5.775 1.03 8.374-.161 1.183-.64 2.32-1.438 3.075-2.465.347-.32.737-1.226.938-1.275v4.15h3.656V19.625h-3.656c-.026 5.01.059 10.023-.063 15.031-.295 2.017-1.212 3.964-2.875 5.188-2.016 1.536-4.937 1.91-7.312.968-1.664-.747-2.612-2.573-2.73-4.366-.287-3.137-.084-6.294-.145-9.44v-7.381h-3.719v15.938zM164.813 19.063c-3.174.103-6.318 1.134-8.907 2.968l1.594 2.688c2.155-1.654 4.927-2.33 7.606-2.438 1.952-.026 4.25.347 5.372 2.078.64 1.175.494 2.86-.603 3.703-.92.883-2.48 1.246-3.813 1.5-2.527.465-5.177.565-7.55 1.635-1.066.499-2.055 1.233-2.668 2.178-1.311 1.625-1.403 3.88-1.014 5.85.222 1.112.792 2.081 1.482 2.962.363.54 1.082.9 1.688 1.344 2.286 1.306 5.091 1.412 7.632.92 1.497-.34 2.878-1.109 3.955-2.084.565-.365.674-.977 1.163-1.336.469.128.104.88.219 1.25v1.875h3.531c-.026-6.364.06-12.731-.063-19.093-.285-1.746-1.213-3.551-2.738-4.4-1.996-1.309-4.527-1.734-6.887-1.6zm6.03 11.562c-.1 2.56.416 5.327-.864 7.679-1.053 1.91-3.143 3.037-5.297 3.204-1.91.16-4.137-.08-5.432-1.633-.921-1.126-1.098-2.836-.65-4.218.343-1.199 1.416-1.94 2.556-2.316 2.693-.925 5.625-.93 8.281-1.966.527-.292 1.01-.568 1.407-.969v.219zM191.358 19.156c-1.951.152-3.86 1.043-5.213 2.32-.593.653-1.147 1.472-1.662 2.274v-4.125h-3.656v24.531h3.656c.034-4.782-.076-9.57.077-14.349.283-2.314 1.251-4.67 3.22-6.026 1.756-1.321 4.272-1.423 6.297-.625.434-.221.26-.971.49-1.396l.479-1.823c-1.105-.638-2.426-.856-3.688-.78zM207.342 19.063c-2.139.036-4.2.798-5.97 1.968-.355.271-.78.583-1.164.915-.915.886-1.605 1.976-2.273 3.116-1.808 3.568-2.012 7.851-.874 11.659.497 1.745 1.551 3.365 2.68 4.663.46.472.964.864 1.413 1.178 1.864 1.345 4.128 2.07 6.425 2.14 3.055.17 6.255-.55 8.64-2.543.75-.507 1.366-1.11 1.966-1.846l-2.468-2.25a8.412 8.412 0 0 1-5.16 3.114c-2.831.548-6.117-.053-8.076-2.287-1.646-1.583-2.181-4.006-2.233-6.234.347-.564 1.216-.09 1.787-.25h17.119c.413-3.323-.349-6.85-2.456-9.493-.506-.783-1.324-1.35-2.106-1.913-2.066-1.47-4.734-2.092-7.25-1.938zm1.312 3.125c2.44.146 4.8 1.514 5.933 3.685a9.367 9.367 0 0 1 .88 3.72h-15.188c.237-1.796.666-3.73 2-5.03.239-.412.903-.815 1.291-1.205 1.488-.97 3.328-1.294 5.084-1.17z"/></g><path d="M45.333.901H9.868C4.992.901 1 4.891 1 9.769v35.465C1 50.11 4.992 54.1 9.868 54.1h35.465c4.876 0 8.868-3.99 8.868-8.865V9.77C54.201 4.89 50.21.9 45.333.9m-.806 40.709c0 1.55-1.269 2.815-2.82 2.815H13.492a2.825 2.825 0 0 1-2.82-2.815V13.395c0-1.55 1.27-2.82 2.82-2.82h28.215c1.551 0 2.82 1.27 2.82 2.82V41.61zm-9.67-8.468c0 .89-.726 1.613-1.61 1.613H21.961c-.887 0-1.61-.723-1.61-1.613V21.859c0-.887.723-1.611 1.61-1.611h11.284c.885 0 1.61.724 1.61 1.61v11.284z"/></svg>