<svg xmlns="http://www.w3.org/2000/svg" viewBox="0 0 530.323 162.536"><path fill="#2CAAE1" d="M200 19.24a82.023 82.023 0 0 1-23.566 6.461c8.471-5.078 14.978-13.119 18.041-22.701a82.14 82.14 0 0 1-26.057 9.957C160.934 4.982 150.27 0 138.468 0c-22.66 0-41.033 18.371-41.033 41.031 0 3.216.363 6.348 1.062 9.351C64.396 48.671 34.161 32.335 13.924 7.51a40.837 40.837 0 0 0-5.556 20.628c0 14.236 7.244 26.795 18.254 34.153a40.87 40.87 0 0 1-18.585-5.132c-.004.171-.004.343-.004.516 0 19.88 14.144 36.464 32.915 40.234a41.076 41.076 0 0 1-18.53.703c5.222 16.301 20.375 28.165 38.331 28.495-14.043 11.006-31.735 17.565-50.96 17.565-3.312 0-6.578-.194-9.788-.574 18.159 11.643 39.727 18.437 62.899 18.437 75.473 0 116.746-62.524 116.746-116.747 0-1.779-.04-3.548-.119-5.309A83.359 83.359 0 0 0 200 19.24z"/><g fill="#292F33"><path d="M319.137 13.005l45.593 116.26h-11.887l-14.166-36.148h-52.92l-14.003 36.148H260.03l46.731-116.26h12.376zm15.795 70.668l-22.471-59.595-23.285 59.595h45.756zM437.838 129.266v-15.958h-.326c-1.086 2.715-2.687 5.211-4.803 7.49a31.18 31.18 0 0 1-7.246 5.781 37.556 37.556 0 0 1-8.712 3.663c-3.094.867-6.162 1.303-9.199 1.303-6.406 0-11.969-1.168-16.69-3.501s-8.657-5.536-11.805-9.606c-3.15-4.071-5.482-8.793-7.002-14.166-1.521-5.374-2.279-11.045-2.279-17.017 0-5.969.758-11.642 2.279-17.015 1.52-5.374 3.852-10.096 7.002-14.167 3.147-4.07 7.083-7.299 11.805-9.688 4.722-2.386 10.284-3.583 16.69-3.583 3.146 0 6.213.382 9.199 1.14a30.944 30.944 0 0 1 8.386 3.501 29.552 29.552 0 0 1 6.92 5.781c2.008 2.279 3.555 4.941 4.641 7.979h.326V13.005h10.259v116.26h-9.445zM381.58 100.2c1.03 4.29 2.658 8.116 4.885 11.479 2.224 3.366 5.073 6.105 8.549 8.223 3.473 2.117 7.652 3.176 12.538 3.176 5.426 0 10.014-1.059 13.759-3.176s6.783-4.856 9.118-8.223c2.333-3.363 4.016-7.189 5.048-11.479a55.178 55.178 0 0 0 1.547-12.945c0-4.34-.516-8.654-1.547-12.945-1.032-4.287-2.715-8.113-5.048-11.479-2.335-3.364-5.373-6.106-9.118-8.223-3.745-2.117-8.333-3.175-13.759-3.175-4.886 0-9.065 1.058-12.538 3.175a26.868 26.868 0 0 0-8.549 8.223c-2.227 3.366-3.854 7.192-4.885 11.479a55.117 55.117 0 0 0-1.547 12.945c0 4.344.514 8.658 1.547 12.945zM515.181 61.61c-1.196-2.333-2.796-4.259-4.804-5.781-2.01-1.519-4.315-2.631-6.92-3.338-2.605-.705-5.373-1.058-8.305-1.058a33.74 33.74 0 0 0-6.92.732c-2.336.489-4.479 1.303-6.432 2.443-1.955 1.14-3.529 2.633-4.723 4.478-1.195 1.847-1.791 4.126-1.791 6.839 0 2.28.57 4.208 1.71 5.78 1.14 1.575 2.577 2.905 4.314 3.989a27.458 27.458 0 0 0 5.7 2.688 69.394 69.394 0 0 0 5.698 1.709l13.678 3.094a39.24 39.24 0 0 1 8.712 2.361c2.874 1.139 5.426 2.633 7.652 4.478 2.224 1.847 4.043 4.126 5.455 6.839 1.409 2.715 2.116 5.917 2.116 9.607 0 4.56-1.033 8.441-3.094 11.642a25.24 25.24 0 0 1-7.897 7.816c-3.202 2.01-6.812 3.444-10.828 4.314-4.017.867-7.979 1.303-11.886 1.303-9.88 0-17.887-2.333-24.018-7.002-6.134-4.666-9.636-12.156-10.502-22.47h10.258c.433 6.947 2.956 12.187 7.571 15.712 4.612 3.529 10.34 5.293 17.179 5.293 2.496 0 5.073-.271 7.734-.814a24.804 24.804 0 0 0 7.408-2.769c2.28-1.302 4.152-2.956 5.618-4.966 1.465-2.007 2.198-4.479 2.198-7.409 0-2.495-.517-4.584-1.547-6.269-1.033-1.682-2.418-3.094-4.152-4.233-1.738-1.141-3.72-2.089-5.943-2.85a75.155 75.155 0 0 0-6.758-1.954l-13.189-2.931c-3.365-.867-6.459-1.873-9.28-3.013-2.824-1.14-5.292-2.55-7.409-4.233a17.778 17.778 0 0 1-4.966-6.188c-1.196-2.442-1.792-5.455-1.792-9.037 0-4.233.949-7.869 2.851-10.91a22.225 22.225 0 0 1 7.408-7.327c3.038-1.845 6.432-3.201 10.178-4.07 3.744-.868 7.461-1.303 11.153-1.303 4.233 0 8.167.545 11.805 1.628 3.636 1.086 6.839 2.769 9.607 5.047 2.768 2.28 4.966 5.104 6.594 8.467 1.629 3.366 2.55 7.328 2.769 11.887h-10.259c-.107-3.146-.759-5.886-1.951-8.221z"/></g></svg>