<svg xmlns="http://www.w3.org/2000/svg" viewBox="0 0 109.69 21.01"><defs><style>.cls-2{clip-path:url(#clip-path)}.cls-3{fill:#04363d}</style><clipPath id="clip-path"><path fill="none" d="M0 0h109.69v21.01H0z"/></clipPath></defs><g id="Layer_2" data-name="Layer 2"><g id="Layer_1-2" data-name="Layer 1"><g class="cls-2"><path class="cls-3" d="M76.33 12.4a3.55 3.55 0 0 0-3.75-3.34 3.82 3.82 0 0 0-4 3.34zm-3.38 5.74a5.5 5.5 0 0 0 3.91-1.52l1.94 2.09A7.63 7.63 0 0 1 73 21c-4.73 0-7.79-3.14-7.79-7.39a7.24 7.24 0 0 1 7.36-7.39c4.7 0 7.36 3.58 7.13 8.54H68.57c.39 2.06 1.84 3.37 4.37 3.37"/></g><path class="cls-3" d="M.2 6.57V9.3h8.35L0 17.98v2.79h12.63v-2.73H3.96l8.55-8.68V6.57H.2z"/><g class="cls-2"><path class="cls-3" d="M25.61 12.4a3.55 3.55 0 0 0-3.75-3.34 3.82 3.82 0 0 0-4 3.34zm-3.38 5.74a5.5 5.5 0 0 0 3.91-1.52l1.94 2.09A7.63 7.63 0 0 1 22.26 21c-4.73 0-7.79-3.14-7.79-7.39a7.24 7.24 0 0 1 7.36-7.39c4.7 0 7.36 3.58 7.13 8.54H17.85c.39 2.06 1.84 3.37 4.37 3.37M59.45 13.6a4.5 4.5 0 1 0-9 0 4.51 4.51 0 1 0 9 0m-12 0a7.09 7.09 0 0 1 7.13-7.38 6.14 6.14 0 0 1 4.73 2.13V0h3v20.72h-3v-2A6.07 6.07 0 0 1 54.52 21a7.15 7.15 0 0 1-7.1-7.38M81.64 17.71l2.74-1.42A4.06 4.06 0 0 0 88 18.37c1.71 0 2.59-.88 2.59-1.87s-1.59-1.4-3.42-1.77c-2.42-.51-4.93-1.31-4.93-4.23 0-2.24 2.14-4.32 5.5-4.29A6.49 6.49 0 0 1 93.47 9l-2.54 1.39a3.68 3.68 0 0 0-3.19-1.62c-1.62 0-2.45.8-2.45 1.7s1.31 1.31 3.36 1.76c2.34.51 5 1.28 5 4.23 0 2-1.71 4.6-5.76 4.57a6.67 6.67 0 0 1-6.24-3.29"/></g><path class="cls-3" d="M96.43 0v20.72h3.02v-3.69l2.4-2.61 4.42 6.3h3.42l-5.71-8.12 5.56-6.07h-3.67l-6.42 7.04V0h-3.02z"/><g class="cls-2"><path class="cls-3" d="M38.29 6.24c-3.59 0-6.6 2.33-6.6 6.19v8.29h3.08v-7.91a3.37 3.37 0 0 1 3.62-3.72c2.28 0 3.42 1.39 3.42 3.72v7.91h3.08v-8.29c0-3.86-3-6.19-6.6-6.19"/></g></g></g></svg>