<svg version="1.1" id="Layer_1" xmlns="http://www.w3.org/2000/svg" x="0" y="0" viewBox="0 0 185 36" xml:space="preserve"><style>.st0{fill:#e69000}.st2{fill:#ffef66}.st3{fill:#a1ceef}.st5{fill:#1a97d5}.st7{fill:#a3cf9e}.st8{fill:#6eb75e}.st10{fill:#e63932}.st11{fill:#7b1713}.st12{fill:#fff}</style><path class="st0" d="M104.4 7.6v24.8l-3.3 3.3-.2-24.2z"/><linearGradient id="SVGID_1_" gradientUnits="userSpaceOnUse" x1="89.64" y1="793.037" x2="89.64" y2="816.201" gradientTransform="translate(0 -781.2)"><stop offset=".006" stop-color="#ffe400"/><stop offset="1" stop-color="#f9b900"/></linearGradient><path fill="url(#SVGID_1_)" d="M78.3 11.5h22.6v24.2H78.3z"/><path class="st2" d="M81.9 7.6l-3.6 3.9h22.8l3.3-3.9z"/><path class="st3" d="M53.9 8.6l22.3-3-1.9 5.3-21.2 3.4.2-3.9z"/><linearGradient id="SVGID_2_" gradientUnits="userSpaceOnUse" x1="53.59" y1="795.468" x2="76.301" y2="813.706" gradientTransform="translate(0 -781.2)"><stop offset=".006" stop-color="#1989ca"/><stop offset="1" stop-color="#025d99"/></linearGradient><path fill="url(#SVGID_2_)" d="M74.3 10.9l3 21.8-21.9 3-3-21 1.3-1z"/><path class="st5" d="M76.2 5.6v.2l2.9 22.1-1.8 4.8-3-21.8"/><linearGradient id="SVGID_3_" gradientUnits="userSpaceOnUse" x1="40.536" y1="796.123" x2="40.536" y2="816.418" gradientTransform="translate(0 -781.2)"><stop offset="0" stop-color="#209838"/><stop offset="1" stop-color="#008449"/></linearGradient><path fill="url(#SVGID_3_)" d="M35 6.8l19.9 8.9-9 20.3-19.7-8.9z"/><path class="st7" d="M33 0l2 6.8 19.9 8.9-1.8-6.5z"/><path class="st8" d="M33 0l-7.9 18.7 1.1 8.4L35 6.8z"/><linearGradient id="SVGID_4_" gradientUnits="userSpaceOnUse" x1="11.024" y1="794.141" x2="14.514" y2="815.211" gradientTransform="translate(0 -781.2)"><stop offset="0" stop-color="#d41525"/><stop offset="1" stop-color="#b91b2a"/></linearGradient><path fill="url(#SVGID_4_)" d="M22 10.9l3.3 21.4-21.8 3.4L0 14.3z"/><path class="st10" d="M0 14.3l1.6-7.7 22-3.4-1.6 7.7z"/><path class="st11" d="M23.6 3.2l3.2 21.4-1.5 7.7L22 10.9z"/><path class="st12" d="M97.5 20.2c-.4-1.2-1.2-2.2-2-3-.9-.9-1.9-1.4-2.9-1.9-1-.4-2.2-.7-3.5-.7-1.2 0-2.3.1-3.5.7-1 .4-2 1-2.9 1.9-.9.9-1.6 1.9-2 3-.4 1.2-.7 2.3-.7 3.7 0 1.3.1 2.6.7 3.7.4 1.2 1 2.2 1.9 3 .9.9 1.7 1.4 2.9 1.9 1.2.4 2.2.7 3.5.7 1.2 0 2.3-.1 3.3-.7 1-.4 2-1 2.9-1.9.9-.9 1.6-1.9 2-3 .4-1.2.7-2.3.7-3.7.3-1.3.2-2.6-.4-3.7zm-4.6 8c-.9 1-2 1.6-3.6 1.6s-2.7-.6-3.6-1.6-1.3-2.4-1.3-4.3.4-3.3 1.3-4.5c.9-1 2-1.6 3.6-1.6s2.7.6 3.6 1.6c.9 1 1.3 2.4 1.3 4.5 0 1.9-.5 3.3-1.3 4.3zm-78.4-4.9zm5.2 5.6c-.1-.1-.4-.3-.7-.4-.3-.1-.7-.1-1-.1s-.9 0-1.3.1l-5.6 1c0-.4.3-1 .7-1.7.4-.9 1-1.7 1.9-2.9.3-.4.6-.7.7-.9.1-.1.3-.3.4-.6 1.3-1.7 2.2-3.2 2.4-4.2.1-.6.3-1.3.3-1.9v-.6c0-.4 0-.9-.1-1.3 0-.4-.1-.7-.3-1-.1-.3-.3-.4-.6-.6-.1-.1-.6-.1-1-.1-.3 0-.9 0-1.3.1L7.6 15c-.9.1-1.4.4-1.9.7-.3.3-.4.7-.4 1v.3c0 .6.4 1 .9 1.2.3.1.6.1 1 .1h.9l5.6-1v.3c0 .3 0 .7-.1 1-.1.4-.6 1.2-1.2 1.9-.1.1-.4.6-.9 1-1.4 1.9-2.6 3.3-3.2 4.8-.4.9-.9 1.7-1 2.6-.1.4-.1 1-.1 1.4v1c0 .4.1.9.3 1 .1.4.3.7.6.7.1.1.6.1 1 .1.6 0 1.3 0 2.3-.3l6-1c1-.1 1.9-.4 2.3-.9.3-.3.6-.7.6-1.2v-.3c-.3 0-.4-.3-.6-.5zm27.4-14.5c-.9-.9-1.7-1.4-2.9-1.9-1-.4-2.2-.7-3.3-.7-1.2 0-2.3.3-3.3.7-1.2.6-2.2 1.2-3 2.2-.9.9-1.6 2-2 3.3-.6 1.3-.9 2.4-.9 3.7v.4c0 1.2.1 2.2.6 3.2.4 1.2 1 2 1.9 2.9.9.9 1.7 1.4 2.9 1.9 1 .4 2.2.7 3.3.7 1.2 0 2.3-.3 3.3-.7 1.2-.6 2.2-1.2 3-2.2.9-1 1.6-2 2-3.3.6-1.3.9-2.6.9-3.7v-.3c0-1.2-.1-2.2-.6-3.3-.6-1-1.2-2-1.9-2.9zm-2.2 8.8c-.7 1.7-1.7 2.9-2.9 3.6-.7.3-1.3.6-2 .6-.6 0-1.2-.1-1.9-.4-1.4-.6-2.2-1.6-2.6-2.9-.1-.4-.1-1-.1-1.4 0-1 .3-2 .7-3.2.7-1.9 1.7-3 2.9-3.7.7-.3 1.3-.6 2-.6.6 0 1.2.1 1.9.4 1.3.6 2.2 1.6 2.6 2.9.1.4.1.9.1 1.4 0 1-.2 2.1-.7 3.3zm25.7-8.1c0-.7-.3-1.2-.7-1.6-.3-.3-.7-.4-1-.4h-.3c-.6 0-1 .3-1.3.9-.1.3-.3.7-.3 1.2v.6l.9 5.6-6.3 1-.9-5.6c0-.7-.3-1.2-.7-1.6-.3-.3-.7-.4-1-.4h-.3c-.6 0-1 .3-1.3.9-.1.3-.3.7-.3 1.2v.6L59.2 32c0 .7.3 1.2.7 1.6.3.3.7.4 1.2.4h.4c.6 0 1-.3 1.2-.9.1-.3.3-.7.3-1.2v-.6l-.9-5.8 6.3-1 .9 5.8c0 .7.3 1.2.7 1.6.3.3.7.4 1.2.4h.3c.6 0 1-.3 1.3-.9.1-.3.3-.7.3-1.2v-.6l-2.5-14.5z"/><g><path d="M130.2 23.6l4.1.4c-.3 2.4-1.2 4.4-2.8 6-1.6 1.6-3.7 2.4-6.4 2.4-2.2 0-4-.6-5.4-1.7-1.4-1.1-2.4-2.6-3.2-4.5-.7-1.9-1.1-4-1.1-6.3 0-3.7.9-6.7 2.6-9s4.2-3.5 7.2-3.5c2.4 0 4.4.7 6 2.2 1.6 1.5 2.6 3.6 3 6.4l-4.1.4c-.7-3.7-2.4-5.5-4.9-5.5-1.6 0-2.9.8-3.8 2.3-.9 1.5-1.4 3.7-1.4 6.6 0 2.9.5 5.2 1.5 6.7s2.3 2.3 3.9 2.3c1.3 0 2.4-.5 3.3-1.5.9-1.1 1.4-2.3 1.5-3.7zM156.7 32h-4.6l-3.8-10h-6.2v10h-4.4V7.7h10.5c2.9 0 5.1.7 6.5 2 1.4 1.3 2.1 3 2.1 5.1 0 3.1-1.5 5.3-4.4 6.4l4.3 10.8zm-14.6-13.5h5.4c1.6 0 2.8-.3 3.5-1 .8-.7 1.2-1.6 1.2-2.7s-.4-1.9-1.1-2.6c-.8-.7-1.8-1-3.2-1h-5.8v7.3zM185 32h-4.5V10.8L173.8 32h-2.3l-6.8-21.3V32h-3.6V7.7h6.9l5.1 15.7 5-15.7h6.9V32z"/></g><g><path class="st0" d="M104.4 7.6v24.8l-3.3 3.3-.2-24.2z"/><linearGradient id="SVGID_5_" gradientUnits="userSpaceOnUse" x1="89.64" y1="793.037" x2="89.64" y2="816.201" gradientTransform="translate(0 -781.2)"><stop offset=".006" stop-color="#ffe400"/><stop offset="1" stop-color="#f9b900"/></linearGradient><path fill="url(#SVGID_5_)" d="M78.3 11.5h22.6v24.2H78.3z"/><path class="st2" d="M81.9 7.6l-3.6 3.9h22.8l3.3-3.9z"/><path class="st3" d="M53.9 8.6l22.3-3-1.9 5.3-21.2 3.4.2-3.9z"/><linearGradient id="SVGID_6_" gradientUnits="userSpaceOnUse" x1="53.59" y1="795.468" x2="76.301" y2="813.706" gradientTransform="translate(0 -781.2)"><stop offset=".006" stop-color="#1989ca"/><stop offset="1" stop-color="#025d99"/></linearGradient><path fill="url(#SVGID_6_)" d="M74.3 10.9l3 21.8-21.9 3-3-21 1.3-1z"/><path class="st5" d="M76.2 5.6v.2l2.9 22.1-1.8 4.8-3-21.8"/><linearGradient id="SVGID_7_" gradientUnits="userSpaceOnUse" x1="40.536" y1="796.123" x2="40.536" y2="816.418" gradientTransform="translate(0 -781.2)"><stop offset="0" stop-color="#209838"/><stop offset="1" stop-color="#008449"/></linearGradient><path fill="url(#SVGID_7_)" d="M35 6.8l19.9 8.9-9 20.3-19.7-8.9z"/><path class="st7" d="M33 0l2 6.8 19.9 8.9-1.8-6.5z"/><path class="st8" d="M33 0l-7.9 18.7 1.1 8.4L35 6.8z"/><linearGradient id="SVGID_8_" gradientUnits="userSpaceOnUse" x1="11.024" y1="794.141" x2="14.514" y2="815.211" gradientTransform="translate(0 -781.2)"><stop offset="0" stop-color="#d41525"/><stop offset="1" stop-color="#b91b2a"/></linearGradient><path fill="url(#SVGID_8_)" d="M22 10.9l3.3 21.4-21.8 3.4L0 14.3z"/><path class="st10" d="M0 14.3l1.6-7.7 22-3.4-1.6 7.7z"/><path class="st11" d="M23.6 3.2l3.2 21.4-1.5 7.7L22 10.9z"/><path class="st12" d="M97.5 20.2c-.4-1.2-1.2-2.2-2-3-.9-.9-1.9-1.4-2.9-1.9-1-.4-2.2-.7-3.5-.7-1.2 0-2.3.1-3.5.7-1 .4-2 1-2.9 1.9-.9.9-1.6 1.9-2 3-.4 1.2-.7 2.3-.7 3.7 0 1.3.1 2.6.7 3.7.4 1.2 1 2.2 1.9 3 .9.9 1.7 1.4 2.9 1.9 1.2.4 2.2.7 3.5.7 1.2 0 2.3-.1 3.3-.7 1-.4 2-1 2.9-1.9.9-.9 1.6-1.9 2-3 .4-1.2.7-2.3.7-3.7.3-1.3.2-2.6-.4-3.7zm-4.6 8c-.9 1-2 1.6-3.6 1.6s-2.7-.6-3.6-1.6-1.3-2.4-1.3-4.3.4-3.3 1.3-4.5c.9-1 2-1.6 3.6-1.6s2.7.6 3.6 1.6c.9 1 1.3 2.4 1.3 4.5 0 1.9-.5 3.3-1.3 4.3zm-78.4-4.9zm5.2 5.6c-.1-.1-.4-.3-.7-.4-.3-.1-.7-.1-1-.1s-.9 0-1.3.1l-5.6 1c0-.4.3-1 .7-1.7.4-.9 1-1.7 1.9-2.9.3-.4.6-.7.7-.9.1-.1.3-.3.4-.6 1.3-1.7 2.2-3.2 2.4-4.2.1-.6.3-1.3.3-1.9v-.6c0-.4 0-.9-.1-1.3 0-.4-.1-.7-.3-1-.1-.3-.3-.4-.6-.6-.1-.1-.6-.1-1-.1-.3 0-.9 0-1.3.1L7.6 15c-.9.1-1.4.4-1.9.7-.3.3-.4.7-.4 1v.3c0 .6.4 1 .9 1.2.3.1.6.1 1 .1h.9l5.6-1v.3c0 .3 0 .7-.1 1-.1.4-.6 1.2-1.2 1.9-.1.1-.4.6-.9 1-1.4 1.9-2.6 3.3-3.2 4.8-.4.9-.9 1.7-1 2.6-.1.4-.1 1-.1 1.4v1c0 .4.1.9.3 1 .1.4.3.7.6.7.1.1.6.1 1 .1.6 0 1.3 0 2.3-.3l6-1c1-.1 1.9-.4 2.3-.9.3-.3.6-.7.6-1.2v-.3c-.3 0-.4-.3-.6-.5zm27.4-14.5c-.9-.9-1.7-1.4-2.9-1.9-1-.4-2.2-.7-3.3-.7-1.2 0-2.3.3-3.3.7-1.2.6-2.2 1.2-3 2.2-.9.9-1.6 2-2 3.3-.6 1.3-.9 2.4-.9 3.7v.4c0 1.2.1 2.2.6 3.2.4 1.2 1 2 1.9 2.9.9.9 1.7 1.4 2.9 1.9 1 .4 2.2.7 3.3.7 1.2 0 2.3-.3 3.3-.7 1.2-.6 2.2-1.2 3-2.2.9-1 1.6-2 2-3.3.6-1.3.9-2.6.9-3.7v-.3c0-1.2-.1-2.2-.6-3.3-.6-1-1.2-2-1.9-2.9zm-2.2 8.8c-.7 1.7-1.7 2.9-2.9 3.6-.7.3-1.3.6-2 .6-.6 0-1.2-.1-1.9-.4-1.4-.6-2.2-1.6-2.6-2.9-.1-.4-.1-1-.1-1.4 0-1 .3-2 .7-3.2.7-1.9 1.7-3 2.9-3.7.7-.3 1.3-.6 2-.6.6 0 1.2.1 1.9.4 1.3.6 2.2 1.6 2.6 2.9.1.4.1.9.1 1.4 0 1-.2 2.1-.7 3.3zm25.7-8.1c0-.7-.3-1.2-.7-1.6-.3-.3-.7-.4-1-.4h-.3c-.6 0-1 .3-1.3.9-.1.3-.3.7-.3 1.2v.6l.9 5.6-6.3 1-.9-5.6c0-.7-.3-1.2-.7-1.6-.3-.3-.7-.4-1-.4h-.3c-.6 0-1 .3-1.3.9-.1.3-.3.7-.3 1.2v.6L59.2 32c0 .7.3 1.2.7 1.6.3.3.7.4 1.2.4h.4c.6 0 1-.3 1.2-.9.1-.3.3-.7.3-1.2v-.6l-.9-5.8 6.3-1 .9 5.8c0 .7.3 1.2.7 1.6.3.3.7.4 1.2.4h.3c.6 0 1-.3 1.3-.9.1-.3.3-.7.3-1.2v-.6l-2.5-14.5z"/></g><g><path d="M130.2 23.6l4.1.4c-.3 2.4-1.2 4.4-2.8 6-1.6 1.6-3.7 2.4-6.4 2.4-2.2 0-4-.6-5.4-1.7-1.4-1.1-2.4-2.6-3.2-4.5-.7-1.9-1.1-4-1.1-6.3 0-3.7.9-6.7 2.6-9s4.2-3.5 7.2-3.5c2.4 0 4.4.7 6 2.2 1.6 1.5 2.6 3.6 3 6.4l-4.1.4c-.7-3.7-2.4-5.5-4.9-5.5-1.6 0-2.9.8-3.8 2.3-.9 1.5-1.4 3.7-1.4 6.6 0 2.9.5 5.2 1.5 6.7s2.3 2.3 3.9 2.3c1.3 0 2.4-.5 3.3-1.5.9-1.1 1.4-2.3 1.5-3.7zM156.7 32h-4.6l-3.8-10h-6.2v10h-4.4V7.7h10.5c2.9 0 5.1.7 6.5 2 1.4 1.3 2.1 3 2.1 5.1 0 3.1-1.5 5.3-4.4 6.4l4.3 10.8zm-14.6-13.5h5.4c1.6 0 2.8-.3 3.5-1 .8-.7 1.2-1.6 1.2-2.7s-.4-1.9-1.1-2.6c-.8-.7-1.8-1-3.2-1h-5.8v7.3zM185 32h-4.5V10.8L173.8 32h-2.3l-6.8-21.3V32h-3.6V7.7h6.9l5.1 15.7 5-15.7h6.9V32z"/></g></svg>