<svg xmlns="http://www.w3.org/2000/svg" width="13" height="13" viewBox="0 0 13 13">
    <path fill="#4d91fc" fill-rule="nonzero" d="M6.5 0A6.505 6.505 0 0 0 0 6.5a6.505 6.505 0 0 0 9.84 5.578l-.516-.86A5.455 5.455 0 0 1 6.5 12 5.493 5.493 0 0 1 1 6.5C1 3.457 3.457 1 6.5 1S12 3.457 12 6.5v1.102C12 8.375 11.375 9 10.605 9h-.207A1.4 1.4 0 0 1 9 7.602V5.398A2.409 2.409 0 0 0 6.602 3h-.204A2.409 2.409 0 0 0 4 5.398v2.204A2.409 2.409 0 0 0 6.398 10h.204A2.39 2.39 0 0 0 8.5 9.047a2.395 2.395 0 0 0 1.898.953h.207A2.406 2.406 0 0 0 13 7.602V6.5C13 2.914 10.086 0 6.5 0zm-.102 4h.204A1.4 1.4 0 0 1 8 5.398v2.204A1.4 1.4 0 0 1 6.602 9h-.204A1.397 1.397 0 0 1 5 7.602V5.398C5 4.625 5.625 4 6.398 4z"/>
</svg>
