<svg xmlns="http://www.w3.org/2000/svg" width="14" height="13" viewBox="0 0 14 13">
    <path fill="#4d91fc" fill-rule="nonzero" d="M7 0C5.902 0 5 .902 5 2c0 .547.223 1.047.586 1.41v.004c-.223.14-.418.32-.594.523A2 2 0 0 0 3 2c-1.098 0-2 .902-2 2 0 .535.219 1.023.563 1.383A2.995 2.995 0 0 0 0 8h1c0-1.11.89-2 2-2 .453 0 .863.148 1.2.398L5 7V6c0-1.11.89-2 2-2 1.11 0 2 .89 2 2v1l.8-.602c.337-.25.747-.398 1.2-.398 1.11 0 2 .89 2 2h1a2.995 2.995 0 0 0-1.563-2.617C12.781 5.023 13 4.535 13 4c0-1.098-.902-2-2-2-1.078 0-1.96.867-1.996 1.938a2.61 2.61 0 0 0-.59-.528A1.99 1.99 0 0 0 9 2c0-1.098-.902-2-2-2zm0 1c.559 0 1 .441 1 1 0 .559-.441 1-1 1-.559 0-1-.441-1-1 0-.559.441-1 1-1zM3 3c.559 0 1 .441 1 1 0 .559-.441 1-1 1-.559 0-1-.441-1-1 0-.559.441-1 1-1zm8 0c.559 0 1 .441 1 1 0 .559-.441 1-1 1-.559 0-1-.441-1-1 0-.559.441-1 1-1zM4 7c-1.098 0-2 .902-2 2 0 .535.219 1.023.563 1.383A2.995 2.995 0 0 0 1 13h1c0-1.11.89-2 2-2 1.11 0 2 .89 2 2h1a2.995 2.995 0 0 0-1.563-2.617C5.782 10.023 6 9.535 6 9c0-1.098-.902-2-2-2zm3 6h1c0-1.11.89-2 2-2 1.11 0 2 .89 2 2h1a2.995 2.995 0 0 0-1.563-2.617c.344-.36.563-.848.563-1.383 0-1.098-.902-2-2-2-1.098 0-2 .902-2 2 0 .535.219 1.023.563 1.383A2.995 2.995 0 0 0 7 13zM4 8c.559 0 1 .441 1 1 0 .559-.441 1-1 1-.559 0-1-.441-1-1 0-.559.441-1 1-1zm6 0c.559 0 1 .441 1 1 0 .559-.441 1-1 1-.559 0-1-.441-1-1 0-.559.441-1 1-1z"/>
</svg>
