<?xml version="1.0" encoding="UTF-8"?>
<svg width="44px" height="44px" viewBox="0 0 44 44" version="1.1" xmlns="http://www.w3.org/2000/svg" xmlns:xlink="http://www.w3.org/1999/xlink">
    <!-- Generator: Sketch 53.2 (72643) - https://sketchapp.com -->
    <title>journeys button</title>
    <desc>Created with Sketch.</desc>
    <defs>
        <linearGradient x1="50%" y1="100%" x2="50%" y2="3.061617e-15%" id="linearGradient-1">
            <stop stop-color="#FAFAFC" offset="0%"></stop>
            <stop stop-color="#FFFFFF" offset="100%"></stop>
        </linearGradient>
        <path d="M3,0 L37,0 C38.6568542,-3.04359188e-16 40,1.34314575 40,3 L40,37 C40,38.6568542 38.6568542,40 37,40 L3,40 C1.34314575,40 2.02906125e-16,38.6568542 0,37 L0,3 C-2.02906125e-16,1.34314575 1.34314575,3.04359188e-16 3,0 Z" id="path-2"></path>
        <filter x="-8.8%" y="-6.2%" width="117.5%" height="117.5%" filterUnits="objectBoundingBox" id="filter-3">
            <feOffset dx="0" dy="1" in="SourceAlpha" result="shadowOffsetOuter1"></feOffset>
            <feGaussianBlur stdDeviation="1" in="shadowOffsetOuter1" result="shadowBlurOuter1"></feGaussianBlur>
            <feComposite in="shadowBlurOuter1" in2="SourceAlpha" operator="out" result="shadowBlurOuter1"></feComposite>
            <feColorMatrix values="0 0 0 0 0.9024   0 0 0 0 0.90992   0 0 0 0 0.94  0 0 0 1 0" type="matrix" in="shadowBlurOuter1"></feColorMatrix>
        </filter>
    </defs>
    <g id="New-Design---1366x768" stroke="none" stroke-width="1" fill="none" fill-rule="evenodd">
        <g id="Plan-overview" transform="translate(-780.000000, -2135.000000)">
            <g id="journeys-button" transform="translate(782.000000, 2136.000000)">
                <g id="Rectangle-6">
                    <use fill="black" fill-opacity="1" filter="url(#filter-3)" xlink:href="#path-2"></use>
                    <path stroke-opacity="0.5" stroke="#4D91FC" stroke-width="1" d="M3,0.5 C1.61928813,0.5 0.5,1.61928813 0.5,3 L0.5,37 C0.5,38.3807119 1.61928813,39.5 3,39.5 L37,39.5 C38.3807119,39.5 39.5,38.3807119 39.5,37 L39.5,3 C39.5,1.61928813 38.3807119,0.5 37,0.5 L3,0.5 Z" stroke-linejoin="square" fill="url(#linearGradient-1)" fill-rule="evenodd"></path>
                </g>
                <g id="avatar-(1)" transform="translate(11.000000, 9.000000)" fill="#4D91FC" fill-rule="nonzero">
                    <path d="M9.22616508,11.7852143 C9.24881153,11.7852143 9.27145798,11.7852143 9.29863373,11.7852143 C9.30769231,11.7852143 9.31675089,11.7852143 9.32580947,11.7852143 C9.33939734,11.7852143 9.3575145,11.7852143 9.37110238,11.7852143 C10.6981845,11.7625678 11.7716264,11.2960509 12.5642523,10.4037806 C14.3080292,8.4380685 14.0181546,5.06827625 13.9864496,4.74669661 C13.8732173,2.33258469 12.731836,1.17761557 11.7897436,0.638629983 C11.0877035,0.235523114 10.2679019,0.0181171626 9.35298521,0 L9.32128018,0 C9.31675089,0 9.30769231,0 9.30316302,0 L9.27598727,0 C8.77323601,0 7.78585065,0.0815272319 6.8392289,0.620512821 C5.88807786,1.15949841 4.72857945,2.31446753 4.61534718,4.74669661 C4.58364215,5.06827625 4.29376755,8.4380685 6.03754445,10.4037806 C6.82564103,11.2960509 7.89908291,11.7625678 9.22616508,11.7852143 Z M5.82466779,4.85992888 C5.82466779,4.84634101 5.82919708,4.83275313 5.82919708,4.82369455 C5.97866367,1.57619315 8.28407262,1.22743777 9.27145798,1.22743777 L9.28957515,1.22743777 C9.29863373,1.22743777 9.3122216,1.22743777 9.32580947,1.22743777 C10.5487179,1.25461351 12.6276624,1.75283549 12.7680704,4.82369455 C12.7680704,4.83728243 12.7680704,4.8508703 12.7725997,4.85992888 C12.777129,4.89163391 13.0941793,7.97155156 11.6538649,9.59303762 C11.0831742,10.2361969 10.3222534,10.5532472 9.32128018,10.5623058 C9.3122216,10.5623058 9.30769231,10.5623058 9.29863373,10.5623058 L9.29863373,10.5623058 C9.28957515,10.5623058 9.28504585,10.5623058 9.27598727,10.5623058 C8.27954333,10.5532472 7.51409321,10.2361969 6.94793187,9.59303762 C5.51214673,7.98061014 5.8201385,4.88710462 5.82466779,4.85992888 Z" id="Shape"></path>
                    <path d="M18.606326,17.374359 C18.606326,17.3698297 18.606326,17.3653004 18.606326,17.3607711 C18.606326,17.3245368 18.6017967,17.2883025 18.6017967,17.2475388 C18.574621,16.3507393 18.5157402,14.2536777 16.5500281,13.5833427 C16.5364402,13.5788134 16.518323,13.5742841 16.5047352,13.5697548 C14.4620251,13.0488864 12.7635411,11.8712708 12.7454239,11.8576829 C12.4691372,11.6629235 12.0886768,11.7308628 11.8939173,12.0071495 C11.6991578,12.2834363 11.7670971,12.6638967 12.0433839,12.8586562 C12.1203818,12.9130077 13.9230395,14.1676212 16.1786262,14.7473704 C17.233951,15.1233015 17.3517125,16.2510949 17.3834176,17.2837732 C17.3834176,17.3245368 17.3834176,17.3607711 17.3879468,17.3970054 C17.3924761,17.8046416 17.3653004,18.434213 17.2928317,18.7965562 C16.5590867,19.213251 13.6829871,20.6535654 9.30769231,20.6535654 C4.95051469,20.6535654 2.05629796,19.2087217 1.31802358,18.792027 C1.24555493,18.4296837 1.2138499,17.8001123 1.22290848,17.3924761 C1.22290848,17.3562418 1.22743777,17.3200075 1.22743777,17.2792439 C1.2591428,16.2465656 1.37690436,15.1187722 2.43222908,14.7428411 C4.68781583,14.1630919 6.49047352,12.9039491 6.56747146,12.8541269 C6.84375819,12.6593674 6.91169755,12.278907 6.71693805,12.0026203 C6.52217855,11.7263335 6.14171814,11.6583942 5.86543141,11.8531537 C5.84731424,11.8667415 4.15788883,13.0443571 2.10612016,13.5652255 C2.08800299,13.5697548 2.07441512,13.5742841 2.06082725,13.5788134 C0.0951151039,14.2536777 0.0362343253,16.3507393 0.00905858132,17.2430095 C0.00905858132,17.2837732 0.00905858132,17.3200075 0.00452929066,17.3562418 C0.00452929066,17.3607711 0.00452929066,17.3653004 0.00452929066,17.3698297 C-4.33680869e-19,17.6053528 -0.00452929066,18.8146734 0.235523114,19.4215984 C0.280816021,19.5393599 0.362343253,19.6390043 0.471046229,19.7069437 C0.606924949,19.7975295 3.86348493,21.8719446 9.3122216,21.8719446 C14.7609583,21.8719446 18.0175182,19.7930002 18.153397,19.7069437 C18.2575707,19.6390043 18.3436272,19.5393599 18.3889201,19.4215984 C18.6153846,18.8192027 18.6108553,17.6098821 18.606326,17.374359 Z" id="Path"></path>
                </g>
            </g>
        </g>
    </g>
</svg>