<svg xmlns="http://www.w3.org/2000/svg" width="20" height="20" viewBox="0 0 20 20">
    <path fill="#4d91fc" fill-rule="nonzero" d="M13.846 0c-1.574 0-3.005.264-4.11.74-.553.234-1.028.522-1.395.895-.372.378-.649.883-.649 1.442v4.711a13.998 13.998 0 0 0-1.538-.096c-1.575 0-3.005.265-4.11.74-.554.234-1.028.522-1.395.895C.276 9.706 0 10.21 0 10.769v6.154c0 .559.276 1.064.649 1.442.367.373.841.661 1.394.896 1.106.475 2.536.739 4.11.739 1.575 0 3.006-.264 4.111-.74.553-.234 1.028-.522 1.395-.895.372-.378.649-.883.649-1.442v-1.64c.492.06 1.003.102 1.538.102 1.575 0 3.005-.265 4.11-.74.554-.234 1.028-.522 1.395-.895.373-.379.649-.883.649-1.442V3.077c0-.559-.276-1.064-.649-1.442-.367-.373-.841-.661-1.394-.896C16.85.264 15.42 0 13.847 0zm0 1.538c1.4 0 2.662.253 3.504.613.42.18.739.391.913.565.168.18.199.283.199.36 0 .079-.03.181-.199.361-.174.175-.493.385-.913.565-.842.361-2.104.613-3.504.613s-2.662-.252-3.503-.613c-.421-.18-.74-.39-.908-.564-.174-.18-.204-.283-.204-.361 0-.078.03-.18.204-.36.168-.175.487-.385.908-.566.84-.36 2.103-.613 3.503-.613zM9.231 5.156c.162.084.324.18.505.259 1.105.474 2.536.739 4.11.739 1.575 0 3.005-.265 4.11-.74.181-.077.343-.174.506-.258v.998c0 .078-.03.18-.199.36-.174.175-.493.385-.913.565-.842.36-2.104.613-3.504.613s-2.662-.252-3.503-.613c-.421-.18-.74-.39-.908-.565-.174-.18-.204-.282-.204-.36v-.998zm9.23 3.077v.998c0 .078-.03.18-.198.36-.174.175-.493.385-.913.565-.842.36-2.104.613-3.504.613-.547 0-1.064-.036-1.55-.108-.03-.517-.289-.98-.637-1.334-.145-.144-.319-.27-.493-.397.811.193 1.713.3 2.68.3 1.575 0 3.005-.264 4.11-.738.181-.079.343-.175.506-.259zm-12.307.998c1.4 0 2.662.252 3.503.613.421.18.74.39.908.565.174.18.204.282.204.36 0 .078-.03.18-.204.36-.168.175-.487.385-.908.566-.84.36-2.103.613-3.503.613s-2.662-.253-3.504-.613c-.42-.18-.739-.39-.907-.565-.174-.18-.205-.283-.205-.36 0-.079.03-.181.205-.361.168-.175.487-.385.907-.565.842-.36 2.104-.613 3.504-.613zm12.308 2.08v.997c0 .078-.03.18-.199.36-.174.175-.493.385-.913.565-.842.36-2.104.613-3.504.613-.54 0-1.058-.036-1.538-.102v-1.538c.492.06 1.003.102 1.538.102 1.575 0 3.005-.265 4.11-.74.181-.078.343-.174.506-.258zM1.538 12.848c.163.084.325.18.505.258 1.106.475 2.536.74 4.11.74 1.575 0 3.006-.265 4.111-.74.18-.078.343-.174.505-.258v.997c0 .078-.03.18-.204.36-.168.175-.487.385-.908.566-.84.36-2.103.613-3.503.613s-2.662-.253-3.504-.613c-.42-.18-.739-.391-.907-.565-.174-.18-.205-.283-.205-.36v-.998zm0 3.07c.163.09.325.187.505.265 1.106.475 2.536.74 4.11.74 1.575 0 3.006-.265 4.111-.74.18-.078.343-.174.505-.265v1.004c0 .078-.03.18-.204.36-.168.175-.487.385-.908.566-.84.36-2.103.613-3.503.613s-2.662-.253-3.504-.613c-.42-.18-.739-.391-.907-.565-.174-.18-.205-.283-.205-.36v-1.005z"/>
</svg>
