<svg xmlns="http://www.w3.org/2000/svg" width="21" height="15" viewBox="0 0 21 15">
    <path fill="#4d91fc" fill-rule="nonzero" d="M3.61 0c-.973 0-1.8.627-2.11 1.5h18A2.244 2.244 0 0 0 17.39 0H3.61zM2.25 3A2.258 2.258 0 0 0 0 5.25v7.5A2.258 2.258 0 0 0 2.25 15h16.5A2.258 2.258 0 0 0 21 12.75v-7.5A2.258 2.258 0 0 0 18.75 3H2.25zM3 4.5h15c0 .82.68 1.5 1.5 1.5v6c-.82 0-1.5.68-1.5 1.5H3c0-.82-.68-1.5-1.5-1.5V6C2.32 6 3 5.32 3 4.5zM10.5 6c-1.646 0-3 1.354-3 3s1.354 3 3 3 3-1.354 3-3-1.354-3-3-3zm-6 1.5C3.674 7.5 3 8.174 3 9s.674 1.5 1.5 1.5S6 9.826 6 9s-.674-1.5-1.5-1.5zm6 0c.838 0 1.5.662 1.5 1.5s-.662 1.5-1.5 1.5S9 9.838 9 9s.662-1.5 1.5-1.5zm6 0c-.826 0-1.5.674-1.5 1.5s.674 1.5 1.5 1.5S18 9.826 18 9s-.674-1.5-1.5-1.5z"/>
</svg>
