<svg xmlns="http://www.w3.org/2000/svg" width="21" height="18" viewBox="0 0 21 18">
    <path fill="#4d91fc" fill-rule="nonzero" d="M2.258 0A2.26 2.26 0 0 0 .011 2.25v7.5A2.26 2.26 0 0 0 2.258 12h16.484a2.26 2.26 0 0 0 2.247-2.25v-7.5A2.26 2.26 0 0 0 18.742 0H2.258zm.75 1.5h14.984c0 .82.68 1.5 1.499 1.5v6a1.51 1.51 0 0 0-1.499 1.5H3.008c0-.82-.68-1.5-1.499-1.5V3a1.51 1.51 0 0 0 1.499-1.5zM10.5 3a3.01 3.01 0 0 0-2.997 3c0 1.648 1.35 3 2.997 3a3.01 3.01 0 0 0 2.997-3c0-1.648-1.35-3-2.997-3zM4.506 4.5a1.5 1.5 0 1 0 .002 2.998A1.5 1.5 0 0 0 4.506 4.5zm5.994 0c.836 0 1.498.663 1.498 1.5s-.662 1.5-1.498 1.5A1.488 1.488 0 0 1 9.002 6c0-.837.662-1.5 1.498-1.5zm5.994 0a1.5 1.5 0 1 0 .001 2.998 1.5 1.5 0 0 0-.001-2.998zM.76 13.5a.75.75 0 1 0 0 1.5h19.48a.75.75 0 1 0 0-1.5H.76zm0 3a.75.75 0 1 0 0 1.5h19.48a.75.75 0 1 0 0-1.5H.76z"/>
</svg>
