<svg xmlns="http://www.w3.org/2000/svg" width="18" height="20" viewBox="0 0 18 20">
    <path fill="#4d91fc" fill-rule="nonzero" d="M13.195 0a2.214 2.214 0 0 0-.44.06h-.01L1.604 3.368C.645 3.644 0 4.567 0 5.592v12.017C0 18.89.99 20 2.25 20h13.5c1.254 0 2.25-1.103 2.25-2.391V7.049c0-1.295-.99-2.398-2.25-2.398H2.672l10.447-3.105h.006c.152-.042.193-.012.252.042a.521.521 0 0 1 .123.366v1.15H15v-1.15c0-.576-.21-1.127-.627-1.504A1.749 1.749 0 0 0 13.195 0zM2.25 6.185h13.5c.398 0 .75.354.75.863v10.56c0 .504-.352.858-.75.858H2.25c-.398 0-.75-.354-.75-.857V7.049c0-.51.352-.864.75-.864zm11.25 4.591c-.826 0-1.5.69-1.5 1.534 0 .846.674 1.535 1.5 1.535s1.5-.69 1.5-1.535-.674-1.534-1.5-1.534z"/>
</svg>
