<svg xmlns="http://www.w3.org/2000/svg" width="20" height="20" viewBox="0 0 20 20">
    <path fill="#4d91fc" fill-rule="nonzero" d="M10 0C4.492 0 0 4.492 0 10s4.492 10 10 10 10-4.492 10-10S15.508 0 10 0zm0 1.538c1.666 0 3.216.488 4.525 1.32l-1.788 1.787c.416.277.788.663 1.05 1.11l1.952-1.957a8.425 8.425 0 0 1 2.683 5.433h-3.99v.384s.136.539.243 1.154h3.747a8.425 8.425 0 0 1-2.683 5.433L14 14.462a3.981 3.981 0 0 1-1.105 1.046l1.631 1.631A8.413 8.413 0 0 1 10 18.462 8.46 8.46 0 0 1 1.538 10 8.46 8.46 0 0 1 10 1.538zm-.77 3.077v.788c-.671.042-1.294.29-1.742.739-.491.491-.757 1.188-.757 1.935 0 .746.266 1.444.757 1.935.491.491 1.189.757 1.935.757h1.154c.396 0 .663.122.847.307.185.184.307.45.307.847 0 .397-.122.663-.307.847-.184.185-.45.307-.847.307H9.038c-.458 0-.769-.395-.769-.962v-.192H6.731v.192c0 1.265.935 2.5 2.307 2.5h.193v.77h1.538v-.788c.672-.042 1.295-.29 1.743-.739.491-.491.757-1.188.757-1.935 0-.746-.266-1.444-.757-1.935-.491-.491-1.189-.757-1.935-.757H9.423c-.396 0-.663-.122-.847-.307-.185-.184-.307-.45-.307-.847 0-.397.122-.663.307-.847.184-.185.45-.307.847-.307h.962c.458 0 .961.503.961.962v.192h1.539v-.192c0-1.241-.925-2.273-2.116-2.461v-.809H9.231z"/>
</svg>
