<svg xmlns="http://www.w3.org/2000/svg" width="15" height="21"><path fill="#B2BBD5" d="M7.5 0C6.68 0 6 .68 6 1.5v1.71C3.422 3.886 1.5 6.218 1.5 9v5.977s-.023.416-.223.802c-.199.393-.44.721-1.277.721V18h15v-1.5c-.89 0-1.12-.328-1.307-.703a2.082 2.082 0 0 1-.193-.791V9c0-2.783-1.922-5.115-4.5-5.79V1.5C9 .68 8.32 0 7.5 0zm0 18c-.826 0-1.5.674-1.5 1.5S6.674 21 7.5 21 9 20.326 9 19.5 8.326 18 7.5 18zm0-13.5C9.996 4.5 12 6.504 12 9v5.994s-.018.715.352 1.46c.005.017.017.028.023.046H2.59a.128.128 0 0 1 .023-.03A3.686 3.686 0 0 0 3 15.023V9c0-2.496 2.004-4.5 4.5-4.5z"/></svg>