<svg xmlns="http://www.w3.org/2000/svg" width="15" height="21"><path fill="#B2BBD5" d="M7.5 0C3.37 0 0 3.37 0 7.5c0 1.16.475 2.432 1.13 3.773.657 1.348 1.513 2.754 2.374 4.038 1.71 2.572 3.416 4.664 3.416 4.664l.58.714.58-.714s1.705-2.092 3.422-4.664c.855-1.284 1.71-2.69 2.367-4.038C14.525 9.932 15 8.66 15 7.5 15 3.37 11.63 0 7.5 0zm0 1.5c3.322 0 6 2.678 6 6 0 .703-.37 1.87-.979 3.117-.609 1.254-1.44 2.613-2.267 3.867-1.377 2.063-2.315 3.2-2.754 3.75-.44-.55-1.377-1.687-2.754-3.75-.826-1.254-1.658-2.613-2.267-3.867C1.869 9.37 1.5 8.203 1.5 7.5c0-3.322 2.678-6 6-6zm0 4.5C6.674 6 6 6.674 6 7.5S6.674 9 7.5 9 9 8.326 9 7.5 8.326 6 7.5 6z"/></svg>