<svg xmlns="http://www.w3.org/2000/svg" width="20" height="21" viewBox="0 0 20 21">
    <path fill="#99A4C2" fill-rule="nonzero" d="M7.89 0l-.357 1.934a8.751 8.751 0 0 0-3.596 2.109l-1.827-.65L0 7.107 1.458 8.38c-.167.685-.311 1.383-.311 2.121s.144 1.436.311 2.121L0 13.893l2.11 3.714 1.82-.656a8.769 8.769 0 0 0 3.603 2.121L7.89 21h4.22l.357-1.928a8.775 8.775 0 0 0 3.596-2.12l1.822.655L20 13.893l-1.464-1.272c.167-.685.317-1.383.317-2.121s-.144-1.436-.311-2.121L20 7.107l-2.11-3.714-1.82.65a8.745 8.745 0 0 0-3.603-2.11L12.11 0H7.89zm1.222 1.5h1.776l.288 1.582.472.117a7.342 7.342 0 0 1 3.747 2.197l.328.358 1.499-.533.888 1.558-1.2 1.05.145.468a7.678 7.678 0 0 1 0 4.406l-.144.469 1.199 1.049-.888 1.558-1.499-.539-.328.364a7.393 7.393 0 0 1-3.747 2.203l-.472.105-.288 1.588H9.112l-.288-1.588-.472-.105a7.393 7.393 0 0 1-3.747-2.203l-.334-.364-1.499.54-.882-1.56 1.2-1.048-.145-.469a7.678 7.678 0 0 1 0-4.406l.144-.469L1.89 6.78l.882-1.558 1.505.533.328-.358A7.342 7.342 0 0 1 8.352 3.2l.472-.117.288-1.582zM10 6c-2.438 0-4.427 2.021-4.427 4.5S7.562 15 10 15c2.438 0 4.427-2.021 4.427-4.5S12.438 6 10 6zm0 1.5c1.637 0 2.951 1.336 2.951 3s-1.314 3-2.951 3-2.951-1.336-2.951-3 1.314-3 2.951-3z"/>
</svg>
