<svg xmlns="http://www.w3.org/2000/svg" viewBox="0 0 512 512"><g fill="#09C"><path d="M475.3 33.3H349.1V20c0-11.1-9-20-20-20-11.1 0-20 9-20 20v13.3H202.9V20c0-11.1-9-20-20-20s-20 9-20 20v13.3H36.7c-11.1 0-20 9-20 20V492c0 11.1 9 20 20 20h438.6c11.1 0 20-9 20-20V53.3c0-11-8.9-20-20-20zM162.9 73.4v26.4c0 11.1 9 20 20 20s20-9 20-20V73.4H309v26.4c0 11.1 9 20 20 20 11.1 0 20-9 20-20V73.4h106.1V143H56.7V73.4h106.2zM56.7 471.9V183h398.5v288.9H56.7z"/><path d="M345.4 288.2l-49.3-7.2-22.1-44.6c-3.4-6.8-10.3-11.2-18-11.2-7.6 0-14.6 4.3-18 11.2l-22 44.7-49.3 7.2c-7.6 1.1-13.8 6.4-16.2 13.6-2.4 7.3-.4 15.2 5.1 20.5l35.7 34.8-8.4 49.1c-1.3 7.5 1.8 15.1 8 19.6 6.2 4.5 14.4 5.1 21.1 1.5l44.1-23.2 44.1 23.2c2.9 1.5 6.1 2.3 9.3 2.3h.1c11.1 0 20-9 20-20 0-1.7-.2-3.3-.6-4.9l-8.2-47.6 35.7-34.8c5.5-5.3 7.4-13.3 5.1-20.5-2.4-7.3-8.7-12.6-16.2-13.7zm-60.2 47.6c-4.7 4.6-6.9 11.2-5.8 17.7l3.3 19.5-17.5-9.2c-2.9-1.5-6.1-2.3-9.3-2.3s-6.4.8-9.3 2.3l-17.5 9.2 3.3-19.5c1.1-6.5-1-13.1-5.8-17.7L212.5 322l19.6-2.8c6.5-.9 12.2-5 15.1-11l8.7-17.7 8.7 17.7c2.9 5.9 8.6 10 15.1 11l19.6 2.8-14.1 13.8z"/></g></svg>