<svg xmlns="http://www.w3.org/2000/svg" width="512" height="512"><path d="M139.323 146.482H276.08c10.743 54.695 59.046 96.086 116.842 96.086C458.581 242.568 512 189.15 512 123.49 512 57.829 458.581 4.411 392.921 4.411c-57.796 0-106.1 41.391-116.843 96.087H139.323C129.744 72.26 103.035 51.93 71.559 51.93 32.038 51.93 0 83.968 0 123.49c0 31.475 20.33 58.184 48.567 67.763v177.014C20.33 377.845 0 404.554 0 436.03c0 39.521 32.038 71.559 71.559 71.559 31.475 0 58.184-20.33 67.763-48.568h116.225c9.579 28.238 36.288 48.567 67.763 48.567 39.522 0 71.559-32.039 71.559-71.559 0-39.521-32.038-71.559-71.559-71.559-31.474 0-58.183 20.329-67.762 48.567H139.323c-7.131-21.019-23.752-37.64-44.771-44.77V191.252c21.018-7.13 37.64-23.751 44.771-44.77zm253.598-84.591c33.965 0 61.599 27.633 61.599 61.599 0 33.965-27.633 61.599-61.599 61.599-33.965 0-61.599-27.632-61.599-61.599.001-33.966 27.634-61.599 61.599-61.599z" fill="#09C"/></svg>