<svg xmlns="http://www.w3.org/2000/svg" viewBox="0 0 512 512"><g fill="#09C"><path d="M27.9 159.6l42.4-42.4 42.4 42.4c3.2 3.2 7.4 4.8 11.5 4.8 4.2 0 8.4-1.6 11.5-4.8 6.4-6.4 6.4-16.7 0-23.1L93.4 94l42.4-42.4c6.4-6.4 6.4-16.7 0-23.1-6.4-6.4-16.7-6.4-23.1 0L70.3 70.9 27.9 28.5c-6.4-6.4-16.7-6.4-23.1 0-6.4 6.4-6.4 16.7 0 23.1L47.2 94 4.8 136.5c-6.4 6.4-6.4 16.7 0 23.1 3.2 3.2 7.4 4.8 11.5 4.8s8.4-1.7 11.6-4.8zM351.9 352.4c-6.4-6.4-16.7-6.4-23.1 0l-42.4 42.4-42.4-42.4c-6.4-6.4-16.7-6.4-23.1 0-6.4 6.4-6.4 16.7 0 23.1l42.4 42.4-42.4 42.4c-6.4 6.4-6.4 16.7 0 23.1 3.2 3.2 7.4 4.8 11.5 4.8 4.2 0 8.4-1.6 11.5-4.8l42.4-42.4 42.4 42.4c3.2 3.2 7.4 4.8 11.5 4.8s8.4-1.6 11.5-4.8c6.4-6.4 6.4-16.7 0-23.1L309.4 418l42.4-42.4c6.4-6.4 6.4-16.8.1-23.2zM353.1 123.4l-65.9-57.3c-6.8-5.9-17.1-5.2-23 1.6-5.9 6.8-5.2 17.1 1.6 23l34.9 30.4C197.6 134.6 136.6 188.5 102.6 234c-31.4 42.1-45.1 83.5-50 101.7 3.3-.4 6.6-.7 10-.7 8.1 0 15.9 1.3 23.2 3.7 5.5-18 18.2-52.2 43.9-86.2 42.5-56.4 101.5-89.6 175.7-99.1l-32.5 37.4c-5.9 6.8-5.2 17.1 1.6 23 3.1 2.7 6.9 4 10.7 4 4.6 0 9.1-1.9 12.3-5.6l57.3-65.9c5.9-6.6 5.1-17-1.7-22.9zM62.6 362c-26.6 0-48.3 21.6-48.3 48.3 0 26.6 21.6 48.3 48.3 48.3s48.3-21.7 48.3-48.3c0-26.6-21.7-48.3-48.3-48.3zM463.7 84.3c-26.6 0-48.3 21.6-48.3 48.3s21.6 48.3 48.3 48.3c26.6 0 48.3-21.6 48.3-48.3 0-26.6-21.6-48.3-48.3-48.3z"/></g></svg>