<svg xmlns="http://www.w3.org/2000/svg" viewBox="0 0 512 512"><path fill="#09C" d="M512 224v-.2-.6-.3c0-.2 0-.3-.1-.5 0-.2-.1-.3-.1-.5 0-.1 0-.2-.1-.3-.1-.2-.1-.4-.2-.6v-.1-.1L439.4 45c-.3-.6-.6-1.2-1-1.8 5.8-4.4 9.6-11.4 9.6-19.2 0-13.2-10.8-24-24-24-12.8 0-23.3 10.1-24 22.8l-116.4 33c-7.2-12.3-22-18.7-36.4-14.6-8.2 2.3-15 7.7-19.2 15.2-2.8 5.1-4.2 10.7-4.1 16.4l-116.6 33.1C103 99.9 96 96 88 96c-13.2 0-24 10.8-24 24 0 7.5 3.5 14.3 8.9 18.7L.6 316.9v.1c0 .1 0 .1-.1.2-.1.2-.1.4-.2.6 0 .1-.1.2-.1.3 0 .1-.1.3-.1.4 0 .2 0 .3-.1.5v1.3C.1 368.6 39.5 408 88 408s87.9-39.4 88-87.9v-.1-.2-.6-.3c0-.2 0-.3-.1-.5 0-.2-.1-.3-.1-.5 0-.1 0-.2-.1-.3-.1-.2-.1-.4-.2-.6v-.1-.1l-72-175.9c-.3-.6-.6-1.2-1-1.8 5.5-4.2 9.2-10.7 9.6-18l116.4-33c1.1 2 2.5 3.8 4 5.4-.2.8-.4 1.6-.4 2.4v328c-13.2 0-24 10.8-24 24v16h-40c-13.2 0-24 10.8-24 24v16c0 4.4 3.6 8 8 8h208c4.4 0 8-3.6 8-8v-16c0-13.2-10.8-24-24-24h-40v-16c0-13.2-10.8-24-24-24V96c0-.8-.1-1.7-.4-2.4 1.6-1.8 3.1-3.8 4.3-6 2.8-5.1 4.2-10.7 4.1-16.4l116.6-33.1c1.2 1.7 2.7 3.2 4.3 4.5l-72.3 178.2v.1c0 .1 0 .1-.1.2-.1.2-.1.4-.2.6 0 .1-.1.2-.1.3 0 .1-.1.3-.1.4 0 .2 0 .3-.1.5v1.3c.1 48.4 39.5 87.8 88 87.8s87.9-39.4 88-87.9c-.1 0-.1 0-.1-.1zM424 16c4.4 0 8 3.6 8 8s-3.6 8-8 8-8-3.6-8-8 3.6-8 8-8zM242 64.2c2.1-3.7 5.5-6.4 9.6-7.6 1.5-.4 2.9-.6 4.4-.6 7 0 13.4 4.6 15.4 11.6 1.2 4.1.7 8.4-1.4 12.2-2.1 3.7-5.5 6.4-9.6 7.6-8.5 2.4-17.4-2.5-19.8-11-1.2-4.1-.7-8.5 1.4-12.2zM88 112c4.4 0 8 3.6 8 8s-3.6 8-8 8-8-3.6-8-8 3.6-8 8-8zm68.1 200H152c-4.4 0-8 3.6-8 8s3.6 8 8 8h7.6c-4 35.9-34.6 64-71.6 64s-67.6-28.1-71.6-64H120c4.4 0 8-3.6 8-8s-3.6-8-8-8H19.9L88 144.1c0 1 .2 2 .6 2.9l67.5 165zM288 448v24c0 4.4 3.6 8 8 8h48c4.4 0 8 3.6 8 8v8H160v-8c0-4.4 3.6-8 8-8h96c4.4 0 8-3.6 8-8s-3.6-8-8-8h-40v-16c0-4.4 3.6-8 8-8h48c4.4 0 8 3.6 8 8zm-40-24V103c2.6.7 5.3 1 8 1 2.6 0 5.3-.3 8-1v321h-16zm176-128c-37 0-67.6-28.1-71.6-64H456c4.4 0 8-3.6 8-8s-3.6-8-8-8H355.9L424 48.1c0 1 .2 2 .6 2.9l67.5 165H488c-4.4 0-8 3.6-8 8s3.6 8 8 8h7.6c-4 35.9-34.6 64-71.6 64z"/></svg>