<svg xmlns="http://www.w3.org/2000/svg" width="14" height="12"><path fill="#39D969" fill-rule="evenodd" d="M12.734.111c-.6-.323-1.27.3-1.664.67-.901.879-1.664 1.896-2.519 2.82-.947 1.017-1.826 2.034-2.796 3.028-.555.554-1.156 1.155-1.525 1.848-.832-.807-1.55-1.687-2.473-2.403-.67-.508-1.78-.878-1.757.347.047 1.594 1.456 3.304 2.496 4.39.44.463 1.017.948 1.687.971.81.046 1.641-.924 2.127-1.456.855-.924 1.548-1.964 2.334-2.912C9.66 6.166 10.7 4.942 11.694 3.67c.624-.785 2.589-2.727 1.04-3.559zM1.017 6.328c-.023 0-.046 0-.092.023A1.125 1.125 0 0 1 .67 6.26c.069-.046.184-.023.346.07z"/></svg>