<svg xmlns="http://www.w3.org/2000/svg" width="512" height="512" viewBox="0 0 45.959 45.959"><path d="M39.229 6.731c-8.975-8.974-23.523-8.974-32.498 0s-8.974 23.523 0 32.498c8.974 8.974 23.523 8.974 32.497-.001 8.974-8.974 8.975-23.524.001-32.497zm-6.866 19.98a3.996 3.996 0 1 1-5.652 5.651l-3.748-3.749-3.74 3.74a3.977 3.977 0 0 1-5.635.019c-1.56-1.561-1.542-4.073.019-5.635l3.74-3.74-3.747-3.746c-1.561-1.561-1.567-4.098-.006-5.658s4.096-1.556 5.656.005l3.749 3.749 3.74-3.74c1.561-1.561 4.073-1.578 5.634-.019 1.561 1.561 1.543 4.074-.019 5.635l-3.739 3.74 3.748 3.748z" fill="#D80027"/></svg>