<?xml version="1.0" encoding="utf-8"?>
<!-- Generator: Adobe Illustrator 23.0.0, SVG Export Plug-In . SVG Version: 6.00 Build 0)  -->
<svg version="1.1" id="Capa_1" xmlns="http://www.w3.org/2000/svg" xmlns:xlink="http://www.w3.org/1999/xlink" x="0px" y="0px"
	 viewBox="0 0 434.2 434.2" style="enable-background:new 0 0 434.2 434.2;" xml:space="preserve">
<style type="text/css">
	.st0{fill:#2FCF5F;}
</style>
<g>
	<path class="st0" d="M332.3,230.2V35H40.9v364.2h134c9.6,0,17.5,7.9,17.5,17.5s-7.9,17.5-17.5,17.5H23.4c-9.6,0-17.5-7.9-17.5-17.5
		V17.5C6,7.9,13.8,0,23.4,0h326.4c9.6,0,17.5,7.9,17.5,17.5v212.7c0,9.6-7.9,17.5-17.5,17.5S332.3,239.8,332.3,230.2z M422.4,272.7
		c-7.3-6.4-18.4-5.8-24.8,1.5l-95.9,106.6l-48.1-46.3c-7-6.7-18.1-6.4-24.8,0.6s-6.4,18.1,0.6,24.8l61.2,58.9c3.2,3.2,7.6,5,12.2,5
		c0.3,0,0.3,0,0.6,0c4.7-0.3,9.3-2.3,12.2-5.8l107.8-120.1C430.2,290.2,429.6,279.1,422.4,272.7z M268.2,102H110.9
		c-9.6,0-17.5,7.9-17.5,17.5s7.9,17.5,17.5,17.5h157.3c9.6,0,17.5-7.9,17.5-17.5S277.8,102,268.2,102z M285.7,215.6
		c0-9.6-7.9-17.5-17.5-17.5H110.9c-9.6,0-17.5,7.9-17.5,17.5s7.9,17.5,17.5,17.5h157.3C277.8,233.1,285.7,225.2,285.7,215.6z
		 M110.9,291.4c-9.6,0-17.5,7.9-17.5,17.5s7.9,17.5,17.5,17.5h46.6c9.6,0,17.5-7.9,17.5-17.5s-7.9-17.5-17.5-17.5H110.9z"/>
</g>
</svg>
