<svg xmlns="http://www.w3.org/2000/svg" viewBox="0 0 18.629 18.629" width="512" height="512"><path fill="#39d969" d="M11.854 9.315V2.54a.846.846 0 0 0-.846-.847H.846A.847.847 0 0 0 0 2.54v6.774c0 .469.379.847.846.847h10.163a.844.844 0 0 0 .845-.846zm-1.693-.848H1.694V3.388h8.468v5.079zm7.621 0a.847.847 0 0 0-.848.848v5.926H7.621a.846.846 0 1 0 0 1.695h10.161a.847.847 0 0 0 .846-.847V9.315a.847.847 0 0 0-.846-.848zm-2.541 4.234V5.927a.846.846 0 1 0-1.694 0v5.927H4.232a.847.847 0 0 0 0 1.695h10.163a.847.847 0 0 0 .846-.848z"/></svg>