<svg xmlns="http://www.w3.org/2000/svg" viewBox="0 0 512 512"><path fill="#354052" d="M382.9 144.6h-78V107c0-11.1-9.1-20.2-20.2-20.2H53.6c-11.2 0-20.2 9.1-20.2 20.2v327c0 11.1 9.1 20.2 20.2 20.2h78v37.6c0 11.1 9.1 20.2 20.2 20.2h231.1c11.1 0 20.2-9.1 20.2-20.2v-327c.1-11.1-9-20.2-20.2-20.2zM53.6 436.8c-1.6 0-2.9-1.3-2.9-2.9V107c0-1.6 1.3-2.9 2.9-2.9h231.1c1.6 0 2.9 1.3 2.9 2.9v327c0 1.6-1.3 2.9-2.9 2.9l-231.1-.1zm332.2 55c0 1.6-1.3 2.9-2.9 2.9h-231c-1.6 0-2.9-1.3-2.9-2.9v-36.4h135.8c11.1 0 20.2-9.1 20.2-20.2V429h41.4c4.8 0 8.7-3.9 8.7-8.7s-3.9-8.7-8.7-8.7H305v-42.4h41.4c4.8 0 8.7-3.9 8.7-8.7s-3.9-8.7-8.7-8.7H305v-43.3h41.4c4.8 0 8.7-3.9 8.7-8.7s-3.9-8.7-8.7-8.7H305v-41.6h11.5c4.8 0 8.7-3.9 8.7-8.7 0-4.8-3.9-8.7-8.7-8.7H305v-70.4h78c1.6 0 2.9 1.3 2.9 2.9v327.2zM73.4 173.4c0-4.8 3.9-8.7 8.7-8.7h140.6c4.8 0 8.7 3.9 8.7 8.7 0 4.8-3.9 8.7-8.7 8.7H82c-4.8 0-8.6-3.9-8.6-8.7zm187.7 59c0 4.8-3.9 8.7-8.7 8.7H82c-4.8 0-8.7-3.9-8.7-8.7 0-4.8 3.9-8.7 8.7-8.7h170.4c4.8 0 8.7 3.9 8.7 8.7zm0 60.6c0 4.8-3.9 8.7-8.7 8.7H82c-4.8 0-8.7-3.9-8.7-8.7s3.9-8.7 8.7-8.7h170.4c4.8 0 8.7 3.9 8.7 8.7zm0 59.7c0 4.8-3.9 8.7-8.7 8.7H82c-4.8 0-8.7-3.9-8.7-8.7 0-4.8 3.9-8.7 8.7-8.7h170.4c4.8 0 8.7 3.9 8.7 8.7z"/><path fill="#2FAE23" d="M493.8 2.8c-18.8-10.1-39.7 9.4-52 20.9-28.2 27.4-52 59.2-78.7 88.1-29.6 31.8-57 63.5-87.3 94.6-17.3 17.3-36.1 36.1-47.6 57.7-26-25.3-48.4-52.7-77.2-75.1-20.9-15.9-55.6-27.4-54.9 10.8 1.4 49.8 45.5 103.2 78 137.2 13.7 14.4 31.8 29.6 52.7 30.3 25.3 1.4 51.3-28.9 66.4-45.5 26.7-28.9 48.4-61.4 72.9-91 31.8-39 64.2-77.2 95.3-116.9 19.4-24.5 80.8-85.1 32.4-111.1zM127.8 197c-.7 0-1.4 0-2.9.7-2.9-.7-5.1-1.4-7.9-2.9 2.2-1.4 5.8-.7 10.8 2.2z"/></svg>