<svg xmlns="http://www.w3.org/2000/svg" width="512" height="512" viewBox="0 0 445.53 445.529"><path d="M395.264 60.6h-81.71V21.184C313.554 9.504 304.049 0 292.37 0H50.265C38.583 0 29.081 9.504 29.081 21.184v342.564c0 11.68 9.502 21.185 21.185 21.185h81.71v39.413c0 11.68 9.502 21.184 21.185 21.184h242.104c11.68 0 21.185-9.504 21.185-21.184V81.784c-.001-11.682-9.506-21.184-21.186-21.184zM50.265 366.774a3.033 3.033 0 0 1-3.026-3.026V21.184a3.032 3.032 0 0 1 3.026-3.026H292.37a3.03 3.03 0 0 1 3.026 3.026v342.564a3.031 3.031 0 0 1-3.026 3.026H50.265zm348.026 57.56a3.023 3.023 0 0 1-3.026 3.025H153.16a3.026 3.026 0 0 1-3.026-3.025v-38.16H292.37c11.68 0 21.185-9.505 21.185-21.185v-6.425h43.367c5.013 0 9.079-4.061 9.079-9.079s-4.066-9.079-9.079-9.079h-43.367v-44.384h43.367a9.077 9.077 0 0 0 9.079-9.079 9.076 9.076 0 0 0-9.079-9.078h-43.367V232.47h43.367c5.013 0 9.079-4.061 9.079-9.079s-4.066-9.079-9.079-9.079h-43.367v-43.604h12.087a9.077 9.077 0 0 0 9.079-9.079 9.077 9.077 0 0 0-9.079-9.079h-12.087V78.758h81.71a3.03 3.03 0 0 1 3.026 3.026v342.55zM70.929 90.789a9.077 9.077 0 0 1 9.079-9.079h147.279a9.077 9.077 0 0 1 9.079 9.079 9.077 9.077 0 0 1-9.079 9.079H80.008a9.078 9.078 0 0 1-9.079-9.079zm196.716 61.762a9.077 9.077 0 0 1-9.079 9.079H80.008a9.078 9.078 0 0 1-9.079-9.079 9.077 9.077 0 0 1 9.079-9.079h178.558a9.077 9.077 0 0 1 9.079 9.079zm0 63.552a9.077 9.077 0 0 1-9.079 9.079H80.008c-5.012 0-9.079-4.061-9.079-9.079s4.066-9.079 9.079-9.079h178.558a9.077 9.077 0 0 1 9.079 9.079zm0 62.542a9.077 9.077 0 0 1-9.079 9.079H80.008a9.078 9.078 0 0 1-9.079-9.079 9.076 9.076 0 0 1 9.079-9.078h178.558c5.013-.001 9.079 4.066 9.079 9.078z" fill="#354052"/></svg>