<svg xmlns="http://www.w3.org/2000/svg" viewBox="0 0 221.5 91"><g fill="#3C5A99"><path d="M90.6 40.7c-2.2-.2-4.1.4-5.7 2.4V31.2l-5.8.7v27.5h5.8v-1.6c.8.6 1.6 1.2 2.4 1.6 3.4 1.2 7.9.2 9.5-4.3 1-2.9 1-5.9.2-8.9-.8-3.3-3-5.1-6.4-5.5zm.9 11.9c-.3 1.8-1.7 2.8-3.4 2.6-.4 0-.8-.1-1.2-.3-1.4-.8-1.8-2.1-1.9-3-.1-1.3-.2-4 .4-5.3.5-1 1.5-1.5 2.7-1.6 1.8-.1 3.1.8 3.3 2.6.3 1.8.3 3.4.1 5zM111.3 41c-2-.5-4.1-.5-6.1 0-3 .8-5.1 2.7-5.7 5.8-.4 1.7-.4 3.4-.3 5.1.2 3.9 2.6 6.7 6.4 7.5h.2c.1 0 .3.1.4.1h.1c.2 0 .4.1.6.1.7.1 1.7.1 2.4 0h.1c3.9-.2 6.8-2.6 7.7-6.4a13 13 0 0 0 0-6.2c-.6-3-2.6-5.1-5.8-6zm.3 11.3c0 .1 0 .2-.1.4-.4 1.7-1.6 2.7-3.3 2.6-1.8-.1-3-1.1-3.2-2.9-.1-1.3-.1-2.6 0-4 .2-2.1 1.5-3.2 3.4-3.2 1.6 0 2.7.9 3.1 2.5.4 1.5.1 4.3.1 4.6zM23.7 40.9h-4.2v-2.8c.3-2.6 4.6-2.1 4.6-2.1v-4.5c-.1 0-8.6-2-10.3 4.4-.3.8-.2 4.5-.2 5H10v4.9h3.8v13.4h5.6V45.9h4.3l.5-4.9-.5-.1zM37 43.3l-.2-.2-.1-.1c-1.3-1.3-1.8-1.7-2.8-2-4-1.2-7.8.9-9 4.9-.8 2.4-.8 5-.3 7.4.9 5.4 4.9 7.2 9.2 6.3 1.3-.3 2.3-1.1 3.2-2.2 0 0 .1-.1.2-.3v2.4h5.4V41H37v2.3zm-.4 9.3c-.2 1.7-1.6 2.7-3.2 2.7-1.7-.1-2.8-1-3.1-2.6-.4-2.3.1-5 .1-5.2.4-1.5 1.6-2.3 3.2-2.3s2.8 1 3 2.7c.1 1.5.1 3.1 0 4.7zM59.1 58.1c-.3-.9-.5-1.8-.8-2.7l-.3-1s-6.8 3.3-7.9-2.9c-.1-1-.1-2.1.1-3.1.3-1.9 1.4-2.9 3.3-3.1.6-.1 1.3 0 1.9.1.8.1 1.7.4 2.6.6.3-1 .7-2 1-2.9 0-.2.1-.3.1-.4l.2-.6c0-.1-.1-.2-.3-.2l-.8-.4c-.2-.1-.3-.1-.5-.2-.2 0-.2-.1-.2-.1-1.8-.5-3.6-.6-5.5-.4-3.9.4-6.6 2.7-7.4 6.6-.4 2-.4 4.1.1 6.1.7 3 2.5 5 5.5 5.9 2 .6 4 .6 5.9.3.8-.1 2-.6 2.9-.9l.3-.1-.2-.6zM77.1 50.9c0-1.3 0-2.6-.2-3.8-.5-3.4-2.6-5.6-6-6.2-1.3-.2-2.7-.2-4-.1-3.6.3-6.3 2.6-6.9 6-.3 2-.4 4.2-.1 6.3.4 3.1 1.9 5.1 4.5 6 1.2.4 7 1.9 12.1-.7l-.2-.8c-.2-1-.5-2-.8-3v-.1s-.1 0-.3.1c-.2.1-.4.1-.7.2h-.1c-.8.2-1.9.5-3.1.6-1 .1-2 .1-3 0-1.6-.3-2.9-1.1-2.8-3.2H76.9V52l.2-1.1zm-5.3-2.5h-6.3c0-1.3.2-2.4 1.3-3.1 1.2-.8 2.5-.8 3.7-.1 1.3.6 1.4 1.8 1.3 3.2zM156.7 41.2h-6.2l-5.4 8.4V31.2l-5.8.7v27.5h5.8V51l5.4 8.4h6.2l-5.9-9.1zM131.2 41c-2-.5-4.1-.5-6.1 0-3 .8-5.1 2.7-5.7 5.8-.4 1.7-.4 3.4-.3 5.1.2 3.9 2.6 6.7 6.4 7.5h.2c.1 0 .3.1.4.1h.1c.2 0 .4.1.6.1.7.1 1.7.1 2.4 0h.1c3.9-.2 6.8-2.6 7.7-6.4a13 13 0 0 0 0-6.2c-.6-3-2.6-5.1-5.8-6zm.3 11.3c0 .1 0 .2-.1.4-.4 1.7-1.6 2.7-3.3 2.6-1.8-.1-3-1.1-3.2-2.9-.1-1.3-.1-2.6 0-4 .2-2.1 1.5-3.2 3.4-3.2 1.6 0 2.7.9 3.1 2.5.4 1.5.1 4.3.1 4.6z"/></g><g fill="#828282"><path d="M181.7 58.9l-1.6-5.6h-8.5l-1.6 5.6h-2.1l6.8-22.7h2.3l6.8 22.7h-2.1zm-5.9-20.4l-3.9 13.2h7.7l-3.8-13.2zM195.9 58.9v-2.4c-.9 1.7-2.6 2.9-4.4 2.9-3.7 0-5.8-3.5-5.8-8.6s2.1-8.6 5.8-8.6c1.7 0 3.4 1 4.4 2.9v-8.8h1.7V59h-1.7zm0-4.1v-8.1c-.7-1.6-2.3-3.1-4.1-3.1-3 0-4.3 3.3-4.3 7.1s1.3 7.1 4.3 7.1c1.8 0 3.4-1.4 4.1-3zM201.1 57l1-1.2c.9 1.2 2.3 2.1 4.2 2.1 2.1 0 3.5-1.2 3.5-3 0-4.3-8.2-3-8.2-8.6 0-2.3 1.9-4.2 4.9-4.2 2.1 0 3.7.8 4.7 2.1l-.9 1.2c-.8-1.2-2.2-1.8-3.8-1.8-2 0-3.2 1.2-3.2 2.7 0 4 8.2 2.8 8.2 8.6 0 2.6-2 4.5-5.1 4.5-2.3 0-3.9-.8-5.3-2.4z"/></g></svg>