<svg xmlns="http://www.w3.org/2000/svg" viewBox="0 0 489.1 489.1"><path d="M143.25 474.4h-69.9c-2.1 0-3.9-1.8-3.9-3.9V287.3c0-2.1 1.8-3.9 3.9-3.9h69.9c2.1 0 3.9 1.8 3.9 3.9v183.2c0 2.1-1.8 3.9-3.9 3.9z" fill="#3c92ca"/><path d="M255.75 78.9c-2.4 0-4.7 1-6.4 2.7s-2.6 4-2.6 6.4 1 4.7 2.6 6.4c1.7 1.7 4 2.7 6.4 2.7s4.7-1 6.4-2.7c1.7-1.7 2.7-4 2.7-6.4s-1-4.7-2.7-6.4c-1.7-1.7-4-2.7-6.4-2.7zM255.75 39.5c-5 0-9.1 4.1-9.1 9.1s4 9.1 9.1 9.1c5 0 9.1-4 9.1-9.1s-4.1-9.1-9.1-9.1zM262.15 2.7c-1.7-1.7-4-2.7-6.4-2.7s-4.7 1-6.4 2.7-2.6 4-2.6 6.4 1 4.7 2.6 6.4c1.7 1.7 4 2.7 6.4 2.7s4.7-1 6.4-2.7c1.7-1.7 2.7-4 2.7-6.4s-1-4.7-2.7-6.4zM419.65 195.4c2.4 0 4.7-1 6.4-2.7 1.7-1.7 2.7-4 2.7-6.4s-1-4.7-2.7-6.4-4-2.7-6.4-2.7-4.7 1-6.4 2.7c-1.7 1.7-2.7 4-2.7 6.4s1 4.7 2.7 6.4c1.7 1.8 4 2.7 6.4 2.7zM380.25 195.4c5 0 9.1-4.1 9.1-9.1s-4-9.1-9.1-9.1c-5 0-9.1 4.1-9.1 9.1 0 5.1 4.1 9.1 9.1 9.1zM340.85 195.4c2.4 0 4.7-1 6.4-2.7 1.7-1.7 2.7-4 2.7-6.4s-1-4.7-2.7-6.4-4-2.7-6.4-2.7-4.7 1-6.4 2.7c-1.7 1.7-2.7 4-2.7 6.4s1 4.7 2.7 6.4 4 2.7 6.4 2.7zM91.85 195.4c2.4 0 4.7-1 6.4-2.7s2.7-4 2.7-6.4-1-4.7-2.7-6.4-4-2.7-6.4-2.7c-2.4 0-4.7 1-6.4 2.7-1.7 1.7-2.6 4-2.6 6.4s1 4.7 2.6 6.4c1.7 1.8 4 2.7 6.4 2.7zM122.15 186.4c0 5 4 9.1 9.1 9.1 5 0 9.1-4.1 9.1-9.1s-4.1-9.1-9.1-9.1-9.1 4.1-9.1 9.1zM164.25 192.8c1.7 1.7 4 2.7 6.4 2.7s4.7-1 6.4-2.7 2.7-4 2.7-6.4-1-4.7-2.7-6.4-4-2.7-6.4-2.7-4.7 1-6.4 2.7-2.6 4-2.6 6.4.9 4.7 2.6 6.4zM125.45 63.4c2.4 0 4.7-1 6.4-2.7s2.7-4 2.7-6.4-1-4.7-2.7-6.4-4-2.7-6.4-2.7c-2.4 0-4.7 1-6.4 2.7-1.7 1.7-2.7 4-2.7 6.4s1 4.7 2.7 6.4c1.6 1.8 4 2.7 6.4 2.7zM153.35 91.3c2.3 0 4.6-.9 6.4-2.7 3.5-3.5 3.5-9.3 0-12.8s-9.3-3.5-12.8 0-3.5 9.3 0 12.8c1.7 1.8 4 2.7 6.4 2.7zM181.15 119.2c2.4 0 4.7-1 6.4-2.6 1.7-1.7 2.7-4 2.7-6.4s-1-4.7-2.7-6.4c-1.7-1.7-4-2.7-6.4-2.7s-4.7 1-6.4 2.7-2.7 4-2.7 6.4 1 4.7 2.7 6.4c1.7 1.6 4.1 2.6 6.4 2.6zM384.15 66.5c1.7-1.7 2.7-4 2.7-6.4s-1-4.7-2.7-6.4-4-2.7-6.4-2.7-4.7 1-6.4 2.7c-1.7 1.7-2.7 4-2.7 6.4s1 4.7 2.7 6.4c1.7 1.7 4 2.7 6.4 2.7 2.3 0 4.7-1 6.4-2.7zM356.25 81.6c-3.5-3.5-9.3-3.5-12.8 0s-3.5 9.3 0 12.8c1.8 1.8 4.1 2.7 6.4 2.7s4.6-.9 6.4-2.7c3.5-3.6 3.5-9.3 0-12.8zM321.95 106.8c-2.4 0-4.7 1-6.4 2.7-1.7 1.7-2.7 4-2.7 6.4s1 4.7 2.7 6.4 4 2.7 6.4 2.7 4.7-1 6.4-2.7c1.7-1.7 2.7-4 2.7-6.4s-1-4.7-2.7-6.4c-1.7-1.8-4-2.7-6.4-2.7z"/><path d="M60.35 291.2v175.3c0 9.3 7.6 16.9 16.9 16.9h62c6.2 0 11.7-3.4 14.6-8.4 9.1 8.7 21.5 14.1 35.1 14.1h156.4c34.6 0 56.6-18.1 60.5-49.7l21-133.7c.1-.5.1-.9.1-1.4 0-28.1-22.9-50.9-50.9-50.9h-79.1v-57c0-24-7-41.4-20.9-51.5-21.9-16.1-52.1-6.9-53.4-6.5-3.8 1.2-6.3 4.7-6.3 8.6v63.9c0 50.4-58.5 67.6-60.9 68.3-1.2.3-2.2.9-3.1 1.6-3.1-3.9-7.9-6.4-13.2-6.4h-62c-9.2-.1-16.8 7.5-16.8 16.8zm100.1 5.4c3-.8 74.2-21.5 74.2-85.7v-56.6c7.8-1.2 21.2-1.9 30.9 5.2 8.9 6.6 13.5 19 13.5 36.9v66.1c0 5 4.1 9.1 9.1 9.1h88.1c17.9 0 32.5 14.4 32.8 32.2l-20.9 133.1v.3c-2.7 22.5-17.1 33.9-42.6 33.9h-156.5c-18.1 0-32.8-14.7-32.8-32.8V296.7c1.3.3 2.8.3 4.2-.1zm-82-4.2h59.6v172.9h-59.6V292.4z"/></svg>