<svg xmlns="http://www.w3.org/2000/svg" viewBox="0 0 512 512"><path fill="#2FB22F" d="M359.4 367c-4.7-.6-8.9 2.8-9.5 7.5-.5 4.7 2.8 8.9 7.5 9.5 89.7 10.6 137.5 39 137.5 55.5 0 23.2-90.9 55.5-238.9 55.5S17.1 462.6 17.1 439.5c0-16.5 47.8-45 137.5-55.5 4.7-.5 8-4.8 7.5-9.5-.6-4.7-4.8-8.1-9.5-7.5C62.8 377.6 0 407.4 0 439.5c0 36 87.9 72.5 256 72.5s256-36.5 256-72.5c0-32.1-62.8-61.9-152.6-72.5z"/><path fill="#0195C7" d="M254.5 467.3l130.9-189.1c49.1-65.5 42-173.1-15.2-230.2-30.9-31-72-48-115.7-48s-84.8 17-115.7 47.9c-57.2 57.2-64.3 164.8-15.4 230l131.1 189.4zm1.5-364.9c32.9 0 59.7 26.8 59.7 59.7s-26.8 59.7-59.7 59.7-59.7-26.8-59.7-59.7 26.8-59.7 59.7-59.7z"/></svg>