<svg xmlns="http://www.w3.org/2000/svg" width="512" height="512" viewBox="0 0 99.004 99.004"><g fill="#9b9b9b"><path d="M49.502.002C22.207.002 0 22.209 0 49.504c0 27.293 22.207 49.498 49.502 49.498s49.502-22.203 49.502-49.498C99.004 22.207 76.797.002 49.502.002zm0 95.646c-25.444 0-46.145-20.701-46.145-46.146 0-25.444 20.701-46.145 46.145-46.145 25.443 0 46.146 20.701 46.146 46.145-.002 25.445-20.703 46.146-46.146 46.146z"/><circle cx="31.471" cy="49.207" r="3.715"/><path d="M50.309 45.778a3.724 3.724 0 0 0-3.716 3.718 3.715 3.715 0 1 0 3.716-3.718z"/><circle cx="69.146" cy="49.493" r="3.716"/></g></svg>