<svg xmlns="http://www.w3.org/2000/svg" width="23" height="23"><g fill="#EE2032" fill-rule="evenodd"><path fill-rule="nonzero" d="M10.733 0v3.103a8.46 8.46 0 0 0-7.63 7.63H0v1.534h3.103c.371 4.037 3.593 7.259 7.63 7.624V23h1.534v-3.109a8.438 8.438 0 0 0 7.624-7.624H23v-1.534h-3.109c-.365-4.037-3.587-7.259-7.624-7.63V0h-1.534zm0 4.678v1.455h1.534V4.678a6.83 6.83 0 0 1 6.055 6.055h-1.455v1.534h1.455a6.83 6.83 0 0 1-6.055 6.055v-1.455h-1.534v1.455a6.83 6.83 0 0 1-6.055-6.055h1.455v-1.534H4.678a6.83 6.83 0 0 1 6.055-6.055z"/><circle cx="11.5" cy="11.5" r="2.5"/></g></svg>