<svg xmlns="http://www.w3.org/2000/svg" width="18" height="20" viewBox="0 0 18 20">
    <path fill="#4d91fc" fill-rule="nonzero" d="M2.25 0C1.014 0 0 1.04 0 2.308V20h7.5v-3.077h3V20H18V2.308C18 1.04 16.986 0 15.75 0H2.25zm0 1.538h13.5a.75.75 0 0 1 .75.77v16.154H12v-3.077H6v3.077H1.5V2.308a.75.75 0 0 1 .75-.77zM3 3.077v1.538h3V3.077H3zm4.5 0v1.538h3V3.077h-3zm4.5 0v1.538h3V3.077h-3zM3 6.154v1.538h3V6.154H3zm4.5 0v1.538h3V6.154h-3zm4.5 0v1.538h3V6.154h-3zM3 9.23v1.538h3V9.231H3zm4.5 0v1.538h3V9.231h-3zm4.5 0v1.538h3V9.231h-3zm-9 3.077v1.538h3v-1.538H3zm4.5 0v1.538h3v-1.538h-3zm4.5 0v1.538h3v-1.538h-3zm-9 3.077v1.538h1.5v-1.538H3zm10.5 0v1.538H15v-1.538h-1.5z"/>
</svg>
