<svg xmlns="http://www.w3.org/2000/svg" width="512" height="512" viewBox="0 0 330.781 330.781"><g fill="#3ebff0"><path d="M73.077 13.376s0-.611 0 0c0-.611 0 0 0 0zM292.785 130.269c.612-2.448 0-4.284-1.224-5.508 1.224-3.06-.612-7.344-3.672-9.18-41.004-15.912-77.112-43.452-113.832-67.932-25.704-17.136-53.244-31.212-81.396-44.676-.612 0-1.224-.612-1.836-.612-2.448-3.672-8.568-3.06-9.792 1.836l-1.836 7.344-.612.612c-.612-.612-1.224-1.224-1.836-1.224-1.224-.612-2.448 0-3.06.612h-.612c-.612 0-.612.612 0 .612 1.836 0 0 1.224 0 .612-1.836 1.836-2.448 4.896-3.672 6.732-3.672 7.344-9.18 13.464-13.464 20.196-4.896 6.732-22.644 22.032-17.136 31.824 0 .612.612.612.612 1.224-2.448 41.004.612 82.008 1.836 123.012 1.224 40.392-.612 83.844 6.732 124.235.612 3.061 2.448 4.284 4.896 4.284 11.016 24.48 90.577-27.54 100.369-33.66 28.151-17.748 55.691-36.72 82.008-56.916 11.628-9.18 44.063-27.54 46.512-43.452.612-2.447-.612-4.283-1.836-5.508 4.895-17.747 10.402-36.108 12.851-54.467zm-23.868 55.08c-10.403 5.508-21.42 18.972-29.376 25.704-23.256 18.36-47.124 35.496-71.604 52.02-34.271 23.257-69.768 44.064-109.548 55.08 3.672-39.779-1.836-82.62-3.672-122.399-1.224-41.004-1.224-82.62-6.732-123.012 3.06-1.836 4.896-4.896 6.732-7.956L69.405 44.59c2.448-3.672 6.12-8.568 9.18-14.076.612 9.18 1.836 18.36 1.836 26.928l3.672 80.784a1327.199 1327.199 0 0 1 1.836 69.768c0 16.524-3.672 34.885-.612 51.408.612 4.284 7.344 4.284 9.18 1.225.612-.612 1.224-1.836 1.224-3.061 1.836 2.448 4.284 3.672 7.344 3.061 38.556-6.732 77.112-38.557 107.712-60.588 19.584-13.465 38.556-27.54 56.304-43.453 2.448-1.836 4.896-3.672 7.344-6.12-2.448 12.239-4.284 23.867-5.508 34.883zM186.909 198.2c-19.584 13.465-39.779 25.704-59.976 37.332-7.344 4.284-19.584 7.956-27.54 13.465 9.792-29.988 1.836-74.664.612-102.205-1.224-26.928-2.448-53.856-3.672-81.396-.612-13.464.612-29.988-.612-44.676 28.153 15.912 55.692 30.6 82.62 48.348 22.645 15.3 45.288 31.212 68.545 44.676 8.567 4.896 18.972 11.628 29.376 14.076-25.705 27.541-58.141 48.96-89.353 70.38z"/></g></svg>