<svg width="45" height="45" xmlns="http://www.w3.org/2000/svg"><path d="M44.104 17.258a2.96 2.96 0 0 0-2.173-.894H28.636V3.068A2.96 2.96 0 0 0 27.74.895 2.96 2.96 0 0 0 25.567 0H19.43c-.852 0-1.576.298-2.173.895a2.959 2.959 0 0 0-.895 2.173v13.296H3.068c-.852 0-1.577.298-2.173.895A2.958 2.958 0 0 0 0 19.432v6.136c0 .853.298 1.577.895 2.173a2.958 2.958 0 0 0 2.173.895h13.295v13.296c0 .852.298 1.577.895 2.173A2.96 2.96 0 0 0 19.43 45h6.136a2.96 2.96 0 0 0 2.174-.894 2.959 2.959 0 0 0 .895-2.173V28.636H41.93c.853 0 1.577-.298 2.173-.895.597-.596.895-1.32.895-2.173v-6.136c0-.853-.298-1.577-.895-2.174z" fill="#2FCF5F" fill-rule="evenodd"/></svg>