<svg xmlns="http://www.w3.org/2000/svg" width="348.692" height="348.692"><path d="M345.649 130.289c-35.495-17.136-64.872-40.392-91.8-68.544-3.06-3.06-6.731-2.448-9.18.612-1.224-.612-1.836-1.224-2.448-1.224-7.344 0-7.956 11.016-7.956 15.912-.611 11.016-1.224 21.42-1.224 32.436-63.648-.612-127.909 0-191.557-9.792-3.06-.612-6.732.612-7.956 3.672-.612 0-1.836 0-2.448.612-5.508 4.284-10.404 9.18-15.3 14.076-4.896 4.284-8.568 9.792-13.464 13.464-3.672 3.06-2.448 6.732 0 8.568-.612 23.256-1.836 45.9 1.224 69.156.612 6.731 10.404 7.956 12.24 3.06h.612c59.976 5.508 122.4 6.12 182.376 2.448-10.403 20.196-2.447 42.84 1.225 65.484.611 3.672 3.06 4.896 5.508 4.283 0 3.672 3.672 6.12 6.731 3.061 37.332-36.108 81.396-58.752 123.013-88.128 4.284-3.061 2.447-10.404-3.061-10.404 6.732-14.688 10.404-30.6 15.912-45.9.612-1.836.612-3.672-.611-4.896 1.837-1.836 1.837-6.12-1.836-7.956zm-110.159-7.956c3.06 0 4.896-1.836 6.119-4.284 1.837-.612 3.673-2.448 3.673-5.508 0-9.792 1.224-19.584 2.447-29.376 0-2.448.612-5.508 1.225-7.956 23.256 25.704 51.408 46.512 82.62 62.424-14.688 15.3-30.601 28.152-47.736 40.391-12.852 9.181-27.54 17.137-39.78 26.929v-1.836c0-10.404.612-20.808-.611-31.212 3.06-3.672.611-10.404-6.12-9.18-63.649 8.568-125.461-2.448-189.721 1.836a721.319 721.319 0 0 1-1.836-51.408c63.035 9.792 126.684 9.792 189.72 9.18zm-23.868 153.612c-3.672-21.42-11.628-45.288-3.061-66.097.612-1.224 0-1.836-.611-2.447-.612-1.836-2.448-3.672-5.509-3.672-61.2-3.673-124.848-3.061-186.048 2.447h-.612c-2.448-21.42-4.284-43.452-4.896-64.872.612-.612 1.224-1.836 1.836-3.06 1.836-5.508 6.732-11.016 10.404-15.3 3.06-3.672 6.732-7.344 9.792-11.628 0 18.972 1.836 37.332 4.896 56.304.612 2.448 3.06 3.672 5.508 3.672.612 1.224 1.224 1.836 3.06 1.836 58.14 5.508 130.357 23.868 187.884 4.284-1.224 8.568-2.448 16.524-3.672 25.092-.612 4.896-3.06 12.24-1.836 18.36-1.224 3.06.612 6.731 4.284 6.731 2.448 1.225 5.508.612 7.344-1.224l.612-.612h1.836c2.448 0 3.672-1.836 3.06-3.672 29.988-14.076 61.2-37.943 85.068-62.424-3.06 11.628-5.508 23.256-7.956 34.884-41.615 15.914-82.007 48.962-111.383 81.398z"/></svg>