<svg width="12" height="12" xmlns="http://www.w3.org/2000/svg"><path d="M1.396 11.41h9.208A1.4 1.4 0 0 0 12 10.011V2.399a1.394 1.394 0 0 0-1.396-1.39H9.6V.267a.267.267 0 1 0-.533 0v.742H3.04V.267a.267.267 0 1 0-.533 0v.742h-1.11A1.394 1.394 0 0 0 0 2.4v7.613a1.4 1.4 0 0 0 1.396 1.397zM.533 2.4a.86.86 0 0 1 .863-.857h1.11v.735a.267.267 0 1 0 .534 0v-.735h6.027v.735a.267.267 0 1 0 .533 0v-.735h1.004a.86.86 0 0 1 .863.856v1.197H.533V2.399zm10.934 1.73v5.882a.867.867 0 0 1-.863.864H1.396a.867.867 0 0 1-.863-.864V4.129h10.934z" fill="#B2BBD5" fill-rule="nonzero"/></svg>