<svg xmlns="http://www.w3.org/2000/svg" width="401.991" height="401.991"><path fill="#707ea7" d="M352.029 13.418C343.077 4.471 332.332 0 319.766 0H82.223C69.66 0 58.906 4.471 49.959 13.418c-8.945 8.949-13.418 19.7-13.418 32.264v310.633c0 12.566 4.473 23.309 13.418 32.261 8.947 8.949 19.701 13.415 32.264 13.415h237.542c12.566 0 23.312-4.466 32.264-13.415 8.946-8.952 13.422-19.701 13.422-32.261V45.683c0-12.565-4.486-23.319-13.422-32.265zM213.843 378.299c-3.613 3.614-7.898 5.421-12.849 5.421-4.952 0-9.233-1.807-12.85-5.421-3.617-3.62-5.424-7.904-5.424-12.847 0-4.948 1.807-9.239 5.424-12.847 3.621-3.62 7.902-5.434 12.85-5.434 4.95 0 9.235 1.813 12.849 5.434 3.614 3.607 5.428 7.898 5.428 12.847 0 4.943-1.814 9.224-5.428 12.847zm115.059-58.532c0 2.478-.91 4.613-2.71 6.427-1.813 1.814-3.949 2.711-6.427 2.711H82.223c-2.474 0-4.615-.904-6.423-2.711s-2.712-3.949-2.712-6.427V45.683c0-2.475.903-4.617 2.712-6.424 1.809-1.809 3.949-2.712 6.423-2.712h237.542c2.478 0 4.613.9 6.427 2.712 1.807 1.807 2.71 3.949 2.71 6.424v274.084z"/></svg>