<svg xmlns="http://www.w3.org/2000/svg" width="512" height="512" viewBox="0 0 535.5 535.5"><path d="M142.8 53.55l-35.7-35.7C45.9 63.75 5.1 135.15 0 216.75h51c5.1-68.85 38.25-127.5 91.8-163.2zm341.7 163.2h51c-5.1-81.6-43.35-153-104.55-198.9l-35.7 35.7c51 35.7 84.15 94.35 89.25 163.2zm-51 12.75c0-79.05-53.55-142.8-127.5-160.65V51c0-20.4-17.85-38.25-38.25-38.25S229.5 30.6 229.5 51v17.85C155.55 86.7 102 150.45 102 229.5v140.25l-51 51v25.5h433.5v-25.5l-51-51V229.5zM267.75 522.75h10.2c17.85-2.55 30.6-15.3 35.7-30.6 2.55-5.101 5.1-12.75 5.1-20.4h-102c0 28.05 22.95 51 51 51z" fill="#c62b36"/></svg>