<svg xmlns="http://www.w3.org/2000/svg" width="512" height="512" viewBox="0 0 478.871 478.871"><g fill="#259af2"><path d="M409.729 71.162C365.186 26.091 305.803.829 242.524.025l-.228-.001c-.195 0-.387.022-.58.029-.761-.014-1.52-.029-2.282-.029-1.224 0-2.445.017-3.661.051-63.136.949-122.363 26.259-166.778 71.279C24.503 116.45 0 176.151 0 239.458c0 63.385 24.555 123.139 69.142 168.252 44.544 45.07 103.926 70.334 167.206 71.135.076.002.15.002.226.002.196 0 .386-.021.581-.029.759.014 1.518.029 2.28.029 1.226 0 2.448-.016 3.667-.049 63.137-.949 122.359-26.262 166.773-71.281 44.492-45.096 68.996-104.797 68.996-168.105 0-63.386-24.555-123.138-69.142-168.25zM239.435 387.37c-20.418 0-36.989-16.572-36.989-36.99s16.571-36.99 36.989-36.99c20.418 0 36.989 16.572 36.989 36.99s-16.57 36.99-36.989 36.99zm0-165.458c-70.837 0-128.467 57.63-128.467 128.468v.044c0 .102.004.203.004.305.003 1.068.018 2.134.046 3.197.015.552.042 1.101.063 1.652.024.602.046 1.205.079 1.805.036.686.083 1.369.13 2.053a111.935 111.935 0 0 0 .308 3.699c.025.254.052.51.079.765 1.625 15.617 6.051 30.647 13.055 44.474-54.074-36.933-89.734-99.062-89.734-168.916 0-111.09 90.35-202.779 201.406-204.39l.255-.005c.921-.027 1.847-.04 2.774-.04a93.32 93.32 0 0 1 23.137 2.9c38.785 10.049 68.121 44.741 70.213 85.821.078 1.564.117 3.139.119 4.723-.011 51.528-41.935 93.445-93.467 93.445z"/><path d="M239.435 91.502c-20.418 0-36.989 16.571-36.989 36.988 0 20.418 16.571 36.99 36.989 36.99 20.418 0 36.989-16.572 36.989-36.99 0-20.417-16.57-36.988-36.989-36.988z"/></g></svg>