<svg xmlns="http://www.w3.org/2000/svg" width="22" height="20"><path fill="#2FCF5F" d="M21.171 9.281l-1.904-1.968.383-2.711a1.034 1.034 0 0 0-.845-1.163l-2.697-.473L14.825.548A1.032 1.032 0 0 0 13.46.105L11 1.307 8.54.105a1.033 1.033 0 0 0-1.366.444L5.891 2.968l-2.697.473c-.549.096-.923.61-.845 1.162l.383 2.711L.828 9.282a1.033 1.033 0 0 0 0 1.437l1.904 1.968-.383 2.711a1.034 1.034 0 0 0 .845 1.163l2.697.473 1.283 2.418c.261.492.866.689 1.367.444L11 18.693l2.46 1.202a1.034 1.034 0 0 0 1.367-.444l1.283-2.418 2.697-.473c.549-.096.923-.611.845-1.163l-.383-2.711 1.904-1.968c.385-.4.385-1.036-.002-1.437zM10 14.414l-3.707-3.707 1.414-1.414L10 11.586l5.293-5.293 1.414 1.414L10 14.414z"/></svg>