<svg id="Layer_1" data-name="Layer 1" xmlns="http://www.w3.org/2000/svg" viewBox="0 0 120 120"><defs><style>.cls-1{fill:#fff;stroke-linecap:round;stroke-linejoin:round;stroke:#252e4a;stroke-width:3px}.cls-3{fill:#579bfc}</style></defs><path class="cls-1" d="M14.32 10h91.36a4.32 4.32 0 0 1 4.32 4.32V24H10v-9.68A4.32 4.32 0 0 1 14.32 10z"/><path d="M10 24h100v82a4 4 0 0 1-4 4H14a4 4 0 0 1-4-4V24h0z" stroke-miterlimit="10" fill="#579bfc" stroke="#252e4a" stroke-width="3"/><circle class="cls-3" cx="16.5" cy="17" r="2"/><circle class="cls-3" cx="21.5" cy="17" r="2"/><circle class="cls-3" cx="26.5" cy="17" r="2"/><path class="cls-1" d="M60 36v61M35 36v61M85 36v61"/><circle class="cls-1" cx="35" cy="72" r="8"/><circle class="cls-1" cx="60" cy="57" r="8"/><circle class="cls-1" cx="85" cy="78" r="8"/></svg>