<svg id="Layer_1" data-name="Layer 1" xmlns="http://www.w3.org/2000/svg" viewBox="0 0 120 120"><defs><style>.cls-1,.cls-2{fill:#fff;stroke:#252e4a;stroke-linecap:round;stroke-linejoin:round;stroke-width:3px}.cls-2{fill:#579bfc}</style></defs><path class="cls-1" d="M110 45.5A18.5 18.5 0 0 1 91.5 64H29a10 10 0 0 0-10 10 10 10 0 0 0 10 10h31v8H28a18 18 0 0 1-18-18 18 18 0 0 1 18-18h64a10.5 10.5 0 0 0 10.5-10.5A10.5 10.5 0 0 0 92 35H56v-8h35.5A18.5 18.5 0 0 1 110 45.5z"/><circle class="cls-2" cx="85" cy="85" r="25"/><circle class="cls-1" cx="85" cy="85" r="17"/><path class="cls-2" d="M93.19 82.19c0 4.52-4.1 9.72-8.19 13.81-5.12-4.09-8.19-9.29-8.19-13.81a8.19 8.19 0 0 1 16.38 0z"/><circle class="cls-1" cx="85" cy="82.7" r="3.07"/><circle class="cls-2" cx="34.97" cy="34.97" r="25"/><circle class="cls-1" cx="34.97" cy="34.97" r="17"/><path class="cls-2" d="M43 36.9c-2-1.36-4.17-1.13-6.53 0a8 8 0 0 1-7.47 0v-9.33a8 8 0 0 0 7.47 0c2-1.37 4.17-1.13 6.53 0z"/><path class="cls-1" d="M29 25.7V44"/></svg>