<svg id="Layer_1" data-name="Layer 1" xmlns="http://www.w3.org/2000/svg" viewBox="0 0 120 120"><defs><style>.cls-1{fill:#579bfc;stroke:#252e4a;stroke-linecap:round;stroke-linejoin:round;stroke-width:3px}</style></defs><circle class="cls-1" cx="60" cy="60" r="50"/><circle cx="60" cy="60" r="35" fill="#fff" stroke="#252e4a" stroke-linecap="round" stroke-linejoin="round" stroke-width="3"/><path class="cls-1" d="M42 78l-2.5 2.5M34.54 60h-3.53M42 42l-2.5-2.5M60 34.54v-3.53M78 42l2.5-2.5M85.46 60h3.53M78 78l2.5 2.5M57.88 57.88l11.31-11.32a3 3 0 0 1 4.25 0 3 3 0 0 1 0 4.25L62.12 62.12z"/><circle class="cls-1" cx="60" cy="60" r="8"/><path class="cls-1" d="M66 76l6.6 8.25S68.4 88 60 88s-12.6-3.75-12.6-3.75L54 76z"/></svg>