<svg id="Layer_1" data-name="Layer 1" xmlns="http://www.w3.org/2000/svg" viewBox="0 0 120 120"><defs><style>.cls-1,.cls-2{fill:#579bfc;stroke:#252e4a;stroke-linecap:round;stroke-linejoin:round;stroke-width:3px}.cls-2{fill:#fff}</style></defs><path class="cls-1" d="M22 97V14a4 4 0 0 1 4-4h62a4 4 0 0 1 4 4v84.6A11.27 11.27 0 0 1 80.85 110 13 13 0 0 1 68 97H10a13 13 0 0 0 13 13h58s-13-1-13-13"/><path class="cls-2" d="M28.39 40.79h3.77v6.79h-3.77zM36.17 33.24h17.88v21.89H36.17a4 4 0 0 1-4-4V37.24a4 4 0 0 1 4-4z"/><path class="cls-2" d="M54.05 33.24l23.4-9.81V65.7l-23.4-10.57V33.24zM51.79 55.13L48 61.92l3 8A3 3 0 0 1 48.19 74h-6a3 3 0 0 1-3-2.43l-3.25-16.44zM77.45 51.36a6.8 6.8 0 0 0 0-13.59z"/><circle class="cls-2" cx="85" cy="85" r="25"/><path class="cls-1" d="M92 81h-3v-3a4 4 0 0 0-8 0v3h-3a4 4 0 0 0 0 8h3v3a4 4 0 0 0 8 0v-3h3a4 4 0 0 0 0-8z"/></svg>